<svg xmlns="http://www.w3.org/2000/svg" viewBox="0 0 252.88 242.74"><defs><style>.cls-1{fill:#666;}</style></defs><title>b-greyAsset 2</title><g id="Layer_2" data-name="Layer 2"><g id="Calque_1" data-name="Calque 1"><polygon class="cls-1" points="82.41 25.47 82.41 0 25.47 0 0 0 0 25.47 0 217.27 0 242.75 25.47 242.75 82.41 242.75 82.41 217.27 25.47 217.27 25.47 25.47 82.41 25.47"/><polygon class="cls-1" points="170.46 217.27 170.46 242.75 227.4 242.75 252.88 242.75 252.88 217.27 252.88 25.47 252.88 0 227.4 0 170.46 0 170.46 25.47 227.4 25.47 227.4 217.27 170.46 217.27"/><path class="cls-1" d="M71.55,182.42c17.91,0,20.5-3.67,20.5-25.25V87c0-21.58-2.59-25-20.5-25V57.48H129.6c27.4,0,41.64,14.46,41.64,32.37,0,11.22-6.9,20.93-16.83,26.76C171,121.79,182,135.16,182,150.7c0,20.07-16.4,36.25-46.39,36.25H71.55Zm57-68.4c16.18,0,23.73-10.79,23.73-24.17s-7.55-24.39-23.73-24.39H110.18V114Zm6.9,65C154.2,179,163,166.24,163,150.7,163,135,154.2,122,135.42,122H110.18v31.94c0,21.58,2.59,25,20.5,25Z"/></g></g></svg>