<?xml version="1.0" encoding="utf-8"?>
<!-- Generator: Adobe Illustrator 15.1.0, SVG Export Plug-In . SVG Version: 6.00 Build 0)  -->
<!DOCTYPE svg PUBLIC "-//W3C//DTD SVG 1.1//EN" "http://www.w3.org/Graphics/SVG/1.1/DTD/svg11.dtd">
<svg version="1.1" id="Layer_1" xmlns="http://www.w3.org/2000/svg" xmlns:xlink="http://www.w3.org/1999/xlink" x="0px" y="0px"
	 width="300px" height="105px" viewBox="0 0 300 105" enable-background="new 0 0 300 105" xml:space="preserve">
<g>
	<defs>
		<rect id="SVGID_1_" x="-36" y="-40" width="371" height="186"/>
	</defs>
	<clipPath id="SVGID_2_">
		<use xlink:href="#SVGID_1_"  overflow="visible"/>
	</clipPath>
	<path clip-path="url(#SVGID_2_)" fill="#FFFFFF" d="M297.035,43.814c-0.173-1.395-3.731,1.6-4.204,1.964
		c-2.104,1.62-4.221,3.23-6.432,4.7c-1.028,0.686-2.085,1.387-3.227,1.867c-0.369-3.04-0.962-6.09-2.157-8.92
		c-0.569-1.348-1.274-2.682-2.242-3.789c-1.034-1.184-2.541-1.933-3.999-2.44c-2.763-0.962-5.84-1.319-8.743-0.906
		c-2.766,0.392-5.445,1.776-7.356,3.852c-0.773,0.843-1.546,1.736-1.955,2.805c-0.211,0.552-0.289,1.112-0.446,1.673
		c-0.173,0.623-0.576,1.239-0.821,1.847c-0.342,0.841-0.634,1.705-0.879,2.578c-0.505,1.818-0.827,3.687-1.015,5.564
		c-0.136,1.359-0.12,5-0.223,5.361c-0.104,0.361-2.329,3.479-3.075,4.694c-0.785,1.28-1.514,2.639-2.469,3.808
		c-0.346,0.424-0.773,0.923-1.326,1.062c-0.619,0.156-0.908-0.262-0.943-0.803c-0.065-1.025-0.019-2.064-0.008-3.092
		c0.047-4.869,0-9.727,0.28-14.593c0.156-2.714,0.371-5.401,0.742-8.095c0.36-2.616,1.165-8.176,1.423-9.445
		c0.036-0.18,6.482-0.217,8.056-0.288c0.565-0.024,1.149-0.02,1.711-0.096c1.166-0.155,2.334-0.474,3.476-0.743
		c2.942-0.694,5.827-1.46,8.392-3.102c0.995-0.635,2.129-1.367,2.558-2.534c0.563-1.528-1.255-1.527-2.285-1.569
		c-3.332-0.137-6.631-0.448-9.948-0.794c-0.771-0.081-1.572-0.234-2.348-0.232c-0.897,0.003-1.803,0.101-2.7,0.137
		c-1.728,0.067-3.456,0.102-5.187,0.11c0.524-2.582,1.063-5.164,1.593-7.743c0.43-2.092,0.962-4.227,1.093-6.363
		c0.08-1.313-0.229-2.629-1.091-3.654c-1.338-1.586-3.643-2.091-5.507-1.162c-1.14,0.567-2.068,1.723-2.375,2.405
		c-0.703,1.365-1.686,6.207-2.33,9.359c-0.258,1.263-1.228,6.896-1.298,6.946c-0.105,0.071-5.787-0.407-8.345-0.57
		c-3.41-0.221-9.057-1.631-9.291-1.598c-0.317,0.043-0.637,0.526-0.816,0.747c-0.364,0.448-0.693,0.93-0.974,1.437
		c-0.842,1.528-1.237,3.319-0.993,5.057c0.059,0.419,0.123,1.136,0.507,1.35c0.215,0.119,0.581,0.271,0.816,0.332
		c0.487,0.123,0.975,0.249,1.463,0.367c5.338,1.286,10.882,1.522,16.349,1.81c-0.754,5.875-1.318,11.772-1.648,17.688
		c-0.162,2.928-0.28,5.861-0.297,8.794c-0.014,2.319,0.18,4.582,0.545,6.872c0.109,0.694,0.237,1.387,0.386,2.071
		c0.054,0.251,0.215,0.613,0.083,0.797c-0.165,0.23-0.679,0.371-0.946,0.456c-1.06,0.334-2.25,0.216-3.32,0.008
		c-0.812-0.155-1.757-0.282-2.317-0.954c-0.766-0.918-0.821-2.441-0.845-3.576c-0.067-3.1,0.381-6.243,0.744-9.32
		c0.195-1.647,0.462-3.32,0.4-4.984c-0.09-2.467-1.4-4.756-3.935-5.333c1.268-1.037,1.371-2.789,0.943-4.263
		c-0.343-1.181-1.068-1.916-2.106-2.546c-2.188-1.327-4.915-1.93-7.445-2.086c-2.933-0.182-5.836,0.712-8.368,2.165
		c-2.142,1.229-3.81,2.902-5.205,4.914c-1.071,1.545-1.849,3.115-2.425,4.908c-0.561,1.741-0.971,3.537-1.277,5.34
		c-0.156,0.925-0.281,1.853-0.377,2.785c-0.044,0.433-0.08,0.867-0.111,1.301c-0.016,0.23,0.017,0.545-0.047,0.765
		c-0.053,0.185-0.222,0.385-0.319,0.552c-1.699,2.968-3.365,6.05-5.636,8.625c-0.512,0.582-1.068,1.134-1.69,1.595
		c-0.347,0.256-1.264,0.966-1.722,0.674c-0.283-0.183-0.464-0.838-0.592-1.124c-0.163-0.369-0.304-0.747-0.457-1.119
		c-1.357-3.308-1.904-6.883-2.264-10.423c-0.095-0.941-0.172-1.882-0.234-2.822c-0.015-0.222-0.028-0.438-0.04-0.657
		c-0.018-0.297-0.021-0.324,0.233-0.477c0.363-0.212,0.722-0.432,1.077-0.658c1.42-0.902,2.784-1.896,4.075-2.975
		c5.03-4.188,9.127-9.747,11.412-15.91c2.105-5.674,2.762-12.525,0.15-18.164c-2.874-6.205-11.039-7.75-16.465-3.998
		c-2.06,1.426-3.361,3.576-4.428,5.793c-1.496,3.105-2.411,6.495-3.12,9.856c-1.576,7.461-2.13,15.173-2.021,22.787
		c0.003,0.224,0.007,0.446,0.011,0.668c0.006,0.275,0.065,0.365-0.149,0.489c-0.27,0.156-0.711,0.195-1.013,0.275
		c-0.845,0.225-1.693,0.438-2.542,0.64c-0.399-6.233-3.114-12.596-9.072-15.315c-5.576-2.546-12.622-1.056-16.235,4.027
		c-0.324,0.457-0.563,0.892-0.772,1.407c-0.191,0.472-0.317,0.923-0.596,1.346c-0.923,1.389-1.617,2.948-2.139,4.53
		c-1.028,3.113-1.434,6.388-1.507,9.657c-0.015,0.674,0.106,1.467-0.006,2.125c-0.075,0.434-0.751,0.841-1.096,1.147
		c-1.059,0.946-2.119,1.894-3.192,2.824c-2.021,1.759-4.203,3.676-6.591,4.923c-2.422,1.263-5.537,1.598-7.643-0.466
		c-1.98-1.94-2.813-4.746-3.025-7.444c-0.241-3.088,0.204-6.252,1.232-9.169c0.699-1.984,1.68-4.237,3.329-5.615
		c0.877-0.729,1.896-1.085,3.024-1.187c1.179-0.107,2.39-0.157,2.718,1.231c0.182,0.771,0.24,1.609,0.194,2.4
		c-0.018,0.299-0.144,0.678-0.083,0.962c0.072,0.34,2.273,3.429,3.628,4.009c1.439,0.618,2.98,0.041,4.103-0.938
		c0.494-0.432,0.922-0.896,1.057-1.552c0.176-0.844,0.27-1.716,0.305-2.578c0.131-3.17-0.708-6.484-2.722-8.978
		c-4.026-4.985-11.974-4.397-16.889-1.131c-4.304,2.858-6.723,8.286-7.932,13.143c-0.046,0.183-0.111,0.409-0.149,0.624
		c-0.059,0.336-2.894,0.655-3.706,0.783c0.053-4.149-0.808-8.467-3.32-11.854c-2.444-3.298-6.241-5.319-10.341-5.456
		c-4.092-0.139-8.476,1.617-10.967,4.964c-0.271,0.365-0.559,0.738-0.773,1.141c-0.254,0.476-0.38,1.032-0.64,1.492
		c-0.531,0.939-1.188,1.787-1.676,2.76c-0.982,1.947-1.656,4.052-2.123,6.182c-0.921,4.208-1.245,8.782-0.659,13.059
		c0.554,4.044,2.106,8.422,5.539,10.901c5.23,3.778,12.833,2.717,17.465-1.555c2.954-2.723,4.647-6.542,5.707-10.354
		c0.329-1.186,0.616-2.387,0.869-3.593c0.089-0.427,0.168-0.856,0.254-1.285c0.079-0.388,0.209-1.77,0.315-1.896
		c0.129-0.151,2.613-1.201,3.444-1.699c-0.739,6.499,0.287,14.18,5.562,18.628c2.699,2.274,6.207,3.412,9.727,3.149
		c3.316-0.248,6.381-1.834,8.842-4.017c0.988-0.878,1.87-1.851,2.723-2.854c0.534-0.626,3.35-4.443,3.968-5.426
		c0.589,3.462,1.96,7.098,4.48,9.617c2.297,2.296,5.454,3.676,8.724,3.587c2.826-0.077,5.57-0.613,7.997-2.159
		c2.924-1.859,4.937-4.761,6.195-7.954c0.75-1.901,1.246-3.897,1.622-5.905c0.19-1.024,0.551-4.155,0.684-4.67
		c0.042-0.168,0.107-0.259,0.189-0.377c0.109-0.154,2.75-1.346,3.874-2.039c0.207,3.104,0.552,6.2,1.169,9.251
		c0.511,2.529,1.173,5.07,2.4,7.354c1.245,2.315,3.024,4.525,5.523,5.526c2.732,1.097,5.836,0.392,8.179-1.285
		c2.635-1.888,4.356-4.77,5.674-7.673c1.347,3.989,4.108,7.279,8.109,8.757c3.044,1.126,6.744,1.291,9.808,0.165
		c2.167-0.797,4.024-2.226,5.452-4.029c1.859,1.78,4.202,2.525,6.729,2.625c2.56,0.104,5.23-0.296,7.406-1.728
		c0.722,1.319,1.533,2.438,2.872,3.187c1.423,0.794,3.014,0.935,4.537,0.308c2.891-1.189,4.541-4.315,5.764-7.019
		c0.583-1.287,0.958-2.644,1.373-3.99c1.168,4.973,4.121,9.751,9.286,11.196c2.235,0.624,4.655,0.623,6.916,0.142
		c1.799-0.385,3.323-1.135,4.867-2.092c4.231-2.623,6.223-7.72,7.327-12.35c0.211-0.882,0.645-3.967,0.833-4.094
		c0.402-0.273,0.65-0.455,0.911-0.616c1.946-1.203,3.808-2.615,5.428-4.237c1.526-1.528,2.977-3.196,4.246-4.947
		c0.785-1.083,1.534-2.229,2.138-3.422C296.449,45.915,297.145,44.768,297.035,43.814C296.96,43.208,297.104,44.415,297.035,43.814
		 M188.099,41.15c0.302-4.125,0.817-8.243,1.715-12.28c0.661-2.972,1.423-6.219,3.16-8.767c0.865-1.269,2.476-1.654,3.507-0.667
		c0.857,0.819,0.965,2.506,1.059,3.594c0.275,3.217-0.389,6.313-1.692,9.234c-1.812,4.058-4.487,7.681-7.848,10.585
		C188.031,42.283,188.061,41.717,188.099,41.15C188.349,37.743,188.061,41.715,188.099,41.15 M101.49,60.227
		c-0.756,3.302-1.943,8.118-5.631,9.271c-1.376,0.43-3.335,0.64-4.398-0.542c-1.277-1.42-1.607-3.723-1.757-5.552
		c-0.204-2.464-0.018-5.01,0.37-7.448c3.124,2.817,7.355,3.99,11.487,3.954C101.537,60.014,101.514,60.12,101.49,60.227
		 M94.357,47.919c-0.038-0.14-0.143-0.357-0.134-0.503c0.012-0.239,0.14-0.28,0.36-0.425c0.337-0.223,0.694-0.413,1.064-0.573
		c0.808-0.35,1.671-0.55,2.544-0.647c0.193-0.022,0.399-0.013,0.577-0.091c0.124-0.053,0.235-0.247,0.359-0.276
		c0.246-0.059,0.669,0.297,0.874,0.463c0.559,0.448,0.999,0.984,1.336,1.618c0.993,1.859,1.182,4.062,1.116,6.132
		C102.001,53.553,95.67,52.766,94.357,47.919 M163.718,66.814c-0.877,1.566-2.153,2.632-3.943,2.933
		c-0.863,0.145-1.899,0.17-2.72-0.188c-0.74-0.323-1.253-1.078-1.635-1.758c-0.964-1.719-1.355-3.784-1.51-5.73
		c-0.162-2.056-0.125-4.148,0.079-6.198c3.295,2.809,7.47,4.113,11.766,4.035C165.372,62.249,164.906,64.729,163.718,66.814
		C163.154,67.821,164.719,65.06,163.718,66.814 M164.25,52.694c-1.609-0.508-3.051-1.335-4.244-2.539
		c-0.83-0.838-1.401-1.936-1.896-2.996c-0.101-0.217-0.133-0.191,0.013-0.351c0.201-0.222,0.666-0.365,0.937-0.477
		c0.752-0.312,1.556-0.483,2.363-0.57c0.169-0.018,0.339-0.012,0.496-0.079c0.116-0.052,0.203-0.204,0.318-0.24
		c0.263-0.091,0.605,0.176,0.855,0.347c0.625,0.423,1.151,0.986,1.559,1.622c1.081,1.679,1.475,3.746,1.594,5.711
		C165.572,53.02,164.906,52.871,164.25,52.694C163.307,52.396,164.876,52.862,164.25,52.694 M222.671,47.26
		c-1.538,1.94-1.251,4.92-1.334,7.272c-0.088,2.474-0.241,4.957-0.667,7.4c-0.375,2.141-0.909,4.674-2.372,6.369
		c-1.432,1.663-4.3,1.62-6.018,0.377c-1.839-1.328-2.252-4.138-2.405-6.235c-0.197-2.706,0.098-5.46,0.657-8.108
		c0.305-1.444,0.655-2.952,1.3-4.288c0.896-1.852,2.446-3.366,4.412-4.026c1.115-0.373,2.303-0.42,3.441-0.119
		c0.673,0.179,1.341,0.449,1.899,0.867c0.458,0.347,0.922,0.174,1.463,0.094C222.92,46.991,222.786,47.116,222.671,47.26
		C222.569,47.388,222.784,47.118,222.671,47.26 M271.789,67.193c-0.806,1.404-2.161,2.328-3.757,2.537
		c-1.251,0.163-2.594,0.144-3.49-0.865c-1.061-1.195-1.537-2.832-1.84-4.372c-0.374-1.892-0.416-3.82-0.386-5.741
		c3.146,2.738,7.055,4.186,11.24,4.036C273.155,64.309,272.656,65.869,271.789,67.193C271.419,67.839,272.527,66.065,271.789,67.193
		 M272.201,54.176c-1.846-0.625-3.61-1.588-4.902-3.074c-0.375-0.431-0.722-0.9-1.022-1.386c-0.348-0.565-0.652-1.189-0.861-1.818
		c-0.092-0.275-0.2-0.497-0.064-0.743c0.156-0.286,0.542-0.559,0.786-0.749c1.608-1.271,3.792-1.572,5.679-0.771
		c0.5,0.214,0.66,0.488,0.881,0.995c0.357,0.816,0.581,1.692,0.785,2.558c0.414,1.761,0.755,3.579,0.912,5.384
		C273.651,54.522,272.913,54.394,272.201,54.176C271.975,54.099,272.759,54.348,272.201,54.176 M80.4,81.523
		c-0.7-0.085-1.407-0.128-2.11-0.168c-0.226-0.012-0.45-0.023-0.674-0.031c-0.072-0.004-0.368-0.043-0.427-0.234
		c-0.136-0.444-0.217-5.437-0.198-7.389c0.025-2.692,0.07-5.388,0.156-8.08c0.195-6.049,2.181-12.091,0.864-18.149
		c-0.456-2.095-1.122-4.471-2.559-6.113c-2.485-2.843-6.662-2.144-9.614-0.535c-3.236,1.764-5.55,4.662-7.613,7.648
		c-1.923,2.783-3.677,5.865-5.325,8.82c-0.054,0.095-0.286,0.685-0.383,0.642c-0.059-0.039,0.003-0.56,0.007-0.783
		c0.014-0.697,0.034-1.394,0.061-2.089c0.049-1.315,0.118-2.63,0.198-3.943c0.063-1.057,0.135-2.11,0.202-3.166
		c0.247-3.815,0.496-7.611,1.24-11.369c0.569-2.862,1.356-5.682,2.372-8.416c4.347,2.185,9.088,3.316,13.917,3.742
		c4.128,0.363,8.243,0.394,12.16-1.177c4.319-1.732,8.004-5.11,9.003-9.806c0.981-4.623-0.541-9.63-3.405-13.312
		c-2.809-3.608-7.534-5.632-11.992-6.102c-4.819-0.51-9.657,0.812-13.687,3.468c-1.882,1.242-3.603,2.716-5.157,4.349
		c-0.761,0.801-1.49,1.635-2.174,2.502c-0.361,0.461-0.708,0.93-1.044,1.406c-0.159,0.226-0.306,0.457-0.469,0.68
		c-0.383,0.521-0.619,0.345-0.67,0.313c-3.865-2.323-8.387-4.335-13-3.55c-1.842,0.313-4.392,0.971-5.118,2.899
		c-0.641,1.704-0.553,3.778,1.024,4.943c0.862,0.638,1.91,0.864,2.927,1.119c0.407,0.102,0.944,0.345,1.357,0.369
		c0.369,0.021,0.845-0.282,1.216-0.429c2.265-0.901,7.253,2.46,7.521,2.812c0.138,0.181,0.142,0.112,0.074,0.353
		c-0.095,0.338-0.275,0.668-0.404,0.993c-0.459,1.161-0.885,2.337-1.274,3.522c-0.788,2.403-1.429,4.854-1.929,7.333
		c-0.737,3.648-1.084,7.33-1.325,11.037c-0.068,1.046-0.137,2.09-0.203,3.136c-0.082,1.28-0.132,5.211-0.404,5.606
		c-0.202,0.297-0.536,0.548-0.777,0.824c-1.121,1.283-2.14,2.655-3.24,3.956c-1.574,1.859-3.264,3.582-5.17,5.104
		c-3.546,2.831-7.748,4.769-12.313,5.032c-1.748,0.102-3.653,0.054-5.367-0.336c-2.082-0.474-3.746-1.526-4.653-3.513
		c-0.996-2.187-1.149-4.714-1.111-7.082c0.042-2.566,0.328-5.123,0.85-7.637c0.993-4.771,2.77-9.548,5.419-13.653
		c2.466-3.821,6.533-7.523,11.428-6.842c0.92,0.128,1.819,0.425,2.481,1.105c0.77,0.794,1.18,1.904,1.385,2.974
		c0.391,2.052-0.102,4.14-0.751,6.081c-0.378,1.135-0.83,2.243-1.305,3.34c-0.407,0.94-0.841,1.898-1.461,2.721
		c-1.125-1.062-2.269-2.176-3.925-2.13c-1.232,0.035-2.492,0.607-3.121,1.654c-0.891,1.48-0.707,3.073-0.55,3.741
		c0.34,1.451,1.039,2.839,2.032,3.95c1.567,1.754,3.83,2.704,6.173,2.439c3.072-0.345,5.542-2.603,7.17-5.102
		c1.658-2.546,2.821-5.555,3.725-8.447c0.931-2.981,1.4-6.115,0.947-9.229c-0.452-3.098-1.765-6.128-3.985-8.367
		c-2.291-2.309-5.373-3.492-8.577-3.747c-6.421-0.511-12.432,2.707-16.573,7.466c-4.125,4.746-6.796,10.854-8.471,16.872
		c-0.904,3.245-1.492,6.578-1.729,9.939c-0.229,3.236-0.197,6.531,0.506,9.711c0.679,3.072,2.016,6.064,4.247,8.324
		c2.289,2.32,5.313,3.695,8.482,4.311c11.062,2.146,22.081-5.185,27.053-14.806c0.435-0.844,0.855-1.699,1.219-2.577
		c0.053,2.544,0.227,5.085,0.582,7.607c0.105,0.756,0.201,1.518,0.339,2.272c0.129,0.723,0.166,1.722,0.506,2.373
		c1.101,2.117,3.018,3.726,5.538,3.457c3.452-0.366,5.175-3.909,6.475-6.704c1.301-2.795,2.473-5.617,3.985-8.307
		c1.556-2.768,3.137-5.523,4.973-8.114c0.605-0.857,1.224-1.715,1.917-2.504c0.11-0.128,1.14-1.363,1.358-1.25
		c0.166,0.089,0.245,2.697,0.226,3.391c-0.11,4.033-1.065,7.989-1.26,12.017c-0.209,4.321-0.265,8.712-0.153,13.034
		c0.028,1.118,0.078,2.234,0.15,3.35c-6.511-0.014-13.271,0.718-19.279,3.412c-0.759,0.342-1.515,0.72-2.198,1.201
		c-0.324,0.229-0.821,0.555-0.952,0.962c-0.312,0.97,1.961,0.839,2.472,0.841c1.255,0.008,2.51-0.057,3.765-0.093
		c3.765-0.112,7.507,0.005,11.253,0.406c1.003,0.108,2.001,0.238,3,0.383c0.448,0.064,0.898,0.134,1.346,0.206
		c0.446,0.073,0.979,0.082,1.404,0.235c0.283,0.104,0.237,0.228,0.315,0.551c0.049,0.205,0.1,0.413,0.153,0.618
		c0.134,0.524,0.283,1.044,0.445,1.56c0.277,0.883,0.594,1.75,0.97,2.596c1.366,3.076,3.42,5.585,6.182,7.49
		c2.86,1.975,6.248,3.428,9.785,3.105c5.963-0.543,11.223-6.483,9.286-12.449C93.423,83.663,83.274,81.871,80.4,81.523
		 M61.704,18.187c2.161-2.908,4.969-5.752,8.426-7.036c3.13-1.163,6.734-0.978,9.612,0.783c1.133,0.691,2.136,1.658,2.704,2.875
		c0.649,1.395,0.905,3.313,0.298,4.778c-0.629,1.521-2.321,2.415-3.786,2.93c-1.862,0.653-3.753,0.655-5.699,0.561
		c-4.431-0.222-8.821-1.007-12.803-3.04C60.847,19.404,61.262,18.785,61.704,18.187C63.271,16.078,61.253,18.796,61.704,18.187
		 M87.314,94.887c-0.949,1.549-3.318,0.326-4.412-0.346c-0.754-0.464-1.536-1-2.166-1.627c-0.693-0.69-1.196-1.624-1.594-2.511
		c1.657,0.28,3.288,0.731,4.843,1.371c0.715,0.293,1.495,0.578,2.137,1.019C86.732,93.213,87.674,94.049,87.314,94.887
		C87.142,95.168,87.433,94.61,87.314,94.887"/>
	<path clip-path="url(#SVGID_2_)" fill="#FFFFFF" d="M188.953,94.725c0,0.199-0.013,0.412-0.037,0.64
		c-0.026,0.228-0.062,0.452-0.112,0.672c-0.051,0.218-0.114,0.426-0.194,0.62c-0.08,0.195-0.168,0.366-0.268,0.515l1.509,1.679
		h-1.347l-0.761-0.858c-0.315,0.356-0.695,0.614-1.141,0.776c-0.444,0.161-0.903,0.241-1.377,0.241
		c-0.383,0-0.743-0.057-1.079-0.173c-0.337-0.115-0.629-0.282-0.879-0.503c-0.249-0.219-0.446-0.485-0.593-0.8
		c-0.145-0.315-0.218-0.672-0.218-1.069c0-0.464,0.111-0.886,0.331-1.268c0.22-0.38,0.525-0.692,0.916-0.93
		c0.158-0.109,0.303-0.201,0.437-0.273c-0.142-0.158-0.276-0.312-0.405-0.461c-0.129-0.147-0.241-0.304-0.337-0.466
		c-0.095-0.161-0.169-0.334-0.224-0.514c-0.054-0.185-0.081-0.391-0.081-0.622c0-0.306,0.056-0.585,0.168-0.833
		c0.112-0.247,0.268-0.463,0.468-0.645c0.198-0.183,0.434-0.322,0.705-0.422c0.27-0.101,0.566-0.15,0.891-0.15
		c0.325,0,0.626,0.049,0.904,0.145c0.279,0.095,0.518,0.231,0.718,0.414c0.199,0.184,0.354,0.403,0.468,0.658
		c0.112,0.258,0.168,0.548,0.168,0.87c0,0.423-0.099,0.8-0.293,1.131c-0.194,0.33-0.476,0.604-0.841,0.818l-0.637,0.397l1.833,2.062
		c0.075-0.132,0.132-0.283,0.175-0.453c0.041-0.168,0.072-0.348,0.092-0.54c0.021-0.189,0.034-0.386,0.037-0.584
		c0.005-0.197,0.007-0.384,0.007-0.559v-0.423h1.907v0.907H188.953z M184.789,94.7l-0.511,0.322
		c-0.241,0.167-0.429,0.372-0.561,0.615c-0.134,0.244-0.2,0.511-0.2,0.801c0,0.232,0.042,0.446,0.124,0.641
		c0.083,0.192,0.2,0.362,0.35,0.502c0.149,0.142,0.324,0.25,0.523,0.331c0.199,0.078,0.416,0.118,0.648,0.118
		c0.39,0,0.746-0.056,1.065-0.163c0.321-0.106,0.6-0.317,0.842-0.633L184.789,94.7z M186.548,91.98c0-0.372-0.108-0.666-0.326-0.883
		c-0.215-0.215-0.523-0.322-0.923-0.322c-0.349,0-0.631,0.105-0.847,0.317c-0.216,0.21-0.324,0.486-0.324,0.827
		c0,0.171,0.032,0.336,0.092,0.489c0.063,0.153,0.145,0.298,0.245,0.434c0.1,0.138,0.21,0.266,0.332,0.386
		c0.119,0.119,0.233,0.242,0.341,0.365c0.192-0.098,0.373-0.197,0.542-0.297c0.17-0.1,0.32-0.21,0.45-0.335
		c0.129-0.125,0.23-0.265,0.306-0.422C186.509,92.382,186.548,92.195,186.548,91.98"/>
	<polygon clip-path="url(#SVGID_2_)" fill="#FFFFFF" points="287.882,36.416 288.242,36.416 288.7,40.19 288.344,40.19 
		287.962,37.063 286.635,39.78 286.274,39.78 284.941,37.063 284.56,40.19 284.205,40.19 284.664,36.416 285.025,36.416 
		286.455,39.359 	"/>
	<path clip-path="url(#SVGID_2_)" fill="#FFFFFF" d="M292.498,39.681c-0.336,0.351-0.812,0.565-1.343,0.565
		c-1.066,0-1.823-0.866-1.823-1.935c0-1.074,0.757-1.938,1.823-1.938c0.531,0,1.001,0.212,1.338,0.563l-0.251,0.253
		c-0.279-0.279-0.655-0.454-1.087-0.454c-0.869,0-1.463,0.705-1.463,1.576c0,0.872,0.594,1.572,1.463,1.572
		c0.432,0,0.813-0.176,1.092-0.459L292.498,39.681z"/>
	<path clip-path="url(#SVGID_2_)" fill="#FFFFFF" d="M113.771,97.5c-0.763,0.916-1.928,1.492-3.267,1.492
		c-2.439,0-4.367-1.98-4.367-4.429c0-2.459,1.927-4.441,4.367-4.441c1.326,0,2.478,0.564,3.241,1.469l-0.875,0.728
		c-0.588-0.641-1.415-1.067-2.366-1.067c-1.802,0-3.203,1.48-3.203,3.313c0,1.834,1.401,3.3,3.203,3.3
		c0.964,0,1.815-0.426,2.39-1.103L113.771,97.5z"/>
	<path clip-path="url(#SVGID_2_)" fill="#FFFFFF" d="M116.163,98.868h-1.139v-9.047h1.139v4.064
		c0.351-0.702,1.289-1.003,1.927-1.003c1.463,0,2.377,0.954,2.364,2.598v3.388h-1.138v-3.313c0-0.967-0.576-1.557-1.376-1.557
		c-0.801,0-1.777,0.453-1.777,1.706V98.868z"/>
	<path clip-path="url(#SVGID_2_)" fill="#FFFFFF" d="M121.896,95.919c0-1.857,1.389-3.036,3.053-3.036
		c1.664,0,3.066,1.179,3.066,3.036c0,1.856-1.402,3.074-3.066,3.074C123.285,98.993,121.896,97.775,121.896,95.919 M126.876,95.919
		c0-1.18-0.875-1.92-1.927-1.92c-1.051,0-1.925,0.74-1.925,1.92c0,1.192,0.875,1.97,1.925,1.97
		C126.001,97.889,126.876,97.111,126.876,95.919"/>
	<path clip-path="url(#SVGID_2_)" fill="#FFFFFF" d="M132.234,92.883c0.889,0,1.701,0.339,2.252,0.939l-0.863,0.729
		c-0.35-0.352-0.852-0.553-1.389-0.553c-1.05,0-1.964,0.74-1.964,1.92c0,1.179,0.914,1.97,1.964,1.97
		c0.538,0,1.039-0.213,1.389-0.576l0.875,0.728c-0.55,0.602-1.364,0.953-2.265,0.953c-1.663,0-3.09-1.218-3.09-3.074
		C129.144,94.062,130.571,92.883,132.234,92.883"/>
	<path clip-path="url(#SVGID_2_)" fill="#FFFFFF" d="M135.402,95.919c0-1.857,1.39-3.036,3.053-3.036
		c1.665,0,3.066,1.179,3.066,3.036c0,1.856-1.401,3.074-3.066,3.074C136.792,98.993,135.402,97.775,135.402,95.919 M140.381,95.919
		c0-1.18-0.875-1.92-1.926-1.92c-1.051,0-1.926,0.74-1.926,1.92c0,1.192,0.875,1.97,1.926,1.97
		C139.507,97.889,140.381,97.111,140.381,95.919"/>
	<rect x="143.037" y="89.821" clip-path="url(#SVGID_2_)" fill="#FFFFFF" width="1.139" height="9.047"/>
	<path clip-path="url(#SVGID_2_)" fill="#FFFFFF" d="M150.708,97.964c-0.388,0.665-1.239,1.029-2.052,1.029
		c-1.602,0-2.966-1.205-2.966-3.061c0-1.871,1.364-3.05,2.966-3.05c0.813,0,1.664,0.339,2.052,1.003V93.01h1.126v5.858h-1.126
		V97.964z M148.757,93.999c-1.052,0-1.902,0.755-1.902,1.92c0,1.155,0.85,1.958,1.902,1.958c1.038,0,1.939-0.715,1.939-1.958
		C150.696,94.665,149.694,93.999,148.757,93.999"/>
	<polygon clip-path="url(#SVGID_2_)" fill="#FFFFFF" points="156.555,93.01 156.555,93.974 155.315,93.974 155.315,98.868 
		154.177,98.868 154.177,93.974 153.126,93.974 153.126,93.01 154.177,93.01 154.177,90.801 155.315,90.801 155.315,93.01 	"/>
	<path clip-path="url(#SVGID_2_)" fill="#FFFFFF" d="M163.25,96.371h-4.744c0.137,0.978,0.901,1.593,1.89,1.593
		c0.701,0,1.352-0.325,1.677-0.903c0.3,0.126,0.663,0.251,0.975,0.377c-0.5,1.028-1.564,1.555-2.689,1.555
		c-1.665,0-2.991-1.217-2.991-3.073c0-1.857,1.327-3.036,2.991-3.036c1.664,0,2.903,1.179,2.903,3.036
		C163.262,96.057,163.262,96.245,163.25,96.371 M162.136,95.48c-0.138-0.979-0.839-1.569-1.777-1.569
		c-0.964,0-1.715,0.59-1.853,1.569H162.136z"/>
	<path clip-path="url(#SVGID_2_)" fill="#FFFFFF" d="M165.855,98.868h-1.139v-5.86h1.139v1.318c0.3-1.028,0.863-1.443,1.626-1.443
		c0.413,0,0.851,0.113,1.014,0.226l-0.175,1.066c-0.314-0.149-0.626-0.201-0.864-0.201c-1.125,0-1.601,1.206-1.601,2.761V98.868z"/>
	<path clip-path="url(#SVGID_2_)" fill="#FFFFFF" d="M170.223,90.11c0.438,0,0.789,0.313,0.789,0.74s-0.351,0.74-0.789,0.74
		c-0.426,0-0.789-0.313-0.789-0.74S169.797,90.11,170.223,90.11 M170.787,93.008h-1.127v5.86h1.127V93.008z"/>
	<path clip-path="url(#SVGID_2_)" fill="#FFFFFF" d="M178.182,96.371h-4.743c0.138,0.978,0.9,1.593,1.89,1.593
		c0.7,0,1.351-0.325,1.677-0.903c0.298,0.126,0.663,0.251,0.975,0.377c-0.5,1.028-1.564,1.555-2.69,1.555
		c-1.664,0-2.99-1.217-2.99-3.073c0-1.857,1.326-3.036,2.99-3.036c1.666,0,2.904,1.179,2.904,3.036
		C178.195,96.057,178.195,96.245,178.182,96.371 M177.069,95.48c-0.139-0.979-0.838-1.569-1.778-1.569
		c-0.963,0-1.713,0.59-1.852,1.569H177.069z"/>
	<path clip-path="url(#SVGID_2_)" fill="#FFFFFF" d="M197.082,92.883c0.89,0,1.702,0.339,2.252,0.939l-0.862,0.729
		c-0.351-0.352-0.852-0.553-1.39-0.553c-1.05,0-1.963,0.74-1.963,1.92c0,1.179,0.913,1.97,1.963,1.97c0.539,0,1.04-0.213,1.39-0.576
		l0.875,0.728c-0.55,0.602-1.364,0.953-2.265,0.953c-1.664,0-3.089-1.218-3.089-3.074C193.993,94.062,195.418,92.883,197.082,92.883
		"/>
	<path clip-path="url(#SVGID_2_)" fill="#FFFFFF" d="M201.927,98.868h-1.139v-5.86h1.139v1.318c0.3-1.028,0.863-1.443,1.626-1.443
		c0.412,0,0.851,0.113,1.014,0.226l-0.176,1.066c-0.313-0.149-0.625-0.201-0.863-0.201c-1.127,0-1.602,1.206-1.602,2.761V98.868z"/>
	<path clip-path="url(#SVGID_2_)" fill="#FFFFFF" d="M211.076,96.371h-4.743c0.138,0.978,0.901,1.593,1.889,1.593
		c0.702,0,1.352-0.325,1.677-0.903c0.3,0.126,0.663,0.251,0.976,0.377c-0.5,1.028-1.563,1.555-2.689,1.555
		c-1.665,0-2.991-1.217-2.991-3.073c0-1.857,1.327-3.036,2.991-3.036c1.664,0,2.903,1.179,2.903,3.036
		C211.088,96.057,211.088,96.245,211.076,96.371 M206.234,89.984h1.363l1.214,1.933h-1.089L206.234,89.984z M209.962,95.48
		c-0.138-0.979-0.839-1.569-1.777-1.569c-0.964,0-1.715,0.59-1.853,1.569H209.962z"/>
	<path clip-path="url(#SVGID_2_)" fill="#FFFFFF" d="M217.71,95.705v3.163h-1.139v-3.325c0-0.966-0.501-1.544-1.264-1.544
		c-0.813,0-1.627,0.477-1.627,1.706v3.163h-1.139V93.01h1.139v0.876c0.313-0.65,1.139-0.94,1.614-0.978
		c0.225-0.014,0.438,0,0.638,0.037c0.738,0.114,1.252,0.502,1.527,1.142c0.538-1.041,1.452-1.204,2.028-1.204
		c1.462,0,2.252,0.954,2.252,2.598v3.388h-1.14v-3.313c0-0.967-0.5-1.557-1.339-1.557C218.298,93.987,217.71,94.727,217.71,95.705"
		/>
	<path clip-path="url(#SVGID_2_)" fill="#FFFFFF" d="M229.063,96.371h-4.742c0.138,0.978,0.9,1.593,1.889,1.593
		c0.702,0,1.352-0.325,1.677-0.903c0.3,0.126,0.663,0.251,0.975,0.377c-0.499,1.028-1.564,1.555-2.689,1.555
		c-1.665,0-2.99-1.217-2.99-3.073c0-1.857,1.326-3.036,2.99-3.036c1.664,0,2.903,1.179,2.903,3.036
		C229.075,96.057,229.075,96.245,229.063,96.371 M227.948,95.48c-0.136-0.979-0.837-1.569-1.776-1.569
		c-0.963,0-1.714,0.59-1.852,1.569H227.948z"/>
	<path clip-path="url(#SVGID_2_)" fill="#FFFFFF" d="M236.348,100.712c1.265,0,2.078-0.715,2.078-2.66
		c0-0.05-0.013-0.088-0.013-0.138c-0.35,0.69-1.239,1.079-2.053,1.079c-1.601,0-2.965-1.18-2.965-3.037
		c0-1.869,1.364-3.073,2.965-3.073c0.814,0,1.664,0.363,2.053,1.041V93.01h1.125v4.966c0,2.761-1.264,3.814-3.19,3.814
		c-1.077,0-2.076-0.552-2.64-1.579c0.149-0.063,0.801-0.428,0.95-0.503C235.01,100.36,235.697,100.712,236.348,100.712
		 M236.46,93.999c-1.05,0-1.902,0.804-1.902,1.945c0,1.192,0.852,1.933,1.902,1.933c0.938,0,1.94-0.69,1.94-1.933
		C238.4,94.689,237.499,93.999,236.46,93.999"/>
	<rect x="241.43" y="89.821" clip-path="url(#SVGID_2_)" fill="#FFFFFF" width="1.14" height="9.047"/>
	<path clip-path="url(#SVGID_2_)" fill="#FFFFFF" d="M249.103,97.964c-0.39,0.665-1.24,1.029-2.054,1.029
		c-1.601,0-2.965-1.205-2.965-3.061c0-1.871,1.364-3.05,2.965-3.05c0.814,0,1.664,0.339,2.054,1.003V93.01h1.125v5.858h-1.125
		V97.964z M247.149,93.999c-1.05,0-1.901,0.755-1.901,1.92c0,1.155,0.851,1.958,1.901,1.958c1.04,0,1.94-0.715,1.94-1.958
		C249.089,94.665,248.088,93.999,247.149,93.999"/>
	<path clip-path="url(#SVGID_2_)" fill="#FFFFFF" d="M254.834,92.883c0.89,0,1.702,0.339,2.253,0.939l-0.864,0.729
		c-0.349-0.352-0.851-0.553-1.389-0.553c-1.051,0-1.964,0.74-1.964,1.92c0,1.179,0.913,1.97,1.964,1.97
		c0.539,0,1.04-0.213,1.389-0.576l0.876,0.728c-0.55,0.602-1.364,0.953-2.265,0.953c-1.664,0-3.09-1.218-3.09-3.074
		C251.744,94.062,253.171,92.883,254.834,92.883"/>
	<path clip-path="url(#SVGID_2_)" fill="#FFFFFF" d="M263.896,95.919c0,0.138,0,0.326-0.013,0.451h-4.741
		c0.137,0.979,0.901,1.594,1.889,1.594c0.702,0,1.352-0.325,1.677-0.903c0.3,0.126,0.664,0.252,0.977,0.377
		c-0.501,1.028-1.564,1.556-2.691,1.556c-1.664,0-2.99-1.218-2.99-3.074c0-1.857,1.327-3.036,2.99-3.036
		C262.657,92.883,263.896,94.062,263.896,95.919 M259.142,95.48h3.629c-0.137-0.979-0.839-1.569-1.777-1.569
		C260.03,93.911,259.279,94.501,259.142,95.48 M262.732,89.984h-1.363l-1.213,1.933h1.088L262.732,89.984z"/>
	<path clip-path="url(#SVGID_2_)" fill="#FFFFFF" d="M270.844,96.371h-4.743c0.138,0.978,0.901,1.593,1.89,1.593
		c0.702,0,1.352-0.325,1.677-0.903c0.3,0.126,0.663,0.251,0.975,0.377c-0.5,1.028-1.564,1.555-2.69,1.555
		c-1.664,0-2.99-1.217-2.99-3.073c0-1.857,1.326-3.036,2.99-3.036c1.665,0,2.903,1.179,2.903,3.036
		C270.856,96.057,270.856,96.245,270.844,96.371 M269.729,95.48c-0.137-0.979-0.838-1.569-1.777-1.569
		c-0.963,0-1.714,0.59-1.852,1.569H269.729z"/>
</g>
</svg>
