<?xml version="1.0" encoding="utf-8"?>
<!-- Generator: Adobe Illustrator 19.0.0, SVG Export Plug-In . SVG Version: 6.00 Build 0)  -->
<svg version="1.1" id="Calque_1" xmlns="http://www.w3.org/2000/svg" xmlns:xlink="http://www.w3.org/1999/xlink" x="0px" y="0px"
	 viewBox="0 0 491.4 171.4" style="enable-background:new 0 0 491.4 171.4;" xml:space="preserve">
<style type="text/css">
	.st0{fill:#682F24;}
</style>
<g>
	<g>
		<g>
			<g>
				<g>
					<path class="st0" d="M181.5,154.3c1.6,0.3,2.5,2,2.5,3.4c0,2.2-1.5,4.1-4.1,4.1h-5.8v-14.1h5.3c2.4,0,3.8,1.4,3.8,3.6
						C183.3,152.5,182.9,153.8,181.5,154.3z M179.5,153.5c1.2,0,1.9-1,1.9-2.2c0-1.2-0.8-1.9-2.1-1.9h-3.2v4.1H179.5z M176.1,155.2
						v4.8h3.8c1.4,0,2.3-1.1,2.3-2.3c0-1.1-0.9-2.5-2.3-2.5H176.1z"/>
					<path class="st0" d="M194.4,160.3c-0.6,1.1-2,1.7-3.4,1.7c-2.6,0-4.9-2-4.9-5c0-3.1,2.2-5,4.9-5c1.3,0,2.7,0.6,3.4,1.6v-1.4
						h1.8v9.6h-1.8V160.3z M191.2,153.8c-1.7,0-3.1,1.2-3.1,3.1c0,1.9,1.4,3.2,3.1,3.2c1.7,0,3.2-1.2,3.2-3.2
						C194.4,154.9,192.8,153.8,191.2,153.8z"/>
					<path class="st0" d="M201.4,161.8h-1.9v-9.6h1.9v2.2c0.5-1.7,1.4-2.4,2.7-2.4c0.7,0,1.4,0.2,1.7,0.4l-0.3,1.7
						c-0.5-0.2-1-0.3-1.4-0.3c-1.8,0-2.6,2-2.6,4.5V161.8z"/>
					<path class="st0" d="M220.4,160.3c-0.6,1.1-2,1.7-3.4,1.7c-2.6,0-4.9-2-4.9-5c0-3.1,2.2-5,4.9-5c1.3,0,2.7,0.6,3.4,1.6v-1.4
						h1.8v9.6h-1.8V160.3z M217.2,153.8c-1.7,0-3.1,1.2-3.1,3.1c0,1.9,1.4,3.2,3.1,3.2c1.7,0,3.2-1.2,3.2-3.2
						C220.4,154.9,218.7,153.8,217.2,153.8z M214.7,147.3h2.2l2,3.2h-1.8L214.7,147.3z"/>
					<path class="st0" d="M235.4,152c1.5,0,2.8,0.6,3.7,1.5l-1.4,1.2c-0.6-0.6-1.4-0.9-2.3-0.9c-1.7,0-3.2,1.2-3.2,3.1
						c0,1.9,1.5,3.2,3.2,3.2c0.9,0,1.7-0.3,2.3-0.9l1.4,1.2c-0.9,1-2.2,1.6-3.7,1.6c-2.7,0-5.1-2-5.1-5
						C230.4,154,232.7,152,235.4,152z"/>
					<path class="st0" d="M243.5,161.8h-1.9V147h1.9v6.6c0.6-1.1,2.1-1.6,3.2-1.6c2.4,0,3.9,1.6,3.9,4.2v5.5c-0.3,0-1.6,0-1.9,0
						v-5.4c0-1.6-0.9-2.5-2.3-2.5c-1.3,0-2.9,0.7-2.9,2.8V161.8z"/>
					<path class="st0" d="M253.1,157c0-3,2.3-5,5-5c2.7,0,5,1.9,5,5c0,3-2.3,5-5,5C255.4,162,253.1,160,253.1,157z M261.2,157
						c0-1.9-1.4-3.1-3.2-3.1c-1.7,0-3.2,1.2-3.2,3.1c0,1.9,1.4,3.2,3.2,3.2C259.8,160.2,261.2,158.9,261.2,157z"/>
					<path class="st0" d="M270.2,152c1.5,0,2.8,0.6,3.7,1.5l-1.4,1.2c-0.6-0.6-1.4-0.9-2.3-0.9c-1.7,0-3.2,1.2-3.2,3.1
						c0,1.9,1.5,3.2,3.2,3.2c0.9,0,1.7-0.3,2.3-0.9l1.4,1.2c-0.9,1-2.2,1.6-3.7,1.6c-2.7,0-5.1-2-5.1-5
						C265.1,154,267.4,152,270.2,152z"/>
					<path class="st0" d="M275.5,157c0-3,2.3-5,5-5c2.7,0,5,1.9,5,5c0,3-2.3,5-5,5C277.8,162,275.5,160,275.5,157z M283.7,157
						c0-1.9-1.4-3.1-3.2-3.1c-1.7,0-3.2,1.2-3.2,3.1c0,1.9,1.4,3.2,3.2,3.2C282.2,160.2,283.7,158.9,283.7,157z"/>
					<path class="st0" d="M290.1,147v14.8h-1.9V147H290.1z"/>
					<path class="st0" d="M300.9,160.3c-0.6,1.1-2,1.7-3.4,1.7c-2.6,0-4.9-2-4.9-5c0-3.1,2.2-5,4.9-5c1.3,0,2.7,0.6,3.4,1.6v-1.4
						h1.8v9.6h-1.8V160.3z M297.7,153.8c-1.7,0-3.1,1.2-3.1,3.1c0,1.9,1.4,3.2,3.1,3.2c1.7,0,3.2-1.2,3.2-3.2
						C300.9,154.9,299.3,153.8,297.7,153.8z"/>
					<path class="st0" d="M310.7,152.2v1.6h-2v8h-1.9v-8H305v-1.6h1.7v-3.6h1.9v3.6H310.7z"/>
					<path class="st0" d="M341.6,152c1.5,0,2.8,0.6,3.7,1.5l-1.4,1.2c-0.6-0.6-1.4-0.9-2.3-0.9c-1.7,0-3.2,1.2-3.2,3.1
						c0,1.9,1.5,3.2,3.2,3.2c0.9,0,1.7-0.3,2.3-0.9l1.4,1.2c-0.9,1-2.2,1.6-3.7,1.6c-2.7,0-5.1-2-5.1-5
						C336.5,154,338.9,152,341.6,152z"/>
					<path class="st0" d="M349.7,161.8h-1.9v-9.6h1.9v2.2c0.5-1.7,1.4-2.4,2.7-2.4c0.7,0,1.4,0.2,1.7,0.4l-0.3,1.7
						c-0.5-0.2-1-0.3-1.4-0.3c-1.8,0-2.6,2-2.6,4.5V161.8z"/>
					<path class="st0" d="M364.8,157.7h-7.8c0.2,1.6,1.5,2.6,3.1,2.6c1.1,0,2.2-0.5,2.7-1.5c0.5,0.2,1.1,0.4,1.6,0.6
						c-0.8,1.7-2.6,2.5-4.4,2.5c-2.7,0-4.9-2-4.9-5c0-3,2.2-5,4.9-5c2.7,0,4.8,1.9,4.8,5C364.9,157.2,364.9,157.5,364.8,157.7z
						 M356.9,147.3h2.2l2,3.2h-1.8L356.9,147.3z M363,156.3c-0.2-1.6-1.4-2.6-2.9-2.6c-1.6,0-2.8,1-3,2.6H363z"/>
					<path class="st0" d="M375.9,156.6v5.2c-0.3,0-1.6,0-1.9,0v-5.4c0-1.6-0.8-2.5-2.1-2.5c-1.3,0-2.7,0.8-2.7,2.8v5.2h-1.9v-9.6
						h1.9v1.4c0.5-1.1,1.9-1.5,2.6-1.6c0.4,0,0.7,0,1,0.1c1.2,0.2,2,0.8,2.5,1.9c0.9-1.7,2.4-2,3.3-2c2.4,0,3.7,1.6,3.7,4.2v5.5
						h-1.9v-5.4c0-1.6-0.8-2.5-2.2-2.5C376.8,153.8,375.9,155,375.9,156.6z"/>
					<path class="st0" d="M394.6,157.7h-7.8c0.2,1.6,1.5,2.6,3.1,2.6c1.1,0,2.2-0.5,2.7-1.5c0.5,0.2,1.1,0.4,1.6,0.6
						c-0.8,1.7-2.6,2.5-4.4,2.5c-2.7,0-4.9-2-4.9-5c0-3,2.2-5,4.9-5c2.7,0,4.8,1.9,4.8,5C394.6,157.2,394.6,157.5,394.6,157.7z
						 M392.8,156.3c-0.2-1.6-1.4-2.6-2.9-2.6c-1.6,0-2.8,1-3,2.6H392.8z"/>
					<path class="st0" d="M406.9,164.8c2.1,0,3.4-1.2,3.4-4.3c0-0.1,0-0.1,0-0.2c-0.6,1.1-2,1.8-3.4,1.8c-2.6,0-4.9-1.9-4.9-5
						c0-3.1,2.2-5,4.9-5c1.3,0,2.7,0.6,3.4,1.7v-1.5h1.8v8.1c0,4.5-2.1,6.2-5.2,6.2c-1.8,0-3.4-0.9-4.3-2.6c0.2-0.1,1.3-0.7,1.6-0.8
						C404.7,164.2,405.8,164.8,406.9,164.8z M407.1,153.8c-1.7,0-3.1,1.3-3.1,3.2c0,1.9,1.4,3.2,3.1,3.2c1.5,0,3.2-1.1,3.2-3.2
						C410.2,155,408.8,153.8,407.1,153.8z"/>
					<path class="st0" d="M417.2,147v14.8h-1.9V147H417.2z"/>
					<path class="st0" d="M428.1,160.3c-0.6,1.1-2,1.7-3.4,1.7c-2.6,0-4.9-2-4.9-5c0-3.1,2.2-5,4.9-5c1.3,0,2.7,0.6,3.4,1.6v-1.4
						h1.8v9.6h-1.8V160.3z M424.9,153.8c-1.7,0-3.1,1.2-3.1,3.1c0,1.9,1.4,3.2,3.1,3.2c1.7,0,3.2-1.2,3.2-3.2
						C428.1,154.9,426.4,153.8,424.9,153.8z"/>
					<path class="st0" d="M437.6,152c1.5,0,2.8,0.6,3.7,1.5l-1.4,1.2c-0.6-0.6-1.4-0.9-2.3-0.9c-1.7,0-3.2,1.2-3.2,3.1
						c0,1.9,1.5,3.2,3.2,3.2c0.9,0,1.7-0.3,2.3-0.9l1.4,1.2c-0.9,1-2.2,1.6-3.7,1.6c-2.7,0-5.1-2-5.1-5
						C432.6,154,434.9,152,437.6,152z"/>
					<path class="st0" d="M452.6,157c0,0.2,0,0.5,0,0.7h-7.8c0.2,1.6,1.5,2.6,3.1,2.6c1.1,0,2.2-0.5,2.7-1.5
						c0.5,0.2,1.1,0.4,1.6,0.6c-0.8,1.7-2.6,2.5-4.4,2.5c-2.7,0-4.9-2-4.9-5c0-3,2.2-5,4.9-5C450.6,152,452.6,154,452.6,157z
						 M444.9,156.3h5.9c-0.2-1.6-1.4-2.6-2.9-2.6C446.3,153.7,445.1,154.7,444.9,156.3z M450.7,147.3h-2.2l-2,3.2h1.8L450.7,147.3z"
						/>
					<path class="st0" d="M464.2,157.7h-7.8c0.2,1.6,1.5,2.6,3.1,2.6c1.1,0,2.2-0.5,2.7-1.5c0.5,0.2,1.1,0.4,1.6,0.6
						c-0.8,1.7-2.6,2.5-4.4,2.5c-2.7,0-4.9-2-4.9-5c0-3,2.2-5,4.9-5c2.7,0,4.8,1.9,4.8,5C464.2,157.2,464.2,157.5,464.2,157.7z
						 M462.4,156.3c-0.2-1.6-1.4-2.6-2.9-2.6c-1.6,0-2.8,1-3,2.6H462.4z"/>
				</g>
			</g>
			<path class="st0" d="M491.3,70.5c-0.3-2.3-6.2,2.7-7,3.3c-3.5,2.7-7,5.4-10.7,7.8c-1.7,1.1-3.5,2.3-5.4,3.1
				c-0.6-5-1.6-10.1-3.6-14.8c-0.9-2.2-2.1-4.5-3.7-6.3c-1.7-2-4.2-3.2-6.7-4.1c-4.6-1.6-9.7-2.2-14.6-1.5
				c-4.6,0.7-9.1,2.9-12.3,6.4c-1.3,1.4-2.6,2.9-3.3,4.7c-0.4,0.9-0.5,1.8-0.7,2.8c-0.3,1-1,2.1-1.4,3.1c-0.6,1.4-1.1,2.8-1.5,4.3
				c-0.8,3-1.4,6.1-1.7,9.2c-0.2,2.3-0.2,8.3-0.4,8.9c-0.2,0.6-3.9,5.8-5.1,7.8c-1.3,2.1-2.5,4.4-4.1,6.3c-0.6,0.7-1.3,1.5-2.2,1.8
				c-1,0.3-1.5-0.4-1.6-1.3c-0.1-1.7,0-3.4,0-5.1c0.1-8.1,0-16.2,0.5-24.2c0.3-4.5,0.6-9,1.2-13.4c0.6-4.3,1.9-13.6,2.4-15.7
				c0.1-0.3,10.8-0.4,13.4-0.5c0.9,0,1.9,0,2.9-0.2c1.9-0.3,3.9-0.8,5.8-1.2c4.9-1.2,9.7-2.4,14-5.2c1.7-1.1,3.5-2.3,4.3-4.2
				c0.9-2.5-2.1-2.5-3.8-2.6c-5.6-0.2-11-0.7-16.6-1.3c-1.3-0.1-2.6-0.4-3.9-0.4c-1.5,0-3,0.2-4.5,0.2c-2.9,0.1-5.8,0.2-8.6,0.2
				c0.9-4.3,1.8-8.6,2.7-12.9c0.7-3.5,1.6-7,1.8-10.6c0.1-2.2-0.4-4.4-1.8-6.1c-2.2-2.6-6.1-3.5-9.2-1.9c-1.9,0.9-3.4,2.9-4,4
				c-1.2,2.3-2.8,10.3-3.9,15.5c-0.4,2.1-2,11.5-2.2,11.5c-0.2,0.1-9.6-0.7-13.9-0.9c-5.7-0.4-15.1-2.7-15.5-2.7
				c-0.5,0.1-1.1,0.9-1.4,1.2c-0.6,0.7-1.2,1.5-1.6,2.4c-1.4,2.5-2.1,5.5-1.7,8.4c0.1,0.7,0.2,1.9,0.8,2.2c0.4,0.2,1,0.5,1.4,0.6
				c0.8,0.2,1.6,0.4,2.4,0.6c8.9,2.1,18.1,2.5,27.2,3c-1.3,9.8-2.2,19.6-2.7,29.4c-0.3,4.9-0.5,9.7-0.5,14.6c0,3.9,0.3,7.6,0.9,11.4
				c0.2,1.2,0.4,2.3,0.6,3.4c0.1,0.4,0.4,1,0.1,1.3c-0.3,0.4-1.1,0.6-1.6,0.8c-1.8,0.6-3.7,0.4-5.5,0c-1.4-0.3-2.9-0.5-3.9-1.6
				c-1.3-1.5-1.4-4.1-1.4-5.9c-0.1-5.1,0.6-10.4,1.2-15.5c0.3-2.7,0.8-5.5,0.7-8.3c-0.2-4.1-2.3-7.9-6.6-8.9
				c2.1-1.7,2.3-4.6,1.6-7.1c-0.6-2-1.8-3.2-3.5-4.2c-3.6-2.2-8.2-3.2-12.4-3.5c-4.9-0.3-9.7,1.2-13.9,3.6c-3.6,2-6.3,4.8-8.7,8.2
				c-1.8,2.6-3.1,5.2-4,8.2c-0.9,2.9-1.6,5.9-2.1,8.9c-0.3,1.5-0.5,3.1-0.6,4.6c-0.1,0.7-0.1,1.4-0.2,2.2c0,0.4,0,0.9-0.1,1.3
				c-0.1,0.3-0.4,0.6-0.5,0.9c-2.8,4.9-5.6,10-9.4,14.3c-0.9,1-1.8,1.9-2.8,2.6c-0.6,0.4-2.1,1.6-2.9,1.1c-0.5-0.3-0.8-1.4-1-1.9
				c-0.3-0.6-0.5-1.2-0.8-1.9c-2.3-5.5-3.2-11.4-3.8-17.3c-0.2-1.6-0.3-3.1-0.4-4.7c0-0.4,0-0.7-0.1-1.1c0-0.5,0-0.5,0.4-0.8
				c0.6-0.4,1.2-0.7,1.8-1.1c2.4-1.5,4.6-3.1,6.8-4.9c8.4-7,15.2-16.2,19-26.4c3.5-9.4,4.6-20.8,0.2-30.2
				c-4.8-10.3-18.4-12.9-27.4-6.6c-3.4,2.4-5.6,5.9-7.4,9.6c-2.5,5.2-4,10.8-5.2,16.4c-2.6,12.4-3.5,25.2-3.4,37.9
				c0,0.4,0,0.7,0,1.1c0,0.5,0.1,0.6-0.2,0.8c-0.4,0.3-1.2,0.3-1.7,0.5c-1.4,0.4-2.8,0.7-4.2,1.1c-0.7-10.4-5.2-20.9-15.1-25.4
				c-9.3-4.2-21-1.8-27,6.7c-0.5,0.8-0.9,1.5-1.3,2.3c-0.3,0.8-0.5,1.5-1,2.2c-1.5,2.3-2.7,4.9-3.6,7.5c-1.7,5.2-2.4,10.6-2.5,16
				c0,1.1,0.2,2.4,0,3.5c-0.1,0.7-1.2,1.4-1.8,1.9c-1.8,1.6-3.5,3.1-5.3,4.7c-3.4,2.9-7,6.1-11,8.2c-4,2.1-9.2,2.7-12.7-0.8
				c-3.3-3.2-4.7-7.9-5-12.4c-0.4-5.1,0.3-10.4,2.1-15.2c1.2-3.3,2.8-7,5.5-9.3c1.5-1.2,3.2-1.8,5-2c2-0.2,4-0.3,4.5,2
				c0.3,1.3,0.4,2.7,0.3,4c0,0.5-0.2,1.1-0.1,1.6c0.1,0.6,3.8,5.7,6,6.7c2.4,1,5,0.1,6.8-1.6c0.8-0.7,1.5-1.5,1.8-2.6
				c0.3-1.4,0.4-2.9,0.5-4.3c0.2-5.3-1.2-10.8-4.5-14.9c-6.7-8.3-19.9-7.3-28.1-1.9c-7.2,4.7-11.2,13.8-13.2,21.8
				c-0.1,0.3-0.2,0.7-0.2,1c-0.1,0.6-4.8,1.1-6.2,1.3c0.1-6.9-1.3-14.1-5.5-19.7c-4.1-5.5-10.4-8.8-17.2-9.1
				c-6.8-0.2-14.1,2.7-18.3,8.2c-0.5,0.6-0.9,1.2-1.3,1.9c-0.4,0.8-0.6,1.7-1.1,2.5c-0.9,1.6-2,3-2.8,4.6c-1.6,3.2-2.8,6.7-3.5,10.3
				c-1.5,7-2.1,14.6-1.1,21.7c0.9,6.7,3.5,14,9.2,18.1c8.7,6.3,21.4,4.5,29.1-2.6c4.9-4.5,7.7-10.9,9.5-17.2c0.5-2,1-4,1.4-6
				c0.1-0.7,0.3-1.4,0.4-2.1c0.1-0.6,0.3-2.9,0.5-3.1c0.2-0.3,4.4-2,5.7-2.8c-1.2,10.8,0.5,23.6,9.3,30.9c4.5,3.8,10.3,5.7,16.2,5.2
				c5.5-0.4,10.6-3,14.7-6.7c1.6-1.5,3.1-3.1,4.5-4.7c0.9-1,5.6-7.4,6.6-9c1,5.7,3.3,11.8,7.5,16c3.8,3.8,9.1,6.1,14.5,6
				c4.7-0.1,9.3-1,13.3-3.6c4.9-3.1,8.2-7.9,10.3-13.2c1.3-3.2,2.1-6.5,2.7-9.8c0.3-1.7,0.9-6.9,1.1-7.8c0.1-0.3,0.2-0.4,0.3-0.6
				c0.2-0.3,4.6-2.2,6.5-3.4c0.3,5.2,0.9,10.3,1.9,15.4c0.9,4.2,2,8.4,4,12.2c2.1,3.8,5,7.5,9.2,9.2c4.6,1.8,9.7,0.7,13.6-2.1
				c4.4-3.1,7.3-7.9,9.5-12.7c2.2,6.6,6.8,12.1,13.5,14.5c5.1,1.9,11.2,2.1,16.3,0.3c3.6-1.3,6.7-3.7,9.1-6.7c3.1,3,7,4.2,11.2,4.4
				c4.3,0.2,8.7-0.5,12.3-2.9c1.2,2.2,2.6,4.1,4.8,5.3c2.4,1.3,5,1.6,7.6,0.5c4.8-2,7.6-7.2,9.6-11.7c1-2.1,1.6-4.4,2.3-6.6
				c1.9,8.3,6.9,16.2,15.5,18.6c3.7,1,7.8,1,11.5,0.2c3-0.6,5.5-1.9,8.1-3.5c7-4.4,10.4-12.8,12.2-20.5c0.4-1.5,1.1-6.6,1.4-6.8
				c0.7-0.5,1.1-0.8,1.5-1c3.2-2,6.3-4.3,9-7c2.5-2.5,5-5.3,7.1-8.2c1.3-1.8,2.6-3.7,3.6-5.7C490.4,73.9,491.5,72,491.3,70.5
				C491.2,69.4,491.5,71.5,491.3,70.5z M309.9,66c0.5-6.8,1.4-13.7,2.9-20.4c1.1-4.9,2.4-10.3,5.3-14.6c1.4-2.1,4.1-2.7,5.8-1.1
				c1.4,1.4,1.6,4.2,1.8,6c0.5,5.3-0.6,10.5-2.8,15.3c-3,6.7-7.5,12.8-13.1,17.6C309.8,67.9,309.8,67,309.9,66
				C310.3,60.4,309.8,67,309.9,66z M165.6,97.7c-1.3,5.5-3.2,13.5-9.4,15.4c-2.3,0.7-5.6,1.1-7.3-0.9c-2.1-2.4-2.7-6.2-2.9-9.2
				c-0.3-4.1,0-8.3,0.6-12.4c5.2,4.7,12.3,6.6,19.1,6.6C165.7,97.4,165.6,97.5,165.6,97.7z M153.7,77.3c-0.1-0.2-0.2-0.6-0.2-0.8
				c0-0.4,0.2-0.5,0.6-0.7c0.6-0.4,1.2-0.7,1.8-1c1.3-0.6,2.8-0.9,4.2-1.1c0.3,0,0.7,0,1-0.1c0.2-0.1,0.4-0.4,0.6-0.5
				c0.4-0.1,1.1,0.5,1.5,0.8c0.9,0.7,1.7,1.6,2.2,2.7c1.7,3.1,2,6.7,1.9,10.2C166.5,86.6,155.9,85.3,153.7,77.3z M269.3,108.7
				c-1.5,2.6-3.6,4.4-6.6,4.9c-1.4,0.2-3.2,0.3-4.5-0.3c-1.2-0.5-2.1-1.8-2.7-2.9c-1.6-2.9-2.3-6.3-2.5-9.5
				c-0.3-3.4-0.2-6.9,0.1-10.3c5.5,4.7,12.4,6.8,19.6,6.7C272,101.1,271.2,105.2,269.3,108.7C268.3,110.3,270.9,105.7,269.3,108.7z
				 M270.1,85.2c-2.7-0.8-5.1-2.2-7.1-4.2c-1.4-1.4-2.3-3.2-3.2-5c-0.2-0.4-0.2-0.3,0-0.6c0.3-0.4,1.1-0.6,1.6-0.8
				c1.3-0.5,2.6-0.8,3.9-0.9c0.3,0,0.6,0,0.8-0.1c0.2-0.1,0.3-0.3,0.5-0.4c0.4-0.1,1,0.3,1.4,0.6c1,0.7,1.9,1.6,2.6,2.7
				c1.8,2.8,2.5,6.2,2.7,9.5C272.4,85.7,271.2,85.5,270.1,85.2C268.6,84.7,271.2,85.5,270.1,85.2z M367.5,76.2
				c-2.6,3.2-2.1,8.2-2.2,12.1c-0.1,4.1-0.4,8.2-1.1,12.3c-0.6,3.6-1.5,7.8-3.9,10.6c-2.4,2.8-7.2,2.7-10,0.6
				c-3.1-2.2-3.8-6.9-4-10.4c-0.3-4.5,0.2-9.1,1.1-13.5c0.5-2.4,1.1-4.9,2.2-7.1c1.5-3.1,4.1-5.6,7.3-6.7c1.9-0.6,3.8-0.7,5.7-0.2
				c1.1,0.3,2.2,0.7,3.2,1.4c0.8,0.6,1.5,0.3,2.4,0.2C367.9,75.7,367.7,75.9,367.5,76.2C367.3,76.4,367.7,75.9,367.5,76.2z
				 M449.3,109.3c-1.3,2.3-3.6,3.9-6.3,4.2c-2.1,0.3-4.3,0.2-5.8-1.4c-1.8-2-2.6-4.7-3.1-7.3c-0.6-3.1-0.7-6.3-0.6-9.5
				c5.2,4.6,11.8,7,18.7,6.7C451.6,104.5,450.7,107.1,449.3,109.3C448.7,110.4,450.5,107.4,449.3,109.3z M450,87.7
				c-3.1-1-6-2.6-8.2-5.1c-0.6-0.7-1.2-1.5-1.7-2.3c-0.6-0.9-1.1-2-1.4-3c-0.2-0.5-0.3-0.8-0.1-1.2c0.3-0.5,0.9-0.9,1.3-1.2
				c2.7-2.1,6.3-2.6,9.5-1.3c0.8,0.4,1.1,0.8,1.5,1.7c0.6,1.4,1,2.8,1.3,4.2c0.7,2.9,1.3,5.9,1.5,8.9C452.4,88.2,451.2,88,450,87.7
				C449.6,87.5,450.9,88,450,87.7z M130.5,133.1c-1.2-0.1-2.3-0.2-3.5-0.3c-0.4,0-0.7,0-1.1-0.1c-0.1,0-0.6-0.1-0.7-0.4
				c-0.2-0.7-0.4-9-0.3-12.3c0-4.5,0.1-9,0.3-13.4c0.3-10.1,3.6-20.1,1.4-30.2c-0.8-3.5-1.9-7.4-4.3-10.2c-4.1-4.7-11.1-3.6-16-0.9
				c-5.4,2.9-9.2,7.7-12.7,12.7c-3.2,4.6-6.1,9.7-8.9,14.7C84.6,93,84.2,94,84,93.9c-0.1-0.1,0-0.9,0-1.3c0-1.2,0.1-2.3,0.1-3.5
				c0.1-2.2,0.2-4.4,0.3-6.6c0.1-1.8,0.2-3.5,0.3-5.3c0.4-6.3,0.8-12.6,2.1-18.9c0.9-4.8,2.3-9.4,3.9-14c7.2,3.6,15.1,5.5,23.2,6.2
				c6.9,0.6,13.7,0.7,20.3-2c7.2-2.9,13.3-8.5,15-16.3c1.6-7.7-0.9-16-5.7-22.1c-4.7-6-12.5-9.4-20-10.1c-8-0.8-16.1,1.4-22.8,5.8
				c-3.1,2.1-6,4.5-8.6,7.2c-1.3,1.3-2.5,2.7-3.6,4.2c-0.6,0.8-1.2,1.5-1.7,2.3c-0.3,0.4-0.5,0.8-0.8,1.1c-0.6,0.9-1,0.6-1.1,0.5
				c-6.4-3.9-14-7.2-21.7-5.9c-3.1,0.5-7.3,1.6-8.5,4.8c-1.1,2.8-0.9,6.3,1.7,8.2c1.4,1.1,3.2,1.4,4.9,1.9c0.7,0.2,1.6,0.6,2.3,0.6
				c0.6,0,1.4-0.5,2-0.7c3.8-1.5,12.1,4.1,12.5,4.7c0.2,0.3,0.2,0.2,0.1,0.6c-0.2,0.6-0.5,1.1-0.7,1.6C76.9,39,76.2,41,75.5,43
				c-1.3,4-2.4,8.1-3.2,12.2c-1.2,6.1-1.8,12.2-2.2,18.3c-0.1,1.7-0.2,3.5-0.3,5.2c-0.1,2.1-0.2,8.7-0.7,9.3
				c-0.3,0.5-0.9,0.9-1.3,1.4c-1.9,2.1-3.6,4.4-5.4,6.6c-2.6,3.1-5.4,6-8.6,8.5c-5.9,4.7-12.9,7.9-20.5,8.4
				c-2.9,0.2-6.1,0.1-8.9-0.6c-3.5-0.8-6.2-2.5-7.7-5.8c-1.7-3.6-1.9-7.8-1.9-11.8c0.1-4.3,0.5-8.5,1.4-12.7
				c1.7-7.9,4.6-15.9,9-22.7c4.1-6.3,10.9-12.5,19-11.4c1.5,0.2,3,0.7,4.1,1.8c1.3,1.3,2,3.2,2.3,4.9c0.7,3.4-0.2,6.9-1.3,10.1
				c-0.6,1.9-1.4,3.7-2.2,5.5c-0.7,1.6-1.4,3.2-2.4,4.5c-1.9-1.8-3.8-3.6-6.5-3.5c-2.1,0.1-4.1,1-5.2,2.7c-1.5,2.5-1.2,5.1-0.9,6.2
				c0.6,2.4,1.7,4.7,3.4,6.6c2.6,2.9,6.4,4.5,10.3,4.1c5.1-0.6,9.2-4.3,11.9-8.5c2.8-4.2,4.7-9.2,6.2-14c1.6-5,2.3-10.2,1.6-15.3
				c-0.8-5.2-2.9-10.2-6.6-13.9c-3.8-3.8-8.9-5.8-14.3-6.2C33.9,32.1,23.9,37.4,17,45.3c-6.9,7.9-11.3,18-14.1,28
				C1.4,78.7,0.4,84.3,0,89.9c-0.4,5.4-0.3,10.9,0.8,16.1c1.1,5.1,3.4,10.1,7.1,13.8c3.8,3.9,8.9,6.1,14.1,7.2
				c18.4,3.6,36.8-8.6,45.1-24.6c0.7-1.4,1.4-2.8,2-4.3c0.1,4.2,0.4,8.4,1,12.6c0.2,1.3,0.3,2.5,0.6,3.8c0.2,1.2,0.3,2.9,0.8,3.9
				c1.8,3.5,5,6.2,9.2,5.7c5.8-0.6,8.6-6.5,10.8-11.1c2.2-4.6,4.1-9.3,6.6-13.8c2.6-4.6,5.2-9.2,8.3-13.5c1-1.4,2-2.8,3.2-4.2
				c0.2-0.2,1.9-2.3,2.3-2.1c0.3,0.1,0.4,4.5,0.4,5.6c-0.2,6.7-1.8,13.3-2.1,20c-0.3,7.2-0.4,14.5-0.3,21.7c0,1.9,0.1,3.7,0.2,5.6
				c-10.8,0-22.1,1.2-32.1,5.7c-1.3,0.6-2.5,1.2-3.7,2c-0.5,0.4-1.4,0.9-1.6,1.6c-0.5,1.6,3.3,1.4,4.1,1.4c2.1,0,4.2-0.1,6.3-0.2
				c6.3-0.2,12.5,0,18.7,0.7c1.7,0.2,3.3,0.4,5,0.6c0.7,0.1,1.5,0.2,2.2,0.3c0.7,0.1,1.6,0.1,2.3,0.4c0.5,0.2,0.4,0.4,0.5,0.9
				c0.1,0.3,0.2,0.7,0.3,1c0.2,0.9,0.5,1.7,0.7,2.6c0.5,1.5,1,2.9,1.6,4.3c2.3,5.1,5.7,9.3,10.3,12.4c4.8,3.3,10.4,5.7,16.3,5.2
				c9.9-0.9,18.7-10.8,15.5-20.7C152.2,136.7,135.3,133.7,130.5,133.1z M99.3,27.9c3.6-4.8,8.3-9.6,14-11.7c5.2-1.9,11.2-1.6,16,1.3
				c1.9,1.2,3.6,2.8,4.5,4.8c1.1,2.3,1.5,5.5,0.5,7.9c-1,2.5-3.9,4-6.3,4.9c-3.1,1.1-6.3,1.1-9.5,0.9c-7.4-0.4-14.7-1.7-21.3-5
				C97.9,29.9,98.6,28.9,99.3,27.9C101.9,24.4,98.6,28.9,99.3,27.9z M142,155.3c-1.6,2.6-5.5,0.5-7.4-0.6c-1.3-0.8-2.6-1.7-3.6-2.7
				c-1.2-1.1-2-2.7-2.7-4.2c2.8,0.5,5.5,1.2,8.1,2.3c1.2,0.5,2.5,1,3.6,1.7C141,152.5,142.6,153.9,142,155.3
				C141.7,155.8,142.2,154.8,142,155.3z"/>
		</g>
		<path class="st0" d="M328.3,155c0,0.3,0,0.7-0.1,1.1c0,0.4-0.1,0.8-0.2,1.1c-0.1,0.4-0.2,0.7-0.3,1s-0.3,0.6-0.4,0.9l2.5,2.8h-2.2
			l-1.3-1.4c-0.5,0.6-1.2,1-1.9,1.3c-0.7,0.3-1.5,0.4-2.3,0.4c-0.6,0-1.2-0.1-1.8-0.3c-0.6-0.2-1-0.5-1.5-0.8
			c-0.4-0.4-0.7-0.8-1-1.3s-0.4-1.1-0.4-1.8c0-0.8,0.2-1.5,0.6-2.1c0.4-0.6,0.9-1.1,1.5-1.5c0.3-0.2,0.5-0.3,0.7-0.5
			c-0.2-0.3-0.5-0.5-0.7-0.8c-0.2-0.2-0.4-0.5-0.6-0.8c-0.2-0.3-0.3-0.6-0.4-0.9c-0.1-0.3-0.1-0.6-0.1-1c0-0.5,0.1-1,0.3-1.4
			c0.2-0.4,0.4-0.8,0.8-1.1c0.3-0.3,0.7-0.5,1.2-0.7c0.4-0.2,0.9-0.2,1.5-0.2c0.5,0,1,0.1,1.5,0.2c0.5,0.2,0.9,0.4,1.2,0.7
			c0.3,0.3,0.6,0.7,0.8,1.1c0.2,0.4,0.3,0.9,0.3,1.4c0,0.7-0.2,1.3-0.5,1.9c-0.3,0.5-0.8,1-1.4,1.4l-1.1,0.7l3.1,3.4
			c0.1-0.2,0.2-0.5,0.3-0.8c0.1-0.3,0.1-0.6,0.2-0.9c0-0.3,0.1-0.6,0.1-1c0-0.3,0-0.6,0-0.9v-0.7h3.2v1.5H328.3z M321.4,155
			l-0.9,0.5c-0.4,0.3-0.7,0.6-0.9,1c-0.2,0.4-0.3,0.8-0.3,1.3c0,0.4,0.1,0.7,0.2,1.1s0.3,0.6,0.6,0.8c0.2,0.2,0.5,0.4,0.9,0.5
			c0.3,0.1,0.7,0.2,1.1,0.2c0.7,0,1.2-0.1,1.8-0.3c0.5-0.2,1-0.5,1.4-1.1L321.4,155z M324.3,150.5c0-0.6-0.2-1.1-0.5-1.5
			c-0.4-0.4-0.9-0.5-1.5-0.5c-0.6,0-1.1,0.2-1.4,0.5c-0.4,0.3-0.5,0.8-0.5,1.4c0,0.3,0.1,0.6,0.2,0.8c0.1,0.3,0.2,0.5,0.4,0.7
			s0.3,0.4,0.6,0.6c0.2,0.2,0.4,0.4,0.6,0.6c0.3-0.2,0.6-0.3,0.9-0.5c0.3-0.2,0.5-0.3,0.7-0.6c0.2-0.2,0.4-0.4,0.5-0.7
			C324.2,151.1,324.3,150.8,324.3,150.5z"/>
	</g>
	<g>
		<path class="st0" d="M476.1,58.2h0.6l0.8,6.3h-0.6l-0.6-5.2l-2.2,4.5h-0.6l-2.2-4.5l-0.6,5.2H470l0.8-6.3h0.6l2.4,4.9L476.1,58.2z
			"/>
		<path class="st0" d="M483.8,63.6c-0.6,0.6-1.4,0.9-2.2,0.9c-1.8,0-3-1.4-3-3.2c0-1.8,1.3-3.2,3-3.2c0.9,0,1.7,0.4,2.2,0.9
			l-0.4,0.4c-0.5-0.5-1.1-0.8-1.8-0.8c-1.4,0-2.4,1.2-2.4,2.6c0,1.4,1,2.6,2.4,2.6c0.7,0,1.4-0.3,1.8-0.8L483.8,63.6z"/>
	</g>
</g>
</svg>
