<?xml version="1.0" encoding="utf-8"?>
<!-- Generator: Adobe Illustrator 19.0.0, SVG Export Plug-In . SVG Version: 6.00 Build 0)  -->
<svg version="1.1" id="Calque_1" xmlns="http://www.w3.org/2000/svg" xmlns:xlink="http://www.w3.org/1999/xlink" x="0px" y="0px"
	 viewBox="-860 906.8 278 188.2" style="enable-background:new -860 906.8 278 188.2;" xml:space="preserve">
<style type="text/css">
	.st0{fill:#FFFFFF;}
</style>
<g>
	<g>
		<path class="st0" d="M-582.2,1012.3c-0.5,3-1.9,5.6-3.2,7.7c-2.2,3.5-5.1,6.4-8.5,8.6c-2.2,6-5.8,11.1-10.6,14.8
			c-4.4,3.5-9.3,5.6-14.5,6.4c-2.2,0.3-4.3,0.5-6.3,0.5c0,0,0,0-0.1,0h-0.2c-10.4-0.1-16.1-4.7-19-8.6c-1.2-1.5-2.1-3.1-2.9-4.7
			c-2.2,2.6-4.7,5.3-7.7,8.1c0,0,0,0-0.1,0.1c-8.7,8.4-15.5,12.5-21.8,13.5c-1.1,0.2-2.2,0.2-3.2,0.2h-0.1h-0.1
			c-5.1,0-9.8-1.9-13.6-5.3c-0.4-0.4-0.8-0.8-1.2-1.1c-7.3,7.3-13.2,11-18.9,11.8c-0.9,0.1-1.9,0.2-2.8,0.2h-0.1h-0.1
			c-4.8,0-9.2-1.9-12.7-5.3c-0.3-0.3-0.6-0.6-0.9-0.9c-2.6,2.5-5.4,4.8-8.2,6.7c-3.5,2.4-7.1,3.9-10.8,4.4c-1.1,0.2-2.2,0.2-3.3,0.2
			h-0.1h-0.1c-5,0-9.7-1.9-13.4-5.2c-4.2-3.8-5.9-7.9-6.6-11.3c-1.8-0.1-3.5-0.5-5.2-1.2c-1.8-0.8-3.4-1.9-4.7-3.3
			c-4.2,9.1-9.9,16.6-16.9,22.5c-7.5,6.6-21.7,11.4-33.8,11.4c-0.6,0-1.1,0-1.7,0c-6.5-0.2-12.3-1.8-17.2-4.7h-0.1
			c-0.8-0.5-1.6-1.1-2.3-1.8c-2.5-2.4-4.1-5.3-4.5-8.4c-0.7,4.5,0.9,9.1,4.5,12.5c0.7,0.7,1.5,1.3,2.3,1.8h0.1
			c4.9,2.9,10.7,4.5,17.2,4.7c0.6,0,1.1,0,1.7,0c12.2,0,26.3-4.8,33.8-11.4c7.1-5.8,12.7-13.4,16.9-22.5c1.3,1.4,2.9,2.6,4.7,3.3
			c1.7,0.7,3.5,1.2,5.2,1.2c0.7,3.4,2.5,7.5,6.6,11.3c3.7,3.4,8.4,5.2,13.4,5.2h0.1h0.1c1.1,0,2.2-0.1,3.3-0.2
			c3.7-0.5,7.4-2,10.8-4.4c2.8-1.9,5.5-4.1,8.2-6.7c0.3,0.3,0.6,0.6,0.9,0.9c3.5,3.4,7.9,5.2,12.7,5.3h0.1h0.1
			c0.9,0,1.9-0.1,2.8-0.2c5.7-0.8,11.6-4.5,18.9-11.8c0.4,0.4,0.8,0.8,1.2,1.1c3.8,3.5,8.6,5.3,13.6,5.3h0.1h0.1
			c1.1,0,2.1-0.1,3.2-0.2c6.3-0.9,13.1-5.1,21.8-13.5c0,0,0,0,0.1-0.1c2.9-2.9,5.5-5.5,7.7-8.1c0.8,1.6,1.8,3.2,2.9,4.7
			c2.9,3.9,8.6,8.5,19,8.6h0.2c0,0,0,0,0.1,0c2,0,4.1-0.2,6.3-0.5c5.2-0.8,10.1-2.9,14.5-6.4c4.7-3.8,8.3-8.8,10.6-14.8
			c3.4-2.1,6.3-5.1,8.5-8.6C-583.5,1021.1-581.5,1017.1-582.2,1012.3C-582.1,1012.5-582.1,1012.4-582.2,1012.3z"/>
	</g>
	<g>
		<g>
			<g>
				<path class="st0" d="M-707,980.5c0,5.1,4.1,9.3,9.2,9.3h0.1c5.1,0,9.2-4.1,9.2-9.2c0-5.1-4.1-9.3-9.2-9.3h-0.1
					C-702.8,971.4-707,975.5-707,980.5z"/>
				<path class="st0" d="M-679.4,1005.4l-18.4,26.7c-3.8,5.4-4.9,5.7-5.4,5.8c-0.1,0-0.2,0-0.3,0h-0.1l0,0c-0.7,0-1.4-0.5-1.5-1.3
					c0-0.1-0.1-0.2-0.1-0.4c-0.3-2,0.6-6.3,2.6-13.3c1.7-5.8,2.2-9.4,2.5-12.1c0.1-0.7,0.2-1.4,0.3-2c0.4-2.2-0.2-4.4-1.6-6.1
					c-1.3-1.6-3.2-2.6-5.2-2.6c-2.2,0-6.3,1.2-9.5,9c0,0,0,0,0,0.1c-1.2,2.5-11.9,24.8-17.4,31.1c-2.2,2.5-3.8,3.1-4.6,3.2
					c-0.1,0-0.2,0-0.3,0c-0.4,0-0.8-0.2-1.1-0.5c-0.8-0.8-0.9-2.4-0.4-4.9v-0.1c2-7.1,4-13.8,5.8-19.8c0,0,0,0,0-0.1
					c0.5-1.4,1.1-3.1,1.6-4.8c0.5-1.6,0.7-3,0.5-4.2c-0.1-0.6-0.2-1.1-0.5-1.7c-0.5-1.2-1.3-1.8-2.5-1.8l0,0c-0.3,0-0.5,0-0.8,0.1
					c-1.3,0.2-3.6,1.1-6.7,2.7c-2.7,1.3-5,2-6.9,2h-0.1c-0.5,0-1-0.1-1.4-0.1c-0.4-0.1-0.8-0.3-1-0.7c-0.2-0.4-0.3-0.8-0.2-1.2
					c0.4-1.6,0.5-3.1,0.4-4.4c-0.2-1.4-0.7-2.4-1.6-2.9c-0.7-0.4-1.5-0.6-2.3-0.6h-0.1c-0.3,0-0.6,0-0.9,0.1
					c-3.5,0.5-5.8,2.6-7.1,6.3c-0.8,2.3-1.1,4.4-0.8,6c0.3,1.8,1.1,3.1,2.6,4.2c0.6,0.4,0.8,1.2,0.5,1.9c-1.6,3.9-3.7,7.9-6.1,12.1
					c-1.5,2.5-3.6,5.8-6.4,10.1l-0.1,0.1c-0.5,0.6-0.5,1.1-0.5,1.4c0.1,0.4,0.3,0.7,0.7,0.8c0,0,0.1,0,0.1,0.1
					c0.4,0.2,0.7,0.3,1.1,0.3l0,0c0.3,0,1.1,0,2-1.2c3-3.9,7.8-11.8,14.4-23.5c0.2-0.4,0.7-0.7,1.2-0.8c0.5-0.1,0.9-0.1,1.4-0.1h0.1
					c3.1,0,4,1.6,4.1,2.9c0.3,2.2-0.7,5.2-3.1,9.3c-6,10.1-8.8,17.4-8.6,22.3c0.1,2.1,1.1,4,3,5.7c1.5,1.3,3.3,2,5.3,2.1h0.1
					c0.5,0,1,0,1.5-0.1c1.9-0.3,3.8-1.1,5.7-2.4c7.1-4.8,13.7-12.2,19.7-22l3.6-6.4c0.3-0.5,0.8-0.8,1.4-0.8c0.2,0,0.4,0,0.6,0.1
					c0.7,0.3,1.1,1.1,0.9,1.9c-1.5,4.9-2.5,8.1-2.8,9.4c-0.9,3.6-1.2,6.9-0.8,9.6c0.2,1.2,0.9,2.4,2.1,3.6c1.3,1.2,2.7,1.9,4.4,1.9
					h0.1c0.3,0,0.7,0,1-0.1c3.3-0.5,8.1-4.1,14.4-10.7c2.2-3,9.8-13.6,15.3-22.3c0.3-0.5,0.8-0.7,1.3-0.7c0.2,0,0.4,0,0.7,0.1
					c0.7,0.3,1.1,1.1,0.8,1.9c-0.4,1.3-0.8,2.5-1.2,3.7c-2,6.2-3.8,11.5-3.8,15c0,2,0.9,3.8,2.7,5.3c1.6,1.5,3.5,2.2,5.7,2.3h0.1
					c0.5,0,1,0,1.5-0.1c3.5-0.5,8.6-3.9,15.2-10.2c5.6-5.4,9.7-10.2,12.3-14.3c1.4-2.3,1.5-3.1,1.5-3.3c-0.1-0.9-0.6-1.3-1.4-1.3
					l0,0c-0.2,0-0.4,0-0.5,0c-1,0.1-1.9,0.7-2.5,1.6l-0.1,0.1c-3.3,3.8-6.3,7.1-8.9,9.8c-0.6,0.8-1.5,1.4-2.7,2
					c-0.9,0.4-1.6,0.6-2.2,0.6c-0.2,0-0.4,0-0.5-0.1c-1.7-0.6-2.2-2.5-1.5-5.6c0.1-0.5,0.4-1.9,6.4-18.8c0,0,0-0.1,0.1-0.1
					c0.6-1.3,1.8-4,3.8-9c0.2-0.5,0.7-0.9,1.2-1l8.6-1.2c0,0,0,0,0.1,0c1.8-0.2,3.3-0.6,4.2-3.8c0-0.1,0-0.2,0.1-0.3
					c0.1-0.3,0.3-1.1,0.2-1.2c0,0-0.4-0.5-2.6-0.5l0,0c-1.3,0-4.6,0.3-6.7,0.6c-0.1,0-0.1,0-0.2,0c-0.5,0-0.9-0.2-1.2-0.5
					c-0.3-0.4-0.5-0.9-0.3-1.4l0.4-1.2c1.1-3.6,3.1-12.1,3-13.5v-0.1c-0.7-7.7-5.5-8.3-8-8.6h-0.3c-0.1,0-0.1,0-0.2,0l0,0
					c-0.4,0-1.1,0-1.8,2c-3.6,9.5-8.3,21.5-8.7,22.7c0,0.1-0.1,0.1-0.1,0.2c-0.4,0.7-0.9,1.5-1.5,2.5c-0.2,0.4-0.6,0.6-1.1,0.7
					c-5.6,0.9-7.8,0.9-8.2,1.8c-0.2,0.8-0.3,1.3-0.3,1.8c0.2,1.1,0.7,1.7,1.9,1.9C-681.1,1001.8-676.9,1001.2-679.4,1005.4z"/>
				<path class="st0" d="M-630.3,971.9c-0.3,0-0.6,0-0.9,0.1c-1.7,0.2-3,1.1-3.8,2.5c-0.8,1.5-1.1,3-0.9,4.5
					c0.1,0.9,0.6,1.8,1.3,2.6c1,1.1,1.4,1.9,1.6,2.7c0.2,1-0.3,2-1.2,2.8c-1.5,1.3-2.6,2.2-3.2,2.6c-0.1,0.1-0.1,0.2-0.1,0.4
					c0.1,0.5,0.2,0.6,0.7,0.6l0,0c0.1,0,0.2,0,0.3,0c1-0.1,2.3-0.9,4-2.2c2-1.6,3.5-3.4,4.6-5.4c1.5-2.8,2.1-5.4,1.8-7.7
					c-0.2-1.3-0.7-2.1-1.4-2.7C-627.6,972.7-628.7,971.9-630.3,971.9z"/>
				<path class="st0" d="M-637.3,1022.3c1-1.5,3.4-5.1,7.6-11.7c3-4.6,5.4-7.9,7.3-10c0.3-0.3,0.7-0.5,1.1-0.5c0.2,0,0.4,0,0.6,0.1
					c0.6,0.2,1,0.8,1,1.5c0,2.1,0.2,4.6,0.7,7.6c0.7,4.2,1.1,7.3,1.1,9.4c0,0.9-0.7,1.6-1.5,1.6c-3.6,0-6,0.2-7.3,0.4
					c-2.4,0.4-4.8,1.3-7,2.7c-0.4,0.3-0.8,0.6-1.2,1l-1.1,1.4c-0.9,1.5-1.1,3.4-0.8,5.6c0.3,2.2,1.3,4.3,2.8,6.3
					c1.8,2.4,5,3.7,9.4,3.7h0.2c1.4,0,3-0.1,4.6-0.4c3.1-0.4,6-1.7,8.7-3.9c3.9-3.1,6.5-7.5,7.7-13.1c0.1-0.5,0.5-1,1-1.1
					c3.3-1.1,5.8-3.2,7.6-6.1c1.4-2.3,1.5-3.1,1.5-3.3c-0.2-1.3-0.9-1.4-1.5-1.4l0,0c-0.2,0-0.3,0-0.5,0c-1,0.1-1.9,0.7-2.5,1.8
					c-0.9,1.3-1.8,2.4-2.8,3.2c-0.3,0.2-0.6,0.4-1,0.4c-0.2,0-0.3,0-0.5-0.1c-0.5-0.2-0.9-0.6-1-1.1c-0.4-1.5-1-3.1-2-4.7l-1.5-2.6
					c-1.1-2-1.8-3.1-1.9-3.3c0,0,0-0.1-0.1-0.1c-1.4-3-2.1-5.1-2.3-6.2c-0.2-1.2,0.1-2.4,1-3.5c0.7-0.9,1.9-1.4,3.7-1.4h0.1
					c0.4,0,0.9,0,1.4,0.1c0.1,0,0.2,0,0.3,0l0,0c0.3,0,0.5,0,0.8-0.1c1.3-0.2,2.4-0.9,3.5-2.2c1-1.3,1.4-2.6,1.2-4
					c-0.5-3.4-2.4-5-5.8-5.1h-0.1c-0.6,0-1.3,0-2,0.2c-2.8,0.4-6,2-9.7,4.8c-3.7,2.8-7,6.3-9.8,10.4c-7.1,10.7-12,18.3-15.1,23.1
					c-0.5,0.7-0.7,1.4-0.6,1.8c0,0.1,0.1,0.5,0.8,0.9c0.4,0.2,0.7,0.3,1.1,0.3c0.6,0,1.1-0.2,1.6-0.8L-637.3,1022.3z M-619.3,1026.8
					c-1.5,3.8-3.5,5.8-6,6.2c-0.2,0-0.4,0-0.6,0c0,0,0,0-0.1,0c-0.4,0-0.8-0.1-1.2-0.2h-0.1c-1.8-0.6-2.8-1.8-3-3.4
					c-0.2-1.3,0.4-2.5,1.7-3.6l0.1-0.1c0.4-0.2,1.2-0.8,7.7-1.1c0,0,0,0,0.1,0c0.5,0,1,0.2,1.3,0.7
					C-619.2,1025.7-619.1,1026.3-619.3,1026.8z"/>
			</g>
		</g>
		<path class="st0" d="M-788.6,1006.4c0.3-3.9,0.9-7.2,1.8-9.7c0.1-0.4,0.6-1.4,2-4.3c0.6-0.9,2.6-3.9,1.9-2.9
			c2.2-3.6-2.6-8-10.3-2.9c-25.1,16.9,0.1,68.7-51.2,79.9c-2.4,0.4-3.5,0.6-3.8,1.6c-0.3,0.9,0.5,1.6,0.8,1.9l0.1,0.1l0.1,0.1
			c3.1,1.8,7,2.8,11.5,3c10.6,0.4,22.5-4.1,27.3-8.4c6-4.9,10.8-11.4,14.3-19.3c3.1-7.1,4.4-19.3,5.1-26.6l0.1-1.6
			c1.6-0.5,5.5-0.7,6.5-0.7c0.9,0,1.5,0.3,1.8,0.7c0.5,0.8,0,3.1-0.2,3.6l-0.5,1.1l1.1,0.2c0,0,0.4,0.1,1,0.1
			c1.6,0.1,4.5-0.2,6.6-2.4c1.9-2,2.6-5,2.2-9c-0.2-2.3-1.6-5.1-7-5.3C-777.4,1005.5-786.2,1005.1-788.6,1006.4z M-835.8,1072.3
			c-0.1,0-0.2,0-0.3,0C-836,1072.3-835.9,1072.3-835.8,1072.3L-835.8,1072.3z"/>
		<path class="st0" d="M-786.7,975c4.7,0.7,10.6,2.4,17.4,5.1c7,2.8,12.9,4.5,17.8,5.2c1.7,0.3,3.4,0.4,4.9,0.4
			c5.3,0,9.9-2.2,13.5-6.4c3.6-4.2,5.6-9.3,6.1-15.4c0.3-4.2-1.3-5.3-2.8-5.6c-0.2,0-0.4,0-0.6,0c-1.6,0-2.9,0.7-3.8,2.1
			c-2,3-5.1,4.4-9.5,4.5c-1.9,0-4.1-0.2-6.7-0.6c-5-0.7-11.3-2.2-18.8-4.3c-1.3-0.4-2.8-0.7-4.3-0.9c-2.5-0.4-5.2-0.5-8.2-0.5
			c-12.2,0.1-22.7,3.7-31.3,11c-8.6,7.3-13,16.1-13,26.3c0,5.3,1.6,10.1,4.8,13.8c6.6,7.3,8.7,1,5.7-5.2c-0.9-2.5-1.9-4.3-1.9-8.2
			c0-5.6,2.5-10.6,7.6-15c5.1-4.4,11.4-6.5,18.5-6.7C-789.3,974.6-786.7,975-786.7,975z"/>
	</g>
	<g>
		<path class="st0" d="M-788.6,951.6c-9.9,1-18.7,3.9-25.7,8c0.5,1.1,1,2.2,1.4,3.2c6.7-4,15.1-6.7,24.7-7.7c9.5-1,18.3,0,25.7,2.5
			c0.2-1.1,0.5-2.2,0.7-3.5C-769.5,951.6-778.7,950.6-788.6,951.6z"/>
		<circle class="st0" cx="-755.4" cy="921.1" r="2.4"/>
		<circle class="st0" cx="-826.3" cy="929.8" r="2.4"/>
		<circle class="st0" cx="-792.7" cy="909.2" r="2.4"/>
		<path class="st0" d="M-775.4,931.7c-6.7-0.2-13.6-4.6-17.3-19.2c-4.8,35.4-32,20.4-32,20.4l5.3,13.1l0.1,0.3l0,0l4.2,10.5
			c0,0,25.5-14.6,53.6-5.5l4.5-27.1C-757,924.2-766.1,931.9-775.4,931.7z"/>
	</g>
	<g>
		<path class="st0" d="M-777.6,1087.9c0.8-0.5,1.5-1.5,1.5-2.8c0-1.5-1.4-3.2-4.4-3.2h-3.8v13.1h4.5c2.4,0,4.9-1.4,4.9-3.9
			C-775,1089.9-775.8,1088.4-777.6,1087.9z M-781,1087.3h-0.7v-3.3h0.7c1.4,0,2.3,0.6,2.3,1.6
			C-778.7,1086.7-779.9,1087.3-781,1087.3z M-781.7,1089.3h1.2c1.7,0,2.7,0.7,2.7,1.9c0,1.2-1,1.9-2.7,1.9h-1.2V1089.3z"/>
		<path class="st0" d="M-764.2,1090.5c0,1.3-0.7,2.8-2.8,2.8c-1.9,0-2.8-1-2.8-2.8v-8.6h-2.7v8.6c0,3.1,2,4.8,5.5,4.8
			c4,0,5.5-2.6,5.5-4.8v-8.6h-2.6v8.6H-764.2z"/>
		<path class="st0" d="M-749.6,1085.3c0-1.4-1.2-3.4-4.6-3.4h-4.1v13.1h2.7v-5.6h1.1l3.5,5.9l2.9-0.3l-4-6.1
			C-750.9,1088.3-749.6,1087.1-749.6,1085.3z M-755.6,1083.9h0.8c1.6,0,2.5,0.6,2.5,1.6s-1,1.8-2.5,1.8h-0.8V1083.9z"/>
		<path class="st0" d="M-738,1092.9c-0.4,0.1-1,0.3-2.4,0.3c-2.7,0-4.5-1.9-4.5-4.8c0-2.4,1.5-4.7,4.3-4.7c1.9,0,2.8,0.4,3.7,0.8
			l0.4,0.2l0.7-1.7v-0.2l-0.2-0.1c-0.8-0.4-2.1-1-4.7-1c-4.7,0-7.1,3.4-7.1,6.8c0,3.3,2.2,6.9,7.1,6.9c2.6,0,4-0.6,4.9-1l0.3-0.1
			v-5.1h-2.5V1092.9z"/>
		<polygon class="st0" points="-730.2,1089.3 -726.2,1089.3 -726.2,1087.3 -730.2,1087.3 -730.2,1084 -724.7,1084 -724.7,1081.9 
			-732.8,1081.9 -732.8,1095 -724.5,1095 -724.5,1093 -730.2,1093 		"/>
		<path class="st0" d="M-713.5,1085.3c0-1.4-1.2-3.4-4.6-3.4h-4.1v13.1h2.7v-5.6h1.1l3.5,5.9l2.9-0.3l-3.9-6.1
			C-714.7,1088.3-713.5,1087.1-713.5,1085.3z M-719.5,1083.9h0.8c1.6,0,2.5,0.6,2.5,1.6s-1,1.8-2.5,1.8h-0.8V1083.9z"/>
		<path class="st0" d="M-705.8,1087.6c-0.1-0.1-0.3-0.1-0.4-0.2c-1.3-0.7-2.5-1.4-2.5-2.4c0-0.6,0.7-1.3,1.8-1.3
			c1.4,0,2.2,0.3,2.8,0.5l0.2,0.1l0.8-1.8l-0.2-0.1c-1-0.5-2.3-0.8-3.6-0.8c-2.4,0-4.2,1.6-4.2,3.7c0,2.4,2.1,3.5,3.4,4.2l0.3,0.1
			c1.3,0.7,2.4,1.3,2.4,2.2c0,0.8-0.9,1.5-2,1.5c-1.5,0-2.6-0.5-3.2-0.8l-0.4-0.2l-0.9,1.9l0.4,0.2c0.8,0.4,2,1,4.1,1
			c1.6,0,4.6-1.2,4.6-3.8C-702.5,1089.3-704.6,1088.2-705.8,1087.6z"/>
		<path class="st0" d="M-683.9,1093.1c-0.3,0.2-0.5,0.3-1,0.3c-1,0-1.5-0.3-2.1-1c0.8-0.7,1.6-1.9,1.9-3.1l0.1-0.2l-1.7-0.7
			l-0.1,0.2c-0.3,0.8-0.7,1.6-1.3,2.1l-2-2.9c0.9-0.4,2.7-1.5,2.7-3.4c0-1.1-0.9-2.8-3.5-2.8c-1.9,0-3.3,1-3.5,2.5
			c-0.1,0.9,0.1,1.7,0.5,2.4l0.5,0.7c-0.1,0-0.1,0.1-0.2,0.1c-1.2,0.6-3.4,1.7-3.4,4.3c0,2.5,2.2,3.6,4.2,3.6c2.2,0,3.3-0.7,4-1.3
			c0.6,0.6,1.5,1.3,3,1.3c1.7,0,2.4-0.4,2.9-0.7l0.2-0.1l-0.8-1.5L-683.9,1093.1z M-692.1,1084.2c0.2-0.4,0.5-0.7,1.1-0.7
			c0.4,0,1,0.4,1,1c0,1-0.8,1.5-1.2,1.7l-0.6-1C-692.1,1084.9-692.2,1084.5-692.1,1084.2z M-692.4,1089l2.3,3.4
			c-0.6,0.4-1.2,0.8-2.3,0.8c-0.1,0-0.2,0-0.2,0c-0.9-0.1-1.8-0.9-1.8-1.8C-694.4,1090-693.3,1089.4-692.4,1089z"/>
		<path class="st0" d="M-673.1,1081.9h-4v13.1h2.7v-5.5h1.2c3.1,0,4.8-2,4.8-4C-668.5,1083.8-669.9,1081.9-673.1,1081.9z
			 M-674.4,1083.9h0.8c1.5,0,2.4,0.7,2.4,1.8c0,1.6-1.5,1.8-2.4,1.8h-0.8V1083.9z"/>
		<path class="st0" d="M-659.9,1081.6c-4,0-6.9,2.9-6.9,6.8c0,4.1,2.8,6.9,6.9,6.9c4,0,6.9-2.9,6.9-6.9
			C-653,1084.3-655.7,1081.6-659.9,1081.6z M-659.9,1093.3c-2.4,0-4-1.9-4-4.8s1.6-4.8,4-4.8c2.4,0,4,1.9,4,4.8
			S-657.4,1093.3-659.9,1093.3z"/>
		<path class="st0" d="M-641.9,1090.5c0,1.3-0.7,2.8-2.8,2.8c-1.9,0-2.8-1-2.8-2.8v-8.6h-2.7v8.6c0,3.1,2,4.8,5.5,4.8
			c4,0,5.5-2.6,5.5-4.8v-8.6h-2.6v8.6H-641.9z"/>
		<polygon class="st0" points="-637.4,1084 -633.3,1084 -633.3,1095 -630.6,1095 -630.6,1084 -626.4,1084 -626.4,1081.9 
			-637.4,1081.9 		"/>
		<rect x="-624.2" y="1081.9" class="st0" width="2.7" height="13.1"/>
		<polygon class="st0" points="-609,1090.7 -615.9,1082 -616,1081.9 -618.4,1081.9 -618.4,1095 -615.8,1095 -615.8,1086.3 
			-608.8,1095 -606.5,1095 -606.5,1081.9 -609,1081.9 		"/>
		<polygon class="st0" points="-600.7,1089.3 -596.7,1089.3 -596.7,1087.3 -600.7,1087.3 -600.7,1084 -595.2,1084 -595.2,1081.9 
			-603.3,1081.9 -603.3,1095 -595,1095 -595,1093 -600.7,1093 		"/>
		<path class="st0" d="M-587.8,1087.6c-0.1-0.1-0.3-0.1-0.4-0.2c-1.3-0.7-2.5-1.4-2.5-2.4c0-0.6,0.7-1.3,1.8-1.3
			c1.4,0,2.2,0.3,2.8,0.5l0.2,0.1l0.8-1.8l-0.2-0.1c-1-0.5-2.2-0.8-3.6-0.8c-2.4,0-4.2,1.6-4.2,3.7c0,2.4,2.1,3.5,3.4,4.2l0.3,0.1
			c1.3,0.7,2.4,1.3,2.4,2.2c0,0.8-0.9,1.5-2,1.5c-1.5,0-2.6-0.5-3.2-0.8l-0.4-0.2l-0.9,1.9l0.4,0.2c0.8,0.4,2,1,4.1,1
			c1.6,0,4.6-1.2,4.6-3.8C-584.5,1089.3-586.6,1088.2-587.8,1087.6z"/>
	</g>
</g>
</svg>
