<?xml version="1.0" encoding="utf-8"?>
<!-- Generator: Adobe Illustrator 19.0.0, SVG Export Plug-In . SVG Version: 6.00 Build 0)  -->
<svg version="1.1" id="Calque_1" xmlns="http://www.w3.org/2000/svg" xmlns:xlink="http://www.w3.org/1999/xlink" x="0px" y="0px"
	 viewBox="0 0 280.7 266.7" style="enable-background:new 0 0 280.7 266.7;" xml:space="preserve">
<style type="text/css">
	.st0{fill:#FFF;}
	.st1{fill:#000;}
</style>
<g>
	<path class="st0" d="M39.2,171.4l0.5,0.3C39.4,171.5,39.3,171.4,39.2,171.4z"/>
	<path class="st0" d="M77.5,38.1c0.6-0.5,1.2-1,1.7-1.4c-0.9,0.5-1.7,1.1-2.6,1.7C76.7,38.5,76.9,38.5,77.5,38.1z"/>
	<path class="st0" d="M135.4,19.9c0.8-0.2,2.3-0.3,3.2-0.4c-0.3-0.1-0.4-0.1-0.5-0.2c-2.1,0-4.2,0.1-6.3,0.3
		c0.1,0.1-0.6,0.2-2.4,0.3C129.8,20.4,133.9,19.8,135.4,19.9z"/>
	<path class="st0" d="M150.6,22.1l-1.2-0.6c-1.2,0.1-2.3,0.2-3.4,0.3c0.9,0.4,3.7,0.6,5.5,1c0.2-0.1,6.1-0.1,7.8-0.1
		c-1.5-0.4-3.1-0.8-4.6-1.1c1.3,0.3,7.5,1.1,9.9,1.6c0.1-0.3-4-1.6-4.7-1c-0.4-0.6,4.5,0.4,1.5-0.7c3.8,0.2,9.5,2.1,12.1,3.1
		l0.2,0.8c2.8,1.2,2.2-0.3,5.5,1.4c-4.2-1.3,0.4,1-2.9-0.1c1,0.6-0.2,0.7,3.1,1.9c3.1,0.1,3.2,1.9,6,2.2c1.5,1-2-0.3,1.2,1.3
		c4,1.3,3.9,0.9,4.4,0.3c-3.4-1.9-4.3-1-7.2-2.5c2.1,0.4,4.2,0.9,6.3,1.5c-1-0.7-1.8-1.1-2.4-1.3c1.2,0.5,2.3,0.8,3.2,1l0.3,0.1
		c-10.1-5-21-8.6-32.4-10.5c-5.7-0.4-10.4-0.6-13.9-0.8c1,0.5,5.7,1.3,7.9,1.7C152,21.8,151.3,21.9,150.6,22.1z M187.5,30.1
		c-1.1-0.4-2-0.5-3.1-1c0-0.2-0.7-0.7-1.2-1.1C184.9,28.9,186.3,29.6,187.5,30.1z M155.6,22.3c-0.7,0-1.5-0.1-2.2-0.1
		C152.2,21.7,155.2,22.3,155.6,22.3z"/>
	<path class="st0" d="M61.4,51.3L60.9,52c4.6-3.3,7.5-8.3,13.7-11.6l0.4-0.3l0.4-0.7C67.1,45,59.7,51.7,53.2,59.2
		C55.1,57.7,57.5,55.2,61.4,51.3z"/>
	<path class="st0" d="M118.2,21.6c3-0.3,0.1,0.4,4.3-0.3c-0.3-0.6,2.2-1,4.7-1.4c-3,0.3-6.1,0.8-9,1.4
		C118.1,21.4,118,21.5,118.2,21.6z"/>
	<path class="st0" d="M74.6,40.4c-2.4,2.3-2.3,2.2-4.5,5.3c0.8-0.8,1.7-1.6,2.6-2.5c-0.4,1.1,2.2-1.3,4.4-2.7l-1.4,2
		c-1.3,0.6-4.2,2.7-4.4,3.1c0,0,0,0,0,0.1c0,0,0,0,0-0.1c-0.2-0.1-5,2.7-7.2,5.1c0.6,0.1,5.9-4.7,4-1.9c1.9-2.1,2.5-1.9,4.7-3.8
		c-2,2-0.1,1-1.4,2.6c1.2-1,2.4-2,3.6-3c0.2,0-5.2,4.5-1.7,2.7c1.3-1.4,5.6-4,5.3-4.5l0.2,0.1c3-1.8,0.8-1.6,4.7-3.6
		c-0.1-0.3-0.9,0-2.2,0.8c-1.1,0.8-1,1.3-3.2,2.9c-1.3,0.3,2.7-1.8,0.7-1.4c-1,0.1-5.7,4.4-4.6,2.5c1-0.7,2-1.3,3-2
		c-0.3-0.6,1.9-2,1.6-2.3c1.7-1.4,3.8-1.9,5.5-3.5c0.6-0.8-1.2-0.6,2.3-2.2c1.5-0.3,4.1-1.5,6.8-2.6l6.8-3c0.8-0.5,1.7-0.9,2.5-1.3
		c-0.4-0.3-5,1.9-3.5,0.8c1.4-0.6,2.7-1.1,4.1-1.7l-0.2,0.3c1.4-0.4,2.7-1.1,4-1.6c-1.2,0.8-4.3,1.7-3.5,2.1c2-0.5,2.4-0.4,4.1-1.1
		c-0.4,0.2-0.7,0.3-0.6,0.4c4.1-0.9,3.7-1.8,4.6-2.3c3.8-1.8-3.9,0.2-4-0.3c-3.5,1-7,2.3-10.3,3.6c-0.1,0.1-0.2,0.1-0.4,0.3
		c-0.9,0.5-1.6,0.8-2.2,1.1v0l-0.6,0.5c-0.1,0.2,0.1,0.3-1,0.8c-0.8,0.6-1.2,0.9-0.4,0.2l-1,0.4c-0.4-0.1,0.5-0.6,2.1-1.3l0.8-0.5h0
		c-0.6,0.2-1.1,0.4-1.7,0.5c-2.8,1.3-5.6,2.6-8.3,4.1c1.3-0.4,3.6-1.5,4.2-1.8c-0.3,0.8-5.1,3.1-7.4,4.8c-0.1,0.2-0.3,0.4-0.9,0.7
		c0.2-0.2,0.5-0.5,0.9-0.7c0.1-0.1,0.2-0.3,0.4-0.5c-5.8,4.1-1.1-0.4-6.8,3.7l-0.3,0.3l-0.1,0.2L74.6,40.4z M107.4,24.6
		c-0.7,0.4-1.9,0.5-3,0.9C105.4,25.1,105.9,24.8,107.4,24.6z"/>
	<path class="st0" d="M30,164.7l0.4,1.5c0,0.2,0.1,0.3,0.1,0.5c0.2-0.3,0.3-0.6,0.2-1.5L30,164.7z"/>
	<path class="st0" d="M26.7,139.6c-0.2-0.3-0.2,0.6-0.2,1.6c0,1.1,0.1,2.3,0.2,3.6c0.1,0,0.2,0.3,0.4,0.7c0-1.3,0.1-2.1,0.6-1.6
		c-0.6,3.3,0.9,2.8,1.2,6.2c0.6,1,0-3.8-0.3-4.9C27.8,144.1,27.4,139.8,26.7,139.6z"/>
	<path class="st0" d="M45.9,194.1c0.1,0.1,0.2,0.2,0.3,0.2L45.9,194.1z"/>
	<path class="st0" d="M232.8,66.5c-0.1-0.1-0.1-0.1-0.2-0.2L232.8,66.5c-0.3-0.5-0.6-0.9-0.9-1.2c-1.9-2-4.6-4.7-7.4-7.2l-0.2,0.1
		c0.3,0.5-1-0.9-1.6-1.7v0c-1.9-1.7-3.8-3.2-5.4-4.4c0.4,0.5,0.8,1.2,1.5,1.9c0.8,0.3,3.8,3.8,3.8,2.9c1.2,1.8,3.8,4,4.6,5.4
		c-1.5-2.5,1.7,1.2,2.3,1.3c0.3,1,2.6,3.4,1.9,3.4c0.2,0.5-0.5-1.4-1.5-2.1c-2.2-2.1,2.9,4.6,0.3,1.9c3.1,3.5,6.3,8.8,9.1,12.9
		l-1.1-2.5c1,1.9,3.5,6.4,3.4,6.9c-0.8-1.4-1.6-3.1-2.7-4.8c-0.5,0.2,2.3,4.4,2.1,4.7c1.2,1.6,2.3,3.3,3.4,5l-1-2.4
		c1,1.4,2.8,6.6,4,10.5c-1.5-1.9-2.1-5.8-4.1-9.6c-1.6-2.7,0.1,2.1-1.3-0.5c0.1,0.8,0.9,2.5,1.5,3.3l0-0.1l0.2,0.4
		c0-0.1-0.1-0.2-0.2-0.3l0.3,1.1c-1.6-2.1-3.9-7.5-6.3-10.5c0.2,0.3,0.4,0.5,0.6,0.5c-1.1-2.7-2.7-5.3-4.4-7.7
		c0.6,1.4,1.1,1.8,1.6,2.5c-0.1,0.2-1.6-2.1-2.3-2.8c1.3,2.4-0.1,0.7,0.7,2.2c-1.1-1.4-1.8-2.6-2.9-4.4c-0.4-1.1,0.8,0.5,1,0.1
		c-1.4-1.7-1.3-3-3.6-5.3c2.4,3.5-1.3-0.4-2.4-1.4l0.4,0.6c-1.2-0.8-1.9-1.6-2.2-2.6c1.3,1.2,2.2,2.6,2.2,1.9
		c-0.7-0.9-1.5-1.7-2.4-2.6l1,0.7c-1.2-1.4-2.5-2.8-3.8-4.2c-0.9-0.4-2.3-1.1-3.3-1.2c-0.7-1.2-2.3-2.3-3.3-3.1l0.5,0.3
		c-1.5-2-6-5.4-6.6-5.3c-1.2-1.5,11.1,6.5,1.2-1.5c-3.8-3-3-1-5.5-2.3c0,0,0.2,0,0-0.2c-1.6-1.3-2.1-1-3.6-1.9
		c0.9,0.8,2.4,1.9,3,2.1c-0.8,0-3.5-2.5-5.1-3c2.1,0.5-3.3-2.4-1.7-1.8c-3.3-2.6-7.6-4.1-9.7-4.5c-2.2-2-4.5-2-8.6-4
		c0.6,0.3,1.9,0.6,2.7,1.1c2.6,0.4-4.3-2-0.4-1c-0.8-0.2-0.2,0.3,0.7,0.5c1.5,0.5,2.9,0.9,2.6,0.5c-1.1-0.7-2.2-1.3-3.3-1.9l1.3,0.4
		c-1.7-0.9-3.4-1.8-5.1-2.7c-0.2,0.1,0.3,0.4,0.5,0.5c-6.2-2.6-13.7-4-19.5-5c-0.7,0.7-4.2,0.3-8.2,0.1c-4-0.3-8.5-0.3-10.8,0.2
		c1.2-0.5,1.9-1.3,1.2-1.6c-0.3,0-0.5,0-0.6-0.1c0.3,0,0.5,0.1,0.6,0.1c1-0.1,3.2-0.7,5.6-0.5c0.4,0.3,3.3,0.8,1.4,0.9
		c6.6,0.3-0.8-0.8,1.1-1.2c-7.4-0.3-11.7,0.8-16.2,1.5l-0.1-0.2l-3.4,0.7c2.8-0.2,2.8,0.7-0.9,0.8l0.4-0.1c-2.1-0.2-6.3,0.9-9.5,1.5
		l-2,1c-3.1,0.7-3.5-0.2-4.7-0.5c-5,1.3-7.5,3-10.7,4.7c-1.7,0.1-8.7,3.1-5.2,1c-4,2.3-2.2,3.8-9.6,6.4l1.6-1.4
		c-3.3,1.8-7,4.4-10.2,6.9c-3.2,2.4-5.9,4.7-7.3,5.7c0.6-1.4-1.5-0.3-3.9,1.4c-2.4,1.7-5.1,3.8-6.1,3.8c0.5-0.1-1.4,2.1-1.6,2.5
		c0.3-0.2,0.6-0.3,0.6-0.3c-0.5,0.4-0.6,0.5-0.6,0.3c-0.6,0.3-1.4,1-1.9,2c2.2-2-0.3,2.5,3.1-2c-1.2,2.8-3.1,5.9-6.8,10.8l-0.4-0.4
		c1-1.3,2.1-2.5,3.2-3.7c-0.7,0.1,1-1.8,1.5-2.7c-3.1,3.4-3.1,3-3.2,2.6c0-0.4-0.1-0.8-3,3c-0.2,1,0,0.4-1.3,2.5
		c0.7-0.9,0.4-1.4-0.6,0.2l-0.6,1.7c-2.7,2.2,2.6-4.9,0.4-3c1.7-3.3,5.6-8.4,4.3-8c-4.1,4.6-2.3,5.1-6.2,10.1l-0.6,0.4
		c-1,2-0.8,2.6-1.1,3.8c-0.2,0-0.6,0.4-1.4,1.6c-1.2,3.6-2.2,5.9-3,9.3c1.7-4.2,2.8-5.8,3.9-7.4c1.1-1.6,2.2-3.3,4.6-7.3
		c-0.7,1.3-4,7-3.4,7.7l-0.5-0.4c-1.2,2.8-2.4,5.5-4.2,8.9c0.2-0.7,0.4-1.5,0.7-2.2c-1.8,4.7-4.3,7.2-4.7,11.3
		c0.4-0.9,0.7-1.7,0.9-2.4c-0.7,2.3-1.7,5-2.5,7.3c-0.2,1.9-0.4,3.9-0.6,5.8c-0.3-0.1-1.1,3.4-1.2,1.6c-1.4,4-0.8,6.1-1,8.5
		c-1.2,4.1,0.2-3.7-0.4-4.2c-1.4,5.7-1.7,12.1-1.3,15.4c0.2-1.2,0.3-1.8,0.5-1.7c-0.2,0.2-0.3,2.5-0.3,3.8l0.4,0.9
		c-0.3,2.2-0.5,1.9-0.8,0c-0.1,2.1,0.7,4.6,0.2,6.8c-0.7-3.6-0.2-8.2-0.3-10.1c0,3.8-0.2,5.7-0.5,7.8c-0.2,2.2-0.4,4.6,0.3,9.3
		c-0.2,0.1-0.7-1.4-0.5,0.4c0.7,4.3,0.9,1,1.5,2.3c-0.7-3.2-0.5-4.8-0.2-6.7l0.4,0.8c0-0.1,0.1,0.1,0.3,0.6l-0.3-0.6
		c-0.1,0.1,0,2.2-0.1,2.8l0.7,0.5c-0.7-0.2-0.9,3.2-0.2,5.7c0.1-2.7,0.2-2,0.9-2.8c1.3,3.4-0.2,4.1,1.5,7.9
		c-0.3-0.2-1.2-3.7-0.7-0.6c0.5,2.5,1,2,1.5,3.6c-1-1.7-1.3-1.1-2.5-3c-1-4.4-0.4-1.8-1.4-6.1c0,1.3,0.1,2.5,0.1,3.8
		c-0.8-3.8-1.1-2.7-1.4-2.9c0.6,6.7,1.8,4.8,2.6,8.9c0.9,1.9-0.9-3.9,0.3-0.9c0.9,3.9,0.6,0.8,2,5l-0.5-0.6c0,1.4,0.8,2.6,1.4,4
		c0.7,1.6,1.3-2.4,3.7,4.1l1,0.6c1.5,3.6,2.7,6,3.8,8.4c1.1,2.3,2.2,4.5,4,7.4c0.1,0.5-0.4-0.2-0.6-0.5c2.5,4.2,6.5,10.2,9.2,12.6
		c0.9,1.2,3.3,4.5,2.1,3.5c0.6,0.5,1.2,1.1,1.8,1.8c-0.1,0.4-1.4-1.4-1.6-1.2c0.3,0.4,0.5,0.6,0.6,0.7c-0.8-0.3-0.2,1.6-3.6-2.3
		c-0.7-2.2,2.5,2.8,2.4,1.3c-1.2-1.4-1.3-1-1.5-1c-1.5-1.8-1.2-1.9-1-1.9c-0.8-0.5-2.2-3-3.3-3.7c-2.7-3.6,0.7-0.2-1-2.6l-1.8-0.8
		c-0.9-1.4-1.7-2.8-2.5-4.2c-3.8-5.9-1,1.8-5.4-5.1c1,0.7,0.1-2.5-1.2-6.1c0.9,2.1,3.4,5.5,4.5,8.1c-0.7-2,0-0.7,0.9,0.7
		c0.9,1.4,1.9,3,1.7,1.9c-1.4-1.5-3.1-4.4-4.1-6.8l0.5,0.7c-1.2-2.5-3-3.9-4.2-7.6c-0.8-1.8-0.4-1.5,0-1.3c-0.8-1.4-1.4-2.7-1.2-2.8
		c-2.4-1.5-4.7-3.2-7-5c2.1,7.1,5.2,15,9.2,22.6c0.1,2.3-3.7-5-3.7-4.4c-0.5-1.2-1-2.4-1.5-3.7c0.4,0.1,3.8,7.4,2.8,3.9
		c-3.3-6.1-4.1-9.2-7.1-15.1c-0.3,2,2.3,6.8,3.8,10.8c1.5,3.3,3.1,6.5,4.9,9.6c0.8,1.1,1.6,1.7,1.9,1.6l-0.3-0.6l0.9,1.2
		c-0.6-1.1-1.2-2.1-1.7-3.2c0.4-0.3,2.1,3.4,2,3.6l-0.3-0.4l1.4,2.5l0.7,0.8l1.3,1.3l-0.1-0.2c1.3,1.4,1-0.8-1-3l0.6,0.4
		c-0.8-0.7-2.3-2.9-2.6-3.9c1.4,2.1-0.2-1.3-0.2-1.8c2.1,3.7,4.4,7.3,6.9,10.7c-0.2-0.1-0.6-0.2-1.3-1.1c2.1,2.9,2.4,1.9,4.1,4.3
		l1.5,1.2c0.6,0.3,1.3,0.9,2.1,1.6c4.9,3.5,10,6.6,15.2,9.2c3.3,1.8,8.7,7.2,11.4,8c-1.3-0.3,0.1,1.3,2.6,2.6
		c0.6,0.2-0.2-0.4-0.6-0.8c3.7,2.9,9.8,6.2,12.9,6.5c-0.8,0-1.6-0.1-2.3-0.1c3.6,1.2,5.9,2.1,8.4,2.4c-0.2,0.1-1-0.1-0.9,0.1
		c2,1.2,4.7,1.2,6.7,2.1l-1.6-0.3c-0.4,0.1,1.7,0.7,2.8,1c1.5,0.3,4.7,0.6,2.1-0.4c0.9,0.3,1.9,0.6,2.8,0.9c0.1,0,0-0.1-0.1-0.2
		c-0.2-0.1-0.3-0.2-0.5-0.3c0.1,0.1,0.3,0.2,0.5,0.3c1.7,0.8,6,1.4,5.6,2.1c-2,0-1.9,0.5-5.3-0.1c-2.5-1.7-7.8-1.9-12.3-3.7
		c-1.4,0-0.9,0.3-3.8-0.7c0.9-0.4,6,1.6,3.5-0.1c-2.4-1.1-6.4-2.7-7.7-2.5c7.1,2.8-1.6,1.2,5.7,3.7c-1.6-0.5-2.7-0.4-5.2-1.4
		c-4-2,7.5,1.9-1.4-1.9l-1.3,0.7c-1.9-0.9-4.5-2.3-6-3.1l-0.8-0.4c-0.7,0.2,1.9,1.7,1.3,1.8c3.6,2,9.1,4.6,12.5,5.5l-1.3-0.6
		c4.5,1.7,2-0.1,5.2,1l-0.4,1c2.3,0.4,4.7,1.2,6.2,1.6c-0.2,0.8-3-0.1-6.2-1.3c-3.2-1.2-6.9-2.8-9.1-3.2c-0.7-0.5-0.9-0.9-3.4-2
		c-0.1,0.6-2-0.2-4.1-1.3c-2.2-1.2-4.7-2.7-6.3-3.6c-1.4-1,2.8,1.4,1.4,0.1c-2.5-1.6-4.1-1.7-6.7-4.1c0.4,0.2,0.2,0,0.6,0.2
		c-4.6-2.9-0.8-1.1-1.4-1.9c-0.2-0.2-0.4-0.3-0.6-0.5c0.3,0.3,0.5,0.4,0.6,0.5c1.7,1.5,4.1,2.6,5.5,3.7c1.5,0.3,3.9,1.7,6.4,3
		c0,0,0,0,0.1,0l0.7,0.4c2.4,1.2,4.8,2.2,6.3,2.2c-3.1-1.5-9.4-4.9-9.3-5.6c-4.1-1.9-7.8-3.5-11.4-5.3c-3.6-1.9-7.2-4-11.1-7.3
		c-2.8-2.9-1.8-3.2-0.5-2.3c-2.9-3-2.6-1.8-4.7-3.6c2.4,1.7,1.7,1.1,1.2-0.6c-0.5-0.5-1-1-1.5-1.4l-2.1-1.6c-0.5-0.3-0.8-0.4-1-0.4
		l0.4,0.5l-0.4-0.1c-0.2-0.3-0.1-0.4,0-0.4l-0.6-0.8c-2.2-1.7-4.3-3.6-6.4-5.5c0.9,1.3,1.9,2.6,2.9,3.9c-1.8-1.9-3.1-3.7-4.2-5.2
		l-0.4-0.4l1.4,2.4c0.2,0.3,0.5,0.5,0.7,0.9c-0.1-0.1-0.2-0.2-0.3-0.3l0.5,0.8c1.7,1.5,5.3,5.6,6.6,6.6l-0.9-0.9
		c0.5,0.4,0.8,0.7,1.3,1c0.1,0.2-0.1,0.1-0.4-0.1c1.5,1.5,3.3,3.3,4.3,4.5c-1-1.1-2.4-2.5-2.2-1.9c1.8,2.4,2.2,4.1,6.4,7.3l-2.2-2.1
		c1.9,1.4,3.8,2.7,5.7,3.9c1.5,1.9-2.9-1.9-3.8-2.3c4.2,3.3,6.7,7.2,9.3,8c-0.1,0.6-0.2,1.8,2.7,3.8c-1.7-2,2,0.9,0.7-0.9
		c1,0.4,2.7,2,3.3,2.1l-0.2,0c4.6,4,7.1,3.7,9.5,4.6c6.4,3.1,9.3,4.7,14.8,6.6c0.1,0.4,1.2,2,3.5,2.6c1.2-0.1,6.4,1.1,7,0.6
		c-4-1.3-3.4-0.4-5.9-0.9c-1.8-1.3,0-0.7-2.5-2c1,0.5,3.5,1.2,6,1.9c2.5,0.7,5.1,1.3,6.2,1.8l-0.9-0.1c3.8,1.2,4.3,3,11.1,3
		c1.1,0,2.1,0,3.2-0.1c0.1-0.1,0.4-0.1,1,0l-1,0c-0.2,0-0.2,0.1-0.3,0.2c5.2,0.5,3.8,1.2,9.6,0.7c-0.5,0-0.2,0.1-0.6,0.2
		c3.3,0.4,6.6-0.4,9.1-0.8c1.6,0.5-0.3,0.6-1.2,1c5.9-0.1,12-1.9,15.4-3.3c1.2-0.1,2.5-0.3,3.7-0.5c-2.1,0.7-4.7,1.8-3.9,2
		c2-0.5,1.6-0.7,4.4-1.2c-0.3,0.3-1,0.7-1.8,1.2c0.8-0.2,1.6-0.4,2.4-0.6c0-0.2,0.1-0.3,1.4-0.3c0.7-0.2,1.5-0.4,2.2-0.6
		c0.8-0.4,1.3-0.8,1.3-1.1c1.1-0.2,2.3-0.3,3.5-0.5c0.2-0.6,4.2-2,6.8-3.1c0.2-0.3-2.3,0.3-3.2,0.8c0.1-0.4,2.7-1.6,4.5-2.4
		c0.5,0.4,3.4-0.8,5.8-2c2.5-1.2,4.6-2.3,3.9-1.2c3.7-2.1,8.1-4.9,11.9-7.7c3.9-2.8,7.2-5.7,9.2-7.7c1.6-1,4.4-3.5,3.1-1.6
		c5.1-4.7,6.6-8.1,11.2-13.1c0.5-0.3-1.9,2.4-1.5,2.4c2.5-3.7,5.5-6,9.1-12c-0.5,0.8-0.6,1.2-0.6,1.5c0.2-0.5,1.3-2.7,2-4.1
		c0.6-0.8-0.6,1.2-0.2,0.8c3.7-5.6,6.2-11,8.1-16.5c2-5.5,3.4-11.2,4.9-17.6c-0.9,3.7-0.6,5.2-0.3,5.3c0.3-1.2,0.7-2.4,1-3.6
		c0-1.5,0.6-4.2,0.7-6.5c-0.1,0.2-0.2,0,0-1.7c0,0.5,0,1.1,0,1.7c0.2-0.3,0.5-1.3,0.5-0.2c1-3.6,1.1-6.5,1-9.6
		c-0.1-3.1-0.3-6.4-0.1-10.8c0.5,3.6,0.8,7.3,1,10.9l0.7-2.5c0.2-2.8,0.3-5.6,0.3-8.5C254.6,108.6,246.5,85.4,232.8,66.5z
		 M31.8,127.1c0,0.1,0.1,0.4,0.2,0.8C31.9,127.5,31.8,127.2,31.8,127.1z M32.1,124.5c-0.1-0.9-0.2-1.8-0.3-2.6
		c-0.4,2.3,0.2,2.5-0.5,3.5c0.1-1.3,0.2-2.7,0.4-4.1C31.9,120.7,32.4,122.4,32.1,124.5z M99.7,235l-0.2-0.2c0.8,0.3,1.7,0.5,2.5,0.7
		l0.2,0.2L99.7,235z M84,226l0.2,0.2l-2.5-1.3L84,226z M69.6,219.4l-0.9-0.7c0.8,0.6,1.6,1.1,2.4,1.7L69.6,219.4z M78.7,227.4
		c0.8,0.4,3.1,1.6,4.2,2.6C80,228.5,81.2,229.1,78.7,227.4z M236.6,80.2c-0.3-0.3-0.6-0.6-0.8-0.8C235.7,79.1,236.1,79.6,236.6,80.2
		z M175.7,29.6l-0.4,0.1l-1.3-0.3L175.7,29.6z M176.7,31.4l-1.2-0.1c-0.7-0.3-1.5-0.6-2.2-0.9C174.4,30.7,175.5,31,176.7,31.4z
		 M136.4,23.5c0.1,0,0.2,0.1,0.2,0.1c0.4,0.2,0.8,0.4-1.4,0.6c-2.8-0.3,1.7-0.2,1.4-0.6C136.5,23.6,136.5,23.5,136.4,23.5z
		 M107.9,29.3l-1.3,1l-0.8,0.3L107.9,29.3z M63.3,54.4c-3.3,3.8,2.6-1,0.8,1.4c0.1-0.3-1.4,0.1-3.4,2C64.1,54.6,58.3,58.7,63.3,54.4
		z M53.3,65.9c-0.7,1.3-1.4,2.6-2,4l0.7-0.7c-0.4,1.1-1.9,3.6-3.3,5.5C47.7,74.6,51.8,68.5,53.3,65.9z M118,236.6
		c0.8,0.1,1.2,0.1,2.6,0.4C119.5,236.8,118.2,237,118,236.6z M130.7,242c-4.6,0.5-11.9-1.4-15.4-2c-0.5,0-0.9,0-1.6-0.1
		c0.4,0,0.9,0,1.6,0.1c2,0,2.5-0.3,5.4-0.2c-0.5-0.7,0.1-0.3,1.9-0.5c1.5,0.7-0.8,0.2-1,0.5c2.5,0.7,5.2,0.4,4.8-0.1
		c-5.4-1,1.6-0.1-1.3-1c0.3-0.6,6.5,0.2,6.9,0.4C131.8,240.3,133.2,241.5,130.7,242z M152.4,246.4l0.2,0.1
		C152.4,246.5,152.3,246.4,152.4,246.4c-0.4-0.2-0.7-0.3-1.7-0.3l-1.7,0.2c0.8-0.1,1.3-0.2,1.7-0.2c1.3-0.2,2.6-0.4,3.9-0.6
		C155.2,245.7,152.7,246.2,152.4,246.4z M243.3,93.6l0-0.3l1.2,2.4l0,0.3L243.3,93.6z M244.6,95.3c1.5,0.7,2.3,5.9,3.1,4.7
		c-0.8-2.5-1.3-3.4-2.2-4.9c0.9-0.2,3.2,7.5,3.1,9.5C247.4,100.8,246.1,99.7,244.6,95.3z M251.4,148.8c-0.2-1.2,0.3-5.5,0.4-7.6
		c0,0.7,0.1,1.5,0.1,2.2l-0.1-0.2C252.1,144.5,251.4,147.7,251.4,148.8z"/>
	<path class="st0" d="M32.9,100.3l-1,1.7c1.3-5.3,1.7-3,3.8-8.7c0.4-2.4,3.3-7.9,2.9-8.8c0.4-0.1,2.4-3.3,3-5.1
		c0.3-2.5,4-8.5,2.5-6.9c-1,1.6-2,4-3.2,5.1c0.5-1.1,1.1-2.2,1.7-3.3l-1.5,1.7c-1,1.7-2,3.5-2.9,5.3c0.7-0.8,1-0.7,0,1.7
		c-0.1-0.4-0.8,0.5-0.3-0.8c-0.3,0.4-0.5,0.8-0.8,1.3c-0.8,1.6-1.5,3.3-2.3,5c0,0.2,0.1,0.2,0.4,0c1.3-4.9,1.4-0.6,2.5-4.4
		c-0.4,2.1-1.5,3.9-2,5.8c0,0.3-0.1,0.6-0.2,1c0.1-0.3,0.1-0.7,0.2-1c0.4-2.1-1.2,0-2.5,2.8c-0.4,1.3-1.7,4.7-2.2,6.9
		c0.7-0.6,0.4,1.3,1.7-2.1c-0.3,1.3-0.8,3.3-1.7,5.4c0.2-0.9,0.6-2.5,0.4-2.4c-0.9,1.3-1.3,3-1.8,3.9c-0.2,0.7-0.3,1.5-0.5,2.3
		c0.1-0.2,0.2-0.4,0.3-0.5l-0.1,2.6c0.5-3.4,0.6-1.5,0.9-1.4c-0.6-0.2-0.6,2.1-0.8,3.2l1.2-2.3c0,1.2-1.3,4.1-0.6,3.6L32.9,100.3z
		 M40.5,79.5c-0.5,1.2-1.1,2.3-1.7,3.6C38.3,83.1,40.1,79.9,40.5,79.5z"/>
	<path class="st0" d="M41.9,177.6c-0.1-0.6-0.5-1.5-0.9-2.4L41.9,177.6z"/>
	<path class="st0" d="M28.2,114.5c0.7-3,0.3-2.4,0.1-2.9c-0.2,1.1-0.3,2.1-0.5,3.2C28,114.5,28.1,114.3,28.2,114.5z"/>
	<path class="st0" d="M26.3,121.8c-0.1,1-0.2,1.9-0.2,2.9c0.5-0.6,0.4,1.9,0.3,9.4l0.1,1c0.1-2.1,0.2-5.6,0.3-9
		C26.6,125.3,26.4,123.6,26.3,121.8z"/>
</g>
<g>
	<rect x="167.8" y="173.7" class="st1" width="1.8" height="12.3"/>
	<path class="st1" d="M182,177.9v-1.5c0-1.7-1-2.9-2.6-2.9c-1.6,0-2.7,1.2-2.7,2.9v6.8c0,1.7,1.1,2.9,2.7,2.9c1.8,0,2.6-1.5,2.6-2.8
		v-1.4h-1.7v1.4c0,0.3-0.1,1.2-0.9,1.2c-0.7,0-0.9-0.7-0.9-1.2v-6.8c0-0.7,0.4-1.2,0.9-1.2c0.5,0,0.9,0.1,0.9,1.2v1.5H182z"/>
	<polygon class="st1" points="175.2,155.4 157.9,155.4 157.9,81.3 145.9,81.3 145.9,166.6 175.2,166.6 	"/>
	<polygon class="st1" points="159.3,173.6 158.6,176.2 158.1,178.2 157.6,176.3 156.8,173.6 155,173.6 157.1,181.2 155.5,186 
		157.3,186 158,183.9 158.7,186 160.5,186 159,181.2 161.1,173.6 	"/>
	<polygon class="st1" points="215.5,186 215.5,173.7 213.7,173.7 213.7,180.1 211.5,173.7 209.9,173.7 209.9,186 211.7,186 
		211.7,179.6 213.9,186 	"/>
	<polygon class="st1" points="148.6,175.3 148.6,173.7 143.7,173.7 143.7,186 148.6,186 148.6,184.3 145.5,184.3 145.5,182.9 
		147.9,182.9 147.9,181.3 145.5,181.3 145.5,175.3 	"/>
	<rect x="201.1" y="173.7" class="st1" width="1.8" height="12.3"/>
	<path class="st1" d="M188.6,186h1.8l0.5-3h1.1l0.5,3h1.8l-1.9-12.3h-1.8L188.6,186z M191.4,179.2l0.3,2h-0.6L191.4,179.2z"/>
	<path class="st1" d="M215.5,166.6l-13.3-85.3h-12L177,166.6h12l3.3-21.2h8l3.3,21.2H215.5z M193.9,134l2.4-15.4l2.4,15.4H193.9z"/>
	<path class="st1" d="M82.8,186v-2.5c0-0.6-0.2-1.2-0.7-1.6c0.4-0.5,0.6-1.2,0.6-1.7v-3.8c0-0.9-0.2-1.5-0.7-2
		c-0.5-0.5-1.1-0.7-2-0.7h-2.5V186h1.8v-3h1.2c0.4,0,0.6,0.2,0.6,0.5v2.5H82.8z M81,180.2c0,0.8-0.6,1.1-0.9,1.1h-0.8v-6H80
		c0.2,0,0.9,0,0.9,1.1V180.2z"/>
	<path class="st1" d="M67.9,173.6c-1.5,0-2.7,1.2-2.7,2.9v6.8c0,1.7,1.1,2.8,2.7,2.8c1.6,0,2.6-1.1,2.6-2.8v-2h-3.4v1.7h1.7v0.4
		c0,1-0.5,1.1-0.9,1.1c-0.6,0-0.9-0.4-0.9-1.1v-6.8c0-0.6,0.2-1.2,0.9-1.2c0.6,0,0.9,0.4,0.9,1.2v1.5h1.7v-1.5
		C70.5,174.8,69.5,173.6,67.9,173.6z"/>
	<rect x="89.8" y="173.7" class="st1" width="1.8" height="12.3"/>
	<polygon class="st1" points="102.9,184.3 100.5,184.3 100.5,173.7 98.7,173.7 98.7,186 102.9,186 	"/>
	<polygon class="st1" points="109.9,173.7 109.9,186 114.1,186 114.1,184.3 111.6,184.3 111.6,173.7 	"/>
	<polygon class="st1" points="134.4,173.6 133.3,180.7 132.2,173.6 130.3,173.6 129.8,186 131.6,186 131.7,181.6 132.4,185.8 
		134.1,185.8 134.8,181.5 135,186 136.7,186 136.3,173.6 	"/>
	<path class="st1" d="M142.3,147.9v-47.8c0-5.2-1.7-10-4.7-13.5c-1.6-1.9-3.5-3.4-5.7-4.4c-2.3-1.1-4.9-1.6-7.6-1.6
		c-5.8,0-10.6,2.1-14,6.1c-3,3.5-4.7,8.2-4.7,13.3v48c0,5.2,1.8,10,4.9,13.6c1.7,1.8,3.7,3.3,6,4.3c2.4,1,5,1.6,7.8,1.6
		c2.9,0,5.5-0.6,7.9-1.7c2.2-1.1,4.2-2.6,5.7-4.5C140.8,157.7,142.3,153,142.3,147.9z M130.7,147.9c0,1.9-0.5,8.2-6.4,8.2
		c-6.3,0-6.8-6.2-6.8-8.1v-48c0-3.1,0.9-8.2,6.8-8.2c2,0,3.6,0.8,4.7,2.3c1.1,1.5,1.7,3.7,1.7,6V147.9z"/>
	<polygon class="st1" points="102,81.3 90.3,81.3 90.3,135.1 77.1,135.1 77.1,81.3 65.2,81.3 65.2,166.6 77.1,166.6 77.1,146.3 
		90.3,146.3 90.3,166.6 102,166.6 	"/>
</g>
</svg>
