<svg xmlns="http://www.w3.org/2000/svg" viewBox="0 0 3754.29 530.07"><defs><style>.cls-1{fill:#666;}</style></defs><title>blanchetteAsset 1</title><g id="Layer_2" data-name="Layer 2"><g id="Calque_1" data-name="Calque 1"><polygon class="cls-1" points="166.79 90.35 166.79 38.8 51.55 38.8 0 38.8 0 90.35 0 478.52 0 530.07 51.55 530.07 166.79 530.07 166.79 478.52 51.55 478.52 51.55 90.35 166.79 90.35"/><polygon class="cls-1" points="3587.51 90.35 3587.51 38.8 3702.74 38.8 3754.29 38.8 3754.29 90.35 3754.29 478.52 3754.29 530.07 3702.74 530.07 3587.51 530.07 3587.51 478.52 3702.74 478.52 3702.74 90.35 3587.51 90.35"/><path class="cls-1" d="M1397.59,34.6c0-19,14-34.6,33.5-34.6a28.45,28.45,0,0,1,20.84,8.73,10,10,0,0,0,3.39-5.89h2v24h-2.19c-2.93-14.19-11.44-21.94-23.67-21.94-17.46,0-23.34,16.15-23.34,29.69s5.24,29.78,25.42,29.78c9.49,0,18-4.91,18-14.73,0-4.69-1.63-7.09-9.17-7.09v-2.3h25.33v2.3c-6.35,0-8.2,1.75-8.2,12.66v8.29c-12.11,0-15.93,5.67-27.27,5.67C1411.24,69.18,1397.59,53.58,1397.59,34.6Z"/><path class="cls-1" d="M1581.38,65c9.06,0,10.36-1.85,10.36-12.76V16.81c0-10.91-1.3-12.66-10.36-12.66V1.86h29.24c15.16,0,23.46,8.29,23.46,18.44,0,9.49-7.09,17-19.42,18.33l10.69,12.54c6.54,7.64,13.76,13.1,20.3,13.86v2.3h-18L1606,38.63h-5.14V52.27c0,10.91,1.32,12.76,10.38,12.76v2.3h-29.9Zm29.14-30.43c9.49,0,13.86-6.34,13.86-14.3S1620,6,1610.52,6h-9.62V34.6Z"/><path class="cls-1" d="M1757,34.6c0-19,15.28-34.6,36.45-34.6s36.33,15.61,36.33,34.6-15.28,34.58-36.33,34.58S1757,53.58,1757,34.6Zm62.32,0c0-13.54-7.09-30.12-25.87-30.12s-26,16.58-26,30.12,7.09,30.11,26,30.11S1819.32,48.12,1819.32,34.6Z"/><path class="cls-1" d="M1955.13,43V16.81c0-10.91-1.32-12.66-10.38-12.66V1.86h29.9V4.15c-9.06,0-10.37,1.75-10.37,12.66V43.54c0,14,8.29,20.52,18.65,20.52,10.93,0,19.66-6.67,19.66-20.52V16.81c0-10.91-1.43-12.66-10.49-12.66V1.86h26V4.15c-9.06,0-10.48,1.75-10.48,12.66V43c0,17.13-11.78,26.19-26.3,26.19S1955.13,60.12,1955.13,43Z"/><path class="cls-1" d="M2135.43,65c9.06,0,10.37-1.85,10.37-12.76V16.81c0-10.91-1.31-12.66-10.37-12.66V1.86h28.8c15.17,0,23.47,8.29,23.47,18.44s-8.3,18.44-23.47,18.44H2155V52.27c0,10.91,1.3,12.76,10.36,12.76v2.3h-29.9Zm28.69-30.43c9.51,0,13.86-6.34,13.86-14.3S2173.63,6,2164.12,6H2155V34.6Z"/><path class="cls-1" d="M2302.36,65c9.07,0,10.38-1.85,10.38-12.76V16.81c0-10.91-1.31-12.66-10.38-12.66V1.86h49.76l1,14.62h-2.29l-.55-2.18c-1.42-5.46-2.61-8.19-12.65-8.19h-15.71V30.55h5c10.91,0,12.65-1.09,12.65-10.25h2.29V45.07h-2.29c0-9.17-1.74-10.26-12.65-10.26h-5V50.63c0,10.91,1.3,12.44,10.36,12.44h8.94c10,0,11.24-2.73,12.67-8.29l.53-2.18h2.29l-.87,14.73h-53.47Z"/><path d="M253.48,416c36.25,0,41.49-7.43,41.49-51.1V223c0-43.68-5.24-50.66-41.49-50.66v-9.18H371c55.46,0,84.28,29.27,84.28,65.52,0,22.71-14,42.36-34.06,54.15,33.63,10.48,55.9,37.55,55.9,69,0,40.61-33.19,73.37-93.89,73.37H253.48ZM368.79,277.6c32.74,0,48-21.84,48-48.91s-15.29-49.36-48-49.36H331.67V277.6Zm14,131.45c38,0,55.9-25.77,55.9-57.21,0-31.88-17.89-58.08-55.9-58.08H331.67v64.63c0,43.68,5.24,50.66,41.49,50.66Z"/><path d="M558.2,416c36.25,0,41.49-7.43,41.49-51.1V223c0-43.68-5.24-50.66-41.49-50.66v-9.18H677.88v9.18c-36.25,0-41.5,7-41.5,50.66V357.52c0,43.67,5.25,50.66,41.5,50.66h38.41c39.75,0,44.55-11.36,50.23-33.19l2.19-8.74h9.17l-3.5,59H558.2Z"/><path d="M849.81,416c36.69,0,38.43-7,52-38l94.33-218.36h10L1100.93,378c13.54,31,15.28,38,51.53,38v9.17H1029.31V416c36.25,0,44.54-9.18,34.06-33.19l-21-48H939.77l-20.52,48c-10,23.58-2.19,33.19,34.06,33.19v9.17H849.81ZM1035,318.22,991.32,214.28,947.2,318.22Z"/><path d="M1288.34,219.51V364.94c0,43.67,5.67,51.1,41.92,51.1v9.17H1228.07V416c36.25,0,41.49-7.43,41.49-51.1V223c0-43.68-5.24-50.66-41.49-50.66v-9.18h61.59l165.07,198.71V223c0-43.68-5.24-50.66-41.49-50.66v-9.18h102.2v9.18c-36.24,0-41.93,7-41.93,50.66V430.45h-10Z"/><path d="M1598.16,294.19c0-76,55.9-138.44,134.08-138.44,30.56,0,61.14,11.36,83.41,34.94,5.69-4.36,11.35-12.66,13.54-23.58H1837v96.08h-8.72c-12.23-56.78-45.86-87.78-94.34-87.78-69.86,0-93.89,64.63-93.89,118.78S1664.12,413,1734,413c48.48,0,82.11-31.89,94.34-87.79H1837v96.08h-7.85c-2.19-10.48-7.85-19.65-13.54-23.58-22.27,23.14-52.85,34.94-83.41,34.94C1654.06,432.64,1598.16,370.18,1598.16,294.19Z"/><path d="M1936.64,416c36.25,0,41.49-7.43,41.49-51.1V223c0-43.68-5.24-50.66-41.49-50.66v-9.18h119.65v9.18c-36.25,0-41.49,7-41.49,50.66V277.6h144.57V223c0-43.68-5.69-50.66-41.94-50.66v-9.18H2238v9.18c-36.69,0-41.94,7-41.94,50.66V364.94c0,43.67,5.25,51.1,41.94,51.1v9.17H2117.43V416c36.25,0,41.94-7.43,41.94-51.1V294.63H2014.8v70.31c0,43.67,5.24,51.1,41.49,51.1v9.17H1936.64Z"/><path d="M2329.88,416c36.25,0,41.49-7.43,41.49-51.1V223c0-43.68-5.24-50.66-41.49-50.66v-9.18H2529L2533,221.7h-9.17L2521.6,213c-5.68-21.84-10.48-32.76-50.65-32.76H2408V278h20.1c43.68,0,50.66-4.36,50.66-41H2488v99.13h-9.17c0-36.69-7-41.06-50.66-41.06H2408v63.33c0,43.68,5.25,49.79,41.49,49.79h35.83c40.17,0,45-10.92,50.66-33.19l2.18-8.74h9.17l-3.5,59h-214Z"/><path d="M2690.27,416c36.25,0,41.91-7.43,41.91-51.1V180.2H2689.4c-40.2,0-45,10.49-50.66,32.76l-2.19,8.74h-9.17l3.93-58.53h238.44l3.94,58.53h-9.18l-2.17-8.74c-5.69-22.27-10.48-32.76-50.68-32.76h-42.78V364.94c0,43.67,5.66,51.1,41.91,51.1v9.17H2690.27Z"/><path d="M3015.83,416c36.25,0,41.91-7.43,41.91-51.1V180.2H3015c-40.2,0-45,10.49-50.66,32.76l-2.19,8.74h-9.17l3.93-58.53h238.44l3.94,58.53h-9.18L3187.9,213c-5.69-22.27-10.48-32.76-50.68-32.76h-42.78V364.94c0,43.67,5.66,51.1,41.91,51.1v9.17H3015.83Z"/><path d="M3283.32,416c36.25,0,41.49-7.43,41.49-51.1V223c0-43.68-5.24-50.66-41.49-50.66v-9.18h199.15l3.93,58.53h-9.17L3475,213c-5.68-21.84-10.48-32.76-50.65-32.76h-62.91V278h20.1c43.68,0,50.66-4.36,50.66-41h9.17v99.13h-9.17c0-36.69-7-41.06-50.66-41.06h-20.1v63.33c0,43.68,5.25,49.79,41.49,49.79h35.83c40.17,0,45-10.92,50.66-33.19l2.18-8.74h9.17l-3.5,59h-214Z"/></g></g></svg>