<svg xmlns="http://www.w3.org/2000/svg" viewBox="0 0 720 720"><defs><style>.cls-1{fill:#fff;}.cls-2{fill:#120f0c;}</style></defs><title>b-greyAsset 1</title><g id="Layer_2" data-name="Layer 2"><g id="Calque_1" data-name="Calque 1"><rect class="cls-1" width="720" height="720"/><path class="cls-2" d="M132.71,473.31v-13.2h21.36V475q0,12.36,2.1,17.36t7.9,5c3.87,0,6.44-1.38,7.7-4.12s1.89-7.24,1.89-13.46a36.93,36.93,0,0,0-3.36-16.27A58.13,58.13,0,0,0,159.62,449l-10.94-11.27a67.18,67.18,0,0,1-11.89-16.56,44.1,44.1,0,0,1-4.25-19.85q0-18.33,7.06-27.25t24.31-8.91q17.24,0,23.33,10.39t6.1,30.31V415H172.57v-10.6q0-10.76-1.85-15.43a7,7,0,0,0-7.11-4.67c-3.5,0-6,1.18-7.57,3.54s-2.31,5.88-2.31,10.59.79,8.47,2.36,11.27a60.52,60.52,0,0,0,8.49,10.76l12.19,13.21a77.84,77.84,0,0,1,13.84,20.09A52.68,52.68,0,0,1,195.27,476q0,20.76-7,30.69t-24.43,9.92q-17.45,0-24.3-11.06T132.71,473.31Z"/><path class="cls-2" d="M209.31,514.94v-148h22.54v62.48H252V366.94h22.54v148H252V448.42H231.85v66.52Z"/><path class="cls-2" d="M288.16,514.94l21.11-148H339l22.45,148h-21l-3.53-26.4H313.05l-3.19,26.4Zm46.42-44.48-9.92-74.34h-.34l-9.08,74.34Z"/><path class="cls-2" d="M375.11,514.94v-148h22.53v68.11l22.54-68.11h23.3l-24.56,73,26.49,75h-23.8l-23.8-69.12v69.12Z"/><path class="cls-2" d="M457.09,514.94v-148h49.62v19.42H479.63v43.06h25.73v19H479.63v47.1h28.09v19.42Z"/><path class="cls-2" d="M552.23,445.39l-7.24-.33v69.88H522.46v-148h37.25q11.61,0,17.32,4.66t7.53,13q1.82,8.37,1.81,21.86t-2.86,20.56a16,16,0,0,1-10.6,9.51q7.65,1.33,10.68,10.34t3,37.46q0,28.47.84,30.57H564.92q-.84-1.68-.84-53.06,0-9.84-2.35-13.08T552.23,445.39Zm-7.15-17.82h9q4.29,0,6.34-1.94t2.86-6.64a93,93,0,0,0,.8-14.38v-.93q0-12-2-15.72t-9.34-3.7h-7.65Z"/><path class="cls-2" d="M172.31,556.24a9.2,9.2,0,0,1,.64-4,5.39,5.39,0,0,1,1.38-1.86,7.62,7.62,0,0,1,4.78-1.31q4.39,0,5.67,2.71a9.77,9.77,0,0,1,.73,4.13v2.63H181.6v-2.64a8.77,8.77,0,0,0-.36-3.09,2.11,2.11,0,0,0-.85-1.06,2.7,2.7,0,0,0-1.28-.27,2.32,2.32,0,0,0-2.2,1.06,6.93,6.93,0,0,0-.61,3.34v10.28a9,9,0,0,0,.55,3.77A2.15,2.15,0,0,0,179,571a2.12,2.12,0,0,0,2.1-1.08,9.49,9.49,0,0,0,.53-3.78v-2.63h4v2.6q0,3.74-1.46,5.5T179,573.41q-3.63,0-5.17-1.82c-1-1.2-1.54-3-1.54-5.47Z"/><path class="cls-2" d="M204.46,549.38h4V567q0,3.33-1.5,4.85c-1,1-2.72,1.53-5.17,1.53s-4.19-.51-5.2-1.53S195,569.25,195,567V549.38h4V567a8,8,0,0,0,.28,2.84,3.09,3.09,0,0,0,.59.74,2.7,2.7,0,0,0,1.87.51,2.85,2.85,0,0,0,2-.57,2.25,2.25,0,0,0,.69-1.68c0-.75.05-1.36.05-1.82Z"/><path class="cls-2" d="M218.43,549.38h4v23.75h-4Z"/><path class="cls-2" d="M232.5,556.74a5.25,5.25,0,0,1-.35-2,5.92,5.92,0,0,1,1.36-4.1q1.35-1.51,5.19-1.51,4.94,0,5.82,3.31a14.11,14.11,0,0,1,.38,3.61v1.4h-3.81v-1.59a9.18,9.18,0,0,0-.33-3.05,2,2,0,0,0-.81-1,2.67,2.67,0,0,0-1.25-.26,2.59,2.59,0,0,0-2.08.75,4.15,4.15,0,0,0-.06,4.33,7.82,7.82,0,0,0,1.43,1.28l.94.7,2.31,1.71c2.78,2,4.17,4.31,4.17,6.83a7.18,7.18,0,0,1-1.36,4.7c-.91,1.08-2.63,1.63-5.18,1.63-3.07,0-5-.95-5.84-2.84a10.39,10.39,0,0,1-.71-4.17V564h3.88v2.42a8.49,8.49,0,0,0,.54,3.62,2,2,0,0,0,2,1,3.17,3.17,0,0,0,2-.48,2.06,2.06,0,0,0,.65-1.46q.09-1,.09-2.22,0-2.46-3.11-4.64l-2.21-1.55A10.11,10.11,0,0,1,232.5,556.74Z"/><path class="cls-2" d="M254.86,549.38h4v23.75h-4Z"/><path class="cls-2" d="M279.44,549.38H283v23.75H280l-7.61-16.3.23,6v10.31H269V549.38h3l7.86,16.16-.4-6.86Z"/><path class="cls-2" d="M292.94,549.38h10.14v2.32h-6.15v8.12h5.82v2.32h-5.82v8.67h6.23v2.32H292.94Z"/><path class="cls-2" d="M344.69,563.82a21.22,21.22,0,0,0-3.62,4.38q3.06,4.72,3.18,4.93H340.7c-.2-.36-.7-1.13-1.5-2.34a7.83,7.83,0,0,1-2.54,1.93,9.24,9.24,0,0,1-3.89.68,6.29,6.29,0,0,1-4.1-1.33,4.57,4.57,0,0,1-1.63-3.76,6.25,6.25,0,0,1,1.52-4.2,31.07,31.07,0,0,1,3.88-3.67c-2-3.31-3-5.55-3-6.7a4.13,4.13,0,0,1,1.53-3.47,7.19,7.19,0,0,1,4.46-1.18,6.19,6.19,0,0,1,4.22,1.17,4.19,4.19,0,0,1,1.29,3.29,5.77,5.77,0,0,1-1.29,3.72,31.31,31.31,0,0,1-3.31,3.39q1.09,1.89,3.08,5a23.48,23.48,0,0,1,3.57-3.77Zm-7.16,4.49q-2.26-3.33-3.61-5.48-3.26,3-3.26,5.62c0,1.72,1,2.59,3,2.59a3.25,3.25,0,0,0,2-.67A10.29,10.29,0,0,0,337.53,568.31Zm-2.51-10q2.84-2.5,2.83-4.68a3.21,3.21,0,0,0-.45-2,2.09,2.09,0,0,0-1.73-.58,2.67,2.67,0,0,0-1.81.48,1.78,1.78,0,0,0-.59,1,6.33,6.33,0,0,0-.08,1.12Q333.19,554.92,335,558.31Z"/><path class="cls-2" d="M382.63,549.38h5v23.75h-3.55V563.6l.33-8.88-4.6,18.36h-3.61l-4.79-18.36.32,8.88v9.53h-3.53V549.38h5L378,568.9Z"/><path class="cls-2" d="M397.73,549.38h4v23.75h-4Z"/><path class="cls-2" d="M420.87,549.38h3.58l-4.7,12.18,4.85,11.57h-3.47l-3.44-8.21-3.05,8.21H411l4.85-12.58-4.7-11.17h3.49l3.31,7.91Z"/><path class="cls-2" d="M432.68,555.83q0-4.05,2.08-5.56a8.06,8.06,0,0,1,4.76-1.18q4.55,0,5.82,2.61a9.59,9.59,0,0,1,.75,4.13V566.3q0,3.71-1.48,5.4c-1,1.13-2.73,1.7-5.2,1.7s-4.21-.57-5.22-1.7-1.51-2.94-1.51-5.4Zm9.42-.16a7.16,7.16,0,0,0-.52-3.23,2.19,2.19,0,0,0-2.1-1,2.39,2.39,0,0,0-2.2,1,6.24,6.24,0,0,0-.61,3.2v10.67a8.58,8.58,0,0,0,.54,3.69,2.9,2.9,0,0,0,4.35,0,8.51,8.51,0,0,0,.54-3.67Z"/><path class="cls-2" d="M455.87,549.38h4v21.44h6.27v2.31H455.87Z"/><path class="cls-2" d="M474.54,555.83q0-4.05,2.09-5.56a8.06,8.06,0,0,1,4.76-1.18q4.55,0,5.82,2.61a9.59,9.59,0,0,1,.75,4.13V566.3q0,3.71-1.49,5.4c-1,1.13-2.72,1.7-5.19,1.7s-4.21-.57-5.22-1.7-1.52-2.94-1.52-5.4Zm9.43-.16a7.16,7.16,0,0,0-.52-3.23,2.19,2.19,0,0,0-2.1-1,2.39,2.39,0,0,0-2.2,1,6.24,6.24,0,0,0-.61,3.2v10.67a8.62,8.62,0,0,0,.53,3.69,2.91,2.91,0,0,0,4.36,0,8.51,8.51,0,0,0,.54-3.67Z"/><path class="cls-2" d="M497.52,556.1c0-3.49,1.18-5.65,3.54-6.5a9.56,9.56,0,0,1,3.05-.5,8.41,8.41,0,0,1,4.49.92,4.21,4.21,0,0,1,1.79,2.45,14.46,14.46,0,0,1,.41,3.69V558h-3.86V554.9a4.83,4.83,0,0,0-.53-2.6,2.33,2.33,0,0,0-2.08-.79,2.41,2.41,0,0,0-2.19,1,6.91,6.91,0,0,0-.63,3.48v10a9.81,9.81,0,0,0,.55,4,2.25,2.25,0,0,0,2.21,1.12,2.34,2.34,0,0,0,2.26-1.15,9.32,9.32,0,0,0,.6-4v-3.09h-2.75v-2.16h6.42v12.47h-2.11l-.54-1.84q-1.12,2.07-4.34,2.07a6,6,0,0,1-4.75-1.75q-1.55-1.75-1.54-5.55Z"/><path class="cls-2" d="M520.75,549.38h4v23.75h-4Z"/><path class="cls-2" d="M534.86,549.38H545v2.32h-6.15v8.12h5.82v2.32h-5.82v8.67h6.23v2.32H534.86Z"/><path class="cls-2" d="M290.35,237.64v3.27c0,3.94-2,6.19-5.76,6.19s-5.77-2.25-5.77-6.19V228.12c0-3.94,2-6.19,5.77-6.19s5.76,2.25,5.76,6.19v2.39H286.7v-2.64c0-1.76-.78-2.43-2-2.43s-2,.67-2,2.43v13.29c0,1.76.78,2.39,2,2.39s2-.63,2-2.39v-3.52Z"/><polygon class="cls-2" points="433.16 239.68 435.79 222.21 441.18 222.21 441.18 246.82 437.52 246.82 437.52 229.17 434.84 246.82 431.19 246.82 428.31 229.42 428.31 246.82 424.93 246.82 424.93 222.21 430.31 222.21 433.16 239.68"/><path class="cls-2" d="M337.44,253c-1.66.68-4.18,2.21-5.9,6.28a6.24,6.24,0,0,1-2.3,1.95c-1.42.46-4.8,1.62-6.93,6.67a6.46,6.46,0,0,1-2.3,1.94c-1.4.46-4.7,1.57-6.84,6.41a18.34,18.34,0,0,1-1.2,1.4,3.68,3.68,0,0,1-1.2.8,10.45,10.45,0,0,0-4,2.25c-.23.19-.46.43-.7.66a10.2,10.2,0,0,0-2.8,4.05c-.73,1.79-5.41,4.19-5.41,4.19h0l-10.71,10c-3.13.91-12.37,6.76-12.48,6.86l-5,3.47c-1,.88,0,3.45,2.09,5.7l.78.82c2.09,2.25,4.59,3.37,5.53,2.49l3.81-4.72c.07-.06,7.05-9.05,8-11.87l10.61-9.89a6,6,0,0,0,1.91-3.57h0a22.09,22.09,0,0,0,6.73-3.86,1.7,1.7,0,0,0,.14-.1l0,0,.05,0c.05,0,.08-.1.13-.14l0,0c.05-.05.12-.08.18-.13a21.68,21.68,0,0,0,4.46-6.57,8.8,8.8,0,0,0,4.77-2,21.88,21.88,0,0,0,4.47-6.57,8.9,8.9,0,0,0,4.77-2,22.3,22.3,0,0,0,4.47-6.58,8.73,8.73,0,0,0,4.76-2,18.18,18.18,0,0,0,2.54-3.1C339.18,254.8,338.33,254,337.44,253Z"/><path class="cls-2" d="M369.43,226.67a9.69,9.69,0,0,0,4.88-2.28,19.24,19.24,0,0,0,3.09-3.9.59.59,0,0,0,0-.08c.17-.26.32-.52.48-.8l.22-.4.25-.48c.18-.34.34-.68.49-1a8.85,8.85,0,0,0,4.77-2.05,21.88,21.88,0,0,0,4.47-6.57,8.73,8.73,0,0,0,4.76-2,21.85,21.85,0,0,0,4.52-6.65h0a6,6,0,0,0,3.69-1.67l11.45-10.67a29.42,29.42,0,0,1,4.69-2c7.29-2.4,20.46-5.1,26.85-10.4,5.24-4.37,10.42-13.12,2.4-21.82h0s0,0,0,0l0-.05h0c-8.13-8.61-17.21-4.05-21.93.88-5.74,6-9.35,19-12.26,26.05A30.6,30.6,0,0,1,410,185.1l-11.55,10.77h0s-2.73,4.5-4.56,5.1c-1.42.47-4.8,1.62-6.94,6.67a6.1,6.1,0,0,1-2.3,1.94c-1.42.47-4.8,1.63-6.93,6.68a6.37,6.37,0,0,1-2.3,1.94,10.29,10.29,0,0,0-3.57,1.95,12.17,12.17,0,0,0-3.47,4.8c-.09.12-.19.23-.29.34Z"/><path class="cls-2" d="M362.59,223.59C343.5,202.08,279.7,147.52,272,145.65c0,0,7.38,43.66,81.79,119.91l9.84-7.38s8.61-4.3,12.91,0,20.27,32.31,37.51,41.82c13.74,7.57,8,14.14,8,14.14s3,6.27,8.52,8.36c0,0,8,1.73,17.35-16,0,0-66.29-61.42-85.37-82.94m-8,35.4a3.13,3.13,0,1,1,3.12-3.12,3.11,3.11,0,0,1-3.12,3.12m85.72,51.71a3.13,3.13,0,1,1,3.12-3.13,3.12,3.12,0,0,1-3.12,3.13"/><path class="cls-2" d="M360,154.76c3.77,0,5.7,2.25,5.7,6.18v.78h-3.66v-1c0-1.76-.7-2.43-1.93-2.43s-1.94.67-1.94,2.43c0,5.06,7.57,6,7.57,13,0,3.94-2,6.19-5.77,6.19s-5.77-2.25-5.77-6.19v-1.51h3.66V174c0,1.76.77,2.39,2,2.39s2-.63,2-2.39c0-5.06-7.56-6-7.56-13.05,0-3.93,1.93-6.18,5.69-6.18"/><path class="cls-2" d="M368,310.88l8.73-7.55s-1.38-.61-2-1-.23-1.19-.23-1.19l1.57-5.67s-4,1-5,1.19-1.07-.5-1.07-.5l-.62-2.53-4.06,4.83s-.65.5-1.07.34-.3-1-.3-1l1.76-9.92s-.65.31-2.15,1.11-1.84-.34-1.84-.34l-3.14-6.06-3.14,6.06s-.34,1.15-1.84.34-2.15-1.11-2.15-1.11l1.77,9.92s.11.81-.31,1-1.07-.34-1.07-.34l-4.07-4.83-.61,2.53s0,.73-1.07.5-5-1.19-5-1.19l1.57,5.67s.38.8-.23,1.19-2,1-2,1l8.73,7.55s.62.27.23,1.46-.69,2.45-.69,2.45l8.82-1.15s.57-.15.57.84-.38,9.32-.38,9.32h1.76s-.38-8.32-.38-9.32.57-.84.57-.84l8.81,1.15s-.3-1.26-.68-2.45S368,310.88,368,310.88Z"/><path class="cls-2" d="M603.22,500.83h2.06v13.94h-1.46v-5.59L604,504l-1.89,10.78h-1.48l-2-10.78.14,5.21v5.59h-1.45V500.83h2l2,11.46Z"/><path class="cls-2" d="M607.4,504.85a7.79,7.79,0,0,1,.26-2.33,3.21,3.21,0,0,1,.57-1.09,2.53,2.53,0,0,1,2-.77,2.23,2.23,0,0,1,2.33,1.59,8,8,0,0,1,.3,2.43v1.54h-1.61v-1.55a7.12,7.12,0,0,0-.15-1.81,1.22,1.22,0,0,0-.35-.62.81.81,0,0,0-.52-.16.92.92,0,0,0-.91.62,5.59,5.59,0,0,0-.25,2v6a7.1,7.1,0,0,0,.23,2.22.85.85,0,0,0,.87.63.84.84,0,0,0,.86-.64,7.51,7.51,0,0,0,.22-2.22v-1.54h1.62v1.53a6.82,6.82,0,0,1-.59,3.23,2.21,2.21,0,0,1-2.09,1,2.27,2.27,0,0,1-2.13-1.07,6.45,6.45,0,0,1-.63-3.21Z"/></g></g></svg>