<?xml version="1.0" encoding="utf-8"?>
<!-- Generator: Adobe Illustrator 19.0.0, SVG Export Plug-In . SVG Version: 6.00 Build 0)  -->
<svg version="1.1" id="Calque_1" xmlns="http://www.w3.org/2000/svg" xmlns:xlink="http://www.w3.org/1999/xlink" x="0px" y="0px"
	 viewBox="0 0 1000 1000" style="enable-background:new 0 0 1000 1000;" xml:space="preserve">
<style type="text/css">
	.st0{fill:none;}
	.st1{fill:#555759;}
	.st2{fill-rule:evenodd;clip-rule:evenodd;fill:#95D600;}
	.st3{fill:#95D600;}
</style>
<g>
	<g>
		<g>
			<g>
				<path class="st0" d="M311,685.6h-0.8l-1.9,7.3h0.9c3.2,0,6.6-0.5,7.5-3.6C317.5,685.9,314.5,685.6,311,685.6z"/>
				<path class="st0" d="M678.9,612.1c0.3-1.1,0.1-1.5,0.1-1.5c-0.1-0.1-0.7-0.8-5.2-0.8h-10.7l-1.8,6.8h8.5
					C676.7,616.7,678.3,614.5,678.9,612.1z"/>
				<polygon class="st0" points="433.3,695.9 442,695.9 439.9,687.8 				"/>
				<path class="st0" d="M287.8,685.3c-5.9,0-11.5,3.8-12.7,8.4c-1.2,4.6,2.4,8.4,8.3,8.4c5.8,0,11.5-3.8,12.7-8.4
					C297.3,689,293.7,685.3,287.8,685.3z"/>
				<polygon class="st0" points="618.4,695.9 627.1,695.9 625,687.8 				"/>
				<path class="st0" d="M108.8,606.6c10.8,0,12.3-5.3,12.7-7.1c0.5-1.9,0.5-3.3-0.2-4.1c-1.1-1.4-4.4-2.2-9.8-2.2h-11.4l-3.6,13.4
					H108.8z"/>
				<polygon class="st0" points="213.7,624.2 221.6,624.2 220,615.4 				"/>
				<path class="st0" d="M833.7,611.2c-1.3-1.7-3.7-2.6-7.1-2.6c-8.2,0-14.3,5.3-16.7,14.5c-1.2,4.6-1,8.1,0.5,10.2
					c1.3,1.7,3.7,2.6,7.1,2.6c8.3,0,14.2-5.1,16.7-14.5C835.5,616.8,835.3,613.3,833.7,611.2z"/>
				<path class="st0" d="M260.1,685.6h-1.1l-1.9,7.2h1.9c3.2,0,6-0.8,6.8-3.6C266.7,685.8,263.4,685.6,260.1,685.6z"/>
				<path class="st1" d="M242.1,685.3c2.2,0,3.2,0.8,3.8,2.2l2.6-1.2c-0.8-2-2.9-3.1-5.8-3.1c-3.8,0-7.7,2-8.5,5.1
					c-0.8,2.9,1.5,4.1,4.2,5.2l1.4,0.5c2.1,0.9,4.3,1.7,3.6,4c-0.6,2.3-3.6,3.9-6.3,3.9c-2.8,0-4.3-1.7-4.1-3.8l-3,0.6
					c0,3.1,2.5,5.2,6.6,5.2c4.5,0,8.8-2.7,9.7-6.2c0.9-3.2-1.6-4.5-4.6-5.7l-1.5-0.6c-1.6-0.6-3.6-1.4-3.2-3.2
					C237.5,686.5,239.9,685.3,242.1,685.3z"/>
				<path class="st1" d="M267.1,684.6c-1.6-1-3.9-1.1-6.1-1.1h-4.2l-5.4,20.2h2.9l2.4-8.8h2.1c2.1,0,4.4-0.2,6.4-1.3
					c1.9-1,3.2-2.7,3.6-4.3C269.2,687.4,268.7,685.6,267.1,684.6z M265.9,689.1c-0.8,2.9-3.7,3.6-6.8,3.6h-1.9l1.9-7.2h1.1
					C263.4,685.6,266.7,685.8,265.9,689.1z"/>
				<path class="st1" d="M288.4,683.2c-7.3,0-14.6,4.7-16.2,10.5c-1.6,5.8,3.3,10.4,10.6,10.4s14.6-4.6,16.1-10.4
					C300.5,687.9,295.7,683.2,288.4,683.2z M296.1,693.6c-1.2,4.6-6.9,8.4-12.7,8.4c-5.8,0-9.5-3.8-8.3-8.4
					c1.2-4.6,6.9-8.4,12.7-8.4S297.3,689,296.1,693.6z"/>
				<path class="st1" d="M311.6,683.5h-3.7l-5.4,20.2h2.9l2.4-8.9h0.7l5.4,8.9h3.5l-5.7-9.1c4-0.3,7.1-2.5,7.9-5.6
					C320.7,684.5,316.5,683.5,311.6,683.5z M316.6,689.2c-0.8,3.1-4.2,3.6-7.5,3.6h-0.9l1.9-7.3h0.8
					C314.5,685.6,317.5,685.9,316.6,689.2z"/>
				<polygon class="st1" points="325.8,683.5 325.2,685.6 331.4,685.6 326.5,703.7 329.4,703.7 334.3,685.6 340.5,685.6 
					341.1,683.5 				"/>
				<path class="st1" d="M353.1,685.3c2.2,0,3.2,0.8,3.8,2.2l2.6-1.2c-0.8-2-2.9-3.1-5.8-3.1c-3.8,0-7.7,2-8.5,5.1
					c-0.8,2.9,1.5,4.1,4.2,5.2l1.4,0.5c2.1,0.9,4.3,1.7,3.6,4c-0.6,2.3-3.6,3.9-6.3,3.9c-2.8,0-4.3-1.7-4.1-3.8l-3,0.6
					c0,3.1,2.5,5.2,6.6,5.2c4.4,0,8.8-2.7,9.7-6.2c0.9-3.2-1.6-4.5-4.6-5.7l-1.5-0.6c-1.6-0.6-3.6-1.4-3.2-3.2
					C348.5,686.5,350.8,685.3,353.1,685.3z"/>
				<path class="st1" d="M417,685.3c2.2,0,3.2,0.8,3.8,2.2l2.6-1.2c-0.8-2-2.9-3.1-5.8-3.1c-3.8,0-7.7,2-8.5,5.1
					c-0.8,2.9,1.5,4.1,4.2,5.2l1.4,0.5c2.1,0.9,4.3,1.7,3.6,4c-0.6,2.3-3.6,3.9-6.3,3.9c-2.8,0-4.3-1.7-4.1-3.8l-2.9,0.6
					c0,3.1,2.5,5.2,6.6,5.2c4.5,0,8.8-2.7,9.7-6.2c0.9-3.2-1.6-4.5-4.6-5.7l-1.5-0.6c-1.6-0.6-3.6-1.4-3.2-3.2
					C412.4,686.5,414.7,685.3,417,685.3z"/>
				<path class="st1" d="M423.9,703.7h3.1l4.6-5.7h10.9l1.5,5.7h3.2l-5.8-21.2L423.9,703.7z M433.3,695.9l6.6-8.1l2.1,8.1H433.3z"/>
				<polygon class="st1" points="473.7,699.2 458.2,682.7 452.5,703.7 455.4,703.7 459.6,688.2 475.1,704.6 480.8,683.5 
					477.9,683.5 				"/>
				<polygon class="st1" points="486.2,683.5 485.7,685.6 491.9,685.6 487,703.7 489.9,703.7 494.7,685.6 501,685.6 501.5,683.5 
									"/>
				<polygon class="st1" points="501.4,703.7 514.7,703.7 515.3,701.6 504.8,701.6 507,693.7 517.1,693.7 517.6,691.6 507.5,691.6 
					509.1,685.6 519.6,685.6 520.1,683.5 506.8,683.5 				"/>
				<polygon class="st1" points="517.1,676.8 511.9,681.2 513.4,682 519.7,677.9 				"/>
				<polygon class="st1" points="582.4,683.5 570.9,698.9 567.8,683.5 564.7,683.5 569.3,704.9 585.5,683.5 				"/>
				<polygon class="st1" points="585.3,703.7 588.1,703.7 593.5,683.5 590.7,683.5 				"/>
				<polygon class="st1" points="614.2,683.5 598.9,683.5 598.3,685.6 604.5,685.6 599.6,703.7 602.5,703.7 607.4,685.6 
					613.6,685.6 				"/>
				<path class="st1" d="M609,703.7h3.1l4.6-5.7h10.9l1.5,5.7h3.2l-5.8-21.2L609,703.7z M618.4,695.9l6.6-8.1l2.1,8.1H618.4z"/>
				<polygon class="st1" points="646.5,682.4 635.6,703.7 638.5,703.7 645.5,690.1 645.5,690.1 649.9,704.6 662,690.1 662.1,690.1 
					661.7,703.7 664.6,703.7 665.2,682.4 651.3,699.3 				"/>
				<polygon class="st1" points="670.3,703.7 673.2,703.7 678.6,683.5 675.8,683.5 				"/>
				<polygon class="st1" points="702.1,699.2 686.6,682.7 680.9,703.7 683.8,703.7 688,688.2 703.5,704.6 709.2,683.5 706.3,683.5 
									"/>
				<polygon class="st1" points="711.5,703.7 724.8,703.7 725.3,701.6 714.9,701.6 717,693.7 727.2,693.7 727.7,691.6 717.6,691.6 
					719.2,685.6 729.6,685.6 730.2,683.5 716.9,683.5 				"/>
				<path class="st1" d="M744.2,685.3c2.2,0,3.2,0.8,3.8,2.2l2.6-1.2c-0.8-2-2.9-3.1-5.8-3.1c-3.8,0-7.7,2-8.5,5.1
					c-0.8,2.9,1.5,4.1,4.2,5.2l1.4,0.5c2.1,0.9,4.3,1.7,3.6,4c-0.6,2.3-3.6,3.9-6.3,3.9c-2.8,0-4.3-1.7-4.1-3.8l-3,0.6
					c0,3.1,2.5,5.2,6.6,5.2c4.5,0,8.8-2.7,9.7-6.2c0.9-3.2-1.6-4.5-4.6-5.7l-1.5-0.6c-1.6-0.6-3.6-1.4-3.2-3.2
					C739.6,686.5,741.9,685.3,744.2,685.3z"/>
				
					<rect x="541.8" y="671" transform="matrix(-0.9662 -0.2577 0.2577 -0.9662 889.3824 1501.397)" class="st1" width="2.4" height="42.8"/>
				
					<rect x="383.7" y="671" transform="matrix(-0.9664 -0.2572 0.2572 -0.9664 578.764 1460.5367)" class="st1" width="2.5" height="42.8"/>
				<path class="st1" d="M142.3,601.3c2-7.6,1.4-13.4-1.9-17.7c-4-5.2-11.7-7.7-23.4-7.7H84.1l-19.6,73h20.8l6.7-24.9h16.1
					C133.5,623.9,140.5,608.1,142.3,601.3z M111.6,593.2c5.4,0,8.7,0.7,9.8,2.2c0.6,0.8,0.7,2.2,0.2,4.1c-0.5,1.7-1.9,7.1-12.7,7.1
					H96.6l3.6-13.4H111.6z"/>
				<polygon class="st1" points="154,634.7 164.4,595.7 147.8,595.7 133.6,648.8 174.3,648.8 178.1,634.7 				"/>
				<path class="st1" d="M233.6,595.7H217l-39.7,53.1H196l7.4-10.4h20.9l2.2,10.4h18.3L233.6,595.7z M213.7,624.2l6.3-8.8l1.6,8.8
					H213.7z"/>
				<polygon class="st1" points="272.2,618.9 285.1,648.8 303,648.8 317.2,595.7 301.6,595.7 293.8,624.9 281.3,595.7 262.8,595.7 
					248.6,648.8 264.2,648.8 				"/>
				<polygon class="st1" points="349.5,648.8 353.3,634.7 327.3,634.7 329,628.4 352.9,628.4 356.7,614.3 332.7,614.3 333.9,609.9 
					358.8,609.9 362.6,595.7 321.1,595.7 306.9,648.8 				"/>
				<polygon class="st1" points="415.2,595.7 365.3,595.7 361.5,609.9 378.2,609.9 367.8,648.8 384.3,648.8 394.8,609.9 
					411.5,609.9 				"/>
				<polygon class="st1" points="425.9,628.4 449.9,628.4 453.7,614.3 429.7,614.3 430.9,609.9 455.8,609.9 459.6,595.7 
					418.1,595.7 403.9,648.8 446.5,648.8 450.2,634.7 424.3,634.7 				"/>
				<polygon class="st1" points="525.8,575.8 513.8,620.4 494.8,575.8 470.4,575.8 450.8,648.8 470.2,648.8 482.4,603.3 
					502.1,648.8 525.6,648.8 545.2,575.8 				"/>
				<path class="st1" d="M585,627.8l8.6-32.1H577l-8.2,30.6c-1.8,6.6-5.9,10-12.3,10c-1.8,0-4.3-0.3-5.5-1.8
					c-1.2-1.6-0.9-4.2-0.3-6.2l8.7-32.5h-16.6l-8.6,32.3c-2,7.6,0.1,12.4,2.2,15.2c3.4,4.4,9.3,6.8,16.7,6.8
					C570.5,650,581,642.8,585,627.8z"/>
				<polygon class="st1" points="609.7,609.9 599.2,648.8 615.8,648.8 626.3,609.9 642.9,609.9 646.7,595.7 596.8,595.7 593,609.9 
									"/>
				<path class="st1" d="M687.7,648.8l-0.4-3.6c-0.2-1.7,0.1-3.9,0.8-7.1c1.3-6,2-10.5-0.7-13.9c-0.1-0.1-0.1-0.2-0.2-0.3
					c4.2-2.4,7.2-6.4,8.6-11.6c1.2-4.6,0.7-8.4-1.5-11.3c-2.7-3.6-7.8-5.4-15.2-5.4h-28.8l-14.2,53.1h16.6l4.9-18.4h7.9
					c5.2,0,6.2,0.7,6.3,0.9c0.2,0.2,0.6,1.2-0.5,6.2c-0.9,4.1-1.3,6.9-1,8.5l0.4,2.8H687.7z M663.1,609.9h10.7
					c4.5,0,5.2,0.7,5.2,0.8c0,0,0.2,0.4-0.1,1.5c-0.6,2.4-2.2,4.5-9.1,4.5h-8.5L663.1,609.9z"/>
				<polygon class="st1" points="708.2,648.8 722.4,595.7 705.9,595.7 691.6,648.8 				"/>
				<polygon class="st1" points="775.8,595.7 725.8,595.7 722,609.9 738.7,609.9 728.3,648.8 744.9,648.8 755.3,609.9 772,609.9 
									"/>
				<polygon class="st1" points="779.2,595.7 764.9,648.8 781.5,648.8 795.7,595.7 				"/>
				<path class="st1" d="M848.5,602.1c-3.9-5.1-10.6-7.6-19.9-7.6c-18.1,0-30.6,9.6-35.3,26.9c-2.4,8.9-1.6,16,2.2,21
					c3.9,5.1,10.6,7.6,19.9,7.6c18.1,0,30.6-9.6,35.3-26.9C853.1,614.2,852.4,607.1,848.5,602.1z M817.5,635.9
					c-3.4,0-5.8-0.9-7.1-2.6c-1.6-2.1-1.8-5.6-0.5-10.2c2.5-9.2,8.6-14.5,16.7-14.5c3.4,0,5.8,0.9,7.1,2.6c1.6,2.1,1.8,5.6,0.5,10.2
					C831.7,630.8,825.8,635.9,817.5,635.9z"/>
				<polygon class="st1" points="900.4,595.7 892.6,624.9 880.1,595.7 861.6,595.7 847.4,648.8 863,648.8 871,618.9 883.9,648.8 
					901.8,648.8 916,595.7 				"/>
				<polygon class="st1" points="324.5,584.7 322.5,592 347.5,592 				"/>
			</g>
			<g>
				<g>
					<path class="st2" d="M936.8,287.1c0,0-59.9,229.2-71.5,273.3c0,0-76-0.1-77.1,0c0,0-94-180.5-94.6-182.6
						c-0.2,0-47.2,182.6-47.2,182.6c-23.9,0.1-76.7,0.3-78.6,0.1l0.4-1.5c0-0.1,0.1-0.3,0.1-0.5l0.1-0.4l0.3-1.1l0.3-1.2l0.4-1.4
						l0.2-0.9l0.8-3.1l0.4-1.5l22.7-88.2c17.2-8.1,31.7-20.2,43.1-36.3c17.3-24.5,26.7-51.6,23.4-82c-1.2-11.4-5.5-21.6-12.6-30.5
						c-3.7-4.6-7.9-8.5-12.5-11.6l3.4-13.2c1,0,53.3,0,76.3-0.2c4.1,0,97.3,183.3,97.3,183.3l49.9-183.3L936.8,287.1z"/>
					<path class="st2" d="M568.3,559c0.3-1,0.7-2.6,1.2-4.6L568.3,559z"/>
					<path class="st2" d="M570.5,550.3l-1,4C569.7,553.2,570.1,551.8,570.5,550.3z"/>
					<path class="st2" d="M918.3,286.7"/>
				</g>
				<g>
					<polygon class="st3" points="73.1,423.3 63.2,440.4 73.1,457.5 92.8,457.5 102.7,440.4 92.8,423.3 					"/>
					<path class="st3" d="M651.9,342.5c-1.2-11-5.4-21-12.3-29.7c-9.5-12-22.3-18.3-36.8-21.6c-14.2-3.3-28.8-4.1-43.2-4.2
						c-43.5-0.5-87-0.2-130.4-0.3c-0.3,0-0.7,0-1,0.1h-2.3l-0.7,1.1l-9.2,15.9h-19.6l-9.9,17.1l9.9,17.1l-9.9,17.1H367l-9.9,17.1
						h-19.3L328,355l9.9-17.1h19.4l9.9-17.1l-9.9-17.1h-19.7l-9.9,17.1h-19.4l-9.9,17.1l9.9,17.1l-9.9,17.1H279l-9.9-17.1h-19.7
						l-9.9,17.1h-19.6l-9.9,17.1h-19.3l-9.9-17.1h-19.7l-9.9,17.1h-19.4l-9.9,17.1l9.9,17.1h19.7l9.9-17.1h19.3l9.9,17.1l-9.9,17.1
						l9.9,17.1h19.7l9.9-17.1h19.4l9.9-17.1l-9.9-17.1l9.9-17.1h19.3l9.9,17.1l-9.9,17.1l9.9,17.1l-9.9,17.1h-19.4l-9.9,17.1h-19.6
						l-9.9,17.1l9.9,17.1h19.6l9.9,17.1h19.4l9.9,17.1h19.7l9.9-17.1l-9.9-17.1H279l-9.9-17.1l9.9-17.1h19.3l9.9,17.1h19.4l9.9,17.1
						l-9.9,17.1l9.9,17.1h19.7l9.9-17.1h19.3l9.9,17.1l-9.9,17.1h39.4l0,0h19.7v0c2.5,0,4.9,0,7.3,0l23-89.9c0,0,42.3,0.5,61.6-0.9
						c10.1-0.8,20.1-1.8,29.9-4.4c25.7-6.8,46.6-20.9,61.8-42.5C645.9,398.5,655.1,372.1,651.9,342.5z M425.9,320.8L425.9,320.8
						l19.2,0l9.9,17.1l-9.9,17.1h-19.2l-9.9-17.1L425.9,320.8z M357.3,440.4l9.9-17.1h19.6l9.9-17.1H416l0,0l9.9,17.1l-9.9,17.1v0
						l0,0l9.8,17.1l-9.9,17.1h-19.3l-9.9-17.1h-19.6L357.3,440.4z M308.3,457.5l-9.9-17.1l9.9-17.1l-9.9-17.1l9.9-17.1h19.3
						l9.9,17.1l-9.9,17.1l9.9,17.1l-9.9,17.1H308.3z M568.9,372.6c-0.6,4.4-2.2,8.8-4.1,12.9c-4.8,10.8-13.3,17.2-24.7,20.1
						c-15.1,3.9-32.7,3.9-48.1,3.7l16.4-62.7c7.2,0,19.2-0.4,26.3,0.1c6.7,0.5,13.4,1.3,19.9,3.1
						C568.9,353.5,570.4,362.3,568.9,372.6z"/>
				</g>
			</g>
		</g>
	</g>
</g>
</svg>
