<?xml version="1.0" encoding="utf-8"?>
<!-- Generator: Adobe Illustrator 19.0.0, SVG Export Plug-In . SVG Version: 6.00 Build 0)  -->
<svg version="1.1" id="Calque_1" xmlns="http://www.w3.org/2000/svg" xmlns:xlink="http://www.w3.org/1999/xlink" x="0px" y="0px"
	 viewBox="-499 501 1000 1000" style="enable-background:new -499 501 1000 1000;" xml:space="preserve">
<style type="text/css">
	.st0{fill:#FFFFFF;}
</style>
<g>
	<g>
		<g>
			<g>
				<path class="st0" d="M-188,1186.6h-0.8l-1.9,7.3h0.9c3.2,0,6.6-0.5,7.5-3.6C-181.5,1186.9-184.5,1186.6-188,1186.6z"/>
				<path class="st0" d="M179.9,1113.1c0.3-1.1,0.1-1.5,0.1-1.5c-0.1-0.1-0.7-0.8-5.2-0.8h-10.7l-1.8,6.8h8.5
					C177.7,1117.7,179.3,1115.5,179.9,1113.1z"/>
				<polygon class="st0" points="-65.7,1196.9 -57,1196.9 -59.1,1188.8 				"/>
				<path class="st0" d="M-211.2,1186.3c-5.9,0-11.5,3.8-12.7,8.4c-1.2,4.6,2.4,8.4,8.3,8.4c5.8,0,11.5-3.8,12.7-8.4
					C-201.7,1190-205.3,1186.3-211.2,1186.3z"/>
				<polygon class="st0" points="119.4,1196.9 128.1,1196.9 126,1188.8 				"/>
				<path class="st0" d="M-390.2,1107.6c10.8,0,12.3-5.3,12.7-7.1c0.5-1.9,0.5-3.3-0.2-4.1c-1.1-1.4-4.4-2.2-9.8-2.2h-11.4
					l-3.6,13.4L-390.2,1107.6L-390.2,1107.6z"/>
				<polygon class="st0" points="-285.3,1125.2 -277.4,1125.2 -279,1116.4 				"/>
				<path class="st0" d="M334.7,1112.2c-1.3-1.7-3.7-2.6-7.1-2.6c-8.2,0-14.3,5.3-16.7,14.5c-1.2,4.6-1,8.1,0.5,10.2
					c1.3,1.7,3.7,2.6,7.1,2.6c8.3,0,14.2-5.1,16.7-14.5C336.5,1117.8,336.3,1114.3,334.7,1112.2z"/>
				<path class="st0" d="M-238.9,1186.6h-1.1l-1.9,7.2h1.9c3.2,0,6-0.8,6.8-3.6C-232.3,1186.8-235.6,1186.6-238.9,1186.6z"/>
				<path class="st0" d="M-256.9,1186.3c2.2,0,3.2,0.8,3.8,2.2l2.6-1.2c-0.8-2-2.9-3.1-5.8-3.1c-3.8,0-7.7,2-8.5,5.1
					c-0.8,2.9,1.5,4.1,4.2,5.2l1.4,0.5c2.1,0.9,4.3,1.7,3.6,4c-0.6,2.3-3.6,3.9-6.3,3.9c-2.8,0-4.3-1.7-4.1-3.8l-3,0.6
					c0,3.1,2.5,5.2,6.6,5.2c4.5,0,8.8-2.7,9.7-6.2c0.9-3.2-1.6-4.5-4.6-5.7l-1.5-0.6c-1.6-0.6-3.6-1.4-3.2-3.2
					C-261.5,1187.5-259.1,1186.3-256.9,1186.3z"/>
				<path class="st0" d="M-231.9,1185.6c-1.6-1-3.9-1.1-6.1-1.1h-4.2l-5.4,20.2h2.9l2.4-8.8h2.1c2.1,0,4.4-0.2,6.4-1.3
					c1.9-1,3.2-2.7,3.6-4.3C-229.8,1188.4-230.3,1186.6-231.9,1185.6z M-233.1,1190.1c-0.8,2.9-3.7,3.6-6.8,3.6h-1.9l1.9-7.2h1.1
					C-235.6,1186.6-232.3,1186.8-233.1,1190.1z"/>
				<path class="st0" d="M-210.6,1184.2c-7.3,0-14.6,4.7-16.2,10.5c-1.6,5.8,3.3,10.4,10.6,10.4s14.6-4.6,16.1-10.4
					C-198.5,1188.9-203.3,1184.2-210.6,1184.2z M-202.9,1194.6c-1.2,4.6-6.9,8.4-12.7,8.4c-5.8,0-9.5-3.8-8.3-8.4s6.9-8.4,12.7-8.4
					S-201.7,1190-202.9,1194.6z"/>
				<path class="st0" d="M-187.4,1184.5h-3.7l-5.4,20.2h2.9l2.4-8.9h0.7l5.4,8.9h3.5l-5.7-9.1c4-0.3,7.1-2.5,7.9-5.6
					C-178.3,1185.5-182.5,1184.5-187.4,1184.5z M-182.4,1190.2c-0.8,3.1-4.2,3.6-7.5,3.6h-0.9l1.9-7.3h0.8
					C-184.5,1186.6-181.5,1186.9-182.4,1190.2z"/>
				<polygon class="st0" points="-173.2,1184.5 -173.8,1186.6 -167.6,1186.6 -172.5,1204.7 -169.6,1204.7 -164.7,1186.6 
					-158.5,1186.6 -157.9,1184.5 				"/>
				<path class="st0" d="M-145.9,1186.3c2.2,0,3.2,0.8,3.8,2.2l2.6-1.2c-0.8-2-2.9-3.1-5.8-3.1c-3.8,0-7.7,2-8.5,5.1
					c-0.8,2.9,1.5,4.1,4.2,5.2l1.4,0.5c2.1,0.9,4.3,1.7,3.6,4c-0.6,2.3-3.6,3.9-6.3,3.9c-2.8,0-4.3-1.7-4.1-3.8l-3,0.6
					c0,3.1,2.5,5.2,6.6,5.2c4.4,0,8.8-2.7,9.7-6.2c0.9-3.2-1.6-4.5-4.6-5.7l-1.5-0.6c-1.6-0.6-3.6-1.4-3.2-3.2
					C-150.5,1187.5-148.2,1186.3-145.9,1186.3z"/>
				<path class="st0" d="M-82,1186.3c2.2,0,3.2,0.8,3.8,2.2l2.6-1.2c-0.8-2-2.9-3.1-5.8-3.1c-3.8,0-7.7,2-8.5,5.1
					c-0.8,2.9,1.5,4.1,4.2,5.2l1.4,0.5c2.1,0.9,4.3,1.7,3.6,4c-0.6,2.3-3.6,3.9-6.3,3.9c-2.8,0-4.3-1.7-4.1-3.8l-2.9,0.6
					c0,3.1,2.5,5.2,6.6,5.2c4.5,0,8.8-2.7,9.7-6.2c0.9-3.2-1.6-4.5-4.6-5.7l-1.5-0.6c-1.6-0.6-3.6-1.4-3.2-3.2
					C-86.6,1187.5-84.3,1186.3-82,1186.3z"/>
				<path class="st0" d="M-75.1,1204.7h3.1l4.6-5.7h10.9l1.5,5.7h3.2l-5.8-21.2L-75.1,1204.7z M-65.7,1196.9l6.6-8.1l2.1,8.1H-65.7z
					"/>
				<polygon class="st0" points="-25.3,1200.2 -40.8,1183.7 -46.5,1204.7 -43.6,1204.7 -39.4,1189.2 -23.9,1205.6 -18.2,1184.5 
					-21.1,1184.5 				"/>
				<polygon class="st0" points="-12.8,1184.5 -13.3,1186.6 -7.1,1186.6 -12,1204.7 -9.1,1204.7 -4.3,1186.6 2,1186.6 2.5,1184.5 
									"/>
				<polygon class="st0" points="2.4,1204.7 15.7,1204.7 16.3,1202.6 5.8,1202.6 8,1194.7 18.1,1194.7 18.6,1192.6 8.5,1192.6 
					10.1,1186.6 20.6,1186.6 21.1,1184.5 7.8,1184.5 				"/>
				<polygon class="st0" points="18.1,1177.8 12.9,1182.2 14.4,1183 20.7,1178.9 				"/>
				<polygon class="st0" points="83.4,1184.5 71.9,1199.9 68.8,1184.5 65.7,1184.5 70.3,1205.9 86.5,1184.5 				"/>
				<polygon class="st0" points="86.3,1204.7 89.1,1204.7 94.5,1184.5 91.7,1184.5 				"/>
				<polygon class="st0" points="115.2,1184.5 99.9,1184.5 99.3,1186.6 105.5,1186.6 100.6,1204.7 103.5,1204.7 108.4,1186.6 
					114.6,1186.6 				"/>
				<path class="st0" d="M110,1204.7h3.1l4.6-5.7h10.9l1.5,5.7h3.2l-5.8-21.2L110,1204.7z M119.4,1196.9l6.6-8.1l2.1,8.1H119.4z"/>
				<polygon class="st0" points="147.5,1183.4 136.6,1204.7 139.5,1204.7 146.5,1191.1 146.5,1191.1 150.9,1205.6 163,1191.1 
					163.1,1191.1 162.7,1204.7 165.6,1204.7 166.2,1183.4 152.3,1200.3 				"/>
				<polygon class="st0" points="171.3,1204.7 174.2,1204.7 179.6,1184.5 176.8,1184.5 				"/>
				<polygon class="st0" points="203.1,1200.2 187.6,1183.7 181.9,1204.7 184.8,1204.7 189,1189.2 204.5,1205.6 210.2,1184.5 
					207.3,1184.5 				"/>
				<polygon class="st0" points="212.5,1204.7 225.8,1204.7 226.3,1202.6 215.9,1202.6 218,1194.7 228.2,1194.7 228.7,1192.6 
					218.6,1192.6 220.2,1186.6 230.6,1186.6 231.2,1184.5 217.9,1184.5 				"/>
				<path class="st0" d="M245.2,1186.3c2.2,0,3.2,0.8,3.8,2.2l2.6-1.2c-0.8-2-2.9-3.1-5.8-3.1c-3.8,0-7.7,2-8.5,5.1
					c-0.8,2.9,1.5,4.1,4.2,5.2l1.4,0.5c2.1,0.9,4.3,1.7,3.6,4c-0.6,2.3-3.6,3.9-6.3,3.9c-2.8,0-4.3-1.7-4.1-3.8l-3,0.6
					c0,3.1,2.5,5.2,6.6,5.2c4.5,0,8.8-2.7,9.7-6.2c0.9-3.2-1.6-4.5-4.6-5.7l-1.5-0.6c-1.6-0.6-3.6-1.4-3.2-3.2
					C240.6,1187.5,242.9,1186.3,245.2,1186.3z"/>
				
					<rect x="43" y="1172.1" transform="matrix(0.9662 0.2577 -0.2577 0.9662 309.0562 28.9292)" class="st0" width="2.4" height="42.8"/>
				
					<rect x="-115.4" y="1172" transform="matrix(0.9664 0.2572 -0.2572 0.9664 303.0876 69.507)" class="st0" width="2.5" height="42.8"/>
				<path class="st0" d="M-356.7,1102.3c2-7.6,1.4-13.4-1.9-17.7c-4-5.2-11.7-7.7-23.4-7.7h-32.9l-19.6,73h20.8l6.7-24.9h16.1
					C-365.5,1124.9-358.5,1109.1-356.7,1102.3z M-387.4,1094.2c5.4,0,8.7,0.7,9.8,2.2c0.6,0.8,0.7,2.2,0.2,4.1
					c-0.5,1.7-1.9,7.1-12.7,7.1h-12.3l3.6-13.4H-387.4L-387.4,1094.2z"/>
				<polygon class="st0" points="-345,1135.7 -334.6,1096.7 -351.2,1096.7 -365.4,1149.8 -324.7,1149.8 -320.9,1135.7 				"/>
				<path class="st0" d="M-265.4,1096.7H-282l-39.7,53.1h18.7l7.4-10.4h20.9l2.2,10.4h18.3L-265.4,1096.7z M-285.3,1125.2l6.3-8.8
					l1.6,8.8H-285.3z"/>
				<polygon class="st0" points="-226.8,1119.9 -213.9,1149.8 -196,1149.8 -181.8,1096.7 -197.4,1096.7 -205.2,1125.9 
					-217.7,1096.7 -236.2,1096.7 -250.4,1149.8 -234.8,1149.8 				"/>
				<polygon class="st0" points="-149.5,1149.8 -145.7,1135.7 -171.7,1135.7 -170,1129.4 -146.1,1129.4 -142.3,1115.3 
					-166.3,1115.3 -165.1,1110.9 -140.2,1110.9 -136.4,1096.7 -177.9,1096.7 -192.1,1149.8 				"/>
				<polygon class="st0" points="-83.8,1096.7 -133.7,1096.7 -137.5,1110.9 -120.8,1110.9 -131.2,1149.8 -114.7,1149.8 
					-104.2,1110.9 -87.5,1110.9 				"/>
				<polygon class="st0" points="-73.1,1129.4 -49.1,1129.4 -45.3,1115.3 -69.3,1115.3 -68.1,1110.9 -43.2,1110.9 -39.4,1096.7 
					-80.9,1096.7 -95.1,1149.8 -52.5,1149.8 -48.8,1135.7 -74.7,1135.7 				"/>
				<polygon class="st0" points="26.8,1076.8 14.8,1121.4 -4.2,1076.8 -28.6,1076.8 -48.2,1149.8 -28.8,1149.8 -16.6,1104.3 
					3.1,1149.8 26.6,1149.8 46.2,1076.8 				"/>
				<path class="st0" d="M86,1128.8l8.6-32.1H78l-8.2,30.6c-1.8,6.6-5.9,10-12.3,10c-1.8,0-4.3-0.3-5.5-1.8
					c-1.2-1.6-0.9-4.2-0.3-6.2l8.7-32.5H43.8l-8.6,32.3c-2,7.6,0.1,12.4,2.2,15.2c3.4,4.4,9.3,6.8,16.7,6.8
					C71.5,1151,82,1143.8,86,1128.8z"/>
				<polygon class="st0" points="110.7,1110.9 100.2,1149.8 116.8,1149.8 127.3,1110.9 143.9,1110.9 147.7,1096.7 97.8,1096.7 
					94,1110.9 				"/>
				<path class="st0" d="M188.7,1149.8l-0.4-3.6c-0.2-1.7,0.1-3.9,0.8-7.1c1.3-6,2-10.5-0.7-13.9c-0.1-0.1-0.1-0.2-0.2-0.3
					c4.2-2.4,7.2-6.4,8.6-11.6c1.2-4.6,0.7-8.4-1.5-11.3c-2.7-3.6-7.8-5.4-15.2-5.4h-28.8l-14.2,53.1h16.6l4.9-18.4h7.9
					c5.2,0,6.2,0.7,6.3,0.9c0.2,0.2,0.6,1.2-0.5,6.2c-0.9,4.1-1.3,6.9-1,8.5l0.4,2.8h17V1149.8z M164.1,1110.9h10.7
					c4.5,0,5.2,0.7,5.2,0.8c0,0,0.2,0.4-0.1,1.5c-0.6,2.4-2.2,4.5-9.1,4.5h-8.5L164.1,1110.9z"/>
				<polygon class="st0" points="209.2,1149.8 223.4,1096.7 206.9,1096.7 192.6,1149.8 				"/>
				<polygon class="st0" points="276.8,1096.7 226.8,1096.7 223,1110.9 239.7,1110.9 229.3,1149.8 245.9,1149.8 256.3,1110.9 
					273,1110.9 				"/>
				<polygon class="st0" points="280.2,1096.7 265.9,1149.8 282.5,1149.8 296.7,1096.7 				"/>
				<path class="st0" d="M349.5,1103.1c-3.9-5.1-10.6-7.6-19.9-7.6c-18.1,0-30.6,9.6-35.3,26.9c-2.4,8.9-1.6,16,2.2,21
					c3.9,5.1,10.6,7.6,19.9,7.6c18.1,0,30.6-9.6,35.3-26.9C354.1,1115.2,353.4,1108.1,349.5,1103.1z M318.5,1136.9
					c-3.4,0-5.8-0.9-7.1-2.6c-1.6-2.1-1.8-5.6-0.5-10.2c2.5-9.2,8.6-14.5,16.7-14.5c3.4,0,5.8,0.9,7.1,2.6c1.6,2.1,1.8,5.6,0.5,10.2
					C332.7,1131.8,326.8,1136.9,318.5,1136.9z"/>
				<polygon class="st0" points="401.4,1096.7 393.6,1125.9 381.1,1096.7 362.6,1096.7 348.4,1149.8 364,1149.8 372,1119.9 
					384.9,1149.8 402.8,1149.8 417,1096.7 				"/>
				<polygon class="st0" points="-174.5,1085.7 -176.5,1093 -151.5,1093 				"/>
			</g>
			<g>
				<g>
					<path class="st0" d="M437.8,788.1c0,0-59.9,229.2-71.5,273.3c0,0-76-0.1-77.1,0c0,0-94-180.5-94.6-182.6
						c-0.2,0-47.2,182.6-47.2,182.6c-23.9,0.1-76.7,0.3-78.6,0.1l0.4-1.5c0-0.1,0.1-0.3,0.1-0.5l0.1-0.4l0.3-1.1l0.3-1.2l0.4-1.4
						l0.2-0.9l0.8-3.1l0.4-1.5l22.7-88.2c17.2-8.1,31.7-20.2,43.1-36.3c17.3-24.5,26.7-51.6,23.4-82c-1.2-11.4-5.5-21.6-12.6-30.5
						c-3.7-4.6-7.9-8.5-12.5-11.6l3.4-13.2c1,0,53.3,0,76.3-0.2c4.1,0,97.3,183.3,97.3,183.3l49.9-183.3L437.8,788.1z"/>
					<path class="st0" d="M69.3,1060c0.3-1,0.7-2.6,1.2-4.6L69.3,1060z"/>
					<path class="st0" d="M71.5,1051.3l-1,4C70.7,1054.2,71.1,1052.8,71.5,1051.3z"/>
					<path class="st0" d="M419.3,787.7"/>
				</g>
				<g>
					<polygon class="st0" points="-425.9,924.3 -435.8,941.4 -425.9,958.5 -406.2,958.5 -396.3,941.4 -406.2,924.3 					"/>
					<path class="st0" d="M152.9,843.5c-1.2-11-5.4-21-12.3-29.7c-9.5-12-22.3-18.3-36.8-21.6c-14.2-3.3-28.8-4.1-43.2-4.2
						c-43.5-0.5-87-0.2-130.4-0.3c-0.3,0-0.7,0-1,0.1h-2.3l-0.7,1.1l-9.2,15.9h-19.6l-9.9,17.1l9.9,17.1l-9.9,17.1H-132l-9.9,17.1
						h-19.3L-171,856l9.9-17.1h19.4l9.9-17.1l-9.9-17.1h-19.7l-9.9,17.1h-19.4l-9.9,17.1l9.9,17.1l-9.9,17.1H-220l-9.9-17.1h-19.7
						l-9.9,17.1h-19.6l-9.9,17.1h-19.3l-9.9-17.1h-19.7l-9.9,17.1h-19.4l-9.9,17.1l9.9,17.1h19.7l9.9-17.1h19.3l9.9,17.1l-9.9,17.1
						l9.9,17.1h19.7l9.9-17.1h19.4l9.9-17.1l-9.9-17.1l9.9-17.1h19.3l9.9,17.1l-9.9,17.1l9.9,17.1l-9.9,17.1h-19.4l-9.9,17.1h-19.6
						l-9.9,17.1l9.9,17.1h19.6l9.9,17.1h19.4l9.9,17.1h19.7l9.9-17.1l-9.9-17.1H-220l-9.9-17.1l9.9-17.1h19.3l9.9,17.1h19.4
						l9.9,17.1l-9.9,17.1l9.9,17.1h19.7l9.9-17.1h19.3l9.9,17.1l-9.9,17.1h39.4l0,0h19.7l0,0c2.5,0,4.9,0,7.3,0l23-89.9
						c0,0,42.3,0.5,61.6-0.9c10.1-0.8,20.1-1.8,29.9-4.4c25.7-6.8,46.6-20.9,61.8-42.5C146.9,899.5,156.1,873.1,152.9,843.5z
						 M-73.1,821.8L-73.1,821.8h19.2l9.9,17.1l-9.9,17.1h-19.2l-9.9-17.1L-73.1,821.8z M-141.7,941.4l9.9-17.1h19.6l9.9-17.1H-83
						l0,0l9.9,17.1l-9.9,17.1l0,0l0,0l9.8,17.1l-9.9,17.1h-19.3l-9.9-17.1h-19.6L-141.7,941.4z M-190.7,958.5l-9.9-17.1l9.9-17.1
						l-9.9-17.1l9.9-17.1h19.3l9.9,17.1l-9.9,17.1l9.9,17.1l-9.9,17.1H-190.7z M69.9,873.6c-0.6,4.4-2.2,8.8-4.1,12.9
						c-4.8,10.8-13.3,17.2-24.7,20.1C26,910.5,8.4,910.5-7,910.3l16.4-62.7c7.2,0,19.2-0.4,26.3,0.1c6.7,0.5,13.4,1.3,19.9,3.1
						C69.9,854.5,71.4,863.3,69.9,873.6z"/>
				</g>
			</g>
		</g>
	</g>
</g>
</svg>
