<?xml version="1.0" standalone="no"?>
<!DOCTYPE svg PUBLIC "-//W3C//DTD SVG 20010904//EN"
 "http://www.w3.org/TR/2001/REC-SVG-20010904/DTD/svg10.dtd">
<svg version="1.0" xmlns="http://www.w3.org/2000/svg"
 width="150.000000pt" height="150.000000pt" viewBox="0 0 150.000000 150.000000"
 preserveAspectRatio="xMidYMid meet">
<metadata>
Created by potrace 1.11, written by Peter Selinger 2001-2013
</metadata>
<g transform="translate(0.000000,150.000000) scale(0.100000,-0.100000)"
fill="#000000" stroke="none">
<path d="M0 750 l0 -720 245 0 246 0 -3 76 -3 77 -165 1 -165 1 -2 566 -1 566
151 1 c84 0 160 1 170 1 15 1 17 12 17 76 l0 75 -245 0 -245 0 0 -720z"/>
<path d="M1010 1395 c0 -71 1 -75 23 -76 12 0 87 -1 167 -2 l145 -2 0 -565 0
-565 -168 0 -167 0 0 -77 0 -78 245 0 245 0 0 720 0 720 -245 0 -245 0 0 -75z"/>
<path d="M420 1115 c0 -11 11 -15 35 -15 44 0 84 -36 86 -77 6 -130 3 -554 -4
-576 -12 -36 -43 -57 -84 -57 -23 0 -33 -5 -33 -16 0 -14 27 -15 243 -12 241
3 242 3 297 30 74 37 113 92 118 168 3 43 -1 66 -17 97 -21 43 -95 113 -118
113 -20 0 -16 8 22 47 41 43 58 95 49 154 -6 33 -18 54 -54 90 -61 61 -99 69
-345 69 -167 0 -195 -2 -195 -15z m405 -49 c52 -22 77 -69 73 -136 -7 -99 -52
-134 -173 -135 l-70 0 0 143 0 142 68 0 c37 0 83 -6 102 -14z m68 -345 c67
-41 92 -147 53 -224 -32 -63 -70 -84 -159 -86 -66 -2 -78 1 -102 22 -28 23
-28 25 -30 158 -1 74 0 139 2 145 2 6 40 10 103 8 81 -1 105 -6 133 -23z"/>
</g>
</svg>
