<?xml version="1.0" encoding="utf-8"?>
<!-- Generator: Adobe Illustrator 19.0.0, SVG Export Plug-In . SVG Version: 6.00 Build 0)  -->
<svg version="1.1" id="Layer_1" xmlns="http://www.w3.org/2000/svg" xmlns:xlink="http://www.w3.org/1999/xlink" x="0px" y="0px"
	 viewBox="25 233 1536 1536" style="enable-background:new 25 233 1536 1536;" xml:space="preserve">
<path d="M1476,233c23.3,0,43.3,8.3,60,25s25,36.7,25,60v1366c0,23.3-8.3,43.3-25,60s-36.7,25-60,25h-391v-595h199l30-232h-229V794
	c0-37.3,7.8-65.3,23.5-84s46.2-28,91.5-28l122-1V474c-42-6-101.3-9-178-9c-90.7,0-163.2,26.7-217.5,80
	C872.2,598.3,845,673.7,845,771v171H645v232h200v595H110c-23.3,0-43.3-8.3-60-25s-25-36.7-25-60V318c0-23.3,8.3-43.3,25-60
	s36.7-25,60-25H1476z"/>
</svg>
