<?xml version="1.0" encoding="utf-8"?>
<!-- Generator: Adobe Illustrator 19.0.0, SVG Export Plug-In . SVG Version: 6.00 Build 0)  -->
<svg version="1.1" id="Calque_1" xmlns="http://www.w3.org/2000/svg" xmlns:xlink="http://www.w3.org/1999/xlink" x="0px" y="0px"
	 viewBox="0 0 278 188.2" style="enable-background:new 0 0 278 188.2;" xml:space="preserve">
<style type="text/css">
	.st0{fill:#E20613;}
	.st1{fill:#FFD700;}
</style>
<g>
	<g>
		<path d="M277.8,105.5c-0.5,3-1.9,5.6-3.2,7.7c-2.2,3.5-5.1,6.4-8.5,8.6c-2.2,6-5.8,11.1-10.6,14.8c-4.4,3.5-9.3,5.6-14.5,6.4
			c-2.2,0.3-4.3,0.5-6.3,0.5c0,0,0,0-0.1,0l-0.2,0c-10.4-0.1-16.1-4.7-19-8.6c-1.2-1.5-2.1-3.1-2.9-4.7c-2.2,2.6-4.7,5.3-7.7,8.1
			c0,0,0,0-0.1,0.1c-8.7,8.4-15.5,12.5-21.8,13.5c-1.1,0.2-2.2,0.2-3.2,0.2h-0.1c0,0-0.1,0-0.1,0c-5.1,0-9.8-1.9-13.6-5.3
			c-0.4-0.4-0.8-0.8-1.2-1.1c-7.3,7.3-13.2,11-18.9,11.8c-0.9,0.1-1.9,0.2-2.8,0.2h-0.1c0,0-0.1,0-0.1,0c-4.8,0-9.2-1.9-12.7-5.3
			c-0.3-0.3-0.6-0.6-0.9-0.9c-2.6,2.5-5.4,4.8-8.2,6.7c-3.5,2.4-7.1,3.9-10.8,4.4c-1.1,0.2-2.2,0.2-3.3,0.2h-0.1c0,0-0.1,0-0.1,0
			c-5,0-9.7-1.9-13.4-5.2c-4.2-3.8-5.9-7.9-6.6-11.3c-1.8-0.1-3.5-0.5-5.2-1.2c-1.8-0.8-3.4-1.9-4.7-3.3
			c-4.2,9.1-9.9,16.6-16.9,22.5c-7.5,6.6-21.7,11.4-33.8,11.4c-0.6,0-1.1,0-1.7,0c-6.5-0.2-12.3-1.8-17.2-4.7l-0.1,0
			c-0.8-0.5-1.6-1.1-2.3-1.8c-2.5-2.4-4.1-5.3-4.5-8.4c-0.7,4.5,0.9,9.1,4.5,12.5c0.7,0.7,1.5,1.3,2.3,1.8l0.1,0
			c4.9,2.9,10.7,4.5,17.2,4.7c0.6,0,1.1,0,1.7,0c12.2,0,26.3-4.8,33.8-11.4c7.1-5.8,12.7-13.4,16.9-22.5c1.3,1.4,2.9,2.6,4.7,3.3
			c1.7,0.7,3.5,1.2,5.2,1.2c0.7,3.4,2.5,7.5,6.6,11.3c3.7,3.4,8.4,5.2,13.4,5.2c0,0,0.1,0,0.1,0h0.1c1.1,0,2.2-0.1,3.3-0.2
			c3.7-0.5,7.4-2,10.8-4.4c2.8-1.9,5.5-4.1,8.2-6.7c0.3,0.3,0.6,0.6,0.9,0.9c3.5,3.4,7.9,5.2,12.7,5.3c0,0,0.1,0,0.1,0h0.1
			c0.9,0,1.9-0.1,2.8-0.2c5.7-0.8,11.6-4.5,18.9-11.8c0.4,0.4,0.8,0.8,1.2,1.1c3.8,3.5,8.6,5.3,13.6,5.3c0,0,0.1,0,0.1,0h0.1
			c1.1,0,2.1-0.1,3.2-0.2c6.3-0.9,13.1-5.1,21.8-13.5c0,0,0,0,0.1-0.1c2.9-2.9,5.5-5.5,7.7-8.1c0.8,1.6,1.8,3.2,2.9,4.7
			c2.9,3.9,8.6,8.5,19,8.6l0.2,0c0,0,0,0,0.1,0c2,0,4.1-0.2,6.3-0.5c5.2-0.8,10.1-2.9,14.5-6.4c4.7-3.8,8.3-8.8,10.6-14.8
			c3.4-2.1,6.3-5.1,8.5-8.6c1.9-3,3.9-7,3.2-11.7C277.9,105.7,277.9,105.6,277.8,105.5z"/>
	</g>
	<g>
		<g>
			<g>
				<path class="st0" d="M153,73.7c0,5.1,4.1,9.3,9.2,9.3l0.1,0c5.1,0,9.2-4.1,9.2-9.2c0-5.1-4.1-9.3-9.2-9.3h-0.1
					C157.2,64.6,153,68.7,153,73.7z"/>
				<path class="st0" d="M180.6,98.6l-18.4,26.7c-3.8,5.4-4.9,5.7-5.4,5.8c-0.1,0-0.2,0-0.3,0l-0.1,0c0,0,0,0,0,0
					c-0.7,0-1.4-0.5-1.5-1.3c0-0.1-0.1-0.2-0.1-0.4c-0.3-2,0.6-6.3,2.6-13.3c1.7-5.8,2.2-9.4,2.5-12.1c0.1-0.7,0.2-1.4,0.3-2
					c0.4-2.2-0.2-4.4-1.6-6.1c-1.3-1.6-3.2-2.6-5.2-2.6c-2.2,0-6.3,1.2-9.5,9c0,0,0,0,0,0.1c-1.2,2.5-11.9,24.8-17.4,31.1
					c-2.2,2.5-3.8,3.1-4.6,3.2c-0.1,0-0.2,0-0.3,0c-0.4,0-0.8-0.2-1.1-0.5c-0.8-0.8-0.9-2.4-0.4-4.9c0,0,0-0.1,0-0.1
					c2-7.1,4-13.8,5.8-19.8c0,0,0,0,0-0.1c0.5-1.4,1.1-3.1,1.6-4.8c0.5-1.6,0.7-3,0.5-4.2c-0.1-0.6-0.2-1.1-0.5-1.7
					c-0.5-1.2-1.3-1.8-2.5-1.8h0c-0.3,0-0.5,0-0.8,0.1c-1.3,0.2-3.6,1.1-6.7,2.7c-2.7,1.3-5,2-6.9,2h-0.1c-0.5,0-1-0.1-1.4-0.1
					c-0.4-0.1-0.8-0.3-1-0.7c-0.2-0.4-0.3-0.8-0.2-1.2c0.4-1.6,0.5-3.1,0.4-4.4c-0.2-1.4-0.7-2.4-1.6-2.9c-0.7-0.4-1.5-0.6-2.3-0.6
					l-0.1,0c-0.3,0-0.6,0-0.9,0.1c-3.5,0.5-5.8,2.6-7.1,6.3c-0.8,2.3-1.1,4.4-0.8,6c0.3,1.8,1.1,3.1,2.6,4.2
					c0.6,0.4,0.8,1.2,0.5,1.9c-1.6,3.9-3.7,7.9-6.1,12.1c-1.5,2.5-3.6,5.8-6.4,10.1c0,0-0.1,0.1-0.1,0.1c-0.5,0.6-0.5,1.1-0.5,1.4
					c0.1,0.4,0.3,0.7,0.7,0.8c0,0,0.1,0,0.1,0.1c0.4,0.2,0.7,0.3,1.1,0.3h0c0.3,0,1.1,0,2-1.2c3-3.9,7.8-11.8,14.4-23.5
					c0.2-0.4,0.7-0.7,1.2-0.8c0.5-0.1,0.9-0.1,1.4-0.1h0.1c3.1,0,4,1.6,4.1,2.9c0.3,2.2-0.7,5.2-3.1,9.3c-6,10.1-8.8,17.4-8.6,22.3
					c0.1,2.1,1.1,4,3,5.7c1.5,1.3,3.3,2,5.3,2.1l0.1,0c0.5,0,1,0,1.5-0.1c1.9-0.3,3.8-1.1,5.7-2.4c7.1-4.8,13.7-12.2,19.7-22
					l3.6-6.4c0.3-0.5,0.8-0.8,1.4-0.8c0.2,0,0.4,0,0.6,0.1c0.7,0.3,1.1,1.1,0.9,1.9c-1.5,4.9-2.5,8.1-2.8,9.4
					c-0.9,3.6-1.2,6.9-0.8,9.6c0.2,1.2,0.9,2.4,2.1,3.6c1.3,1.2,2.7,1.9,4.4,1.9h0.1c0.3,0,0.7,0,1-0.1c3.3-0.5,8.1-4.1,14.4-10.7
					c2.2-3,9.8-13.6,15.3-22.3c0.3-0.5,0.8-0.7,1.3-0.7c0.2,0,0.4,0,0.7,0.1c0.7,0.3,1.1,1.1,0.8,1.9c-0.4,1.3-0.8,2.5-1.2,3.7
					c-2,6.2-3.8,11.5-3.8,15c0,2,0.9,3.8,2.7,5.3c1.6,1.5,3.5,2.2,5.7,2.3l0.1,0c0.5,0,1,0,1.5-0.1c3.5-0.5,8.6-3.9,15.2-10.2
					c5.6-5.4,9.7-10.2,12.3-14.3c1.4-2.3,1.5-3.1,1.5-3.3c-0.1-0.9-0.6-1.3-1.4-1.3l0,0c-0.2,0-0.4,0-0.5,0c-1,0.1-1.9,0.7-2.5,1.6
					c0,0-0.1,0.1-0.1,0.1c-3.3,3.8-6.3,7.1-8.9,9.8c-0.6,0.8-1.5,1.4-2.7,2c-0.9,0.4-1.6,0.6-2.2,0.6c-0.2,0-0.4,0-0.5-0.1
					c-1.7-0.6-2.2-2.5-1.5-5.6c0.1-0.5,0.4-1.9,6.4-18.8c0,0,0-0.1,0.1-0.1c0.6-1.3,1.8-4,3.8-9c0.2-0.5,0.7-0.9,1.2-1l8.6-1.2
					c0,0,0,0,0.1,0c1.8-0.2,3.3-0.6,4.2-3.8c0-0.1,0-0.2,0.1-0.3c0.1-0.3,0.3-1.1,0.2-1.2c0,0-0.4-0.5-2.6-0.5h0
					c-1.3,0-4.6,0.3-6.7,0.6c-0.1,0-0.1,0-0.2,0c-0.5,0-0.9-0.2-1.2-0.5c-0.3-0.4-0.5-0.9-0.3-1.4l0.4-1.2c1.1-3.6,3.1-12.1,3-13.5
					c0,0,0-0.1,0-0.1c-0.7-7.7-5.5-8.3-8-8.6l-0.3,0c-0.1,0-0.1,0-0.2,0h0c-0.4,0-1.1,0-1.8,2c-3.6,9.5-8.3,21.5-8.7,22.7
					c0,0.1-0.1,0.1-0.1,0.2c-0.4,0.7-0.9,1.5-1.5,2.5c-0.2,0.4-0.6,0.6-1.1,0.7c-5.6,0.9-7.8,0.9-8.2,1.8c-0.2,0.8-0.3,1.3-0.3,1.8
					c0.2,1.1,0.7,1.7,1.9,1.9C178.9,95,183.1,94.4,180.6,98.6z"/>
				<path class="st0" d="M229.7,65.1c-0.3,0-0.6,0-0.9,0.1c-1.7,0.2-3,1.1-3.8,2.5c-0.8,1.5-1.1,3-0.9,4.5c0.1,0.9,0.6,1.8,1.3,2.6
					c1,1.1,1.4,1.9,1.6,2.7c0.2,1-0.3,2-1.2,2.8c-1.5,1.3-2.6,2.2-3.2,2.6c-0.1,0.1-0.1,0.2-0.1,0.4c0.1,0.5,0.2,0.6,0.7,0.6h0
					c0.1,0,0.2,0,0.3,0c1-0.1,2.3-0.9,4-2.2c2-1.6,3.5-3.4,4.6-5.4c1.5-2.8,2.1-5.4,1.8-7.7c-0.2-1.3-0.7-2.1-1.4-2.7
					C232.4,65.9,231.3,65.1,229.7,65.1z"/>
				<path class="st0" d="M222.7,115.5c1-1.5,3.4-5.1,7.6-11.7c3-4.6,5.4-7.9,7.3-10c0.3-0.3,0.7-0.5,1.1-0.5c0.2,0,0.4,0,0.6,0.1
					c0.6,0.2,1,0.8,1,1.5c0,2.1,0.2,4.6,0.7,7.6c0.7,4.2,1.1,7.3,1.1,9.4c0,0.9-0.7,1.6-1.5,1.6c-3.6,0-6,0.2-7.3,0.4
					c-2.4,0.4-4.8,1.3-7,2.7c-0.4,0.3-0.8,0.6-1.2,1l-1.1,1.4c-0.9,1.5-1.1,3.4-0.8,5.6c0.3,2.2,1.3,4.3,2.8,6.3
					c1.8,2.4,5,3.7,9.4,3.7l0.2,0c1.4,0,3-0.1,4.6-0.4c3.1-0.4,6-1.7,8.7-3.9c3.9-3.1,6.5-7.5,7.7-13.1c0.1-0.5,0.5-1,1-1.1
					c3.3-1.1,5.8-3.2,7.6-6.1c1.4-2.3,1.5-3.1,1.5-3.3c-0.2-1.3-0.9-1.4-1.5-1.4h0c-0.2,0-0.3,0-0.5,0c-1,0.1-1.9,0.7-2.5,1.8
					c-0.9,1.3-1.8,2.4-2.8,3.2c-0.3,0.2-0.6,0.4-1,0.4c-0.2,0-0.3,0-0.5-0.1c-0.5-0.2-0.9-0.6-1-1.1c-0.4-1.5-1-3.1-2-4.7l-1.5-2.6
					c-1.1-2-1.8-3.1-1.9-3.3c0,0,0-0.1-0.1-0.1c-1.4-3-2.1-5.1-2.3-6.2c-0.2-1.2,0.1-2.4,1-3.5c0.7-0.9,1.9-1.4,3.7-1.4h0.1
					c0.4,0,0.9,0,1.4,0.1c0.1,0,0.2,0,0.3,0h0c0.3,0,0.5,0,0.8-0.1c1.3-0.2,2.4-0.9,3.5-2.2c1-1.3,1.4-2.6,1.2-4
					c-0.5-3.4-2.4-5-5.8-5.1h-0.1c-0.6,0-1.3,0-2,0.2c-2.8,0.4-6,2-9.7,4.8c-3.7,2.8-7,6.3-9.8,10.4c-7.1,10.7-12,18.3-15.1,23.1
					c-0.5,0.7-0.7,1.4-0.6,1.8c0,0.1,0.1,0.5,0.8,0.9c0.4,0.2,0.7,0.3,1.1,0.3c0.6,0,1.1-0.2,1.6-0.8L222.7,115.5z M240.7,120
					c-1.5,3.8-3.5,5.8-6,6.2c-0.2,0-0.4,0-0.6,0c0,0,0,0-0.1,0c-0.4,0-0.8-0.1-1.2-0.2c0,0-0.1,0-0.1,0c-1.8-0.6-2.8-1.8-3-3.4
					c-0.2-1.3,0.4-2.5,1.7-3.6c0,0,0.1-0.1,0.1-0.1c0.4-0.2,1.2-0.8,7.7-1.1c0,0,0,0,0.1,0c0.5,0,1,0.2,1.3,0.7
					C240.8,118.9,240.9,119.5,240.7,120z"/>
			</g>
		</g>
		<path class="st0" d="M71.4,99.6c0.3-3.9,0.9-7.2,1.8-9.7c0.1-0.4,0.6-1.4,2-4.3c0.6-0.9,2.6-3.9,1.9-2.9c2.2-3.6-2.6-8-10.3-2.9
			c-25.1,16.9,0.1,68.7-51.2,79.9c-2.4,0.4-3.5,0.6-3.8,1.6c-0.3,0.9,0.5,1.6,0.8,1.9l0.1,0.1l0.1,0.1c3.1,1.8,7,2.8,11.5,3
			c10.6,0.4,22.5-4.1,27.3-8.4c6-4.9,10.8-11.4,14.3-19.3c3.1-7.1,4.4-19.3,5.1-26.6l0.1-1.6c1.6-0.5,5.5-0.7,6.5-0.7
			c0.9,0,1.5,0.3,1.8,0.7c0.5,0.8,0,3.1-0.2,3.6l-0.5,1.1l1.1,0.2c0,0,0.4,0.1,1,0.1c1.6,0.1,4.5-0.2,6.6-2.4c1.9-2,2.6-5,2.2-9
			c-0.2-2.3-1.6-5.1-7-5.3C82.6,98.7,73.8,98.3,71.4,99.6z M24.2,165.5c-0.1,0-0.2,0-0.3,0C24,165.5,24.1,165.5,24.2,165.5
			C24.2,165.5,24.2,165.5,24.2,165.5z"/>
		<path class="st0" d="M73.3,68.2c4.7,0.7,10.6,2.4,17.4,5.1c7,2.8,12.9,4.5,17.8,5.2c1.7,0.3,3.4,0.4,4.9,0.4
			c5.3,0,9.9-2.2,13.5-6.4c3.6-4.2,5.6-9.3,6.1-15.4c0.3-4.2-1.3-5.3-2.8-5.6c-0.2,0-0.4,0-0.6,0c-1.6,0-2.9,0.7-3.8,2.1
			c-2,3-5.1,4.4-9.5,4.5c-1.9,0-4.1-0.2-6.7-0.6c-5-0.7-11.3-2.2-18.8-4.3c-1.3-0.4-2.8-0.7-4.3-0.9c-2.5-0.4-5.2-0.5-8.2-0.5
			c-12.2,0.1-22.7,3.7-31.3,11c-8.6,7.3-13,16.1-13,26.3c0,5.3,1.6,10.1,4.8,13.8c6.6,7.3,8.7,1,5.7-5.2c-0.9-2.5-1.9-4.3-1.9-8.2
			c0-5.6,2.5-10.6,7.6-15c5.1-4.4,11.4-6.5,18.5-6.7C70.7,67.8,73.3,68.2,73.3,68.2z"/>
	</g>
	<g>
		<path class="st1" d="M71.4,44.8c-9.9,1-18.7,3.9-25.7,8c0.5,1.1,1,2.2,1.4,3.2c6.7-4,15.1-6.7,24.7-7.7c9.5-1,18.3,0,25.7,2.5
			c0.2-1.1,0.5-2.2,0.7-3.5C90.5,44.8,81.3,43.8,71.4,44.8z"/>
		<circle class="st1" cx="104.6" cy="14.3" r="2.4"/>
		<circle class="st1" cx="33.7" cy="23" r="2.4"/>
		<circle class="st1" cx="67.3" cy="2.4" r="2.4"/>
		<path class="st1" d="M84.6,24.9C77.9,24.7,71,20.3,67.3,5.7c-4.8,35.4-32,20.4-32,20.4l5.3,13.1l0.1,0.3h0L44.9,50
			c0,0,25.5-14.6,53.6-5.5l4.5-27.1C103,17.4,93.9,25.1,84.6,24.9z"/>
	</g>
	<g>
		<path d="M82.4,181.1c0.8-0.5,1.5-1.5,1.5-2.8c0-1.5-1.4-3.2-4.4-3.2h-3.8v13.1h4.5c2.4,0,4.9-1.4,4.9-3.9
			C85,183.1,84.2,181.6,82.4,181.1z M79,180.5h-0.7v-3.3H79c1.4,0,2.3,0.6,2.3,1.6C81.3,179.9,80.1,180.5,79,180.5z M78.3,182.5h1.2
			c1.7,0,2.7,0.7,2.7,1.9c0,1.2-1,1.9-2.7,1.9h-1.2V182.5z"/>
		<path d="M95.8,183.7c0,1.3-0.7,2.8-2.8,2.8c-1.9,0-2.8-1-2.8-2.8v-8.6h-2.7v8.6c0,3.1,2,4.8,5.5,4.8c4,0,5.5-2.6,5.5-4.8v-8.6
			h-2.6V183.7z"/>
		<path d="M110.4,178.5c0-1.4-1.2-3.4-4.6-3.4h-4.1v13.1h2.7v-5.6h1.1l3.5,5.9l2.9-0.3l-4-6.1C109.1,181.5,110.4,180.3,110.4,178.5z
			 M104.4,177.1h0.8c1.6,0,2.5,0.6,2.5,1.6c0,1-1,1.8-2.5,1.8h-0.8V177.1z"/>
		<path d="M122,186.1c-0.4,0.1-1,0.3-2.4,0.3c-2.7,0-4.5-1.9-4.5-4.8c0-2.4,1.5-4.7,4.3-4.7c1.9,0,2.8,0.4,3.7,0.8l0.4,0.2l0.7-1.7
			l0-0.2l-0.2-0.1c-0.8-0.4-2.1-1-4.7-1c-4.7,0-7.1,3.4-7.1,6.8c0,3.3,2.2,6.9,7.1,6.9c2.6,0,4-0.6,4.9-1l0.3-0.1v-5.1H122V186.1z"
			/>
		<polygon points="129.8,182.5 133.8,182.5 133.8,180.5 129.8,180.5 129.8,177.2 135.3,177.2 135.3,175.1 127.2,175.1 127.2,188.2 
			135.5,188.2 135.5,186.2 129.8,186.2 		"/>
		<path d="M146.5,178.5c0-1.4-1.2-3.4-4.6-3.4h-4.1v13.1h2.7v-5.6h1.1l3.5,5.9l2.9-0.3l-3.9-6.1
			C145.3,181.5,146.5,180.3,146.5,178.5z M140.5,177.1h0.8c1.6,0,2.5,0.6,2.5,1.6c0,1-1,1.8-2.5,1.8h-0.8V177.1z"/>
		<path d="M154.2,180.8c-0.1-0.1-0.3-0.1-0.4-0.2c-1.3-0.7-2.5-1.4-2.5-2.4c0-0.6,0.7-1.3,1.8-1.3c1.4,0,2.2,0.3,2.8,0.5l0.2,0.1
			l0.8-1.8l-0.2-0.1c-1-0.5-2.3-0.8-3.6-0.8c-2.4,0-4.2,1.6-4.2,3.7c0,2.4,2.1,3.5,3.4,4.2l0.3,0.1c1.3,0.7,2.4,1.3,2.4,2.2
			c0,0.8-0.9,1.5-2,1.5c-1.5,0-2.6-0.5-3.2-0.8l-0.4-0.2l-0.9,1.9l0.4,0.2c0.8,0.4,2,1,4.1,1c1.6,0,4.6-1.2,4.6-3.8
			C157.5,182.5,155.4,181.4,154.2,180.8z"/>
		<path d="M176.1,186.3c-0.3,0.2-0.5,0.3-1,0.3c-1,0-1.5-0.3-2.1-1c0.8-0.7,1.6-1.9,1.9-3.1l0.1-0.2l-1.7-0.7l-0.1,0.2
			c-0.3,0.8-0.7,1.6-1.3,2.1l-2-2.9c0.9-0.4,2.7-1.5,2.7-3.4c0-1.1-0.9-2.8-3.5-2.8c-1.9,0-3.3,1-3.5,2.5c-0.1,0.9,0.1,1.7,0.5,2.4
			l0.5,0.7c-0.1,0-0.1,0.1-0.2,0.1c-1.2,0.6-3.4,1.7-3.4,4.3c0,2.5,2.2,3.6,4.2,3.6c2.2,0,3.3-0.7,4-1.3c0.6,0.6,1.5,1.3,3,1.3
			c1.7,0,2.4-0.4,2.9-0.7l0.2-0.1l-0.8-1.5L176.1,186.3z M167.9,177.4c0.2-0.4,0.5-0.7,1.1-0.7c0.4,0,1,0.4,1,1c0,1-0.8,1.5-1.2,1.7
			l-0.6-1C167.9,178.1,167.8,177.7,167.9,177.4z M167.6,182.2l2.3,3.4c-0.6,0.4-1.2,0.8-2.3,0.8c-0.1,0-0.2,0-0.2,0
			c-0.9-0.1-1.8-0.9-1.8-1.8C165.6,183.2,166.7,182.6,167.6,182.2z"/>
		<path d="M186.9,175.1h-4v13.1h2.7v-5.5h1.2c3.1,0,4.8-2,4.8-4C191.5,177,190.1,175.1,186.9,175.1z M185.6,177.1h0.8
			c1.5,0,2.4,0.7,2.4,1.8c0,1.6-1.5,1.8-2.4,1.8h-0.8V177.1z"/>
		<path d="M200.1,174.8c-4,0-6.9,2.9-6.9,6.8c0,4.1,2.8,6.9,6.9,6.9c4,0,6.9-2.9,6.9-6.9C207,177.5,204.3,174.8,200.1,174.8z
			 M200.1,186.5c-2.4,0-4-1.9-4-4.8c0-2.9,1.6-4.8,4-4.8c2.4,0,4,1.9,4,4.8C204.1,184.6,202.6,186.5,200.1,186.5z"/>
		<path d="M218.1,183.7c0,1.3-0.7,2.8-2.8,2.8c-1.9,0-2.8-1-2.8-2.8v-8.6h-2.7v8.6c0,3.1,2,4.8,5.5,4.8c4,0,5.5-2.6,5.5-4.8v-8.6
			h-2.6V183.7z"/>
		<polygon points="222.6,177.2 226.7,177.2 226.7,188.2 229.4,188.2 229.4,177.2 233.6,177.2 233.6,175.1 222.6,175.1 		"/>
		<rect x="235.8" y="175.1" width="2.7" height="13.1"/>
		<polygon points="251,183.9 244.1,175.2 244,175.1 241.6,175.1 241.6,188.2 244.2,188.2 244.2,179.5 251.2,188.2 253.5,188.2 
			253.5,175.1 251,175.1 		"/>
		<polygon points="259.3,182.5 263.3,182.5 263.3,180.5 259.3,180.5 259.3,177.2 264.8,177.2 264.8,175.1 256.7,175.1 256.7,188.2 
			265,188.2 265,186.2 259.3,186.2 		"/>
		<path d="M272.2,180.8c-0.1-0.1-0.3-0.1-0.4-0.2c-1.3-0.7-2.5-1.4-2.5-2.4c0-0.6,0.7-1.3,1.8-1.3c1.4,0,2.2,0.3,2.8,0.5l0.2,0.1
			l0.8-1.8l-0.2-0.1c-1-0.5-2.2-0.8-3.6-0.8c-2.4,0-4.2,1.6-4.2,3.7c0,2.4,2.1,3.5,3.4,4.2l0.3,0.1c1.3,0.7,2.4,1.3,2.4,2.2
			c0,0.8-0.9,1.5-2,1.5c-1.5,0-2.6-0.5-3.2-0.8l-0.4-0.2l-0.9,1.9l0.4,0.2c0.8,0.4,2,1,4.1,1c1.6,0,4.6-1.2,4.6-3.8
			C275.5,182.5,273.4,181.4,272.2,180.8z"/>
	</g>
</g>
</svg>
