<?xml version="1.0" encoding="utf-8"?>
<!-- Generator: Adobe Illustrator 19.0.0, SVG Export Plug-In . SVG Version: 6.00 Build 0)  -->
<svg version="1.1" id="Calque_1" xmlns="http://www.w3.org/2000/svg" xmlns:xlink="http://www.w3.org/1999/xlink" x="0px" y="0px"
	 viewBox="0 0 720 720" style="enable-background:new 0 0 720 720;" xml:space="preserve">
<style type="text/css">
	.st0{fill:#120F0C;}
	.st1{fill:#FFFFFF;}
</style>
<rect x="1" y="0" class="st0" width="720" height="720"/>
<path class="st1" d="M133.7,473.3v-13.2h21.4V475c0,8.2,0.7,14,2.1,17.4c1.4,3.3,4,5,7.9,5c3.9,0,6.4-1.4,7.7-4.1
	c1.3-2.7,1.9-7.2,1.9-13.5c0-6.2-1.1-11.6-3.4-16.3c-2.2-4.6-5.8-9.5-10.7-14.5l-10.9-11.3c-5.1-5.3-9.1-10.8-11.9-16.6
	c-2.8-5.7-4.2-12.3-4.2-19.8c0-12.2,2.4-21.3,7.1-27.2c4.7-5.9,12.8-8.9,24.3-8.9c11.5,0,19.3,3.5,23.3,10.4
	c4.1,6.9,6.1,17,6.1,30.3v9.2h-20.8v-10.6c0-7.2-0.6-12.3-1.8-15.4c-1.2-3.1-3.6-4.7-7.1-4.7c-3.5,0-6,1.2-7.6,3.5
	c-1.5,2.4-2.3,5.9-2.3,10.6c0,4.7,0.8,8.5,2.4,11.3c1.6,2.8,4.4,6.4,8.5,10.8l12.2,13.2c6.1,6.6,10.7,13.3,13.8,20.1
	c3.1,6.8,4.7,14.2,4.7,22.2c0,13.8-2.3,24.1-7,30.7c-4.7,6.6-12.8,9.9-24.4,9.9c-11.6,0-19.7-3.7-24.3-11.1
	C136,498.2,133.7,487.4,133.7,473.3z"/>
<path class="st1" d="M210.3,514.9v-148h22.5v62.5H253v-62.5h22.5v148H253v-66.5h-20.2v66.5H210.3z"/>
<path class="st1" d="M289.2,514.9l21.1-148H340l22.5,148h-21l-3.5-26.4h-23.9l-3.2,26.4H289.2z M335.6,470.5l-9.9-74.3h-0.3
	l-9.1,74.3H335.6z"/>
<path class="st1" d="M376.1,514.9v-148h22.5v68.1l22.5-68.1h23.3l-24.6,73l26.5,75h-23.8l-23.8-69.1v69.1H376.1z"/>
<path class="st1" d="M458.1,514.9v-148h49.6v19.4h-27.1v43.1h25.7v19h-25.7v47.1h28.1v19.4H458.1z"/>
<path class="st1" d="M553.2,445.4l-7.2-0.3v69.9h-22.5v-148h37.3c7.7,0,13.5,1.6,17.3,4.7s6.3,7.5,7.5,13c1.2,5.6,1.8,12.9,1.8,21.9
	c0,9-1,15.9-2.9,20.6c-1.9,4.7-5.4,7.9-10.6,9.5c5.1,0.9,8.7,4.3,10.7,10.3c2,6,3,18.5,3,37.5c0,19,0.3,29.2,0.8,30.6h-22.5
	c-0.6-1.1-0.8-18.8-0.8-53.1c0-6.6-0.8-10.9-2.4-13.1C561.2,446.6,558,445.5,553.2,445.4z M546.1,427.6h9c2.9,0,5-0.6,6.3-1.9
	c1.4-1.3,2.3-3.5,2.9-6.6c0.5-3.1,0.8-7.9,0.8-14.4v-0.9c0-8-0.7-13.3-2-15.7c-1.3-2.5-4.5-3.7-9.3-3.7h-7.7V427.6z"/>
<g>
	<path class="st1" d="M173.3,556.2c0-1.8,0.2-3.1,0.6-4c0.4-0.8,0.9-1.5,1.4-1.9c1.1-0.9,2.7-1.3,4.8-1.3c2.9,0,4.8,0.9,5.7,2.7
		c0.5,1,0.7,2.4,0.7,4.1v2.6h-3.9v-2.6c0-1.5-0.1-2.5-0.4-3.1c-0.2-0.5-0.5-0.9-0.9-1.1c-0.3-0.2-0.8-0.3-1.3-0.3
		c-1.1,0-1.8,0.4-2.2,1.1c-0.4,0.7-0.6,1.8-0.6,3.3v10.3c0,1.8,0.2,3.1,0.5,3.8c0.4,0.7,1.1,1.1,2.1,1.1c1,0,1.7-0.4,2.1-1.1
		c0.4-0.7,0.5-2,0.5-3.8v-2.6h4v2.6c0,2.5-0.5,4.3-1.5,5.5c-1,1.2-2.7,1.8-5.1,1.8c-2.4,0-4.1-0.6-5.2-1.8c-1-1.2-1.5-3-1.5-5.5
		V556.2z"/>
	<path class="st1" d="M205.5,549.4h4V567c0,2.2-0.5,3.8-1.5,4.9c-1,1-2.7,1.5-5.2,1.5c-2.5,0-4.2-0.5-5.2-1.5c-1-1-1.5-2.6-1.5-4.9
		v-17.6h4V567c0,1.6,0.1,2.5,0.3,2.8c0.2,0.3,0.4,0.6,0.6,0.7c0.4,0.3,1,0.5,1.9,0.5c0.9,0,1.5-0.2,2-0.6c0.4-0.4,0.7-0.9,0.7-1.7
		c0-0.7,0-1.4,0-1.8V549.4z"/>
	<path class="st1" d="M219.4,549.4h4v23.7h-4V549.4z"/>
	<path class="st1" d="M233.5,556.7c-0.2-0.6-0.3-1.2-0.3-2c0-1.7,0.5-3.1,1.4-4.1c0.9-1,2.6-1.5,5.2-1.5c3.3,0,5.2,1.1,5.8,3.3
		c0.3,1,0.4,2.2,0.4,3.6v1.4h-3.8v-1.6c0-1.5-0.1-2.5-0.3-3c-0.2-0.5-0.5-0.9-0.8-1c-0.3-0.2-0.7-0.3-1.3-0.3c-1,0-1.7,0.2-2.1,0.7
		c-0.4,0.5-0.6,1.2-0.6,2.2c0,1,0.2,1.7,0.6,2.1c0.4,0.4,0.9,0.9,1.4,1.3c0.6,0.4,0.9,0.6,0.9,0.7l2.3,1.7c2.8,2,4.2,4.3,4.2,6.8
		c0,2.1-0.5,3.6-1.4,4.7c-0.9,1.1-2.6,1.6-5.2,1.6c-3.1,0-5-0.9-5.8-2.8c-0.5-1.1-0.7-2.5-0.7-4.2c0,0,0-0.1,0-0.1V564h3.9v2.4
		c0,1.7,0.2,2.9,0.5,3.6c0.4,0.7,1,1,2,1c1,0,1.7-0.2,2-0.5c0.4-0.3,0.6-0.8,0.6-1.5c0.1-0.7,0.1-1.4,0.1-2.2c0-1.6-1-3.2-3.1-4.6
		l-2.2-1.5C235.2,559.2,234,557.9,233.5,556.7z"/>
	<path class="st1" d="M255.9,549.4h4v23.7h-4V549.4z"/>
	<path class="st1" d="M280.4,549.4h3.5v23.7H281l-7.6-16.3l0.2,6v10.3H270v-23.7h3l7.9,16.2l-0.4-6.9V549.4z"/>
	<path class="st1" d="M293.9,549.4h10.1v2.3h-6.1v8.1h5.8v2.3h-5.8v8.7h6.2v2.3h-10.2V549.4z"/>
	<path class="st1" d="M345.7,563.8c-1.1,0.9-2.3,2.4-3.6,4.4c2,3.1,3.1,4.8,3.2,4.9h-3.5c-0.2-0.4-0.7-1.1-1.5-2.3
		c-0.7,0.8-1.6,1.5-2.5,1.9c-1,0.4-2.2,0.7-3.9,0.7c-1.6,0-3-0.4-4.1-1.3c-1.1-0.9-1.6-2.1-1.6-3.8c0-1.6,0.5-3,1.5-4.2
		c1-1.2,2.3-2.4,3.9-3.7c-2-3.3-3-5.6-3-6.7c0-1.5,0.5-2.7,1.5-3.5c1-0.8,2.5-1.2,4.5-1.2c2,0,3.4,0.4,4.2,1.2
		c0.9,0.8,1.3,1.9,1.3,3.3c0,1.4-0.4,2.7-1.3,3.7c-0.9,1.1-2,2.2-3.3,3.4c0.7,1.3,1.8,2.9,3.1,5c1.1-1.5,2.3-2.7,3.6-3.8
		L345.7,563.8z M338.5,568.3c-1.5-2.2-2.7-4-3.6-5.5c-2.2,2-3.3,3.9-3.3,5.6c0,1.7,1,2.6,3,2.6c0.8,0,1.4-0.2,2-0.7
		C337.2,569.9,337.9,569.2,338.5,568.3z M336,558.3c1.9-1.7,2.8-3.2,2.8-4.7c0-0.9-0.2-1.6-0.5-2c-0.3-0.4-0.9-0.6-1.7-0.6
		c-0.9,0-1.5,0.2-1.8,0.5c-0.3,0.3-0.5,0.7-0.6,1c-0.1,0.3-0.1,0.7-0.1,1.1C334.2,554.5,334.8,556,336,558.3z"/>
	<path class="st1" d="M383.6,549.4h5v23.7h-3.5v-9.5l0.3-8.9l-4.6,18.4h-3.6l-4.8-18.4l0.3,8.9v9.5h-3.5v-23.7h5l4.9,19.5
		L383.6,549.4z"/>
	<path class="st1" d="M398.7,549.4h4v23.7h-4V549.4z"/>
	<path class="st1" d="M421.9,549.4h3.6l-4.7,12.2l4.9,11.6h-3.5l-3.4-8.2l-3,8.2H412l4.9-12.6l-4.7-11.2h3.5l3.3,7.9L421.9,549.4z"
		/>
	<path class="st1" d="M433.7,555.8c0-2.7,0.7-4.6,2.1-5.6c1.1-0.8,2.7-1.2,4.8-1.2c3,0,5,0.9,5.8,2.6c0.5,1,0.8,2.4,0.8,4.1v10.5
		c0,2.5-0.5,4.3-1.5,5.4c-1,1.1-2.7,1.7-5.2,1.7c-2.5,0-4.2-0.6-5.2-1.7c-1-1.1-1.5-2.9-1.5-5.4V555.8z M443.1,555.7
		c0-1.5-0.2-2.6-0.5-3.2c-0.3-0.6-1-1-2.1-1c-1.1,0-1.8,0.3-2.2,1c-0.4,0.6-0.6,1.7-0.6,3.2v10.7c0,1.8,0.2,3,0.5,3.7
		c0.4,0.7,1.1,1,2.2,1c1.1,0,1.8-0.3,2.2-1c0.4-0.7,0.5-1.9,0.5-3.7V555.7z"/>
	<path class="st1" d="M456.9,549.4h4v21.4h6.3v2.3h-10.3V549.4z"/>
	<path class="st1" d="M475.5,555.8c0-2.7,0.7-4.6,2.1-5.6c1.1-0.8,2.7-1.2,4.8-1.2c3,0,5,0.9,5.8,2.6c0.5,1,0.8,2.4,0.8,4.1v10.5
		c0,2.5-0.5,4.3-1.5,5.4c-1,1.1-2.7,1.7-5.2,1.7c-2.5,0-4.2-0.6-5.2-1.7c-1-1.1-1.5-2.9-1.5-5.4V555.8z M485,555.7
		c0-1.5-0.2-2.6-0.5-3.2c-0.3-0.6-1-1-2.1-1c-1.1,0-1.8,0.3-2.2,1c-0.4,0.6-0.6,1.7-0.6,3.2v10.7c0,1.8,0.2,3,0.5,3.7
		c0.4,0.7,1.1,1,2.2,1c1.1,0,1.8-0.3,2.2-1c0.4-0.7,0.5-1.9,0.5-3.7V555.7z"/>
	<path class="st1" d="M498.5,556.1c0-3.5,1.2-5.7,3.5-6.5c0.9-0.3,1.9-0.5,3-0.5c2.1,0,3.6,0.3,4.5,0.9c0.9,0.6,1.5,1.4,1.8,2.4
		c0.3,1,0.4,2.2,0.4,3.7v1.8h-3.9v-3.1c0-1.2-0.2-2.1-0.5-2.6c-0.4-0.5-1-0.8-2.1-0.8c-1,0-1.8,0.3-2.2,1c-0.4,0.7-0.6,1.8-0.6,3.5
		v10c0,1.9,0.2,3.2,0.6,4c0.4,0.7,1.1,1.1,2.2,1.1c1.1,0,1.9-0.4,2.3-1.1c0.4-0.8,0.6-2.1,0.6-4v-3.1h-2.8v-2.2h6.4v12.5h-2.1
		l-0.5-1.8c-0.8,1.4-2.2,2.1-4.3,2.1c-2.1,0-3.7-0.6-4.8-1.7c-1-1.2-1.5-3-1.5-5.6V556.1z"/>
	<path class="st1" d="M521.8,549.4h4v23.7h-4V549.4z"/>
	<path class="st1" d="M535.9,549.4H546v2.3h-6.1v8.1h5.8v2.3h-5.8v8.7h6.2v2.3h-10.2V549.4z"/>
</g>
<g>
	<path class="st1" d="M291.4,237.6v3.3c0,3.9-2,6.2-5.8,6.2c-3.8,0-5.8-2.2-5.8-6.2v-12.8c0-3.9,2-6.2,5.8-6.2
		c3.8,0,5.8,2.2,5.8,6.2v2.4h-3.7v-2.6c0-1.8-0.8-2.4-2-2.4c-1.2,0-2,0.7-2,2.4v13.3c0,1.8,0.8,2.4,2,2.4c1.2,0,2-0.6,2-2.4v-3.5
		H291.4z"/>
	<polygon class="st1" points="434.2,239.7 436.8,222.2 442.2,222.2 442.2,246.8 438.5,246.8 438.5,229.2 435.8,246.8 432.2,246.8 
		429.3,229.4 429.3,246.8 425.9,246.8 425.9,222.2 431.3,222.2 	"/>
</g>
<g>
	<path class="st1" d="M338.4,253c-1.7,0.7-4.2,2.2-5.9,6.3c-0.8,0.9-1.6,1.7-2.3,1.9c-1.4,0.5-4.8,1.6-6.9,6.7
		c-0.8,0.9-1.6,1.7-2.3,1.9c-1.4,0.5-4.7,1.6-6.8,6.4c-0.4,0.5-0.8,1-1.2,1.4c-0.4,0.4-0.8,0.7-1.2,0.8c-0.8,0.3-2.4,0.8-4,2.3
		c-0.2,0.2-0.5,0.4-0.7,0.7c-1.7,1.5-2.5,3.2-2.8,4.1c-0.7,1.8-5.4,4.2-5.4,4.2l0,0l-10.7,10c-3.1,0.9-12.4,6.8-12.5,6.9l-5,3.5
		c-0.9,0.9,0,3.4,2.1,5.7l0.8,0.8c2.1,2.3,4.6,3.4,5.5,2.5l3.8-4.7c0.1-0.1,7-9,8-11.9l10.6-9.9c0,0,1.6-1.3,1.9-3.6v0
		c2.5-0.9,5.1-2.4,6.7-3.9c0,0,0.1-0.1,0.1-0.1c0,0,0,0,0,0c0,0,0,0,0,0c0,0,0.1-0.1,0.1-0.1c0,0,0,0,0,0c0.1,0,0.1-0.1,0.2-0.1
		c1.6-1.5,3.4-4.1,4.5-6.6c1.4-0.2,3.3-0.7,4.8-2c1.6-1.5,3.4-4.1,4.5-6.6c1.4-0.2,3.3-0.7,4.8-2c1.6-1.5,3.4-4.1,4.5-6.6
		c1.4-0.2,3.3-0.7,4.8-2c0.8-0.8,1.7-1.9,2.5-3.1C340.2,254.8,339.3,253.9,338.4,253z"/>
	<g>
		<path class="st1" d="M370.4,226.7c1.4-0.2,3.4-0.9,4.9-2.3c1-1,2.1-2.4,3.1-3.9c0,0,0-0.1,0-0.1c0.2-0.3,0.3-0.5,0.5-0.8
			c0.1-0.1,0.1-0.3,0.2-0.4c0.1-0.2,0.2-0.3,0.3-0.5c0.2-0.3,0.3-0.7,0.5-1c1.4-0.2,3.3-0.7,4.8-2c1.6-1.5,3.4-4.1,4.5-6.6
			c1.4-0.2,3.3-0.7,4.8-2c1.6-1.5,3.4-4.1,4.5-6.7h0c2.3-0.2,3.7-1.7,3.7-1.7l11.4-10.7c1.3-0.7,2.8-1.4,4.7-2
			c7.3-2.4,20.5-5.1,26.8-10.4c5.2-4.4,10.4-13.1,2.4-21.8l0,0c0,0,0,0,0,0c0,0,0,0,0,0l0,0c-8.1-8.6-17.2-4.1-21.9,0.9
			c-5.7,6-9.4,19-12.3,26c-0.7,1.8-1.5,3.2-2.2,4.4l-11.5,10.8l0,0c0,0-2.7,4.5-4.6,5.1c-1.4,0.5-4.8,1.6-6.9,6.7
			c-0.8,0.9-1.6,1.7-2.3,1.9c-1.4,0.5-4.8,1.6-6.9,6.7c-0.8,0.9-1.6,1.7-2.3,1.9c-0.8,0.3-2.1,0.7-3.6,2c-1.2,1-2.5,2.5-3.5,4.8
			c-0.1,0.1-0.2,0.2-0.3,0.3L370.4,226.7z"/>
		<path class="st1" d="M363.6,223.6c-19.1-21.5-82.9-76.1-90.5-77.9c0,0,7.4,43.7,81.8,119.9l9.8-7.4c0,0,8.6-4.3,12.9,0
			c4.3,4.3,20.3,32.3,37.5,41.8c13.7,7.6,8,14.1,8,14.1s3,6.3,8.5,8.4c0,0,8,1.7,17.4-16C449,306.5,382.7,245.1,363.6,223.6
			 M355.6,259c-1.7,0-3.1-1.4-3.1-3.1c0-1.7,1.4-3.1,3.1-3.1c1.7,0,3.1,1.4,3.1,3.1C358.7,257.6,357.3,259,355.6,259 M441.3,310.7
			c-1.7,0-3.1-1.4-3.1-3.1c0-1.7,1.4-3.1,3.1-3.1c1.7,0,3.1,1.4,3.1,3.1C444.4,309.3,443,310.7,441.3,310.7"/>
	</g>
</g>
<path class="st1" d="M361,154.8c3.8,0,5.7,2.3,5.7,6.2v0.8h-3.7v-1c0-1.8-0.7-2.4-1.9-2.4c-1.2,0-1.9,0.7-1.9,2.4
	c0,5.1,7.6,6,7.6,13c0,3.9-2,6.2-5.8,6.2c-3.8,0-5.8-2.3-5.8-6.2v-1.5h3.7v1.8c0,1.8,0.8,2.4,2,2.4c1.2,0,2-0.6,2-2.4
	c0-5.1-7.6-6-7.6-13C355.3,157,357.3,154.8,361,154.8"/>
<path class="st1" d="M369,310.9l8.7-7.5c0,0-1.4-0.6-2-1c-0.6-0.4-0.2-1.2-0.2-1.2l1.6-5.7c0,0-4,1-5,1.2c-1,0.2-1.1-0.5-1.1-0.5
	l-0.6-2.5l-4.1,4.8c0,0-0.7,0.5-1.1,0.3c-0.4-0.2-0.3-1-0.3-1l1.8-9.9c0,0-0.7,0.3-2.1,1.1c-1.5,0.8-1.8-0.3-1.8-0.3l-3.1-6.1
	l-3.1,6.1c0,0-0.3,1.1-1.8,0.3c-1.5-0.8-2.1-1.1-2.1-1.1l1.8,9.9c0,0,0.1,0.8-0.3,1c-0.4,0.2-1.1-0.3-1.1-0.3l-4.1-4.8l-0.6,2.5
	c0,0,0,0.7-1.1,0.5c-1-0.2-5-1.2-5-1.2l1.6,5.7c0,0,0.4,0.8-0.2,1.2c-0.6,0.4-2,1-2,1l8.7,7.5c0,0,0.6,0.3,0.2,1.5
	c-0.4,1.2-0.7,2.5-0.7,2.5l8.8-1.1c0,0,0.6-0.2,0.6,0.8c0,1-0.4,9.3-0.4,9.3h0.9h0.9c0,0-0.4-8.3-0.4-9.3c0-1,0.6-0.8,0.6-0.8
	l8.8,1.1c0,0-0.3-1.3-0.7-2.5C368.4,311.1,369,310.9,369,310.9z"/>
<g>
	<path class="st1" d="M604.2,500.8h2.1v13.9h-1.5v-5.6l0.1-5.2l-1.9,10.8h-1.5l-2-10.8l0.1,5.2v5.6h-1.5v-13.9h2l2,11.5L604.2,500.8
		z"/>
	<path class="st1" d="M608.4,504.9c0-1.1,0.1-1.8,0.3-2.3c0.2-0.5,0.4-0.9,0.6-1.1c0.4-0.5,1.1-0.8,2-0.8c1.2,0,2,0.5,2.3,1.6
		c0.2,0.6,0.3,1.4,0.3,2.4v1.5h-1.6v-1.6c0-0.9,0-1.5-0.1-1.8c-0.1-0.3-0.2-0.5-0.4-0.6c-0.1-0.1-0.3-0.2-0.5-0.2
		c-0.4,0-0.7,0.2-0.9,0.6c-0.2,0.4-0.2,1.1-0.2,2v6c0,1.1,0.1,1.8,0.2,2.2c0.1,0.4,0.4,0.6,0.9,0.6c0.4,0,0.7-0.2,0.9-0.6
		c0.1-0.4,0.2-1.2,0.2-2.2v-1.5h1.6v1.5c0,1.5-0.2,2.5-0.6,3.2c-0.4,0.7-1.1,1-2.1,1c-1,0-1.7-0.4-2.1-1.1c-0.4-0.7-0.6-1.8-0.6-3.2
		V504.9z"/>
</g>
</svg>
