<?xml version="1.0" encoding="utf-8"?>
<!-- Generator: Adobe Illustrator 19.0.0, SVG Export Plug-In . SVG Version: 6.00 Build 0)  -->
<svg version="1.1" id="Calque_1" xmlns="http://www.w3.org/2000/svg" xmlns:xlink="http://www.w3.org/1999/xlink" x="0px" y="0px"
	 viewBox="-753 915.6 491.4 171.4" style="enable-background:new -753 915.6 491.4 171.4;" xml:space="preserve">
<style type="text/css">
	.st0{fill:#FCFCFC;}
</style>
<g>
	<g>
		<g>
			<g>
				<g>
					<path class="st0" d="M-571.5,1069.9c1.6,0.3,2.5,2,2.5,3.4c0,2.2-1.5,4.1-4.1,4.1h-5.8v-14.1h5.3c2.4,0,3.8,1.4,3.8,3.6
						C-569.7,1068.1-570.1,1069.4-571.5,1069.9z M-573.5,1069.1c1.2,0,1.9-1,1.9-2.2c0-1.2-0.8-1.9-2.1-1.9h-3.2v4.1H-573.5
						L-573.5,1069.1z M-576.9,1070.8v4.8h3.8c1.4,0,2.3-1.1,2.3-2.3c0-1.1-0.9-2.5-2.3-2.5H-576.9z"/>
					<path class="st0" d="M-558.6,1075.9c-0.6,1.1-2,1.7-3.4,1.7c-2.6,0-4.9-2-4.9-5c0-3.1,2.2-5,4.9-5c1.3,0,2.7,0.6,3.4,1.6v-1.4
						h1.8v9.6h-1.8V1075.9z M-561.8,1069.4c-1.7,0-3.1,1.2-3.1,3.1s1.4,3.2,3.1,3.2s3.2-1.2,3.2-3.2S-560.2,1069.4-561.8,1069.4z"/>
					<path class="st0" d="M-551.6,1077.4h-1.9v-9.6h1.9v2.2c0.5-1.7,1.4-2.4,2.7-2.4c0.7,0,1.4,0.2,1.7,0.4l-0.3,1.7
						c-0.5-0.2-1-0.3-1.4-0.3c-1.8,0-2.6,2-2.6,4.5L-551.6,1077.4L-551.6,1077.4z"/>
					<path class="st0" d="M-532.6,1075.9c-0.6,1.1-2,1.7-3.4,1.7c-2.6,0-4.9-2-4.9-5c0-3.1,2.2-5,4.9-5c1.3,0,2.7,0.6,3.4,1.6v-1.4
						h1.8v9.6h-1.8V1075.9z M-535.8,1069.4c-1.7,0-3.1,1.2-3.1,3.1s1.4,3.2,3.1,3.2s3.2-1.2,3.2-3.2S-534.3,1069.4-535.8,1069.4z
						 M-538.3,1062.9h2.2l2,3.2h-1.8L-538.3,1062.9z"/>
					<path class="st0" d="M-517.6,1067.6c1.5,0,2.8,0.6,3.7,1.5l-1.4,1.2c-0.6-0.6-1.4-0.9-2.3-0.9c-1.7,0-3.2,1.2-3.2,3.1
						s1.5,3.2,3.2,3.2c0.9,0,1.7-0.3,2.3-0.9l1.4,1.2c-0.9,1-2.2,1.6-3.7,1.6c-2.7,0-5.1-2-5.1-5
						C-522.6,1069.6-520.3,1067.6-517.6,1067.6z"/>
					<path class="st0" d="M-509.5,1077.4h-1.9v-14.8h1.9v6.6c0.6-1.1,2.1-1.6,3.2-1.6c2.4,0,3.9,1.6,3.9,4.2v5.5c-0.3,0-1.6,0-1.9,0
						v-5.4c0-1.6-0.9-2.5-2.3-2.5c-1.3,0-2.9,0.7-2.9,2.8V1077.4z"/>
					<path class="st0" d="M-499.9,1072.6c0-3,2.3-5,5-5c2.7,0,5,1.9,5,5c0,3-2.3,5-5,5S-499.9,1075.6-499.9,1072.6z M-491.8,1072.6
						c0-1.9-1.4-3.1-3.2-3.1c-1.7,0-3.2,1.2-3.2,3.1s1.4,3.2,3.2,3.2S-491.8,1074.5-491.8,1072.6z"/>
					<path class="st0" d="M-482.8,1067.6c1.5,0,2.8,0.6,3.7,1.5l-1.4,1.2c-0.6-0.6-1.4-0.9-2.3-0.9c-1.7,0-3.2,1.2-3.2,3.1
						s1.5,3.2,3.2,3.2c0.9,0,1.7-0.3,2.3-0.9l1.4,1.2c-0.9,1-2.2,1.6-3.7,1.6c-2.7,0-5.1-2-5.1-5S-485.6,1067.6-482.8,1067.6z"/>
					<path class="st0" d="M-477.5,1072.6c0-3,2.3-5,5-5s5,1.9,5,5c0,3-2.3,5-5,5S-477.5,1075.6-477.5,1072.6z M-469.3,1072.6
						c0-1.9-1.4-3.1-3.2-3.1c-1.7,0-3.2,1.2-3.2,3.1s1.4,3.2,3.2,3.2C-470.8,1075.8-469.3,1074.5-469.3,1072.6z"/>
					<path class="st0" d="M-462.9,1062.6v14.8h-1.9v-14.8H-462.9z"/>
					<path class="st0" d="M-452.1,1075.9c-0.6,1.1-2,1.7-3.4,1.7c-2.6,0-4.9-2-4.9-5c0-3.1,2.2-5,4.9-5c1.3,0,2.7,0.6,3.4,1.6v-1.4
						h1.8v9.6h-1.8V1075.9z M-455.3,1069.4c-1.7,0-3.1,1.2-3.1,3.1s1.4,3.2,3.1,3.2s3.2-1.2,3.2-3.2
						C-452.1,1070.5-453.7,1069.4-455.3,1069.4z"/>
					<path class="st0" d="M-442.3,1067.8v1.6h-2v8h-1.9v-8h-1.8v-1.6h1.7v-3.6h1.9v3.6H-442.3z"/>
					<path class="st0" d="M-411.4,1067.6c1.5,0,2.8,0.6,3.7,1.5l-1.4,1.2c-0.6-0.6-1.4-0.9-2.3-0.9c-1.7,0-3.2,1.2-3.2,3.1
						s1.5,3.2,3.2,3.2c0.9,0,1.7-0.3,2.3-0.9l1.4,1.2c-0.9,1-2.2,1.6-3.7,1.6c-2.7,0-5.1-2-5.1-5S-414.1,1067.6-411.4,1067.6z"/>
					<path class="st0" d="M-403.3,1077.4h-1.9v-9.6h1.9v2.2c0.5-1.7,1.4-2.4,2.7-2.4c0.7,0,1.4,0.2,1.7,0.4l-0.3,1.7
						c-0.5-0.2-1-0.3-1.4-0.3c-1.8,0-2.6,2-2.6,4.5v3.5H-403.3z"/>
					<path class="st0" d="M-388.2,1073.3h-7.8c0.2,1.6,1.5,2.6,3.1,2.6c1.1,0,2.2-0.5,2.7-1.5c0.5,0.2,1.1,0.4,1.6,0.6
						c-0.8,1.7-2.6,2.5-4.4,2.5c-2.7,0-4.9-2-4.9-5s2.2-5,4.9-5c2.7,0,4.8,1.9,4.8,5C-388.1,1072.8-388.1,1073.1-388.2,1073.3z
						 M-396.1,1062.9h2.2l2,3.2h-1.8L-396.1,1062.9z M-390,1071.9c-0.2-1.6-1.4-2.6-2.9-2.6c-1.6,0-2.8,1-3,2.6H-390z"/>
					<path class="st0" d="M-377.1,1072.2v5.2c-0.3,0-1.6,0-1.9,0v-5.4c0-1.6-0.8-2.5-2.1-2.5c-1.3,0-2.7,0.8-2.7,2.8v5.2h-1.9v-9.6
						h1.9v1.4c0.5-1.1,1.9-1.5,2.6-1.6c0.4,0,0.7,0,1,0.1c1.2,0.2,2,0.8,2.5,1.9c0.9-1.7,2.4-2,3.3-2c2.4,0,3.7,1.6,3.7,4.2v5.5
						h-1.9v-5.4c0-1.6-0.8-2.5-2.2-2.5C-376.2,1069.4-377.1,1070.6-377.1,1072.2z"/>
					<path class="st0" d="M-358.4,1073.3h-7.8c0.2,1.6,1.5,2.6,3.1,2.6c1.1,0,2.2-0.5,2.7-1.5c0.5,0.2,1.1,0.4,1.6,0.6
						c-0.8,1.7-2.6,2.5-4.4,2.5c-2.7,0-4.9-2-4.9-5s2.2-5,4.9-5c2.7,0,4.8,1.9,4.8,5C-358.4,1072.8-358.4,1073.1-358.4,1073.3z
						 M-360.2,1071.9c-0.2-1.6-1.4-2.6-2.9-2.6c-1.6,0-2.8,1-3,2.6H-360.2z"/>
					<path class="st0" d="M-346.1,1080.4c2.1,0,3.4-1.2,3.4-4.3c0-0.1,0-0.1,0-0.2c-0.6,1.1-2,1.8-3.4,1.8c-2.6,0-4.9-1.9-4.9-5
						c0-3.1,2.2-5,4.9-5c1.3,0,2.7,0.6,3.4,1.7v-1.5h1.8v8.1c0,4.5-2.1,6.2-5.2,6.2c-1.8,0-3.4-0.9-4.3-2.6c0.2-0.1,1.3-0.7,1.6-0.8
						C-348.3,1079.8-347.2,1080.4-346.1,1080.4z M-345.9,1069.4c-1.7,0-3.1,1.3-3.1,3.2s1.4,3.2,3.1,3.2c1.5,0,3.2-1.1,3.2-3.2
						C-342.8,1070.6-344.2,1069.4-345.9,1069.4z"/>
					<path class="st0" d="M-335.8,1062.6v14.8h-1.9v-14.8H-335.8z"/>
					<path class="st0" d="M-324.9,1075.9c-0.6,1.1-2,1.7-3.4,1.7c-2.6,0-4.9-2-4.9-5c0-3.1,2.2-5,4.9-5c1.3,0,2.7,0.6,3.4,1.6v-1.4
						h1.8v9.6h-1.8V1075.9z M-328.1,1069.4c-1.7,0-3.1,1.2-3.1,3.1s1.4,3.2,3.1,3.2s3.2-1.2,3.2-3.2S-326.6,1069.4-328.1,1069.4z"/>
					<path class="st0" d="M-315.4,1067.6c1.5,0,2.8,0.6,3.7,1.5l-1.4,1.2c-0.6-0.6-1.4-0.9-2.3-0.9c-1.7,0-3.2,1.2-3.2,3.1
						s1.5,3.2,3.2,3.2c0.9,0,1.7-0.3,2.3-0.9l1.4,1.2c-0.9,1-2.2,1.6-3.7,1.6c-2.7,0-5.1-2-5.1-5
						C-320.4,1069.6-318.1,1067.6-315.4,1067.6z"/>
					<path class="st0" d="M-300.4,1072.6c0,0.2,0,0.5,0,0.7h-7.8c0.2,1.6,1.5,2.6,3.1,2.6c1.1,0,2.2-0.5,2.7-1.5
						c0.5,0.2,1.1,0.4,1.6,0.6c-0.8,1.7-2.6,2.5-4.4,2.5c-2.7,0-4.9-2-4.9-5s2.2-5,4.9-5C-302.4,1067.6-300.4,1069.6-300.4,1072.6z
						 M-308.1,1071.9h5.9c-0.2-1.6-1.4-2.6-2.9-2.6C-306.7,1069.3-307.9,1070.3-308.1,1071.9z M-302.3,1062.9h-2.2l-2,3.2h1.8
						L-302.3,1062.9z"/>
					<path class="st0" d="M-288.8,1073.3h-7.8c0.2,1.6,1.5,2.6,3.1,2.6c1.1,0,2.2-0.5,2.7-1.5c0.5,0.2,1.1,0.4,1.6,0.6
						c-0.8,1.7-2.6,2.5-4.4,2.5c-2.7,0-4.9-2-4.9-5s2.2-5,4.9-5c2.7,0,4.8,1.9,4.8,5C-288.8,1072.8-288.8,1073.1-288.8,1073.3z
						 M-290.6,1071.9c-0.2-1.6-1.4-2.6-2.9-2.6c-1.6,0-2.8,1-3,2.6H-290.6z"/>
				</g>
			</g>
			<path class="st0" d="M-261.7,986.1c-0.3-2.3-6.2,2.7-7,3.3c-3.5,2.7-7,5.4-10.7,7.8c-1.7,1.1-3.5,2.3-5.4,3.1
				c-0.6-5-1.6-10.1-3.6-14.8c-0.9-2.2-2.1-4.5-3.7-6.3c-1.7-2-4.2-3.2-6.7-4.1c-4.6-1.6-9.7-2.2-14.6-1.5
				c-4.6,0.7-9.1,2.9-12.3,6.4c-1.3,1.4-2.6,2.9-3.3,4.7c-0.4,0.9-0.5,1.8-0.7,2.8c-0.3,1-1,2.1-1.4,3.1c-0.6,1.4-1.1,2.8-1.5,4.3
				c-0.8,3-1.4,6.1-1.7,9.2c-0.2,2.3-0.2,8.3-0.4,8.9c-0.2,0.6-3.9,5.8-5.1,7.8c-1.3,2.1-2.5,4.4-4.1,6.3c-0.6,0.7-1.3,1.5-2.2,1.8
				c-1,0.3-1.5-0.4-1.6-1.3c-0.1-1.7,0-3.4,0-5.1c0.1-8.1,0-16.2,0.5-24.2c0.3-4.5,0.6-9,1.2-13.4c0.6-4.3,1.9-13.6,2.4-15.7
				c0.1-0.3,10.8-0.4,13.4-0.5c0.9,0,1.9,0,2.9-0.2c1.9-0.3,3.9-0.8,5.8-1.2c4.9-1.2,9.7-2.4,14-5.2c1.7-1.1,3.5-2.3,4.3-4.2
				c0.9-2.5-2.1-2.5-3.8-2.6c-5.6-0.2-11-0.7-16.6-1.3c-1.3-0.1-2.6-0.4-3.9-0.4c-1.5,0-3,0.2-4.5,0.2c-2.9,0.1-5.8,0.2-8.6,0.2
				c0.9-4.3,1.8-8.6,2.7-12.9c0.7-3.5,1.6-7,1.8-10.6c0.1-2.2-0.4-4.4-1.8-6.1c-2.2-2.6-6.1-3.5-9.2-1.9c-1.9,0.9-3.4,2.9-4,4
				c-1.2,2.3-2.8,10.3-3.9,15.5c-0.4,2.1-2,11.5-2.2,11.5c-0.2,0.1-9.6-0.7-13.9-0.9c-5.7-0.4-15.1-2.7-15.5-2.7
				c-0.5,0.1-1.1,0.9-1.4,1.2c-0.6,0.7-1.2,1.5-1.6,2.4c-1.4,2.5-2.1,5.5-1.7,8.4c0.1,0.7,0.2,1.9,0.8,2.2c0.4,0.2,1,0.5,1.4,0.6
				c0.8,0.2,1.6,0.4,2.4,0.6c8.9,2.1,18.1,2.5,27.2,3c-1.3,9.8-2.2,19.6-2.7,29.4c-0.3,4.9-0.5,9.7-0.5,14.6c0,3.9,0.3,7.6,0.9,11.4
				c0.2,1.2,0.4,2.3,0.6,3.4c0.1,0.4,0.4,1,0.1,1.3c-0.3,0.4-1.1,0.6-1.6,0.8c-1.8,0.6-3.7,0.4-5.5,0c-1.4-0.3-2.9-0.5-3.9-1.6
				c-1.3-1.5-1.4-4.1-1.4-5.9c-0.1-5.1,0.6-10.4,1.2-15.5c0.3-2.7,0.8-5.5,0.7-8.3c-0.2-4.1-2.3-7.9-6.6-8.9
				c2.1-1.7,2.3-4.6,1.6-7.1c-0.6-2-1.8-3.2-3.5-4.2c-3.6-2.2-8.2-3.2-12.4-3.5c-4.9-0.3-9.7,1.2-13.9,3.6c-3.6,2-6.3,4.8-8.7,8.2
				c-1.8,2.6-3.1,5.2-4,8.2c-0.9,2.9-1.6,5.9-2.1,8.9c-0.3,1.5-0.5,3.1-0.6,4.6c-0.1,0.7-0.1,1.4-0.2,2.2c0,0.4,0,0.9-0.1,1.3
				c-0.1,0.3-0.4,0.6-0.5,0.9c-2.8,4.9-5.6,10-9.4,14.3c-0.9,1-1.8,1.9-2.8,2.6c-0.6,0.4-2.1,1.6-2.9,1.1c-0.5-0.3-0.8-1.4-1-1.9
				c-0.3-0.6-0.5-1.2-0.8-1.9c-2.3-5.5-3.2-11.4-3.8-17.3c-0.2-1.6-0.3-3.1-0.4-4.7c0-0.4,0-0.7-0.1-1.1c0-0.5,0-0.5,0.4-0.8
				c0.6-0.4,1.2-0.7,1.8-1.1c2.4-1.5,4.6-3.1,6.8-4.9c8.4-7,15.2-16.2,19-26.4c3.5-9.4,4.6-20.8,0.2-30.2
				c-4.8-10.3-18.4-12.9-27.4-6.6c-3.4,2.4-5.6,5.9-7.4,9.6c-2.5,5.2-4,10.8-5.2,16.4c-2.6,12.4-3.5,25.2-3.4,37.9
				c0,0.4,0,0.7,0,1.1c0,0.5,0.1,0.6-0.2,0.8c-0.4,0.3-1.2,0.3-1.7,0.5c-1.4,0.4-2.8,0.7-4.2,1.1c-0.7-10.4-5.2-20.9-15.1-25.4
				c-9.3-4.2-21-1.8-27,6.7c-0.5,0.8-0.9,1.5-1.3,2.3c-0.3,0.8-0.5,1.5-1,2.2c-1.5,2.3-2.7,4.9-3.6,7.5c-1.7,5.2-2.4,10.6-2.5,16
				c0,1.1,0.2,2.4,0,3.5c-0.1,0.7-1.2,1.4-1.8,1.9c-1.8,1.6-3.5,3.1-5.3,4.7c-3.4,2.9-7,6.1-11,8.2s-9.2,2.7-12.7-0.8
				c-3.3-3.2-4.7-7.9-5-12.4c-0.4-5.1,0.3-10.4,2.1-15.2c1.2-3.3,2.8-7,5.5-9.3c1.5-1.2,3.2-1.8,5-2c2-0.2,4-0.3,4.5,2
				c0.3,1.3,0.4,2.7,0.3,4c0,0.5-0.2,1.1-0.1,1.6c0.1,0.6,3.8,5.7,6,6.7c2.4,1,5,0.1,6.8-1.6c0.8-0.7,1.5-1.5,1.8-2.6
				c0.3-1.4,0.4-2.9,0.5-4.3c0.2-5.3-1.2-10.8-4.5-14.9c-6.7-8.3-19.9-7.3-28.1-1.9c-7.2,4.7-11.2,13.8-13.2,21.8
				c-0.1,0.3-0.2,0.7-0.2,1c-0.1,0.6-4.8,1.1-6.2,1.3c0.1-6.9-1.3-14.1-5.5-19.7c-4.1-5.5-10.4-8.8-17.2-9.1
				c-6.8-0.2-14.1,2.7-18.3,8.2c-0.5,0.6-0.9,1.2-1.3,1.9c-0.4,0.8-0.6,1.7-1.1,2.5c-0.9,1.6-2,3-2.8,4.6c-1.6,3.2-2.8,6.7-3.5,10.3
				c-1.5,7-2.1,14.6-1.1,21.7c0.9,6.7,3.5,14,9.2,18.1c8.7,6.3,21.4,4.5,29.1-2.6c4.9-4.5,7.7-10.9,9.5-17.2c0.5-2,1-4,1.4-6
				c0.1-0.7,0.3-1.4,0.4-2.1c0.1-0.6,0.3-2.9,0.5-3.1c0.2-0.3,4.4-2,5.7-2.8c-1.2,10.8,0.5,23.6,9.3,30.9c4.5,3.8,10.3,5.7,16.2,5.2
				c5.5-0.4,10.6-3,14.7-6.7c1.6-1.5,3.1-3.1,4.5-4.7c0.9-1,5.6-7.4,6.6-9c1,5.7,3.3,11.8,7.5,16c3.8,3.8,9.1,6.1,14.5,6
				c4.7-0.1,9.3-1,13.3-3.6c4.9-3.1,8.2-7.9,10.3-13.2c1.3-3.2,2.1-6.5,2.7-9.8c0.3-1.7,0.9-6.9,1.1-7.8c0.1-0.3,0.2-0.4,0.3-0.6
				c0.2-0.3,4.6-2.2,6.5-3.4c0.3,5.2,0.9,10.3,1.9,15.4c0.9,4.2,2,8.4,4,12.2c2.1,3.8,5,7.5,9.2,9.2c4.6,1.8,9.7,0.7,13.6-2.1
				c4.4-3.1,7.3-7.9,9.5-12.7c2.2,6.6,6.8,12.1,13.5,14.5c5.1,1.9,11.2,2.1,16.3,0.3c3.6-1.3,6.7-3.7,9.1-6.7c3.1,3,7,4.2,11.2,4.4
				c4.3,0.2,8.7-0.5,12.3-2.9c1.2,2.2,2.6,4.1,4.8,5.3c2.4,1.3,5,1.6,7.6,0.5c4.8-2,7.6-7.2,9.6-11.7c1-2.1,1.6-4.4,2.3-6.6
				c1.9,8.3,6.9,16.2,15.5,18.6c3.7,1,7.8,1,11.5,0.2c3-0.6,5.5-1.9,8.1-3.5c7-4.4,10.4-12.8,12.2-20.5c0.4-1.5,1.1-6.6,1.4-6.8
				c0.7-0.5,1.1-0.8,1.5-1c3.2-2,6.3-4.3,9-7c2.5-2.5,5-5.3,7.1-8.2c1.3-1.8,2.6-3.7,3.6-5.7C-262.6,989.5-261.5,987.6-261.7,986.1
				C-261.8,985-261.5,987.1-261.7,986.1z M-443.1,981.6c0.5-6.8,1.4-13.7,2.9-20.4c1.1-4.9,2.4-10.3,5.3-14.6
				c1.4-2.1,4.1-2.7,5.8-1.1c1.4,1.4,1.6,4.2,1.8,6c0.5,5.3-0.6,10.5-2.8,15.3c-3,6.7-7.5,12.8-13.1,17.6
				C-443.2,983.5-443.2,982.6-443.1,981.6C-442.7,976-443.2,982.6-443.1,981.6z M-587.4,1013.3c-1.3,5.5-3.2,13.5-9.4,15.4
				c-2.3,0.7-5.6,1.1-7.3-0.9c-2.1-2.4-2.7-6.2-2.9-9.2c-0.3-4.1,0-8.3,0.6-12.4c5.2,4.7,12.3,6.6,19.1,6.6
				C-587.3,1013-587.4,1013.1-587.4,1013.3z M-599.3,992.9c-0.1-0.2-0.2-0.6-0.2-0.8c0-0.4,0.2-0.5,0.6-0.7c0.6-0.4,1.2-0.7,1.8-1
				c1.3-0.6,2.8-0.9,4.2-1.1c0.3,0,0.7,0,1-0.1c0.2-0.1,0.4-0.4,0.6-0.5c0.4-0.1,1.1,0.5,1.5,0.8c0.9,0.7,1.7,1.6,2.2,2.7
				c1.7,3.1,2,6.7,1.9,10.2C-586.5,1002.2-597.1,1000.9-599.3,992.9z M-483.7,1024.3c-1.5,2.6-3.6,4.4-6.6,4.9
				c-1.4,0.2-3.2,0.3-4.5-0.3c-1.2-0.5-2.1-1.8-2.7-2.9c-1.6-2.9-2.3-6.3-2.5-9.5c-0.3-3.4-0.2-6.9,0.1-10.3
				c5.5,4.7,12.4,6.8,19.6,6.7C-481,1016.7-481.8,1020.8-483.7,1024.3C-484.7,1025.9-482.1,1021.3-483.7,1024.3z M-482.9,1000.8
				c-2.7-0.8-5.1-2.2-7.1-4.2c-1.4-1.4-2.3-3.2-3.2-5c-0.2-0.4-0.2-0.3,0-0.6c0.3-0.4,1.1-0.6,1.6-0.8c1.3-0.5,2.6-0.8,3.9-0.9
				c0.3,0,0.6,0,0.8-0.1c0.2-0.1,0.3-0.3,0.5-0.4c0.4-0.1,1,0.3,1.4,0.6c1,0.7,1.9,1.6,2.6,2.7c1.8,2.8,2.5,6.2,2.7,9.5
				C-480.6,1001.3-481.8,1001.1-482.9,1000.8C-484.4,1000.3-481.8,1001.1-482.9,1000.8z M-385.5,991.8c-2.6,3.2-2.1,8.2-2.2,12.1
				c-0.1,4.1-0.4,8.2-1.1,12.3c-0.6,3.6-1.5,7.8-3.9,10.6c-2.4,2.8-7.2,2.7-10,0.6c-3.1-2.2-3.8-6.9-4-10.4
				c-0.3-4.5,0.2-9.1,1.1-13.5c0.5-2.4,1.1-4.9,2.2-7.1c1.5-3.1,4.1-5.6,7.3-6.7c1.9-0.6,3.8-0.7,5.7-0.2c1.1,0.3,2.2,0.7,3.2,1.4
				c0.8,0.6,1.5,0.3,2.4,0.2C-385.1,991.3-385.3,991.5-385.5,991.8C-385.7,992-385.3,991.5-385.5,991.8z M-303.7,1024.9
				c-1.3,2.3-3.6,3.9-6.3,4.2c-2.1,0.3-4.3,0.2-5.8-1.4c-1.8-2-2.6-4.7-3.1-7.3c-0.6-3.1-0.7-6.3-0.6-9.5c5.2,4.6,11.8,7,18.7,6.7
				C-301.4,1020.1-302.3,1022.7-303.7,1024.9C-304.3,1026-302.5,1023-303.7,1024.9z M-303,1003.3c-3.1-1-6-2.6-8.2-5.1
				c-0.6-0.7-1.2-1.5-1.7-2.3c-0.6-0.9-1.1-2-1.4-3c-0.2-0.5-0.3-0.8-0.1-1.2c0.3-0.5,0.9-0.9,1.3-1.2c2.7-2.1,6.3-2.6,9.5-1.3
				c0.8,0.4,1.1,0.8,1.5,1.7c0.6,1.4,1,2.8,1.3,4.2c0.7,2.9,1.3,5.9,1.5,8.9C-300.6,1003.8-301.8,1003.6-303,1003.3
				C-303.4,1003.1-302.1,1003.6-303,1003.3z M-622.5,1048.7c-1.2-0.1-2.3-0.2-3.5-0.3c-0.4,0-0.7,0-1.1-0.1c-0.1,0-0.6-0.1-0.7-0.4
				c-0.2-0.7-0.4-9-0.3-12.3c0-4.5,0.1-9,0.3-13.4c0.3-10.1,3.6-20.1,1.4-30.2c-0.8-3.5-1.9-7.4-4.3-10.2c-4.1-4.7-11.1-3.6-16-0.9
				c-5.4,2.9-9.2,7.7-12.7,12.7c-3.2,4.6-6.1,9.7-8.9,14.7c-0.1,0.3-0.5,1.3-0.7,1.2c-0.1-0.1,0-0.9,0-1.3c0-1.2,0.1-2.3,0.1-3.5
				c0.1-2.2,0.2-4.4,0.3-6.6c0.1-1.8,0.2-3.5,0.3-5.3c0.4-6.3,0.8-12.6,2.1-18.9c0.9-4.8,2.3-9.4,3.9-14c7.2,3.6,15.1,5.5,23.2,6.2
				c6.9,0.6,13.7,0.7,20.3-2c7.2-2.9,13.3-8.5,15-16.3c1.6-7.7-0.9-16-5.7-22.1c-4.7-6-12.5-9.4-20-10.1c-8-0.8-16.1,1.4-22.8,5.8
				c-3.1,2.1-6,4.5-8.6,7.2c-1.3,1.3-2.5,2.7-3.6,4.2c-0.6,0.8-1.2,1.5-1.7,2.3c-0.3,0.4-0.5,0.8-0.8,1.1c-0.6,0.9-1,0.6-1.1,0.5
				c-6.4-3.9-14-7.2-21.7-5.9c-3.1,0.5-7.3,1.6-8.5,4.8c-1.1,2.8-0.9,6.3,1.7,8.2c1.4,1.1,3.2,1.4,4.9,1.9c0.7,0.2,1.6,0.6,2.3,0.6
				c0.6,0,1.4-0.5,2-0.7c3.8-1.5,12.1,4.1,12.5,4.7c0.2,0.3,0.2,0.2,0.1,0.6c-0.2,0.6-0.5,1.1-0.7,1.6c-0.6,2.1-1.3,4.1-2,6.1
				c-1.3,4-2.4,8.1-3.2,12.2c-1.2,6.1-1.8,12.2-2.2,18.3c-0.1,1.7-0.2,3.5-0.3,5.2c-0.1,2.1-0.2,8.7-0.7,9.3
				c-0.3,0.5-0.9,0.9-1.3,1.4c-1.9,2.1-3.6,4.4-5.4,6.6c-2.6,3.1-5.4,6-8.6,8.5c-5.9,4.7-12.9,7.9-20.5,8.4
				c-2.9,0.2-6.1,0.1-8.9-0.6c-3.5-0.8-6.2-2.5-7.7-5.8c-1.7-3.6-1.9-7.8-1.9-11.8c0.1-4.3,0.5-8.5,1.4-12.7
				c1.7-7.9,4.6-15.9,9-22.7c4.1-6.3,10.9-12.5,19-11.4c1.5,0.2,3,0.7,4.1,1.8c1.3,1.3,2,3.2,2.3,4.9c0.7,3.4-0.2,6.9-1.3,10.1
				c-0.6,1.9-1.4,3.7-2.2,5.5c-0.7,1.6-1.4,3.2-2.4,4.5c-1.9-1.8-3.8-3.6-6.5-3.5c-2.1,0.1-4.1,1-5.2,2.7c-1.5,2.5-1.2,5.1-0.9,6.2
				c0.6,2.4,1.7,4.7,3.4,6.6c2.6,2.9,6.4,4.5,10.3,4.1c5.1-0.6,9.2-4.3,11.9-8.5c2.8-4.2,4.7-9.2,6.2-14c1.6-5,2.3-10.2,1.6-15.3
				c-0.8-5.2-2.9-10.2-6.6-13.9c-3.8-3.8-8.9-5.8-14.3-6.2c-10.7-0.8-20.7,4.5-27.6,12.4c-6.9,7.9-11.3,18-14.1,28
				c-1.5,5.4-2.5,11-2.9,16.6c-0.4,5.4-0.3,10.9,0.8,16.1c1.1,5.1,3.4,10.1,7.1,13.8c3.8,3.9,8.9,6.1,14.1,7.2
				c18.4,3.6,36.8-8.6,45.1-24.6c0.7-1.4,1.4-2.8,2-4.3c0.1,4.2,0.4,8.4,1,12.6c0.2,1.3,0.3,2.5,0.6,3.8c0.2,1.2,0.3,2.9,0.8,3.9
				c1.8,3.5,5,6.2,9.2,5.7c5.8-0.6,8.6-6.5,10.8-11.1s4.1-9.3,6.6-13.8c2.6-4.6,5.2-9.2,8.3-13.5c1-1.4,2-2.8,3.2-4.2
				c0.2-0.2,1.9-2.3,2.3-2.1c0.3,0.1,0.4,4.5,0.4,5.6c-0.2,6.7-1.8,13.3-2.1,20c-0.3,7.2-0.4,14.5-0.3,21.7c0,1.9,0.1,3.7,0.2,5.6
				c-10.8,0-22.1,1.2-32.1,5.7c-1.3,0.6-2.5,1.2-3.7,2c-0.5,0.4-1.4,0.9-1.6,1.6c-0.5,1.6,3.3,1.4,4.1,1.4c2.1,0,4.2-0.1,6.3-0.2
				c6.3-0.2,12.5,0,18.7,0.7c1.7,0.2,3.3,0.4,5,0.6c0.7,0.1,1.5,0.2,2.2,0.3s1.6,0.1,2.3,0.4c0.5,0.2,0.4,0.4,0.5,0.9
				c0.1,0.3,0.2,0.7,0.3,1c0.2,0.9,0.5,1.7,0.7,2.6c0.5,1.5,1,2.9,1.6,4.3c2.3,5.1,5.7,9.3,10.3,12.4c4.8,3.3,10.4,5.7,16.3,5.2
				c9.9-0.9,18.7-10.8,15.5-20.7C-600.8,1052.3-617.7,1049.3-622.5,1048.7z M-653.7,943.5c3.6-4.8,8.3-9.6,14-11.7
				c5.2-1.9,11.2-1.6,16,1.3c1.9,1.2,3.6,2.8,4.5,4.8c1.1,2.3,1.5,5.5,0.5,7.9c-1,2.5-3.9,4-6.3,4.9c-3.1,1.1-6.3,1.1-9.5,0.9
				c-7.4-0.4-14.7-1.7-21.3-5C-655.1,945.5-654.4,944.5-653.7,943.5C-651.1,940-654.4,944.5-653.7,943.5z M-611,1070.9
				c-1.6,2.6-5.5,0.5-7.4-0.6c-1.3-0.8-2.6-1.7-3.6-2.7c-1.2-1.1-2-2.7-2.7-4.2c2.8,0.5,5.5,1.2,8.1,2.3c1.2,0.5,2.5,1,3.6,1.7
				C-612,1068.1-610.4,1069.5-611,1070.9C-611.3,1071.4-610.8,1070.4-611,1070.9z"/>
		</g>
		<path class="st0" d="M-424.7,1070.6c0,0.3,0,0.7-0.1,1.1c0,0.4-0.1,0.8-0.2,1.1c-0.1,0.4-0.2,0.7-0.3,1c-0.1,0.3-0.3,0.6-0.4,0.9
			l2.5,2.8h-2.2l-1.3-1.4c-0.5,0.6-1.2,1-1.9,1.3c-0.7,0.3-1.5,0.4-2.3,0.4c-0.6,0-1.2-0.1-1.8-0.3c-0.6-0.2-1-0.5-1.5-0.8
			c-0.4-0.4-0.7-0.8-1-1.3s-0.4-1.1-0.4-1.8c0-0.8,0.2-1.5,0.6-2.1c0.4-0.6,0.9-1.1,1.5-1.5c0.3-0.2,0.5-0.3,0.7-0.5
			c-0.2-0.3-0.5-0.5-0.7-0.8c-0.2-0.2-0.4-0.5-0.6-0.8c-0.2-0.3-0.3-0.6-0.4-0.9c-0.1-0.3-0.1-0.6-0.1-1c0-0.5,0.1-1,0.3-1.4
			c0.2-0.4,0.4-0.8,0.8-1.1c0.3-0.3,0.7-0.5,1.2-0.7c0.4-0.2,0.9-0.2,1.5-0.2c0.5,0,1,0.1,1.5,0.2c0.5,0.2,0.9,0.4,1.2,0.7
			c0.3,0.3,0.6,0.7,0.8,1.1c0.2,0.4,0.3,0.9,0.3,1.4c0,0.7-0.2,1.3-0.5,1.9c-0.3,0.5-0.8,1-1.4,1.4l-1.1,0.7l3.1,3.4
			c0.1-0.2,0.2-0.5,0.3-0.8c0.1-0.3,0.1-0.6,0.2-0.9c0-0.3,0.1-0.6,0.1-1c0-0.3,0-0.6,0-0.9v-0.7h3.2v1.5H-424.7L-424.7,1070.6z
			 M-431.6,1070.6l-0.9,0.5c-0.4,0.3-0.7,0.6-0.9,1c-0.2,0.4-0.3,0.8-0.3,1.3c0,0.4,0.1,0.7,0.2,1.1s0.3,0.6,0.6,0.8
			c0.2,0.2,0.5,0.4,0.9,0.5c0.3,0.1,0.7,0.2,1.1,0.2c0.7,0,1.2-0.1,1.8-0.3c0.5-0.2,1-0.5,1.4-1.1L-431.6,1070.6z M-428.7,1066.1
			c0-0.6-0.2-1.1-0.5-1.5c-0.4-0.4-0.9-0.5-1.5-0.5s-1.1,0.2-1.4,0.5c-0.4,0.3-0.5,0.8-0.5,1.4c0,0.3,0.1,0.6,0.2,0.8
			c0.1,0.3,0.2,0.5,0.4,0.7c0.2,0.2,0.3,0.4,0.6,0.6c0.2,0.2,0.4,0.4,0.6,0.6c0.3-0.2,0.6-0.3,0.9-0.5c0.3-0.2,0.5-0.3,0.7-0.6
			c0.2-0.2,0.4-0.4,0.5-0.7C-428.8,1066.7-428.7,1066.4-428.7,1066.1z"/>
	</g>
	<g>
		<path class="st0" d="M-276.9,973.8h0.6l0.8,6.3h-0.6l-0.6-5.2l-2.2,4.5h-0.6l-2.2-4.5l-0.6,5.2h-0.7l0.8-6.3h0.6l2.4,4.9
			L-276.9,973.8z"/>
		<path class="st0" d="M-269.2,979.2c-0.6,0.6-1.4,0.9-2.2,0.9c-1.8,0-3-1.4-3-3.2s1.3-3.2,3-3.2c0.9,0,1.7,0.4,2.2,0.9l-0.4,0.4
			c-0.5-0.5-1.1-0.8-1.8-0.8c-1.4,0-2.4,1.2-2.4,2.6c0,1.4,1,2.6,2.4,2.6c0.7,0,1.4-0.3,1.8-0.8L-269.2,979.2z"/>
	</g>
</g>
</svg>
