<svg xmlns="http://www.w3.org/2000/svg" viewBox="0 0 228.61 228.19"><defs><style>.cls-1{fill:#fff;}</style></defs><title>holaAsset 1</title><g id="Layer_2" data-name="Layer 2"><g id="Calque_1" data-name="Calque 1"><path class="cls-1" d="M13.21,152.21l.46.29C13.42,152.26,13.27,152.18,13.21,152.21Z"/><path class="cls-1" d="M51.48,18.89c.58-.48,1.23-1,1.74-1.39-.87.55-1.74,1.1-2.59,1.67C50.67,19.25,50.85,19.22,51.48,18.89Z"/><path class="cls-1" d="M109.35.61c.85-.17,2.3-.31,3.22-.43A2,2,0,0,1,112,0c-2.11.05-4.21.13-6.3.29.05.08-.57.16-2.37.33C103.78,1.12,107.87.58,109.35.61Z"/><path class="cls-1" d="M124.6,2.82l-1.18-.57c-1.15.08-2.3.2-3.45.31.93.45,3.68.55,5.47,1,.15-.11,6.08-.11,7.77-.13-1.53-.4-3.07-.76-4.62-1.1,1.26.29,7.48,1.14,9.94,1.6.13-.31-4-1.61-4.68-1-.43-.56,4.47.39,1.46-.68,3.79.19,9.53,2.06,12.09,3.12l.23.84c2.77,1.21,2.23-.25,5.48,1.36-4.21-1.33.43,1-2.89-.09.95.63-.22.73,3.06,1.87,3.07.1,3.19,1.88,6,2.17,1.54,1-2-.25,1.18,1.33,3.95,1.26,3.89.9,4.45.35-3.41-1.92-4.34-1-7.16-2.48,2.09.45,4.18.94,6.26,1.51a11,11,0,0,0-2.44-1.32,20.29,20.29,0,0,0,3.2,1l.35.07A113.81,113.81,0,0,0,132.7,1.48C127,1.05,122.27.85,118.76.69c1,.52,5.67,1.26,7.86,1.74C125.94,2.55,125.27,2.68,124.6,2.82Zm36.91,8.06c-1.12-.42-2-.5-3-1,0-.22-.74-.73-1.22-1.08A37.43,37.43,0,0,0,161.51,10.88ZM129.56,3.09c-.73,0-1.46-.06-2.19-.06C126.19,2.43,129.13,3.05,129.56,3.09Z"/><path class="cls-1" d="M35.4,32l-.58.68c4.59-3.32,7.51-8.26,13.7-11.57l.36-.33.39-.73A115.61,115.61,0,0,0,27.19,40C29.06,38.43,31.49,36,35.4,32Z"/><path class="cls-1" d="M92.14,2.37c3-.27.15.43,4.35-.3-.29-.55,2.18-1,4.75-1.38q-4.58.51-9,1.38C92,2.2,92,2.3,92.14,2.37Z"/><path class="cls-1" d="M48.52,21.15A23.53,23.53,0,0,0,44,26.48c.83-.85,1.72-1.65,2.58-2.47-.37,1.15,2.24-1.26,4.42-2.7l-1.41,2a24.21,24.21,0,0,0-4.41,3.08s0,0,0,.07,0,0,0-.07A27.21,27.21,0,0,0,38,31.48c.6.13,5.85-4.66,4-1.9,1.88-2.09,2.5-1.87,4.69-3.8-2,2-.1,1-1.45,2.62q1.77-1.56,3.63-3c.17,0-5.19,4.52-1.73,2.68,1.28-1.43,5.61-4,5.35-4.53l.2.08c3-1.81.81-1.6,4.68-3.59-.11-.29-.93,0-2.22.84-1,.81-1,1.28-3.18,2.86-1.29.28,2.74-1.78.73-1.39-1,.15-5.67,4.42-4.58,2.54,1-.67,2-1.33,3-2-.28-.56,1.89-2,1.58-2.33,1.71-1.41,3.84-1.89,5.51-3.48.63-.79-1.17-.63,2.26-2.17a46.84,46.84,0,0,0,6.79-2.63l6.85-3c.83-.46,1.66-.9,2.51-1.33-.37-.3-5,1.93-3.52.84,1.36-.59,2.72-1.14,4.11-1.66L77,7.51c1.39-.45,2.74-1.13,4-1.65-1.19.8-4.26,1.65-3.45,2.05a34.85,34.85,0,0,0,4.13-1.08c-.38.16-.7.32-.62.39,4-.94,3.67-1.77,4.63-2.26,3.8-1.8-3.91.22-4-.32-3.53,1-7,2.25-10.35,3.6A3.89,3.89,0,0,1,71,8.5a17,17,0,0,1-2.23,1.06h0l-.56.47c-.07.16.06.29-1,.76-.79.61-1.24.86-.36.15l-1,.42c-.45,0,.49-.56,2.1-1.26l.77-.54h0a15.69,15.69,0,0,1-1.68.5c-2.81,1.27-5.57,2.63-8.25,4.12,1.26-.42,3.59-1.48,4.19-1.75-.28.84-5.11,3.06-7.43,4.82a3,3,0,0,1-.86.71,7.94,7.94,0,0,1,.86-.71,3.34,3.34,0,0,1,.37-.46c-5.8,4.1-1.12-.37-6.75,3.73l-.31.29-.11.19ZM81.33,5.38a29.5,29.5,0,0,1-3,.9A8.68,8.68,0,0,1,81.33,5.38Z"/><path class="cls-1" d="M3.92,145.42l.4,1.52c0,.17.09.34.14.49A2,2,0,0,0,4.62,146Z"/><path class="cls-1" d="M.69,120.38c-.2-.27-.22.63-.21,1.64s.14,2.31.23,3.59c.11,0,.22.27.36.68,0-1.26.08-2.09.56-1.64-.64,3.29,1,2.79,1.18,6.22.64,1,0-3.84-.31-4.87C1.73,124.82,1.41,120.61.69,120.38Z"/><path class="cls-1" d="M19.89,174.88a1,1,0,0,0,.26.18Z"/><path class="cls-1" d="M54,156.09h-.75v6H54a1,1,0,0,0,.91-1.09v-3.8C54.92,156.09,54.24,156.09,54,156.09Z"/><polygon class="cls-1" points="165.08 161.99 165.7 161.99 165.38 160 165.08 161.99"/><polygon class="cls-1" points="167.85 114.81 172.65 114.81 170.2 99.42 167.85 114.81"/><path class="cls-1" d="M98.27,72.59c-5.93,0-6.81,5.12-6.81,8.17v48c0,1.89.49,8.06,6.81,8.06,5.9,0,6.36-6.25,6.36-8.17V80.87a10.5,10.5,0,0,0-1.68-6A5.37,5.37,0,0,0,98.27,72.59Z"/><path class="cls-1" d="M206.82,47.29l-.21-.22.15.12c-.28-.37-.53-.75-.81-1.12-1.9-2-4.59-4.72-7.42-7.21l-.2.13c.27.51-1-.9-1.6-1.7h0c-1.92-1.65-3.83-3.15-5.39-4.36a14.35,14.35,0,0,0,1.48,1.85c.78.33,3.77,3.81,3.79,2.93,1.19,1.79,3.81,4,4.62,5.4-1.5-2.46,1.72,1.16,2.3,1.35.28,1,2.58,3.36,1.92,3.39a7.53,7.53,0,0,0-1.54-2.12c-2.18-2.08,2.92,4.63.32,1.94,3.13,3.53,6.35,8.85,9.09,12.9l-1.15-2.48c1,1.9,3.5,6.41,3.41,6.88-.76-1.41-1.61-3.1-2.7-4.84-.54.18,2.31,4.35,2.06,4.74,1.18,1.64,2.31,3.31,3.41,5l-1-2.42c1.05,1.35,2.8,6.6,4,10.49-1.54-1.93-2.08-5.77-4.14-9.56-1.56-2.69.07,2.06-1.33-.51a11.56,11.56,0,0,0,1.49,3.27l0-.13.2.39a2.36,2.36,0,0,1-.17-.26l.29,1.12c-1.63-2.13-3.89-7.46-6.32-10.51a2.11,2.11,0,0,0,.56.53,36.66,36.66,0,0,0-4.4-7.66,9.33,9.33,0,0,0,1.59,2.54c-.09.18-1.58-2.09-2.33-2.83,1.26,2.37-.1.66.69,2.15-1.06-1.38-1.78-2.58-2.91-4.36-.39-1.06.84.53,1,.13-1.43-1.66-1.27-3-3.56-5.31,2.45,3.49-1.31-.42-2.43-1.37l.42.57a5,5,0,0,1-2.2-2.59c1.27,1.19,2.2,2.6,2.24,1.93a27.57,27.57,0,0,0-2.42-2.65l1,.7q-1.86-2.16-3.85-4.22a16.2,16.2,0,0,0-3.29-1.24A12.5,12.5,0,0,0,188.14,35l.55.29c-1.54-2-6-5.36-6.56-5.34-1.17-1.47,11.07,6.5,1.18-1.46-3.81-3-3-1-5.46-2.3,0,0,.2,0,0-.22-1.65-1.28-2.06-1.05-3.58-1.86a15.19,15.19,0,0,0,3,2.08c-.76,0-3.53-2.51-5.08-3.05,2.14.49-3.26-2.35-1.71-1.82a26.91,26.91,0,0,0-9.73-4.54c-2.17-2-4.51-2-8.59-4a27.74,27.74,0,0,1,2.75,1.06c2.64.43-4.29-2-.37-1-.83-.24-.17.26.68.51,1.45.5,2.88.88,2.63.49-1.07-.67-2.18-1.28-3.28-1.92l1.27.38c-1.67-1-3.38-1.84-5.12-2.69-.19.06.28.37.51.53-6.18-2.56-13.72-4-19.46-5-.67.69-4.22.31-8.22.07s-8.47-.33-10.79.21c1.25-.48,1.94-1.28,1.16-1.61-.32,0-.54,0-.63-.14a1.68,1.68,0,0,1,.63.14,24.49,24.49,0,0,1,5.61-.46c.38.27,3.3.76,1.39.93,6.58.3-.84-.78,1.14-1.23-7.38-.33-11.69.84-16.23,1.5l-.13-.19-3.41.68c2.82-.16,2.75.73-.88.8l.44-.1c-2.11-.17-6.33.89-9.49,1.49l-2,1c-3.15.67-3.52-.23-4.69-.52-5,1.28-7.52,3-10.71,4.74-1.68.12-8.71,3.11-5.21,1-4,2.3-2.23,3.79-9.65,6.42l1.57-1.35a90.49,90.49,0,0,0-10.21,6.88c-3.21,2.44-5.86,4.75-7.31,5.7.59-1.45-1.47-.28-3.86,1.38s-5.07,3.79-6.06,3.79c.5-.05-1.42,2.1-1.55,2.53a4.18,4.18,0,0,1,.57-.31c-.48.4-.63.46-.57.31a5.06,5.06,0,0,0-1.9,2c2.2-2-.3,2.52,3.09-2A53.29,53.29,0,0,1,27,49.63l-.43-.44c1-1.26,2.08-2.51,3.16-3.73-.66.09,1-1.82,1.5-2.75-3.09,3.37-3.12,3-3.2,2.57s-.15-.81-3,3c-.22,1,0,.4-1.32,2.48.66-1,.43-1.37-.64.15l-.62,1.74c-2.71,2.17,2.57-4.87.39-3,1.7-3.3,5.62-8.41,4.28-8-4.07,4.57-2.32,5.13-6.23,10.08l-.64.38c-1.05,2-.77,2.58-1.14,3.77-.21,0-.64.39-1.4,1.59a75.58,75.58,0,0,0-3,9.28,33.54,33.54,0,0,1,3.91-7.44c1.15-1.6,2.25-3.26,4.65-7.26-.68,1.31-4,7-3.42,7.74l-.47-.38c-1.24,2.77-2.38,5.55-4.16,8.87.22-.75.44-1.49.69-2.23-1.82,4.66-4.3,7.25-4.72,11.32.36-.9.67-1.69.89-2.37-.69,2.32-1.67,5-2.49,7.34-.24,1.94-.44,3.88-.58,5.82-.29-.13-1.13,3.42-1.21,1.6-1.37,4-.77,6.09-1,8.45-1.25,4.12.23-3.67-.42-4.23a48.77,48.77,0,0,0-1.27,15.39c.17-1.19.33-1.76.47-1.69-.22.16-.27,2.52-.32,3.84l.38.91c-.29,2.19-.52,1.88-.8,0-.11,2.11.67,4.59.21,6.78-.66-3.58-.16-8.18-.35-10.06A52.93,52.93,0,0,1,4.29,117a32.36,32.36,0,0,0,.3,9.35c-.17.14-.72-1.45-.51.4.65,4.25.94,1,1.53,2.29a15.29,15.29,0,0,1-.19-6.71l.38.85c0-.07.13.09.29.59l-.29-.59c-.15.14,0,2.18-.08,2.79l.71.46c-.75-.17-.94,3.17-.24,5.69.1-2.67.22-2,.92-2.78,1.28,3.43-.16,4.15,1.46,7.94-.31-.24-1.15-3.67-.73-.64.5,2.47,1,2,1.54,3.61-1-1.7-1.35-1.12-2.48-3-1-4.43-.38-1.78-1.38-6.11.05,1.26.06,2.53.14,3.8-.77-3.79-1.15-2.67-1.44-2.94.56,6.67,1.78,4.75,2.57,8.93.88,1.89-.85-3.89.32-.88.86,3.86.58.79,2,5l-.47-.63c0,1.4.83,2.56,1.38,4,.74,1.55,1.29-2.42,3.69,4.07l1,.62c1.55,3.62,2.68,6,3.76,8.35a78.65,78.65,0,0,0,4,7.45c.14.52-.36-.15-.62-.5,2.49,4.16,6.54,10.23,9.17,12.65.92,1.22,3.34,4.49,2.1,3.53a16.11,16.11,0,0,1,1.76,1.75c-.12.43-1.37-1.37-1.63-1.21a7.31,7.31,0,0,0,.61.74c-.76-.34-.23,1.64-3.55-2.31-.68-2.18,2.52,2.83,2.44,1.25-1.15-1.38-1.3-1-1.49-1-1.45-1.78-1.2-1.91-1-1.94-.8-.5-2.24-3-3.3-3.74-2.66-3.58.71-.22-1-2.58l-1.75-.83q-1.27-2.07-2.46-4.19c-3.83-5.91-1,1.8-5.42-5.08,1,.71.13-2.55-1.22-6.05,1,2.05,3.36,5.46,4.55,8.1-.67-2,0-.74.87.67s1.87,3,1.7,1.86a25.39,25.39,0,0,1-4.07-6.81l.48.71c-1.16-2.49-3-3.94-4.17-7.64-.75-1.75-.36-1.53,0-1.3-.75-1.42-1.41-2.72-1.22-2.79-2.36-1.53-4.7-3.18-7-5a137.19,137.19,0,0,0,9.17,22.64c.1,2.27-3.66-5-3.74-4.39-.54-1.2-1-2.43-1.53-3.65.41.06,3.75,7.36,2.82,3.85-3.34-6.09-4.08-9.18-7.06-15.11-.27,2,2.34,6.78,3.78,10.75q2.22,4.93,4.89,9.64c.84,1.05,1.57,1.65,1.93,1.58l-.35-.63.95,1.15c-.57-1.07-1.16-2.12-1.69-3.19.37-.29,2.07,3.36,2,3.56l-.29-.37,1.39,2.5.67.84,1.34,1.27-.15-.21c1.35,1.44,1-.77-1-3l.58.39a12.65,12.65,0,0,1-2.6-3.88c1.4,2.05-.23-1.29-.18-1.77a110.55,110.55,0,0,0,7,10.74c-.19-.07-.58-.2-1.26-1.12,2.14,2.93,2.36,1.9,4.1,4.33l1.54,1.2a18,18,0,0,1,2.09,1.56,105.26,105.26,0,0,0,15.17,9.18c3.29,1.75,8.66,7.22,11.37,8-1.31-.33.12,1.31,2.61,2.56.58.16-.19-.4-.56-.8,3.74,2.91,9.79,6.21,12.93,6.51-.77,0-1.56-.06-2.33-.13,3.59,1.2,5.87,2.1,8.44,2.45-.17.07-1-.15-1,.07,2,1.2,4.7,1.21,6.67,2l-1.64-.3c-.36.14,1.75.72,2.81,1,1.48.34,4.71.62,2.07-.38.93.33,1.89.59,2.83.89.07,0,0-.1-.08-.17a2.19,2.19,0,0,1-.45-.3c.13.08.32.2.45.3,1.67.83,6,1.43,5.56,2.09-2,0-1.88.47-5.31-.11-2.55-1.67-7.78-1.9-12.26-3.73-1.38,0-.93.3-3.84-.7.89-.41,6,1.64,3.49-.08-2.35-1.07-6.4-2.73-7.72-2.46,7.12,2.81-1.57,1.19,5.66,3.7a34.47,34.47,0,0,1-5.18-1.37c-4-2,7.45,1.86-1.41-1.91l-1.29.69c-1.94-.93-4.52-2.29-6-3.14l-.77-.39c-.67.23,1.87,1.72,1.31,1.78,3.62,2,9.1,4.62,12.47,5.49l-1.29-.57c4.48,1.73,2-.05,5.16,1l-.38,1c2.29.45,4.71,1.21,6.23,1.58-.19.76-3-.06-6.23-1.27s-6.86-2.84-9.08-3.17a10.54,10.54,0,0,0-3.38-2c-.14.58-2-.15-4.12-1.3s-4.67-2.71-6.33-3.62c-1.37-1,2.75,1.36,1.38.14-2.54-1.57-4.13-1.73-6.74-4.09.37.22.19,0,.57.21-4.61-2.87-.84-1.06-1.42-1.86-.19-.18-.38-.35-.55-.53a3.53,3.53,0,0,1,.55.53c1.65,1.5,4.1,2.6,5.46,3.69,1.5.34,3.9,1.71,6.39,2.95,0,0,0,0,.06,0l.71.42c2.41,1.19,4.81,2.19,6.27,2.21-3.12-1.52-9.37-4.95-9.34-5.64-4.13-1.89-7.77-3.48-11.41-5.34A57.32,57.32,0,0,1,36,193.87c-2.77-2.9-1.84-3.2-.46-2.28-2.89-3-2.59-1.8-4.73-3.61,2.4,1.66,1.74,1.05,1.22-.62-.51-.53-1-1-1.54-1.42l-2.09-1.56a1.91,1.91,0,0,0-1-.4l.37.55-.37-.11c-.17-.3-.15-.42,0-.44l-.55-.8q-3.27-2.61-6.41-5.49c.94,1.31,1.91,2.62,2.9,3.9-1.76-2-3.09-3.69-4.24-5.17l-.41-.39,1.41,2.39c.22.27.45.54.72.9a1.18,1.18,0,0,0-.33-.27l.45.77c1.66,1.55,5.31,5.65,6.57,6.64l-.93-.9c.5.37.82.69,1.33,1,.12.24-.06.14-.4-.14,1.5,1.46,3.27,3.28,4.34,4.46-1-1.07-2.37-2.49-2.19-1.85,1.78,2.42,2.16,4.13,6.41,7.25l-2.19-2.13c1.88,1.36,3.78,2.68,5.72,3.91,1.48,1.94-2.91-1.86-3.84-2.28,4.19,3.3,6.75,7.18,9.3,8-.06.64-.19,1.78,2.72,3.82-1.69-2,2,.89.66-.87,1,.39,2.71,2,3.34,2.14h-.22c4.56,4,7.06,3.73,9.48,4.56,6.4,3.11,9.29,4.67,14.77,6.63a5.41,5.41,0,0,0,3.49,2.65c1.19-.1,6.35,1.1,7,.57-4-1.32-3.44-.37-5.89-.93-1.78-1.3,0-.7-2.54-2a44.4,44.4,0,0,0,6,1.88,46.54,46.54,0,0,1,6.23,1.82l-.88-.09c3.81,1.19,4.31,3,11.13,2.95,1.09,0,2.15,0,3.23-.07a2.48,2.48,0,0,1,1,0l-1,0c-.16.05-.18.13-.27.18,5.21.47,3.77,1.16,9.59.71-.45,0-.17.12-.63.16,3.32.42,6.65-.42,9.11-.75,1.56.45-.32.55-1.24,1a46.9,46.9,0,0,0,15.39-3.28c1.23-.12,2.47-.3,3.71-.46-2.11.71-4.68,1.77-4,2a37.31,37.31,0,0,1,4.45-1.19,8.65,8.65,0,0,1-1.85,1.2c.81-.17,1.61-.37,2.42-.55,0-.19.11-.31,1.41-.32l2.22-.59c.81-.4,1.27-.84,1.32-1.14,1.14-.17,2.31-.28,3.46-.48.21-.61,4.24-2,6.79-3.09.23-.34-2.29.28-3.21.81.06-.45,2.75-1.64,4.49-2.38.53.4,3.39-.84,5.85-2s4.56-2.31,3.87-1.2a124.5,124.5,0,0,0,11.93-7.7,78.65,78.65,0,0,0,9.15-7.71c1.62-1,4.4-3.53,3.09-1.61,5-4.72,6.64-8.08,11.18-13.12.48-.33-1.94,2.39-1.51,2.44,2.5-3.7,5.53-6,9.09-12a3.15,3.15,0,0,0-.61,1.46c.17-.55,1.34-2.67,2-4.08.61-.8-.59,1.22-.17.81a71.64,71.64,0,0,0,8.12-16.54,175.53,175.53,0,0,0,4.94-17.63c-.88,3.66-.61,5.22-.32,5.35.34-1.2.67-2.39,1-3.6,0-1.48.6-4.21.75-6.54-.14.16-.17,0,0-1.72a11,11,0,0,1,0,1.72c.19-.26.54-1.35.5-.18a29.56,29.56,0,0,0,1-9.56c-.09-3.1-.32-6.36-.11-10.83.5,3.61.83,7.27,1,11l.7-2.49c.2-2.79.34-5.61.34-8.46A114,114,0,0,0,206.82,47.29ZM5.76,107.82a4.52,4.52,0,0,1,.17.76C5.86,108.21,5.81,108,5.76,107.82Zm.34-2.6c-.1-.88-.24-1.76-.31-2.64-.4,2.34.22,2.48-.46,3.46.11-1.35.2-2.71.36-4.06C5.9,101.46,6.35,103.15,6.1,105.22ZM22.6,55.38c-.91,0,3.21-6.11,4.69-8.67-.7,1.31-1.38,2.62-2,3.95l.65-.73A31.22,31.22,0,0,1,22.6,55.38ZM38.12,36.62c.06-.34-1.37.15-3.44,2.05,3.41-3.36-2.4.75,2.59-3.49C34,39,39.85,34.23,38.12,36.62Zm6.39,122.09H42.79v-1.49c0-.78-.31-1.18-.93-1.18s-.92.64-.92,1.19V164c0,.76.32,1.14.94,1.14.41,0,.88-.13.88-1.12v-.4H41.1V162h3.39v2a2.66,2.66,0,1,1-5.31,0v-6.76a2.67,2.67,0,0,1,2.66-2.86,2.61,2.61,0,0,1,2.67,2.85Zm12.21,8H55v-2.45c0-.35-.18-.53-.55-.53H53.26v3H51.49v-12.3H54a2.47,2.47,0,0,1,2.65,2.77V161a2.77,2.77,0,0,1-.63,1.71,2,2,0,0,1,.69,1.58Zm8.83,0H63.78v-12.3h1.77Zm-1.31-19.34V127.06H51.08v20.32H39.16V62H51.08v53.8H64.24V62H75.93v85.35Zm12.68,19.34H72.66v-12.3h1.77v10.63h2.49Zm-3.3,49-.21-.17c.82.25,1.65.46,2.48.68l.22.17Zm-15.68-8.94.19.19-2.5-1.32Zm-14.4-6.58-.9-.72c.77.57,1.57,1.13,2.36,1.68Zm9.08,8a22.35,22.35,0,0,1,4.16,2.59A39.81,39.81,0,0,1,52.62,208.2ZM110.37,4.25c.14,0,.2.08.22.12.42.2.83.39-1.43.55-2.77-.32,1.68-.22,1.43-.55ZM81.86,10.07l-1.25,1-.78.35Zm6.23,156.65H83.83v-12.3H85.6v10.63h2.49ZM92,217.35a19.2,19.2,0,0,1,2.56.43C93.5,217.6,92.16,217.77,92,217.35Zm12.6,5.46c-4.59.48-11.92-1.4-15.42-2-.45,0-.93-.05-1.58-.12a6.42,6.42,0,0,1,1.58.12c2,0,2.46-.32,5.4-.16-.48-.74.11-.26,1.89-.47,1.5.68-.77.16-1,.54,2.54.66,5.2.41,4.77-.09-5.41-1,1.59-.14-1.27-1,.33-.62,6.53.17,6.88.42C105.73,221.1,107.16,222.27,104.62,222.81ZM109,166.72l-.18-4.45-.71,4.27h-1.68l-.68-4.15-.16,4.33H103.8l.47-12.32h1.94l1.06,7,1.09-7h1.88l.47,12.32Zm7.36-38.07a21.06,21.06,0,0,1-4.42,13.29,16.47,16.47,0,0,1-5.73,4.54,18.3,18.3,0,0,1-7.89,1.69,19.47,19.47,0,0,1-7.8-1.55,17.27,17.27,0,0,1-6-4.29,20.07,20.07,0,0,1-4.95-13.57v-48a20.33,20.33,0,0,1,4.69-13.35A19.11,19.11,0,0,1,105.89,63a16.72,16.72,0,0,1,5.75,4.39,20.78,20.78,0,0,1,4.67,13.51ZM149.66,10.38l-.37.12L148,10.23ZM122.55,156.07h-3.09v6h2.46v1.66h-2.46v1.37h3.09v1.67h-4.86v-12.3h4.86Zm3.81,71.08.2.08c-.23,0-.25,0-.2-.08a3.2,3.2,0,0,0-1.67-.25l-1.73.23a13,13,0,0,1,1.73-.23c1.31-.17,2.62-.41,3.93-.62C129.21,226.49,126.63,227,126.36,227.15Zm8.11-60.43h-1.84l-.64-2.08-.72,2.08h-1.84l1.68-4.72L129,154.4h1.83l.73,2.61.47,2,.53-2,.74-2.6h1.82L132.94,162Zm9.09,0h-1.77v-12.3h1.77Zm5.64-19.34H119.92V62h11.92v74.11H149.2Zm-2-136.21c1.14.3,2.27.62,3.39,1l-1.2-.09C148.71,11.74,148,11.46,147.24,11.17ZM156,158.66h-1.72v-1.48c0-1-.44-1.19-.92-1.19s-.95.46-.95,1.19V164c0,.44.2,1.18.95,1.18s.9-.89.9-1.16v-1.43H156V164a2.64,2.64,0,0,1-2.64,2.84A2.7,2.7,0,0,1,150.6,164v-6.78a2.64,2.64,0,0,1,2.7-2.87,2.59,2.59,0,0,1,2.65,2.86Zm10.46,8.06-.47-3h-1.1l-.47,3h-1.78l1.9-12.3h1.77l1.91,12.3Zm10.38,0H175v-12.3h1.76Zm.76-19.34-3.28-21.23h-8L163,147.38H151L164.15,62h12l13.29,85.35Zm11.9,19.34h-1.58l-2.18-6.36v6.36h-1.77v-12.3h1.59l2.19,6.42v-6.42h1.75ZM209.73,60.09c-.08-.28.34.24.84.83A10.83,10.83,0,0,0,209.73,60.09Zm7.55,14.29,0-.26,1.17,2.35,0,.27ZM218.54,76c1.47.71,2.28,5.93,3.11,4.66a16.86,16.86,0,0,0-2.22-4.86c.95-.2,3.21,7.47,3.13,9.5C221.41,81.56,220,80.47,218.54,76Zm6.88,53.58c-.17-1.23.33-5.51.4-7.57,0,.74.06,1.47.06,2.21l-.1-.16C226.07,125.28,225.33,128.5,225.42,129.59Z"/><path class="cls-1" d="M6.9,81.06l-1,1.74c1.28-5.31,1.74-3,3.8-8.67.42-2.45,3.31-7.93,2.9-8.79.35-.09,2.4-3.34,3-5.14.33-2.45,4-8.48,2.55-6.87-1,1.61-2,4-3.18,5.1.55-1.11,1.15-2.19,1.73-3.28l-1.52,1.73c-1,1.72-2,3.48-2.88,5.26.73-.84,1-.66,0,1.72-.07-.39-.82.5-.34-.77-.26.36-.54.8-.83,1.29-.8,1.63-1.55,3.28-2.27,5,0,.16.14.18.39,0,1.29-4.89,1.44-.63,2.54-4.42-.42,2.13-1.48,3.9-2,5.81a9.42,9.42,0,0,1-.23,1,9,9,0,0,1,.23-1c.38-2.06-1.18,0-2.5,2.85-.38,1.3-1.71,4.72-2.17,6.93.74-.61.42,1.33,1.67-2.09a33.51,33.51,0,0,1-1.7,5.44c.16-.9.57-2.45.35-2.4a24.72,24.72,0,0,0-1.77,3.88c-.19.75-.33,1.52-.49,2.27a2.74,2.74,0,0,1,.3-.51l-.13,2.6c.52-3.38.59-1.48.86-1.37-.58-.23-.56,2.12-.78,3.25l1.15-2.32c0,1.25-1.33,4.09-.57,3.6Zm7.57-20.8a34.31,34.31,0,0,1-1.74,3.57C12.28,63.85,14.07,60.68,14.47,60.26Z"/><path class="cls-1" d="M15.85,158.34a10.16,10.16,0,0,0-.93-2.37Z"/><path class="cls-1" d="M2.2,95.3c.69-3,.29-2.38.09-2.91-.17,1.08-.35,2.15-.47,3.22C2,95.23,2.09,95,2.2,95.3Z"/><path class="cls-1" d="M.22,102.61c-.09,1-.15,1.93-.22,2.88.49-.56.37,1.85.3,9.43l.11,1c.12-2.07.2-5.62.32-9C.6,106.06.41,104.4.22,102.61Z"/></g></g></svg>