<svg xmlns="http://www.w3.org/2000/svg" viewBox="0 0 1034.58 706"><defs><style>.cls-1{fill:#fff;}</style></defs><title>grenouille-white-enAsset 1</title><g id="Layer_2" data-name="Layer 2"><g id="Calque_1" data-name="Calque 1"><path class="cls-1" d="M627.48,663.43a5.89,5.89,0,0,0-1.76-4.56q-1.76-1.64-5.59-1.63h-6.88v12.35h7.5a8.92,8.92,0,0,0,2.71-.39,6,6,0,0,0,2.12-1.16,5.46,5.46,0,0,0,1.4-1.93A6.57,6.57,0,0,0,627.48,663.43Z"/><path class="cls-1" d="M480.73,673.81c-.35.15-.7.32-1.05.49s-.7.33-1.05.47a5.45,5.45,0,0,0-1.59,1,6.57,6.57,0,0,0-1.23,1.45A7,7,0,0,0,475,679a6.59,6.59,0,0,0-.29,1.9,6.62,6.62,0,0,0,2.19,5,7.41,7.41,0,0,0,2.41,1.46,8.06,8.06,0,0,0,3,.53,9.07,9.07,0,0,0,4.76-1.28,9.92,9.92,0,0,0,1.91-1.45,17.58,17.58,0,0,0,1.61-1.82q-2.47-2.38-4.91-4.75Z"/><path class="cls-1" d="M538.19,657.24h-6.42v12.35h7a8.89,8.89,0,0,0,2.7-.4,6.13,6.13,0,0,0,2.13-1.18,5.38,5.38,0,0,0,1.39-1.94,6.69,6.69,0,0,0,.51-2.69,5.84,5.84,0,0,0-1.76-4.52Q542,657.24,538.19,657.24Z"/><path class="cls-1" d="M480.27,667.63c.38.36.76.72,1.16,1.08,1-.45,2-.93,2.88-1.44a10.08,10.08,0,0,0,2.37-1.82,5.79,5.79,0,0,0,1.15-1.66,4.5,4.5,0,0,0,.46-2,4.82,4.82,0,0,0-.48-2.1,6.3,6.3,0,0,0-1.28-1.79,6.38,6.38,0,0,0-1.88-1.23,5.82,5.82,0,0,0-2.27-.45,6.06,6.06,0,0,0-2.34.43,5.31,5.31,0,0,0-1.8,1.18,5.26,5.26,0,0,0-1.16,1.74,5.54,5.54,0,0,0-.42,2.16,5.79,5.79,0,0,0,.53,2.3,8.31,8.31,0,0,0,1.93,2.52C479.52,666.92,479.9,667.28,480.27,667.63Z"/><polygon class="cls-1" points="569.84 674.35 581.98 674.35 575.85 656.28 569.84 674.35"/><path class="cls-1" d="M819.8,661.49a13.5,13.5,0,0,0-4.34-3.42,12.18,12.18,0,0,0-5.58-1.27,12.3,12.3,0,0,0-5.61,1.27,13.43,13.43,0,0,0-4.35,3.4,15.54,15.54,0,0,0-2.81,5,18.14,18.14,0,0,0,0,11.88,15.28,15.28,0,0,0,2.82,4.95,13.83,13.83,0,0,0,4.35,3.39,13.1,13.1,0,0,0,11.21,0,13.54,13.54,0,0,0,4.33-3.39,15.42,15.42,0,0,0,2.8-4.95,18,18,0,0,0,1-5.94,17.73,17.73,0,0,0-1-5.92A15.84,15.84,0,0,0,819.8,661.49Z"/><path class="cls-1" d="M999.58,639H35L0,672.49,35,706H999.58l35-33.51Zm-934.1,37.9a4.13,4.13,0,0,1-.73,1.1,3.3,3.3,0,0,1-1.06.75,3.13,3.13,0,0,1-1.28.27,3.25,3.25,0,0,1-1.32-.27A3.18,3.18,0,0,1,60,678a3.88,3.88,0,0,1-.72-1.1,3.32,3.32,0,0,1-.27-1.32,3.09,3.09,0,0,1,.27-1.28,3.43,3.43,0,0,1,.72-1.06,3.4,3.4,0,0,1,2.4-1,3.13,3.13,0,0,1,1.28.27,3.4,3.4,0,0,1,1.06.73,3.64,3.64,0,0,1,.73,1.06,3.09,3.09,0,0,1,.27,1.28A3.32,3.32,0,0,1,65.48,676.89ZM121.37,692H91.78v-4.46h3.57V657.21H91.78v-4.45h12.74v4.45h-4.07v30.34h13.49a2,2,0,0,0,.84-.19,2.81,2.81,0,0,0,.76-.51,2.38,2.38,0,0,0,.55-.71,1.73,1.73,0,0,0,.2-.81v-5h5.08Zm21-34.8h-4.07v30.34h4V692H129.57v-4.46h3.62V657.21h-3.57v-4.45h12.74Zm46.12,0H184.6L173.31,692h-7.89L154,657.21h-3.47v-4.45h12.73v4.45h-3.41l9.55,30.29,9.76-30.29h-3.44v-4.45h12.73Zm36.29,6.66h-5.28v-6.63h-14V669.8h11.75v4.45H205.51v13.3h14v-6.62h5.28V692H196.68v-4.46h3.73V657.24h-3.73v-4.48h28.09Zm73.2-6.16h-4.09v29.84h4V692H285.13v-4.46h3.93V657.37L275.32,692h-4.4L257,657.42v30.13h4V692H248.34v-4.46h3.71V657.71h-4v-5h12.73l12.45,33.89,12.64-33.89H298Zm46.92-.5h-3.52V675a22.08,22.08,0,0,1-1.17,7.46,16.1,16.1,0,0,1-3.23,5.52,13.84,13.84,0,0,1-4.81,3.42,15.16,15.16,0,0,1-6,1.17,14.49,14.49,0,0,1-5.81-1.16,13.64,13.64,0,0,1-4.71-3.37,15.85,15.85,0,0,1-3.16-5.38,21.24,21.24,0,0,1-1.15-7.2v-18.2h-3.6v-4.45h12.74v4.45H317v18.2a17.48,17.48,0,0,0,.71,5.32,9.57,9.57,0,0,0,2,3.56,7.29,7.29,0,0,0,3,2,10.75,10.75,0,0,0,3.74.63,12.84,12.84,0,0,0,3.83-.55,6.67,6.67,0,0,0,3-1.86,8.94,8.94,0,0,0,1.91-3.53,19.78,19.78,0,0,0,.67-5.56v-18.2h-3.65v-4.45h12.73Zm34.71,6.22h-6.34v-1.71a4.54,4.54,0,0,0-.94-2,7,7,0,0,0-1.71-1.48,8.91,8.91,0,0,0-2.19-.93A9.27,9.27,0,0,0,366,657a11.81,11.81,0,0,0-3.44.45,7.22,7.22,0,0,0-2.45,1.23,5.13,5.13,0,0,0-1.46,1.81,5,5,0,0,0-.49,2.18,5.61,5.61,0,0,0,.59,2.77,5,5,0,0,0,1.53,1.69,8,8,0,0,0,2.06,1l2.18.7,5.23,1.71a25.93,25.93,0,0,1,4.14,1.73,11.13,11.13,0,0,1,3,2.27,8.93,8.93,0,0,1,1.85,3,11.05,11.05,0,0,1,.64,4,10.16,10.16,0,0,1-1,4.5,10.9,10.9,0,0,1-2.78,3.6,13.17,13.17,0,0,1-4.26,2.39,16.26,16.26,0,0,1-5.42.87,17.06,17.06,0,0,1-5.18-.69,11.33,11.33,0,0,1-3.61-1.83,9.5,9.5,0,0,1-2.34-2.63,14.4,14.4,0,0,1-1.38-3h-2v-4.45H358v1.27a6,6,0,0,0,.61,2.79,5.39,5.39,0,0,0,1.69,2,7.62,7.62,0,0,0,2.59,1.19,12.75,12.75,0,0,0,3.32.4,11.12,11.12,0,0,0,3.17-.41,7.11,7.11,0,0,0,2.4-1.2,5.26,5.26,0,0,0,1.53-1.92,5.82,5.82,0,0,0,.53-2.55,5.18,5.18,0,0,0-.66-2.69,6.61,6.61,0,0,0-1.68-1.89,9.51,9.51,0,0,0-2.27-1.28,20.44,20.44,0,0,0-2.38-.82l-5.67-1.6a16.87,16.87,0,0,1-3.43-1.41,9.67,9.67,0,0,1-2.62-2.15,9.33,9.33,0,0,1-1.69-3,12.14,12.14,0,0,1-.59-3.94,10.2,10.2,0,0,1,.88-4.22,9.81,9.81,0,0,1,2.59-3.44,12.49,12.49,0,0,1,4.18-2.32,17.53,17.53,0,0,1,5.65-.84,14.75,14.75,0,0,1,3.87.49,11.94,11.94,0,0,1,3.21,1.39,10.94,10.94,0,0,1,2.54,2.15,13.12,13.12,0,0,1,1.85,2.75h1.94Zm21.9-6.22h-4.07v30.34h4V692H388.71v-4.46h3.63V657.21h-3.58v-4.45H401.5ZM443.79,686a18.77,18.77,0,0,1-3.83,3.57,17.34,17.34,0,0,1-4.75,2.32,18.82,18.82,0,0,1-5.63.81A17.61,17.61,0,0,1,422,691a18.9,18.9,0,0,1-6-4.41,20.43,20.43,0,0,1-3.94-6.47,22,22,0,0,1,1.08-18A19.84,19.84,0,0,1,416,658a18.14,18.14,0,0,1,3.81-3.19,18.35,18.35,0,0,1,4.57-2.07,17.72,17.72,0,0,1,5.2-.74,19,19,0,0,1,4.62.54,19.69,19.69,0,0,1,4,1.44,16.65,16.65,0,0,1,3.23,2.06,14.92,14.92,0,0,1,2.41,2.43h2.69v4.61h-5.69a12.61,12.61,0,0,0-4.47-4.61,12.87,12.87,0,0,0-6.77-1.66,12.1,12.1,0,0,0-5.51,1.26,13.65,13.65,0,0,0-4.34,3.39,16,16,0,0,0-2.85,4.93,17.57,17.57,0,0,0,0,11.8,15.76,15.76,0,0,0,2.85,4.92,13.63,13.63,0,0,0,4.35,3.37,12.26,12.26,0,0,0,5.5,1.24,12.88,12.88,0,0,0,6.64-1.6,13.45,13.45,0,0,0,4.67-4.87l5.78.05A22.69,22.69,0,0,1,443.79,686Zm57.74,4.64-1.8,1.57c-1-1-2.06-2-3.06-2.95s-2-2-3.05-3a19.66,19.66,0,0,1-2.36,2.46,16.41,16.41,0,0,1-2.7,1.93,14.21,14.21,0,0,1-3.06,1.27,12.69,12.69,0,0,1-3.43.45,12.54,12.54,0,0,1-4.69-.88,12.06,12.06,0,0,1-3.81-2.41,11.16,11.16,0,0,1-2.55-3.61,10.91,10.91,0,0,1-.93-4.49,10.08,10.08,0,0,1,.57-3.38,11.16,11.16,0,0,1,1.56-3,12.86,12.86,0,0,1,2.32-2.4,12.34,12.34,0,0,1,2.82-1.69c-.52-.5-1.08-1.06-1.69-1.67a15.7,15.7,0,0,1-1.7-2,11,11,0,0,1-1.29-2.36,7,7,0,0,1-.52-2.71,9.39,9.39,0,0,1,.8-3.86,10,10,0,0,1,2.19-3.11,10.45,10.45,0,0,1,7.23-2.84,10.63,10.63,0,0,1,4.18.8,10.44,10.44,0,0,1,3.33,2.15,9.86,9.86,0,0,1,2.2,3.13,8.91,8.91,0,0,1,.8,3.73,9.52,9.52,0,0,1-.64,3.67,9,9,0,0,1-1.74,2.73,11.67,11.67,0,0,1-2.53,2.07,31.94,31.94,0,0,1-3.06,1.67l7.92,7.38a28.07,28.07,0,0,0,1.34-3.74c.33-1.23.6-2.35.79-3.35h4.86a34.19,34.19,0,0,1-1.34,5,32.87,32.87,0,0,1-2.31,5.12l3.57,3.32,3.58,3.31ZM550,667.43a10,10,0,0,1-2.48,3.32A11.93,11.93,0,0,1,543.7,673a14.45,14.45,0,0,1-5,.82h-6.93v13.72H537V692H522.42v-4.46h4.25V657.24h-4.35v-4.53l16.49,0a16.19,16.19,0,0,1,4.85.69,10.84,10.84,0,0,1,3.82,2,9.34,9.34,0,0,1,2.51,3.33,10.93,10.93,0,0,1,.91,4.57A9.64,9.64,0,0,1,550,667.43Zm46,24.58H583.33v-4.46h3.26l-3.11-8.9H568.39l-3,8.9h4.06V692H556.66v-4.46h3.4l12.24-34.79h7.64l12.19,34.79h3.93Zm39.71,0h-7.64l-2.92-11.94a9.36,9.36,0,0,0-2.45-4.72,6.36,6.36,0,0,0-4.49-1.52h-5v13.72h4V692H604.55v-4.46h3.6V657.24h-3.88v-4.53l16.48,0a16.31,16.31,0,0,1,4.86.69,10.93,10.93,0,0,1,3.82,2,9.46,9.46,0,0,1,2.51,3.33,10.93,10.93,0,0,1,.9,4.57,8.22,8.22,0,0,1-.53,2.91,9.7,9.7,0,0,1-1.47,2.65,11.59,11.59,0,0,1-2.24,2.18,10.39,10.39,0,0,1-2.82,1.47,6,6,0,0,1,1.32.82,7.06,7.06,0,0,1,1.25,1.3,10.27,10.27,0,0,1,1,1.75,11.39,11.39,0,0,1,.75,2.08l2.18,8.55h3.44Zm43-28.89h-5.31V657H663.13v30.54h4V692H654.43v-4.46H658V657h-9v6.11h-5.31V652.76h35Zm39.58-5.91H715L703.94,674v13.59h4V692H695.25v-4.46h3.59V673.83l-10.43-16.62h-3v-4.45h12.74v4.45h-3.75l7.4,12.64,7.9-12.64H705.6v-4.45h12.74Zm62.81,0h-3.7v30.34h3.7V692H768.42v-4.46h3.93v-14.1H749.68v14.1h3.9V692H740.85v-4.46h3.73V657.21h-3.73v-4.45h12.73v4.45h-3.9V669.1h22.67V657.21h-3.93v-4.45h12.73Zm47.16,20.61a20.86,20.86,0,0,1-1.85,4.88,19.71,19.71,0,0,1-2.91,4.13,18.82,18.82,0,0,1-3.82,3.2,17.94,17.94,0,0,1-4.61,2.05A18.75,18.75,0,0,1,800,690a18.88,18.88,0,0,1-3.83-3.2,19.31,19.31,0,0,1-2.9-4.13,21.77,21.77,0,0,1-1.84-4.88,23.4,23.4,0,0,1,0-10.87,21.22,21.22,0,0,1,1.85-4.89,19.6,19.6,0,0,1,2.92-4.13,18.24,18.24,0,0,1,8.41-5.22,18.81,18.81,0,0,1,5.25-.72,18.33,18.33,0,0,1,13.72,5.94,19.79,19.79,0,0,1,3.95,6.48,22.35,22.35,0,0,1,1.41,8A22.09,22.09,0,0,1,828.31,677.82Zm46.54-20.61h-3.52V675a21.83,21.83,0,0,1-1.18,7.46,15.93,15.93,0,0,1-3.22,5.52,13.84,13.84,0,0,1-4.81,3.42,15.16,15.16,0,0,1-6,1.17,14.49,14.49,0,0,1-5.81-1.16,13.64,13.64,0,0,1-4.71-3.37,15.85,15.85,0,0,1-3.16-5.38,21,21,0,0,1-1.15-7.2v-18.2h-3.6v-4.45h12.74v4.45H847v18.2a17.48,17.48,0,0,0,.71,5.32,9.57,9.57,0,0,0,2,3.56,7.29,7.29,0,0,0,3,2,10.75,10.75,0,0,0,3.74.63,12.89,12.89,0,0,0,3.83-.55,6.73,6.73,0,0,0,3-1.86,8.8,8.8,0,0,0,1.9-3.53,19.39,19.39,0,0,0,.68-5.56v-18.2h-3.65v-4.45h12.73Zm34.71,6.22h-6.34v-1.71a4.56,4.56,0,0,0-1-2,6.74,6.74,0,0,0-1.7-1.48,8.91,8.91,0,0,0-2.19-.93A9.27,9.27,0,0,0,896,657a11.81,11.81,0,0,0-3.44.45,7.22,7.22,0,0,0-2.45,1.23,5.08,5.08,0,0,0-2,4,5.6,5.6,0,0,0,.6,2.77,5,5,0,0,0,1.53,1.69,8,8,0,0,0,2.05,1l2.19.7,5.23,1.71a26.32,26.32,0,0,1,4.14,1.73,11.13,11.13,0,0,1,3,2.27,8.93,8.93,0,0,1,1.85,3,11.05,11.05,0,0,1,.64,4,10.3,10.3,0,0,1-1,4.5,10.9,10.9,0,0,1-2.78,3.6,13.17,13.17,0,0,1-4.26,2.39,16.26,16.26,0,0,1-5.42.87,17.06,17.06,0,0,1-5.18-.69,11.33,11.33,0,0,1-3.61-1.83,9.7,9.7,0,0,1-2.35-2.63,14.88,14.88,0,0,1-1.37-3h-2v-4.45H888v1.27a6,6,0,0,0,.61,2.79,5.39,5.39,0,0,0,1.69,2,7.62,7.62,0,0,0,2.59,1.19,12.72,12.72,0,0,0,3.31.4,11.15,11.15,0,0,0,3.18-.41,7.11,7.11,0,0,0,2.4-1.2,5.26,5.26,0,0,0,1.53-1.92,6,6,0,0,0,.53-2.55,5.18,5.18,0,0,0-.66-2.69,6.61,6.61,0,0,0-1.68-1.89,9.51,9.51,0,0,0-2.27-1.28,21.1,21.1,0,0,0-2.38-.82l-5.67-1.6a16.87,16.87,0,0,1-3.43-1.41,9.67,9.67,0,0,1-2.62-2.15,9.33,9.33,0,0,1-1.69-3,12.14,12.14,0,0,1-.59-3.94,10.2,10.2,0,0,1,.88-4.22,9.69,9.69,0,0,1,2.59-3.44A12.49,12.49,0,0,1,890.5,653a17.53,17.53,0,0,1,5.65-.84,14.75,14.75,0,0,1,3.87.49,12.08,12.08,0,0,1,3.21,1.39,10.94,10.94,0,0,1,2.54,2.15,13.12,13.12,0,0,1,1.85,2.75h1.94Zm37.2.44h-5.28v-6.63h-14V669.8h11.75v4.45H927.5v13.3h14v-6.62h5.28V692H918.67v-4.46h3.73V657.24h-3.73v-4.48h28.09Zm28.53,13a3.91,3.91,0,0,1-.73,1.1,3.19,3.19,0,0,1-1.06.75,3.09,3.09,0,0,1-1.28.27,3.31,3.31,0,0,1-2.4-1,3.88,3.88,0,0,1-.72-1.1,3.32,3.32,0,0,1-.27-1.32,3.09,3.09,0,0,1,.27-1.28,3.43,3.43,0,0,1,.72-1.06,3.38,3.38,0,0,1,1.08-.73,3.25,3.25,0,0,1,1.32-.27,3.09,3.09,0,0,1,1.28.27,3.29,3.29,0,0,1,1.06.73,3.45,3.45,0,0,1,.73,1.06,3.09,3.09,0,0,1,.27,1.28A3.32,3.32,0,0,1,975.29,676.89Z"/><path class="cls-1" d="M143.12,197.28l84.61-17.1,9.87,45.37-119.47-5.7q3.08-67.72,3.07-102.8,0-53.7-4.6-114.42h51.29Q162.63,28.28,155,86.14T143.12,197.28Z"/><path class="cls-1" d="M291.12,10.67Q286.4,65.49,286.39,107q0,39.72,8.8,104.25l-35.43.67q3.17-49,3.16-84.16,0-43.54-7.9-114.4Z"/><path class="cls-1" d="M374.56,214.94l.78-170-53.07,2.46-4.34-35.51L478.36,9l-6.72,29.31-65.08,5.31,9.29,171.35Z"/><path class="cls-1" d="M548,214.84,548.8,45l-53,2.45L491.45,12,651.72,9.08,645,38.35l-65,5.31,9.29,171.18Z"/><path class="cls-1" d="M698.55,197.28l84.61-17.1L793,225.55l-119.47-5.7q3.08-67.72,3.07-102.8,0-53.7-4.6-114.42h51.29q-5.25,25.65-12.93,83.51T698.55,197.28Z"/><path class="cls-1" d="M809.25,198.15l.87-192L920.38,0,921,24.55q-8.34,3.51-21.92,8.11L879,34.85,838.4,39.24l3.73,42.08,40.55-.44.66,38.36-46.69-1.09,2.41,56.11,60.5-2.85,2.19,25.43Z"/><path class="cls-1" d="M166.64,556.71l-56.33,6.18q8.93-96.17,8.93-183.07,0-53.91-7.56-117.81l180-4.81-11,40.87q-49.13,0-124.68,15.81l5.84,65.94,63.54-.68,1,60.1-73.16-1.71Q153.24,511.38,166.64,556.71Z"/><path class="cls-1" d="M408.79,411.42q18.88,18.9,36.07,67.67,14.76,42.24,18.89,76.93l-64.23,4.13a296.11,296.11,0,0,0,2.4-39.85q0-34.68-8.24-59.08-2.76-8.93-5.84-17.51a21.86,21.86,0,0,0-12-12.71,16.89,16.89,0,0,0-6.87-1.37,25,25,0,0,0-15.46,5.51l13.74,120.54h-60.8q10-67.06,10-111.76,0-46.43-7.22-177.78a335.3,335.3,0,0,1,45-2.75q53.58,0,73.84,16.83,18.21,15.11,24,31.94,4.81,13.05,4.81,38.81,0,19.25-14.59,38T408.79,411.42Zm-8.24-68.35q0-42.58-45-49.46L353.49,393.9h5.16q19.56.71,28.5-5.15,6.53-4.12,10.3-20.95A110,110,0,0,0,400.55,343.07Z"/><path class="cls-1" d="M600.79,558.08q-45-1.37-83.12-52.55-35.73-48.43-35.73-95.82,0-56.68,27.14-99.27Q540.67,261,594.26,261q45,0,77.28,53.58,27.83,46.71,27.82,94.8a184.81,184.81,0,0,1-44,118.5q-26.11,30.92-52.56,30.22ZM618,500.38a349,349,0,0,0,10.82-43.45A208.47,208.47,0,0,0,632,422.07a81,81,0,0,0-.35-8.24q-2.06-27.48-10.3-61.83-10-39.84-22.32-57.36c-3.44-5-6.18-7.56-8.25-7.56q-9.62,0-21.29,37.1a327.22,327.22,0,0,0-11.68,45.68,243.74,243.74,0,0,0-4.47,44.31,142.48,142.48,0,0,0,1.38,20.26q2.75,22.33,14.77,56.68,15.79,44.64,29.19,44.65Q607.32,535.76,618,500.38Z"/><path class="cls-1" d="M872.49,354.14V346.6q0-56.69-20.65-68.49-5.25-2.94-15.73-2.95-29.49,0-47.19,23.27-9.82,13.11-15.07,60.95a578.59,578.59,0,0,0-3.94,65.54q0,75.39,16.72,93.4,18,19.33,32.77,19.34A31.09,31.09,0,0,0,831.52,535a102.44,102.44,0,0,0,22.62-13.76q13.1-11.14,14.09-21.63l5.9-57.68-84.88,10.82,6.56-74.06,128.45-.66q-.33,12.46-6.22,39-5.25,25.23-5.25,39.32,0,6.89.66,21t.66,21q0,7.21-1.48,21T911.16,540c0,15.94.54,19.75,1.63,45.75l-41,5.57a180.28,180.28,0,0,0,1.64-25.89c-.07-10.78-1.16-11.76-6.84-19.84-.22,10-7.9,14.18-19.71,19.64q-13.42,6.23-30.47,6.23-17.7,0-36.54-9.18T749.27,539q-33.42-39-33.42-110.44,0-37.68,12.12-79.31,13.75-46.53,35.72-70.78,20.64-22.6,65.87-22.61,39,0,63.58,28.18,22.61,26.22,24.24,66.2Z"/></g></g></svg>