<?xml version="1.0" encoding="utf-8"?>
<!-- Generator: Adobe Illustrator 19.0.0, SVG Export Plug-In . SVG Version: 6.00 Build 0)  -->
<svg version="1.1" id="Calque_1" xmlns="http://www.w3.org/2000/svg" xmlns:xlink="http://www.w3.org/1999/xlink" x="0px" y="0px"
	 viewBox="0 0 1910.1 695" style="enable-background:new 0 0 1910.1 695;" xml:space="preserve">
<style type="text/css">
	.st0{fill:#48B749;}
</style>
<g>
	<g>
		<path class="st0" d="M658.2,88.8c0,17.5-0.8,43.1-2.5,78.4l-0.1,1.4l94.6,4.5l-8.3-38l-64.2,13c2.2-26.4,5.2-54.2,9.1-82.8
			c4-29.3,7.4-50.7,10.1-63.7l0.4-1.8h-42.8l0.1,1.6C656.9,32.3,658.2,61.7,658.2,88.8z"/>
		<path class="st0" d="M778.2,106.9l25.1-2.1l4.5,48.1h28.9l-0.3-1.7c-5.6-32.3-11.7-75.9-18.2-129.5l-0.2-1.4l-37,3.4l-0.4,0.8
			c-6.1,13.3-10.8,24.4-13.8,32.9c-8.3,23.2-15,54.6-20,93.2l-0.2,1.7L770,152L778.2,106.9z M794.3,41.6l3-2.1l1.9,24.7L787,65
			L794.3,41.6z"/>
		<path class="st0" d="M927.5,95.8c3.7,2.2,7.1,3.2,10.2,3.2c0.9,0,1.8-0.1,2.7-0.4c10.9-4,18.9-9.3,23.9-15.7
			c5-6.5,7.5-15.6,7.5-27c0-8.4-0.8-14.5-2.3-18.6c-1.8-5.1-5.7-10.2-11.7-15.1c-5-4.1-12.8-6.2-23-6.2c-9.7,0-19.6,1.4-29.3,4.2
			l-1.1,0.3l0.1,1.2c2.3,41.2,3.4,68.1,3.4,82.1c0,13.8-1.6,31.1-4.7,51.5l-0.3,1.8l32.3-2.6L927.5,95.8z M927.9,79.9V38.6
			c12,2.4,17.8,9.3,17.8,20.8c0,3.3-0.6,7.2-1.6,11.7c-1.6,6.4-3.3,8.6-4.4,9.3c-1.1,0.7-2.4,1-3.9,1
			C933.2,81.4,930.5,80.9,927.9,79.9z"/>
		<path class="st0" d="M976.5,53.8l-0.1,1.6l12.3-0.3v-1.4c0-8.7,2-20.8,5.8-35.9l0.5-1.9l-22.8,1.5l0.6,1.8
			C976.1,29.2,977.4,40.9,976.5,53.8z"/>
		<path class="st0" d="M1064.3,142c4.5-6.7,8.1-15.2,10.8-25.4l0.4-1.4l-25.2-7.8l-2.3,18.7c-1.5,8.9-3.6,12.1-4.9,12.1
			c-0.4-0.2-2.2-2.1-2.6-18.7l-1.6-56.4l27.6,1.4V40.3h-26l1.4-23.1h-22.2l0.7,23.1h-15.1l-1,22.4l16.1-0.5v78
			c0,5.4,2.4,9.6,7.2,12.3c3.8,2.3,8.5,3.5,14,3.5C1050.3,156,1058,151.3,1064.3,142z"/>
		<polygon class="st0" points="1103.4,119 1100.1,54.1 1081.5,54.1 1080,70.8 1081.1,119 		"/>
		<path class="st0" d="M1084.3,42.7c2.1,1.8,4.6,2.7,7.4,2.7c4.6,0,10.1-2,10.1-11.8c0-2.7-0.7-5.2-2.1-7.4
			c-1.5-2.3-3.9-3.6-6.7-3.6c-3,0-5.8,1.4-8.4,4.3c-2.5,2.8-3.8,5.7-3.8,8.8C1080.9,38.5,1082,40.9,1084.3,42.7z"/>
		<path class="st0" d="M1123.6,140.2c0,5.4,2.4,9.6,7.2,12.3c3.9,2.3,8.5,3.5,14,3.5c8.7,0,16.3-4.7,22.7-14
			c4.5-6.7,8.1-15.2,10.8-25.4l0.4-1.4l-25.2-7.8l-2.2,18.7c-1.9,11.2-4.3,12.1-4.9,12.1c-0.2-0.1-2.2-1.9-2.6-18.7l-1.7-56.4
			l27.6,1.4V40.3h-26l1.4-23.1h-22.1l0.7,23.1h-15.1l-1,22.4l16.1-0.5V140.2z"/>
		<path class="st0" d="M1255.1,101.2l0.6-1.9l-26.3,0.8l0.4,1.7c0.5,2.3,0.7,4.6,0.7,6.9c0,2.3-0.4,4-1.3,4.8
			c-3.4,3.3-7.3,4.9-11.9,4.9c-4.5,0-6.8-2-7.2-6.4l-2.5-24.8h46.3v-1.5c0-11.6-2.6-21.5-7.8-29.5c-6.1-9.6-14.9-14.5-26.2-14.5
			c-13.9,0-23.9,3.1-29.9,9.2c-5.6,5.7-9,15.3-10.6,29.5c-0.2,1.9-0.3,3.7-0.3,5.5c0,11.7,4.5,23.6,13.3,35.4
			c5.2,6.9,13.9,10.4,25.9,10.4c4.3,0,8.5-0.6,12.3-1.8c8.3-2.6,14-6,17-10.1C1249.7,117.1,1252.2,111,1255.1,101.2z M1209.7,55.5
			c4.7,0,8.1,1.2,10.4,3.5c2.3,2.4,3.4,6.2,3.3,11.4v1l-25.9,0.8c0-0.5-0.1-1.1-0.1-1.8C1197.5,60.3,1201.4,55.5,1209.7,55.5z"/>
	</g>
	<g>
		<path class="st0" d="M77.4,417.6l89.6-11.4l-6,59.1c-0.7,7-5.5,14.3-14.3,21.8c-7,5.7-14.9,10.5-23.5,14.3
			c-4.2,1.8-8.3,2.6-12.2,2.6c-9.9,0-21.2-6.7-33.5-19.9C65.8,471.8,60,439,60,386.6c0-21.8,1.4-45,4.2-69
			c3.7-33.3,8.9-54.7,15.6-63.6c12.1-15.9,28.5-24,48.6-24c7.1,0,12.5,1,15.9,2.9c14,8,21,31.9,21.1,71c-0.2,3.3-0.2,6,0,8.2
			l0.1,1.5l50.3-4.4l-0.1-1.4c-1.2-28.4-9.9-52.2-26-70.8c-17.5-20.1-40.5-30.3-68.2-30.3c-32.1,0-55.9,8.2-70.6,24.4
			c-15.5,17.1-28.3,42.5-38,75.3C4.3,335.4,0,363.8,0,390.3c0,50.4,12,90,35.6,117.6c8.4,10,19.4,18.4,32.8,24.9
			c13.4,6.5,26.6,9.8,39.2,9.8c12.1,0,23.2-2.3,32.8-6.7c11.2-5.2,17.7-12.4,19.4-21.4c4.3,8.5,6.5,21.4,6.5,38.5
			c0,9.7-0.6,18.9-1.7,27.2l-0.3,1.9l46.5-6.3l0-1.3c-1.1-27.4-1.7-49.7-1.7-66.4c0-4.9,0.5-12.2,1.5-21.7
			c1.1-9.9,1.6-17.2,1.6-22.3c0-4.9-0.2-12.3-0.7-22.2c-0.5-9.9-0.7-17.3-0.7-22.1c0-9.7,1.9-23.6,5.5-41.2
			c4.1-18.6,6.4-32.6,6.6-41.5l0-1.5l-138.5,0.7L77.4,417.6z"/>
		<path class="st0" d="M384.1,443.8c-11-31.2-22.7-53.5-34.8-66.6c11.9-3,22.6-10.6,31.9-22.5c9.9-12.7,15-25.9,15-39
			c0-17.3-1.7-30.6-4.9-39.4c-4-11.5-12.3-22.5-24.6-32.7c-13.8-11.4-39.1-17.2-75.1-17.2c-16.6,0-31.9,0.9-45.4,2.8l-1.3,0.2
			l0.1,1.3c4.9,87.3,7.4,147.3,7.4,178.5c0,29.7-3.4,67.4-10.2,112l-0.3,1.7h64.4l-13.7-122c4.4-3.2,9-4.7,13.9-4.7
			c2.3,0,4.4,0.4,6.3,1.2c5.6,2.6,9.3,6.5,11.3,11.9c2.1,5.8,4,11.7,5.8,17.6c5.4,16.1,8.2,35.9,8.2,58.9c0,14.8-0.8,28.2-2.4,39.8
			l-0.3,1.8l67.9-4.4l-0.2-1.5C400.4,498.1,394,472,384.1,443.8z M336.8,307.5c0,7.4-1,15.7-3.1,24.5c-2.4,10.9-5.7,17.6-9.7,20.2
			c-5.1,3.3-13,5-23.7,5c-1.3,0-2.6,0-4-0.1h-3.7l2-97.6C323,264.4,336.8,280.1,336.8,307.5z"/>
		<path class="st0" d="M419.1,228.8l-1.4,304.2v1.5l148.7-2.1l-3.7-43.3l-95.2,4.5l-3.7-85.3l73.5,1.7l-1.1-63.4l-64,0.7l-5.6-63.6
			l94.5-10.3c14.7-5,26-9.2,34.6-12.8l0.9-0.4l-1.1-41.2L419.1,228.8z"/>
		<path class="st0" d="M793.9,351.1c0-13.7,0.8-36.5,2.4-67.6c1.1-28.9,1.6-51.6,1.4-67.4v-4.5l-1-0.3c-13.7-4.9-26.6-7.5-38.1-7.7
			l-1.8,0l0.3,1.7c4.1,23.6,6.2,44.2,6.2,61.5c0,28.3-2.3,58.3-6.7,89.5c-26.5-36.2-42.9-58.1-50.1-66.9c-21.4-26.2-42.3-46.7-62-61
			l-0.4-0.3l-39.3,3.3l0.1,1.4c3.9,56.4,5.8,102.6,5.8,137.3c0,50.2-2,110.1-5.8,178.1l-0.1,1.7l47-5l1.2-0.1l0.1-1.2
			c0.2-3.4,0.3-7.2,0.3-11.5c0-7-0.5-13.7-1.4-19.9c-3.7-26.9-6.3-58.8-7.7-94.8c-0.5-14.5-0.9-45.3-1.4-91.4
			c6.4,8.1,13.2,18.2,20.4,30c6.7,11.7,13.5,23.6,20.4,35.6c21.1,36.3,44,77.4,68,122.1l0.4,0.7l58.2,3.6l-0.2-1.8
			C799.3,439.1,793.9,383.5,793.9,351.1z"/>
		<path class="st0" d="M930.7,226c-36.3,0-65.5,17-86.8,50.4c-18.2,28.6-27.5,62.5-27.5,100.6c0,31.9,12.1,64.6,36.2,97.2
			c25.7,34.5,54.2,52.5,84.7,53.4l3.2,0c17.7,0,35.4-10.4,52.8-30.9c14.1-16.4,25.1-35.3,32.9-56.2c7.7-20.9,11.7-42.4,11.7-63.9
			c0-32.3-9.5-64.6-28.2-96C987.8,244.3,961.3,226,930.7,226z M895.6,337.3c2.3-13.4,6.2-28.8,11.7-45.7c9.4-30,16.1-36.3,20-36.3
			c0.7,0,2.8,0.7,7.1,7c8.1,11.5,15.6,30.8,22.2,57.1c5.5,22.6,8.9,43.4,10.3,62c0.2,2.2,0.4,4.8,0.4,8.1c0,10.4-1.1,22.1-3.3,34.8
			c-2.2,12.6-5.8,27.3-10.8,43.5c-9,30-15.1,34.5-17.9,34.5c-5.7,0-15.1-7.6-28-43.9c-8-22.9-12.9-41.9-14.8-56.7
			c-0.9-6.3-1.4-13.1-1.4-20.2C891.1,368.3,892.6,353.4,895.6,337.3z"/>
		<path class="st0" d="M1154.6,247.2c14.6,61.9,22,114.2,22,155.3c0,15-1.3,26.9-3.7,35.5c-3.4,11.5-8.5,21.6-15.3,29.8
			c-8.1,9.9-17.4,15-27.5,15c-10.1,0-16.6-5.6-19.6-17.2c-1.4-5.3-2-15.7-2-30.7c0-43.4,5.6-104.4,16.6-181.3l0.2-1.4l-77.5-14.8
			l0.2,2c5.3,49.8,7.9,91.1,7.9,122.8c0,8.9-0.6,22.3-1.7,39.8c-1.2,17.6-1.7,31-1.7,40c0,23.4,9.5,42.2,28.2,55.8
			c16.5,12.1,37.2,18.2,61.6,18.2c21.3,0,39.6-8,54.6-23.9c14.2-15.1,22.2-33.8,23.8-55.5c0.3-8.4,0.5-20.9,0.7-37
			c1.3-43.1,3.5-77.4,6.5-102.1c1.9-15.4,5-34.8,9.3-57.9l0.4-1.9l-83.3,7.9L1154.6,247.2z"/>
		<path class="st0" d="M1296.4,370.3c0-42,2.5-91.5,7.3-147.4l0.1-1.7l-58.5,4.4l0.2,1.5c7.7,71.8,11.6,130.7,11.6,175
			c0,35.9-1.5,79.2-4.4,128.8l-0.1,1.6l57.3-1.1l-0.2-1.6C1300.9,464.2,1296.4,410.6,1296.4,370.3z"/>
		<path class="st0" d="M1376.9,506c4.4-55.1,10.7-113.4,18.7-173.1c8.1-60.5,15-104.8,20.6-131.5l0.4-1.8h-84.4l0.1,1.6
			c4.8,63.5,7.3,124.1,7.3,180.2c0,36.5-1.6,90.9-4.9,161.9l0,1.5l191.5,9.1l-16.3-75L1376.9,506z"/>
		<path class="st0" d="M1575.4,506c4.4-54.9,10.6-113.1,18.7-173.1c8.1-60.2,15-104.5,20.6-131.5l0.4-1.8h-84.5l0.1,1.6
			c4.9,63.5,7.3,124.1,7.3,180.2c0,36.6-1.7,91-4.9,161.9l-0.1,1.5l191.5,9.1l-16.2-75L1575.4,506z"/>
		<path class="st0" d="M1909.2,260.6l0.9-0.4l-1.2-41.2l-176.5,9.8l-1.4,304.2v1.5l148.7-2.1l-3.7-43.3l-95.2,4.5l-3.7-85.3
			l73.5,1.7l-1.1-63.4l-64,0.7l-5.6-63.6l94.5-10.3C1889,268.5,1900.3,264.3,1909.2,260.6z"/>
	</g>
	<g>
		<path d="M395.9,660.2v0.4c4.8,0.4,8.2,2.1,10.3,4.9c2.1,2.8,3.1,6.9,3.1,12.3c0,6.5-1.6,10.9-5,13.3c-3.3,2.4-8.9,3.6-16.9,3.6
			c-12,0-21-0.2-27.2-0.7v-64.5c5.5-0.5,13.6-0.7,24.2-0.7c8.6,0,14.6,1.2,17.9,3.5c3.3,2.3,4.9,6.8,4.9,13.3
			c0,4.7-0.9,8.2-2.7,10.6C402.8,658.4,399.9,659.8,395.9,660.2z M374.1,655.7h10.4c3.5,0,5.9-0.6,7.1-1.7c1.3-1.1,1.9-3.3,1.9-6.6
			c0-3.2-0.7-5.4-2.1-6.4c-1.4-1.1-4-1.6-7.8-1.6l-9.6-0.1V655.7z M374.1,683.8H385c3.9,0,6.6-0.6,7.9-1.7c1.4-1.1,2.1-3.5,2.1-7.1
			c0-3.9-0.7-6.5-2.1-7.8c-1.4-1.3-4.2-2-8.2-2.1h-10.5V683.8z"/>
		<path d="M446.7,635.3c4-4.8,11.2-7.1,21.5-7.1c10.4,0,17.5,2.4,21.6,7.1c4.1,4.8,6.1,13.5,6.1,26.3c0,12.8-2,21.5-6.1,26.3
			c-4.1,4.8-11.2,7.2-21.6,7.2c-10.3,0-17.5-2.4-21.5-7.2c-4-4.8-6-13.5-6-26.3C440.7,648.8,442.7,640.1,446.7,635.3z M478.2,644.2
			c-1.8-3-5.1-4.6-10-4.6c-4.9,0-8.2,1.5-9.9,4.6c-1.8,3.1-2.7,8.8-2.7,17.4c0,8.5,0.9,14.3,2.7,17.4c1.8,3.1,5.1,4.6,9.9,4.6
			c4.9,0,8.2-1.5,10-4.6c1.8-3,2.7-8.8,2.7-17.4C480.9,653.1,480,647.3,478.2,644.2z"/>
		<path d="M554,621.5l-3.9,5.2l-13.1-8.9h-0.8l-13.4,8.9l-3.8-5.4l12.5-12.3h10L554,621.5z M543.6,693.9h-14.2v-64.5h14.2V693.9z"/>
		<path d="M628.2,640.9h-19.3v52.9h-14.3v-52.9h-19.3v-11.6h52.8V640.9z"/>
		<path d="M703.1,682.7l0.7,10.5c-5.9,0.6-15.8,0.9-29.9,0.9c-4.3,0-7.7-1.2-10.3-3.5c-2.6-2.3-3.9-5.5-3.9-9.5v-39.1
			c0.1-4,1.4-7.1,3.9-9.5c2.6-2.3,6-3.5,10.3-3.5c14.1,0,24.1,0.3,29.9,0.9l-0.7,10.6h-24.8c-1.6,0-2.7,0.4-3.4,1.1
			c-0.7,0.8-1,2-1,3.7v9.8h25.7v10.3h-25.7v12.4c0,1.7,0.3,3,1,3.7c0.7,0.7,1.8,1.1,3.4,1.1H703.1z"/>
		<path d="M816,676.9h-22.2l-4.7,16.9h-14.6l18.6-60.8c0.3-1.1,0.8-2,1.8-2.7c0.9-0.7,2-1,3.2-1h13.5c2.7,0,4.3,1.2,5,3.7l18.6,60.8
			h-14.5L816,676.9z M807.6,626.3l-21-10.2l6.2-9.6l18.9,13.9L807.6,626.3z M812.9,665.9l-5.4-19.7c-0.8-3.1-1.2-5.2-1.3-6.1h-2.5
			c-0.1,0.6-0.3,1.6-0.7,3c-0.3,1.4-0.6,2.4-0.7,3.1l-5.4,19.7H812.9z"/>
		<path d="M953.2,681.8l1.2,10.6c-5.6,1.7-12.5,2.6-20.7,2.6c-10,0-17-2.5-21-7.5c-4.1-5-6.1-13.6-6.1-25.9c0-12.3,2-20.9,6.1-25.9
			c4.1-5,11.1-7.5,21-7.5c7.2,0,13.7,0.7,19.3,2.2l-1.2,10.7c-5-0.3-11.1-0.5-18.1-0.5c-4.7,0-7.9,1.5-9.6,4.4
			c-1.7,3-2.6,8.5-2.6,16.6c0,8.1,0.9,13.6,2.6,16.6c1.7,3,4.9,4.4,9.6,4.4C942.4,682.6,948.9,682.4,953.2,681.8z"/>
		<path d="M1037.8,629.4v64.5h-14.2v-28.8h-22.8v28.8h-14.2v-64.5h14.2V654h22.8v-24.7H1037.8z"/>
		<path d="M1110.1,676.9H1088l-4.7,16.9h-14.6l18.6-60.8c0.2-1.1,0.8-2,1.8-2.7c0.9-0.7,2-1,3.2-1h13.5c2.7,0,4.3,1.2,5,3.7
			l18.6,60.8h-14.5L1110.1,676.9z M1107.1,665.9l-5.4-19.7c-0.8-3.1-1.2-5.2-1.3-6.1h-2.5c-0.1,0.6-0.3,1.6-0.7,3
			c-0.3,1.4-0.6,2.4-0.7,3.1l-5.4,19.7H1107.1z"/>
		<path d="M1214.7,629.4v59.4c0,3.4-1.7,5.1-5,5.1h-8.9c-1.4,0-2.6-0.3-3.4-1c-0.8-0.7-1.6-1.7-2.3-3.2l-16.9-34.4
			c-2.1-4.5-3.4-7.9-3.9-10h-1c0.4,3.1,0.7,6.5,0.7,10.3v38.3h-13.6v-59.4c0-3.4,1.7-5.1,5.1-5.1h8.7c1.4,0,2.5,0.3,3.4,1
			c0.8,0.7,1.6,1.7,2.3,3.2l16.4,33.4c1.5,3.1,3.1,6.6,4.7,10.4h0.9c-0.4-4.9-0.6-8.5-0.6-10.8v-37.1H1214.7z"/>
		<path d="M1274.4,669.5l-13-4.6c-4.8-1.7-8.2-4.1-10.3-7.1c-2.1-3-3.1-6.9-3.1-11.8c0-7.1,1.7-11.9,5.2-14.3
			c3.5-2.4,9.6-3.6,18.3-3.6c8.2,0,15.3,0.8,21.2,2.5l-0.9,9.7c-5.4-0.2-12.2-0.3-20.2-0.3c-3.7,0-6.2,0.3-7.5,1
			c-1.3,0.7-1.9,2.3-1.9,4.9c0,2.1,0.5,3.6,1.4,4.6c0.9,0.9,2.7,1.8,5.3,2.7l12.2,4.2c5,1.7,8.5,4.1,10.6,7.2c2.1,3,3.1,7,3.1,11.8
			c0,7.2-1.8,12.1-5.2,14.7c-3.5,2.6-9.7,3.9-18.7,3.9c-7.3,0-14.7-0.8-22.2-2.4l0.8-10.3c13.3,0.3,20.4,0.5,21.3,0.5
			c3.8,0,6.3-0.4,7.6-1.2c1.3-0.8,1.9-2.5,1.9-5c0-2.2-0.4-3.7-1.3-4.6C1278.3,671,1276.7,670.2,1274.4,669.5z"/>
		<path d="M1332.2,635.3c4-4.8,11.2-7.1,21.5-7.1c10.3,0,17.5,2.4,21.6,7.1c4.1,4.8,6.1,13.5,6.1,26.3c0,12.8-2,21.5-6.1,26.3
			c-4,4.8-11.2,7.2-21.6,7.2c-10.3,0-17.5-2.4-21.5-7.2c-4-4.8-6-13.5-6-26.3C1326.2,648.8,1328.2,640.1,1332.2,635.3z
			 M1363.7,644.2c-1.8-3-5.1-4.6-9.9-4.6c-4.9,0-8.2,1.5-10,4.6c-1.8,3.1-2.7,8.8-2.7,17.4c0,8.5,0.9,14.3,2.7,17.4
			c1.8,3.1,5.1,4.6,10,4.6c4.9,0,8.2-1.5,9.9-4.6c1.8-3,2.7-8.8,2.7-17.4C1366.4,653.1,1365.5,647.3,1363.7,644.2z"/>
		<path d="M1469.7,629.4v59.4c0,3.4-1.7,5.1-5,5.1h-8.9c-1.4,0-2.6-0.3-3.4-1c-0.8-0.7-1.6-1.7-2.3-3.2l-16.9-34.4
			c-2.1-4.5-3.4-7.9-3.9-10h-1c0.4,3.1,0.7,6.5,0.7,10.3v38.3h-13.6v-59.4c0-3.4,1.7-5.1,5.1-5.1h8.7c1.4,0,2.6,0.3,3.4,1
			c0.8,0.7,1.6,1.7,2.3,3.2l16.4,33.4c1.6,3.1,3.1,6.6,4.7,10.4h0.9c-0.4-4.9-0.6-8.5-0.6-10.8v-37.1H1469.7z"/>
		<path d="M1529.4,669.5l-13-4.6c-4.8-1.7-8.2-4.1-10.3-7.1c-2.1-3-3.1-6.9-3.1-11.8c0-7.1,1.7-11.9,5.2-14.3
			c3.5-2.4,9.6-3.6,18.3-3.6c8.2,0,15.3,0.8,21.2,2.5l-0.9,9.7c-5.4-0.2-12.2-0.3-20.2-0.3c-3.7,0-6.2,0.3-7.5,1
			c-1.2,0.7-1.9,2.3-1.9,4.9c0,2.1,0.5,3.6,1.4,4.6c0.9,0.9,2.7,1.8,5.3,2.7l12.2,4.2c5,1.7,8.5,4.1,10.6,7.2c2.1,3,3.1,7,3.1,11.8
			c0,7.2-1.8,12.1-5.2,14.7c-3.5,2.6-9.7,3.9-18.7,3.9c-7.3,0-14.7-0.8-22.1-2.4l0.8-10.3c13.3,0.3,20.4,0.5,21.3,0.5
			c3.8,0,6.4-0.4,7.6-1.2c1.3-0.8,1.9-2.5,1.9-5c0-2.2-0.5-3.7-1.3-4.6C1533.3,671,1531.8,670.2,1529.4,669.5z"/>
	</g>
</g>
</svg>
