<?xml version="1.0" encoding="utf-8"?>
<!-- Generator: Adobe Illustrator 19.0.0, SVG Export Plug-In . SVG Version: 6.00 Build 0)  -->
<svg version="1.1" id="Calque_1" xmlns="http://www.w3.org/2000/svg" xmlns:xlink="http://www.w3.org/1999/xlink" x="0px" y="0px"
	 viewBox="-44 653 1910.1 695" style="enable-background:new -44 653 1910.1 695;" xml:space="preserve">
<style type="text/css">
	.st0{fill:#FFFFFF;}
</style>
<g>
	<g>
		<path class="st0" d="M614.2,741.8c0,17.5-0.8,43.1-2.5,78.4l-0.1,1.4l94.6,4.5l-8.3-38l-64.2,13c2.2-26.4,5.2-54.2,9.1-82.8
			c4-29.3,7.4-50.7,10.1-63.7l0.4-1.8h-42.8l0.1,1.6C612.9,685.3,614.2,714.7,614.2,741.8z"/>
		<path class="st0" d="M734.2,759.9l25.1-2.1l4.5,48.1h28.9l-0.3-1.7c-5.6-32.3-11.7-75.9-18.2-129.5l-0.2-1.4l-37,3.4l-0.4,0.8
			c-6.1,13.3-10.8,24.4-13.8,32.9c-8.3,23.2-15,54.6-20,93.2l-0.2,1.7L726,805L734.2,759.9z M750.3,694.6l3-2.1l1.9,24.7L743,718
			L750.3,694.6z"/>
		<path class="st0" d="M883.5,748.8c3.7,2.2,7.1,3.2,10.2,3.2c0.9,0,1.8-0.1,2.7-0.4c10.9-4,18.9-9.3,23.9-15.7
			c5-6.5,7.5-15.6,7.5-27c0-8.4-0.8-14.5-2.3-18.6c-1.8-5.1-5.7-10.2-11.7-15.1c-5-4.1-12.8-6.2-23-6.2c-9.7,0-19.6,1.4-29.3,4.2
			l-1.1,0.3l0.1,1.2c2.3,41.2,3.4,68.1,3.4,82.1c0,13.8-1.6,31.1-4.7,51.5l-0.3,1.8l32.3-2.6L883.5,748.8z M883.9,732.9v-41.3
			c12,2.4,17.8,9.3,17.8,20.8c0,3.3-0.6,7.2-1.6,11.7c-1.6,6.4-3.3,8.6-4.4,9.3c-1.1,0.7-2.4,1-3.9,1
			C889.2,734.4,886.5,733.9,883.9,732.9z"/>
		<path class="st0" d="M932.5,706.8l-0.1,1.6l12.3-0.3v-1.4c0-8.7,2-20.8,5.8-35.9l0.5-1.9l-22.8,1.5l0.6,1.8
			C932.1,682.2,933.4,693.9,932.5,706.8z"/>
		<path class="st0" d="M1020.3,795c4.5-6.7,8.1-15.2,10.8-25.4l0.4-1.4l-25.2-7.8l-2.3,18.7c-1.5,8.9-3.6,12.1-4.9,12.1
			c-0.4-0.2-2.2-2.1-2.6-18.7l-1.6-56.4l27.6,1.4v-24.2h-26l1.4-23.1h-22.2l0.7,23.1h-15.1l-1,22.4l16.1-0.5v78
			c0,5.4,2.4,9.6,7.2,12.3c3.8,2.3,8.5,3.5,14,3.5C1006.3,809,1014,804.3,1020.3,795z"/>
		<polygon class="st0" points="1059.4,772 1056.1,707.1 1037.5,707.1 1036,723.8 1037.1,772 		"/>
		<path class="st0" d="M1040.3,695.7c2.1,1.8,4.6,2.7,7.4,2.7c4.6,0,10.1-2,10.1-11.8c0-2.7-0.7-5.2-2.1-7.4
			c-1.5-2.3-3.9-3.6-6.7-3.6c-3,0-5.8,1.4-8.4,4.3c-2.5,2.8-3.8,5.7-3.8,8.8C1036.9,691.5,1038,693.9,1040.3,695.7z"/>
		<path class="st0" d="M1079.6,793.2c0,5.4,2.4,9.6,7.2,12.3c3.9,2.3,8.5,3.5,14,3.5c8.7,0,16.3-4.7,22.7-14
			c4.5-6.7,8.1-15.2,10.8-25.4l0.4-1.4l-25.2-7.8l-2.2,18.7c-1.9,11.2-4.3,12.1-4.9,12.1c-0.2-0.1-2.2-1.9-2.6-18.7l-1.7-56.4
			l27.6,1.4v-24.2h-26l1.4-23.1H1079l0.7,23.1h-15.1l-1,22.4l16.1-0.5v78H1079.6z"/>
		<path class="st0" d="M1211.1,754.2l0.6-1.9l-26.3,0.8l0.4,1.7c0.5,2.3,0.7,4.6,0.7,6.9s-0.4,4-1.3,4.8c-3.4,3.3-7.3,4.9-11.9,4.9
			c-4.5,0-6.8-2-7.2-6.4l-2.5-24.8h46.3v-1.5c0-11.6-2.6-21.5-7.8-29.5c-6.1-9.6-14.9-14.5-26.2-14.5c-13.9,0-23.9,3.1-29.9,9.2
			c-5.6,5.7-9,15.3-10.6,29.5c-0.2,1.9-0.3,3.7-0.3,5.5c0,11.7,4.5,23.6,13.3,35.4c5.2,6.9,13.9,10.4,25.9,10.4
			c4.3,0,8.5-0.6,12.3-1.8c8.3-2.6,14-6,17-10.1C1205.7,770.1,1208.2,764,1211.1,754.2z M1165.7,708.5c4.7,0,8.1,1.2,10.4,3.5
			c2.3,2.4,3.4,6.2,3.3,11.4v1l-25.9,0.8c0-0.5-0.1-1.1-0.1-1.8C1153.5,713.3,1157.4,708.5,1165.7,708.5z"/>
	</g>
	<g>
		<path class="st0" d="M33.4,1070.6l89.6-11.4l-6,59.1c-0.7,7-5.5,14.3-14.3,21.8c-7,5.7-14.9,10.5-23.5,14.3
			c-4.2,1.8-8.3,2.6-12.2,2.6c-9.9,0-21.2-6.7-33.5-19.9C21.8,1124.8,16,1092,16,1039.6c0-21.8,1.4-45,4.2-69
			c3.7-33.3,8.9-54.7,15.6-63.6c12.1-15.9,28.5-24,48.6-24c7.1,0,12.5,1,15.9,2.9c14,8,21,31.9,21.1,71c-0.2,3.3-0.2,6,0,8.2
			l0.1,1.5l50.3-4.4l-0.1-1.4c-1.2-28.4-9.9-52.2-26-70.8c-17.5-20.1-40.5-30.3-68.2-30.3c-32.1,0-55.9,8.2-70.6,24.4
			c-15.5,17.1-28.3,42.5-38,75.3c-8.6,29-12.9,57.4-12.9,83.9c0,50.4,12,90,35.6,117.6c8.4,10,19.4,18.4,32.8,24.9
			s26.6,9.8,39.2,9.8c12.1,0,23.2-2.3,32.8-6.7c11.2-5.2,17.7-12.4,19.4-21.4c4.3,8.5,6.5,21.4,6.5,38.5c0,9.7-0.6,18.9-1.7,27.2
			l-0.3,1.9l46.5-6.3v-1.3c-1.1-27.4-1.7-49.7-1.7-66.4c0-4.9,0.5-12.2,1.5-21.7c1.1-9.9,1.6-17.2,1.6-22.3c0-4.9-0.2-12.3-0.7-22.2
			s-0.7-17.3-0.7-22.1c0-9.7,1.9-23.6,5.5-41.2c4.1-18.6,6.4-32.6,6.6-41.5v-1.5l-138.5,0.7L33.4,1070.6z"/>
		<path class="st0" d="M340.1,1096.8c-11-31.2-22.7-53.5-34.8-66.6c11.9-3,22.6-10.6,31.9-22.5c9.9-12.7,15-25.9,15-39
			c0-17.3-1.7-30.6-4.9-39.4c-4-11.5-12.3-22.5-24.6-32.7c-13.8-11.4-39.1-17.2-75.1-17.2c-16.6,0-31.9,0.9-45.4,2.8l-1.3,0.2
			l0.1,1.3c4.9,87.3,7.4,147.3,7.4,178.5c0,29.7-3.4,67.4-10.2,112l-0.3,1.7h64.4l-13.7-122c4.4-3.2,9-4.7,13.9-4.7
			c2.3,0,4.4,0.4,6.3,1.2c5.6,2.6,9.3,6.5,11.3,11.9c2.1,5.8,4,11.7,5.8,17.6c5.4,16.1,8.2,35.9,8.2,58.9c0,14.8-0.8,28.2-2.4,39.8
			l-0.3,1.8l67.9-4.4l-0.2-1.5C356.4,1151.1,350,1125,340.1,1096.8z M292.8,960.5c0,7.4-1,15.7-3.1,24.5
			c-2.4,10.9-5.7,17.6-9.7,20.2c-5.1,3.3-13,5-23.7,5c-1.3,0-2.6,0-4-0.1h-3.7l2-97.6C279,917.4,292.8,933.1,292.8,960.5z"/>
		<path class="st0" d="M375.1,881.8l-1.4,304.2v1.5l148.7-2.1l-3.7-43.3l-95.2,4.5l-3.7-85.3l73.5,1.7l-1.1-63.4l-64,0.7l-5.6-63.6
			l94.5-10.3c14.7-5,26-9.2,34.6-12.8l0.9-0.4l-1.1-41.2L375.1,881.8z"/>
		<path class="st0" d="M749.9,1004.1c0-13.7,0.8-36.5,2.4-67.6c1.1-28.9,1.6-51.6,1.4-67.4v-4.5l-1-0.3c-13.7-4.9-26.6-7.5-38.1-7.7
			h-1.8l0.3,1.7c4.1,23.6,6.2,44.2,6.2,61.5c0,28.3-2.3,58.3-6.7,89.5c-26.5-36.2-42.9-58.1-50.1-66.9c-21.4-26.2-42.3-46.7-62-61
			l-0.4-0.3l-39.3,3.3l0.1,1.4c3.9,56.4,5.8,102.6,5.8,137.3c0,50.2-2,110.1-5.8,178.1l-0.1,1.7l47-5l1.2-0.1l0.1-1.2
			c0.2-3.4,0.3-7.2,0.3-11.5c0-7-0.5-13.7-1.4-19.9c-3.7-26.9-6.3-58.8-7.7-94.8c-0.5-14.5-0.9-45.3-1.4-91.4
			c6.4,8.1,13.2,18.2,20.4,30c6.7,11.7,13.5,23.6,20.4,35.6c21.1,36.3,44,77.4,68,122.1l0.4,0.7l58.2,3.6l-0.2-1.8
			C755.3,1092.1,749.9,1036.5,749.9,1004.1z"/>
		<path class="st0" d="M886.7,879c-36.3,0-65.5,17-86.8,50.4c-18.2,28.6-27.5,62.5-27.5,100.6c0,31.9,12.1,64.6,36.2,97.2
			c25.7,34.5,54.2,52.5,84.7,53.4h3.2c17.7,0,35.4-10.4,52.8-30.9c14.1-16.4,25.1-35.3,32.9-56.2c7.7-20.9,11.7-42.4,11.7-63.9
			c0-32.3-9.5-64.6-28.2-96C943.8,897.3,917.3,879,886.7,879z M851.6,990.3c2.3-13.4,6.2-28.8,11.7-45.7c9.4-30,16.1-36.3,20-36.3
			c0.7,0,2.8,0.7,7.1,7c8.1,11.5,15.6,30.8,22.2,57.1c5.5,22.6,8.9,43.4,10.3,62c0.2,2.2,0.4,4.8,0.4,8.1c0,10.4-1.1,22.1-3.3,34.8
			c-2.2,12.6-5.8,27.3-10.8,43.5c-9,30-15.1,34.5-17.9,34.5c-5.7,0-15.1-7.6-28-43.9c-8-22.9-12.9-41.9-14.8-56.7
			c-0.9-6.3-1.4-13.1-1.4-20.2C847.1,1021.3,848.6,1006.4,851.6,990.3z"/>
		<path class="st0" d="M1110.6,900.2c14.6,61.9,22,114.2,22,155.3c0,15-1.3,26.9-3.7,35.5c-3.4,11.5-8.5,21.6-15.3,29.8
			c-8.1,9.9-17.4,15-27.5,15s-16.6-5.6-19.6-17.2c-1.4-5.3-2-15.7-2-30.7c0-43.4,5.6-104.4,16.6-181.3l0.2-1.4l-77.5-14.8l0.2,2
			c5.3,49.8,7.9,91.1,7.9,122.8c0,8.9-0.6,22.3-1.7,39.8c-1.2,17.6-1.7,31-1.7,40c0,23.4,9.5,42.2,28.2,55.8
			c16.5,12.1,37.2,18.2,61.6,18.2c21.3,0,39.6-8,54.6-23.9c14.2-15.1,22.2-33.8,23.8-55.5c0.3-8.4,0.5-20.9,0.7-37
			c1.3-43.1,3.5-77.4,6.5-102.1c1.9-15.4,5-34.8,9.3-57.9l0.4-1.9l-83.3,7.9L1110.6,900.2z"/>
		<path class="st0" d="M1252.4,1023.3c0-42,2.5-91.5,7.3-147.4l0.1-1.7l-58.5,4.4l0.2,1.5c7.7,71.8,11.6,130.7,11.6,175
			c0,35.9-1.5,79.2-4.4,128.8l-0.1,1.6l57.3-1.1l-0.2-1.6C1256.9,1117.2,1252.4,1063.6,1252.4,1023.3z"/>
		<path class="st0" d="M1332.9,1159c4.4-55.1,10.7-113.4,18.7-173.1c8.1-60.5,15-104.8,20.6-131.5l0.4-1.8h-84.4l0.1,1.6
			c4.8,63.5,7.3,124.1,7.3,180.2c0,36.5-1.6,90.9-4.9,161.9v1.5l191.5,9.1l-16.3-75L1332.9,1159z"/>
		<path class="st0" d="M1531.4,1159c4.4-54.9,10.6-113.1,18.7-173.1c8.1-60.2,15-104.5,20.6-131.5l0.4-1.8h-84.5l0.1,1.6
			c4.9,63.5,7.3,124.1,7.3,180.2c0,36.6-1.7,91-4.9,161.9l-0.1,1.5l191.5,9.1l-16.2-75L1531.4,1159z"/>
		<path class="st0" d="M1865.2,913.6l0.9-0.4l-1.2-41.2l-176.5,9.8L1687,1186v1.5l148.7-2.1l-3.7-43.3l-95.2,4.5l-3.7-85.3l73.5,1.7
			l-1.1-63.4l-64,0.7l-5.6-63.6l94.5-10.3C1845,921.5,1856.3,917.3,1865.2,913.6z"/>
	</g>
	<g>
		<path class="st0" d="M351.9,1313.2v0.4c4.8,0.4,8.2,2.1,10.3,4.9c2.1,2.8,3.1,6.9,3.1,12.3c0,6.5-1.6,10.9-5,13.3
			c-3.3,2.4-8.9,3.6-16.9,3.6c-12,0-21-0.2-27.2-0.7v-64.5c5.5-0.5,13.6-0.7,24.2-0.7c8.6,0,14.6,1.2,17.9,3.5
			c3.3,2.3,4.9,6.8,4.9,13.3c0,4.7-0.9,8.2-2.7,10.6C358.8,1311.4,355.9,1312.8,351.9,1313.2z M330.1,1308.7h10.4
			c3.5,0,5.9-0.6,7.1-1.7c1.3-1.1,1.9-3.3,1.9-6.6c0-3.2-0.7-5.4-2.1-6.4c-1.4-1.1-4-1.6-7.8-1.6l-9.6-0.1v16.4H330.1z
			 M330.1,1336.8H341c3.9,0,6.6-0.6,7.9-1.7c1.4-1.1,2.1-3.5,2.1-7.1c0-3.9-0.7-6.5-2.1-7.8c-1.4-1.3-4.2-2-8.2-2.1h-10.5
			L330.1,1336.8L330.1,1336.8z"/>
		<path class="st0" d="M402.7,1288.3c4-4.8,11.2-7.1,21.5-7.1c10.4,0,17.5,2.4,21.6,7.1c4.1,4.8,6.1,13.5,6.1,26.3s-2,21.5-6.1,26.3
			c-4.1,4.8-11.2,7.2-21.6,7.2c-10.3,0-17.5-2.4-21.5-7.2c-4-4.8-6-13.5-6-26.3S398.7,1293.1,402.7,1288.3z M434.2,1297.2
			c-1.8-3-5.1-4.6-10-4.6s-8.2,1.5-9.9,4.6c-1.8,3.1-2.7,8.8-2.7,17.4c0,8.5,0.9,14.3,2.7,17.4c1.8,3.1,5.1,4.6,9.9,4.6
			c4.9,0,8.2-1.5,10-4.6c1.8-3,2.7-8.8,2.7-17.4C436.9,1306.1,436,1300.3,434.2,1297.2z"/>
		<path class="st0" d="M510,1274.5l-3.9,5.2l-13.1-8.9h-0.8l-13.4,8.9l-3.8-5.4l12.5-12.3h10L510,1274.5z M499.6,1346.9h-14.2v-64.5
			h14.2V1346.9z"/>
		<path class="st0" d="M584.2,1293.9h-19.3v52.9h-14.3v-52.9h-19.3v-11.6h52.8L584.2,1293.9L584.2,1293.9z"/>
		<path class="st0" d="M659.1,1335.7l0.7,10.5c-5.9,0.6-15.8,0.9-29.9,0.9c-4.3,0-7.7-1.2-10.3-3.5c-2.6-2.3-3.9-5.5-3.9-9.5V1295
			c0.1-4,1.4-7.1,3.9-9.5c2.6-2.3,6-3.5,10.3-3.5c14.1,0,24.1,0.3,29.9,0.9l-0.7,10.6h-24.8c-1.6,0-2.7,0.4-3.4,1.1
			c-0.7,0.8-1,2-1,3.7v9.8h25.7v10.3h-25.7v12.4c0,1.7,0.3,3,1,3.7c0.7,0.7,1.8,1.1,3.4,1.1L659.1,1335.7L659.1,1335.7z"/>
		<path class="st0" d="M772,1329.9h-22.2l-4.7,16.9h-14.6l18.6-60.8c0.3-1.1,0.8-2,1.8-2.7c0.9-0.7,2-1,3.2-1h13.5
			c2.7,0,4.3,1.2,5,3.7l18.6,60.8h-14.5L772,1329.9z M763.6,1279.3l-21-10.2l6.2-9.6l18.9,13.9L763.6,1279.3z M768.9,1318.9
			l-5.4-19.7c-0.8-3.1-1.2-5.2-1.3-6.1h-2.5c-0.1,0.6-0.3,1.6-0.7,3c-0.3,1.4-0.6,2.4-0.7,3.1l-5.4,19.7H768.9z"/>
		<path class="st0" d="M909.2,1334.8l1.2,10.6c-5.6,1.7-12.5,2.6-20.7,2.6c-10,0-17-2.5-21-7.5c-4.1-5-6.1-13.6-6.1-25.9
			c0-12.3,2-20.9,6.1-25.9s11.1-7.5,21-7.5c7.2,0,13.7,0.7,19.3,2.2l-1.2,10.7c-5-0.3-11.1-0.5-18.1-0.5c-4.7,0-7.9,1.5-9.6,4.4
			c-1.7,3-2.6,8.5-2.6,16.6c0,8.1,0.9,13.6,2.6,16.6c1.7,3,4.9,4.4,9.6,4.4C898.4,1335.6,904.9,1335.4,909.2,1334.8z"/>
		<path class="st0" d="M993.8,1282.4v64.5h-14.2v-28.8h-22.8v28.8h-14.2v-64.5h14.2v24.6h22.8v-24.7L993.8,1282.4L993.8,1282.4z"/>
		<path class="st0" d="M1066.1,1329.9H1044l-4.7,16.9h-14.6l18.6-60.8c0.2-1.1,0.8-2,1.8-2.7c0.9-0.7,2-1,3.2-1h13.5
			c2.7,0,4.3,1.2,5,3.7l18.6,60.8h-14.5L1066.1,1329.9z M1063.1,1318.9l-5.4-19.7c-0.8-3.1-1.2-5.2-1.3-6.1h-2.5
			c-0.1,0.6-0.3,1.6-0.7,3c-0.3,1.4-0.6,2.4-0.7,3.1l-5.4,19.7H1063.1z"/>
		<path class="st0" d="M1170.7,1282.4v59.4c0,3.4-1.7,5.1-5,5.1h-8.9c-1.4,0-2.6-0.3-3.4-1s-1.6-1.7-2.3-3.2l-16.9-34.4
			c-2.1-4.5-3.4-7.9-3.9-10h-1c0.4,3.1,0.7,6.5,0.7,10.3v38.3h-13.6v-59.4c0-3.4,1.7-5.1,5.1-5.1h8.7c1.4,0,2.5,0.3,3.4,1
			c0.8,0.7,1.6,1.7,2.3,3.2l16.4,33.4c1.5,3.1,3.1,6.6,4.7,10.4h0.9c-0.4-4.9-0.6-8.5-0.6-10.8v-37.1L1170.7,1282.4L1170.7,1282.4z"
			/>
		<path class="st0" d="M1230.4,1322.5l-13-4.6c-4.8-1.7-8.2-4.1-10.3-7.1c-2.1-3-3.1-6.9-3.1-11.8c0-7.1,1.7-11.9,5.2-14.3
			s9.6-3.6,18.3-3.6c8.2,0,15.3,0.8,21.2,2.5l-0.9,9.7c-5.4-0.2-12.2-0.3-20.2-0.3c-3.7,0-6.2,0.3-7.5,1s-1.9,2.3-1.9,4.9
			c0,2.1,0.5,3.6,1.4,4.6c0.9,0.9,2.7,1.8,5.3,2.7l12.2,4.2c5,1.7,8.5,4.1,10.6,7.2c2.1,3,3.1,7,3.1,11.8c0,7.2-1.8,12.1-5.2,14.7
			c-3.5,2.6-9.7,3.9-18.7,3.9c-7.3,0-14.7-0.8-22.2-2.4l0.8-10.3c13.3,0.3,20.4,0.5,21.3,0.5c3.8,0,6.3-0.4,7.6-1.2
			c1.3-0.8,1.9-2.5,1.9-5c0-2.2-0.4-3.7-1.3-4.6C1234.3,1324,1232.7,1323.2,1230.4,1322.5z"/>
		<path class="st0" d="M1288.2,1288.3c4-4.8,11.2-7.1,21.5-7.1s17.5,2.4,21.6,7.1c4.1,4.8,6.1,13.5,6.1,26.3s-2,21.5-6.1,26.3
			c-4,4.8-11.2,7.2-21.6,7.2c-10.3,0-17.5-2.4-21.5-7.2c-4-4.8-6-13.5-6-26.3S1284.2,1293.1,1288.2,1288.3z M1319.7,1297.2
			c-1.8-3-5.1-4.6-9.9-4.6c-4.9,0-8.2,1.5-10,4.6c-1.8,3.1-2.7,8.8-2.7,17.4c0,8.5,0.9,14.3,2.7,17.4c1.8,3.1,5.1,4.6,10,4.6
			s8.2-1.5,9.9-4.6c1.8-3,2.7-8.8,2.7-17.4C1322.4,1306.1,1321.5,1300.3,1319.7,1297.2z"/>
		<path class="st0" d="M1425.7,1282.4v59.4c0,3.4-1.7,5.1-5,5.1h-8.9c-1.4,0-2.6-0.3-3.4-1s-1.6-1.7-2.3-3.2l-16.9-34.4
			c-2.1-4.5-3.4-7.9-3.9-10h-1c0.4,3.1,0.7,6.5,0.7,10.3v38.3h-13.6v-59.4c0-3.4,1.7-5.1,5.1-5.1h8.7c1.4,0,2.6,0.3,3.4,1
			c0.8,0.7,1.6,1.7,2.3,3.2l16.4,33.4c1.6,3.1,3.1,6.6,4.7,10.4h0.9c-0.4-4.9-0.6-8.5-0.6-10.8v-37.1L1425.7,1282.4L1425.7,1282.4z"
			/>
		<path class="st0" d="M1485.4,1322.5l-13-4.6c-4.8-1.7-8.2-4.1-10.3-7.1c-2.1-3-3.1-6.9-3.1-11.8c0-7.1,1.7-11.9,5.2-14.3
			s9.6-3.6,18.3-3.6c8.2,0,15.3,0.8,21.2,2.5l-0.9,9.7c-5.4-0.2-12.2-0.3-20.2-0.3c-3.7,0-6.2,0.3-7.5,1c-1.2,0.7-1.9,2.3-1.9,4.9
			c0,2.1,0.5,3.6,1.4,4.6c0.9,0.9,2.7,1.8,5.3,2.7l12.2,4.2c5,1.7,8.5,4.1,10.6,7.2c2.1,3,3.1,7,3.1,11.8c0,7.2-1.8,12.1-5.2,14.7
			c-3.5,2.6-9.7,3.9-18.7,3.9c-7.3,0-14.7-0.8-22.1-2.4l0.8-10.3c13.3,0.3,20.4,0.5,21.3,0.5c3.8,0,6.4-0.4,7.6-1.2
			c1.3-0.8,1.9-2.5,1.9-5c0-2.2-0.5-3.7-1.3-4.6C1489.3,1324,1487.8,1323.2,1485.4,1322.5z"/>
	</g>
</g>
</svg>
