<svg xmlns="http://www.w3.org/2000/svg" viewBox="0 0 720 720"><defs><style>.cls-1{fill:#120f0c;}.cls-2,.cls-3{fill:#fff;}.cls-3{font-size:14.9px;font-family:Antonio-Bold, Antonio Bold;font-weight:700;}</style></defs><title>shaker-enAsset 1</title><g id="Layer_2" data-name="Layer 2"><g id="Calque_1" data-name="Calque 1"><rect class="cls-1" width="720" height="720"/><path class="cls-2" d="M134.36,472v-13.1h21.21v14.77q0,12.27,2.09,17.24t7.84,5q5.76,0,7.64-4.09T175,478.42a36.56,36.56,0,0,0-3.34-16.15,57.51,57.51,0,0,0-10.6-14.4l-10.86-11.19a66.81,66.81,0,0,1-11.81-16.45,43.83,43.83,0,0,1-4.21-19.7q0-18.19,7-27t24.13-8.85q17.1,0,23.16,10.31T194.55,405v9.1H173.93V403.62q0-10.68-1.83-15.32T165,383.67q-5.22,0-7.51,3.51t-2.29,10.52q0,7,2.33,11.18A60.35,60.35,0,0,0,166,419.57l12.11,13.1a77.23,77.23,0,0,1,13.73,20,52.18,52.18,0,0,1,4.64,22q0,20.63-6.93,30.47T165.29,515q-17.32,0-24.12-11T134.36,472Z"/><path class="cls-2" d="M210.41,513.32V366.39h22.37v62h20v-62h22.37V513.32H252.82v-66h-20v66Z"/><path class="cls-2" d="M288.69,513.32l20.95-146.93h29.55l22.29,146.93H340.61l-3.5-26.22H313.4l-3.17,26.22Zm46.08-44.17-9.85-73.79h-.34l-9,73.79Z"/><path class="cls-2" d="M375,513.32V366.39h22.37V434l22.37-67.62h23.13l-24.38,72.46,26.3,74.47H421.16l-23.62-68.63v68.63Z"/><path class="cls-2" d="M456.38,513.32V366.39h49.26v19.28H478.76v42.75H504.3v18.86H478.76V494h27.88v19.29Z"/><path class="cls-2" d="M550.82,444.28l-7.17-.34v69.38H521.27V366.39h37q11.52,0,17.2,4.63A22,22,0,0,1,582.92,384q1.8,8.31,1.8,21.71t-2.84,20.41a15.83,15.83,0,0,1-10.52,9.43q7.59,1.33,10.6,10.27T585,483q0,28.26.83,30.35H563.43q-.84-1.68-.83-52.68c0-6.51-.79-10.84-2.34-13S555.56,444.39,550.82,444.28Zm-7.09-17.7h8.93q4.26,0,6.3-1.92c1.37-1.28,2.31-3.48,2.84-6.6a92.81,92.81,0,0,0,.8-14.27v-.92q0-11.94-2-15.61t-9.26-3.67h-7.6Z"/><path class="cls-2" d="M172.61,575.28V547.59h4.22v12.74L181,547.59h4.36l-4.59,13.66,4.95,14h-4.45l-4.45-12.93v12.93Z"/><path class="cls-2" d="M196.36,575.28V547.59h4.21v27.69Z"/><path class="cls-2" d="M214.54,575.28v-24H211.3v-3.65h10.55v3.65h-3.11v24Z"/><path class="cls-2" d="M242.71,573.67a5.23,5.23,0,0,1-4.5,1.92,5.32,5.32,0,0,1-4.58-2.05,9.77,9.77,0,0,1-1.52-5.91V555.57q0-6.18,3.24-7.73a6.68,6.68,0,0,1,2.89-.56q5.83,0,5.84,7.36v3.81H240v-3.54a9.13,9.13,0,0,0-.37-3.06,1.37,1.37,0,0,0-1.41-.92,1.47,1.47,0,0,0-1.47,1,8.3,8.3,0,0,0-.4,3v12.93a9.33,9.33,0,0,0,.39,3.2,1.54,1.54,0,0,0,2.86,0,9.41,9.41,0,0,0,.4-3.22v-4h4.13v3.92C244.14,570.4,243.67,572.38,242.71,573.67Z"/><path class="cls-2" d="M255.33,575.28V547.59h4.21v11.2h3.78v-11.2h4.21v27.69h-4.21V562.41h-3.78v12.87Z"/><path class="cls-2" d="M279.14,575.28V547.59h9.28v3.64h-5.07v8h4.82v3.56h-4.82v8.81h5.26v3.63Z"/><path class="cls-2" d="M299.76,575.28V547.59h3.3l5.87,16.61-.3-7.55v-9.06h3.79v27.69h-3l-6-17.2.24,7.27v9.93Z"/><path class="cls-2" d="M341.26,560.65q-2.25-5.82-2.25-8.17a5.27,5.27,0,0,1,1.37-3.78,5,5,0,0,1,3.78-1.44,4.65,4.65,0,0,1,3.65,1.4,5.37,5.37,0,0,1,1.26,3.74,9.31,9.31,0,0,1-1,4.24,24.67,24.67,0,0,1-2.72,4.13q.67,1.79,2,5.05a34.05,34.05,0,0,1,3-4.29l1.72,2.89a24.24,24.24,0,0,0-3,4.71l-.18.34c.39.95.88,2.08,1.45,3.4s.92,2.13,1,2.41h-3.9c-.14-.34-.44-1-.9-2a5.76,5.76,0,0,1-4.52,2.36,4.74,4.74,0,0,1-3.89-1.62,6.52,6.52,0,0,1-1.34-4.29,9.08,9.08,0,0,1,1.26-4.76A31.66,31.66,0,0,1,341.26,560.65Zm1.43,3.52c-1.49,2-2.23,3.66-2.23,5a3.88,3.88,0,0,0,2.19,2.81,1.83,1.83,0,0,0,1.24-.53,7.68,7.68,0,0,0,1.24-1.62Q343.89,567,342.69,564.17Zm1.39-6.89q2.07-2.68,2.07-4.62a4.1,4.1,0,0,0-.34-2,1.32,1.32,0,0,0-1.24-.58c-1.16,0-1.73.83-1.73,2.5A18.27,18.27,0,0,0,344.08,557.28Z"/><path class="cls-2" d="M375.61,575.28V547.59h5.24l3.93,20.23,3.7-20.23h5.27v27.69H390V565l.16-9.47-3.73,19.66h-3.35l-3.89-19.66.16,9.47v10.32Z"/><path class="cls-2" d="M405.43,575.28V547.59h4.22v27.69Z"/><path class="cls-2" d="M429.68,575.28l-2.81-8.51-2.28,8.51h-4.08l4.27-14.85-4.25-12.84h3.55l2.76,8.23,2.21-8.23H433l-4.18,14.18,4.51,13.51Z"/><path class="cls-2" d="M453.92,573.6a5.31,5.31,0,0,1-4.63,2,5.42,5.42,0,0,1-4.67-2c-1-1.34-1.49-3.35-1.49-6.05V554.87q0-7.61,6.22-7.61,3.21,0,4.61,1.94a9.56,9.56,0,0,1,1.41,5.67v12.67C455.37,570.25,454.89,572.26,453.92,573.6ZM447.75,571a1.47,1.47,0,0,0,1.52,1,1.45,1.45,0,0,0,1.51-1,10.92,10.92,0,0,0,.36-3.37v-12.9a8.16,8.16,0,0,0-.37-2.88,1.42,1.42,0,0,0-1.45-.9,1.54,1.54,0,0,0-1.51.9,7,7,0,0,0-.43,2.86v12.92A10.59,10.59,0,0,0,447.75,571Z"/><path class="cls-2" d="M466.78,575.28V547.59H471v24.1h5.33v3.59Z"/><path class="cls-2" d="M497.44,573.6a5.34,5.34,0,0,1-4.64,2,5.42,5.42,0,0,1-4.67-2c-1-1.34-1.48-3.35-1.48-6.05V554.87q0-7.61,6.21-7.61,3.21,0,4.62,1.94a9.56,9.56,0,0,1,1.41,5.67v12.67C498.89,570.25,498.4,572.26,497.44,573.6ZM491.26,571a1.48,1.48,0,0,0,1.52,1,1.44,1.44,0,0,0,1.51-1,10.92,10.92,0,0,0,.36-3.37v-12.9a8.16,8.16,0,0,0-.37-2.88,1.41,1.41,0,0,0-1.44-.9,1.53,1.53,0,0,0-1.51.9,7,7,0,0,0-.44,2.86v12.92A10.9,10.9,0,0,0,491.26,571Z"/><path class="cls-2" d="M515.65,575.56a4.73,4.73,0,0,1-4.08-2c-1-1.37-1.48-3.48-1.48-6.33v-12a9.67,9.67,0,0,1,1.51-5.85,5.56,5.56,0,0,1,4.77-2c2.72,0,4.44,1,5.18,3a15.15,15.15,0,0,1,.66,5v2h-3.93v-2.9a6.19,6.19,0,0,0-.41-2.67,1.52,1.52,0,0,0-1.51-.77,1.58,1.58,0,0,0-1.56.92,8,8,0,0,0-.46,3.26v12a12.13,12.13,0,0,0,.41,3.8,1.57,1.57,0,0,0,1.6,1.07,1.72,1.72,0,0,0,1.68-1.15,10.72,10.72,0,0,0,.5-3.87v-3.73H516.4v-3.07h5.81v15.12h-1.89l-.64-2.72a3.66,3.66,0,0,1-1.45,2.2A4.29,4.29,0,0,1,515.65,575.56Z"/><path class="cls-2" d="M536.73,575.28V564.22l-4.64-16.63h4l2.74,10.35h.06l2.44-10.35h4L541,564.22v11.06Z"/><polygon class="cls-2" points="432.68 240.1 435.29 222.75 440.64 222.75 440.64 247.2 437.01 247.2 437.01 229.66 434.35 247.2 430.72 247.2 427.86 229.91 427.86 247.2 424.5 247.2 424.5 222.75 429.85 222.75 432.68 240.1"/><path class="cls-2" d="M360.83,155.74c3.74,0,5.66,2.23,5.66,6.14v.77h-3.63v-1c0-1.74-.7-2.41-1.93-2.41s-1.92.67-1.92,2.41c0,5,7.52,6,7.52,13,0,3.91-2,6.15-5.74,6.15s-5.72-2.24-5.72-6.15v-1.5h3.63v1.74c0,1.75.77,2.38,2,2.38s2-.63,2-2.38c0-5-7.51-6-7.51-13,0-3.91,1.93-6.14,5.66-6.14"/><path class="cls-2" d="M337.59,253.37a10.8,10.8,0,0,0-5.86,6.25,6.38,6.38,0,0,1-2.28,1.93c-1.42.46-4.78,1.61-6.9,6.62a6.12,6.12,0,0,1-2.28,1.93c-1.39.46-4.66,1.56-6.79,6.37a16.34,16.34,0,0,1-1.2,1.4,3.63,3.63,0,0,1-1.18.79,10.22,10.22,0,0,0-3.94,2.23c-.23.19-.46.43-.69.66a10.21,10.21,0,0,0-2.79,4c-.72,1.78-5.37,4.17-5.37,4.17h0l-10.64,9.92c-3.11.91-12.29,6.72-12.4,6.82l-4.94,3.45c-.94.88,0,3.42,2.09,5.66l.76.82c2.09,2.23,4.56,3.35,5.5,2.47l3.78-4.69c.07-.06,7-9,8-11.79L301,292.57a6,6,0,0,0,1.9-3.55h0a22.09,22.09,0,0,0,6.68-3.83l.14-.11.05,0s0,0,0,0l.13-.15,0,0,.18-.13a22,22,0,0,0,4.44-6.53,8.7,8.7,0,0,0,4.73-2,21.61,21.61,0,0,0,4.44-6.53,8.7,8.7,0,0,0,4.74-2,22.24,22.24,0,0,0,4.44-6.53,8.7,8.7,0,0,0,4.73-2,18.33,18.33,0,0,0,2.52-3.08C339.32,255.13,338.48,254.28,337.59,253.37Z"/><path class="cls-2" d="M369.36,227.17a9.47,9.47,0,0,0,4.86-2.26,18.6,18.6,0,0,0,3.06-3.87.56.56,0,0,0,.05-.08c.16-.26.32-.52.47-.79s.14-.27.22-.4l.25-.48c.18-.34.34-.68.49-1a8.75,8.75,0,0,0,4.73-2,21.86,21.86,0,0,0,4.44-6.53,8.67,8.67,0,0,0,4.73-2,21.78,21.78,0,0,0,4.5-6.61h0a6,6,0,0,0,3.67-1.66l11.38-10.6a28.69,28.69,0,0,1,4.66-2c7.23-2.39,20.32-5.07,26.66-10.34,5.22-4.33,10.36-13,2.39-21.67h0l0-.05s0,0,0,0h0c-8.07-8.55-17.1-4-21.78.87-5.71,6-9.3,18.83-12.18,25.88a30.15,30.15,0,0,1-2.22,4.39l-11.47,10.7h0s-2.7,4.48-4.53,5.07c-1.41.46-4.76,1.61-6.88,6.63a6.17,6.17,0,0,1-2.29,1.92c-1.41.47-4.77,1.62-6.89,6.63a6.29,6.29,0,0,1-2.28,1.93,10.27,10.27,0,0,0-3.55,1.94,12.16,12.16,0,0,0-3.44,4.77l-.29.34Z"/><path class="cls-2" d="M362.57,224.12c-19-21.37-82.34-75.57-89.95-77.43,0,0,7.33,43.37,81.25,119.12l9.77-7.33s8.56-4.28,12.83,0,20.14,32.09,37.26,41.54c13.65,7.53,7.95,14.05,7.95,14.05s2.94,6.23,8.46,8.3c0,0,7.93,1.73,17.24-15.85,0,0-65.85-61-84.81-82.4m-7.93,35.17a3.11,3.11,0,1,1,3.1-3.1,3.1,3.1,0,0,1-3.1,3.1m85.16,51.36a3.1,3.1,0,1,1,3.1-3.1,3.1,3.1,0,0,1-3.1,3.1"/><path class="cls-2" d="M369.42,310.83l8.67-7.49s-1.37-.61-2-1-.22-1.18-.22-1.18l1.56-5.63s-4,.95-5,1.18-1.06-.49-1.06-.49l-.61-2.51-4,4.79s-.65.49-1.07.34-.3-1-.3-1l1.75-9.85s-.65.3-2.13,1.1-1.83-.34-1.83-.34l-3.12-6-3.12,6s-.34,1.14-1.82.34-2.13-1.1-2.13-1.1l1.75,9.85s.11.8-.31,1-1.06-.34-1.06-.34l-4-4.79-.61,2.51s0,.72-1.07.49-5-1.18-5-1.18l1.56,5.63s.38.8-.23,1.18-2,1-2,1l8.68,7.49s.61.27.22,1.45-.68,2.43-.68,2.43l8.75-1.14s.57-.15.57.84-.38,9.24-.38,9.24h1.75s-.38-8.25-.38-9.24.57-.84.57-.84l8.75,1.14s-.31-1.25-.69-2.43S369.42,310.83,369.42,310.83Z"/><path class="cls-2" d="M290.35,237.64v3.27c0,3.94-2,6.19-5.76,6.19s-5.77-2.25-5.77-6.19V228.12c0-3.94,2-6.19,5.77-6.19s5.76,2.25,5.76,6.19v2.39H286.7v-2.64c0-1.76-.78-2.43-2-2.43s-2,.67-2,2.43v13.29c0,1.76.78,2.39,2,2.39s2-.63,2-2.39v-3.52Z"/><text class="cls-3" transform="translate(595.81 513.53)">TM</text></g></g></svg>