<?xml version="1.0" encoding="utf-8"?>
<!-- Generator: Adobe Illustrator 19.0.0, SVG Export Plug-In . SVG Version: 6.00 Build 0)  -->
<svg version="1.1" id="Calque_1" xmlns="http://www.w3.org/2000/svg" xmlns:xlink="http://www.w3.org/1999/xlink" x="0px" y="0px"
	 viewBox="0 0 503.8 576" style="enable-background:new 0 0 503.8 576;" xml:space="preserve">
<style type="text/css">
	.st0{fill:#FF5000;}
	.st1{fill:#FFFFFF;}
</style>
<g>
	<path d="M157.6,99.4v-9.6h28.8v-9.6H80.4v9.6h48.2v125.1h9.8V89.8h9.6v134.7h-29V99.4H71.1V70.6h124.8v28.8H157.6z"/>
	<path d="M275.7,224.5l-13.1-38.6h-46.1l-13.3,38.6h-30.9l52.4-153.8h30.6l-10.8,32.5l22,63.6h-54.2l16.6-48.6l5.4,15.7l-8.4,23.4
		h26.9l-18.5-54.2l7.7-22.7h-10.3l-46.3,134.7h10.3l13.3-38.6h60.6l13.1,38.6H293l-38.1-111.7l5.4-15.4l46.5,136.8H275.7z"/>
	<path d="M400.8,224.5l-38.6-67.3h-19.2v67.3h-28.8V70.6H377c18.5,0,33.4,15,33.4,33.2c0,18.2-14.3,34.1-32.7,34.1h-44.2V89.8h36
		c14.3,0,21.7,3.3,21.7,19.2h-1.2c0-8.6-7.7-9.6-14.5-9.6h-32.5v29h35.1c13.3,0,22.7-11.9,22.7-24.5c0-12.9-10.5-23.6-23.4-23.6
		h-53.5v134.7h9.6v-67.3h33.4l38.6,67.3h11.2l-38.6-67.3c21.3,0,40.9-15.9,40.9-38.1h0.9c0,19.2-6.8,38.8-26.7,45.1l39.7,69.9H400.8
		z"/>
	<path d="M157.6,268.7v-9.6h28.8v-9.6H80.4v9.6h48.2v125.1h9.8V259.1h9.6v134.7h-29V268.7H71.1v-28.8h124.8v28.8H157.6z"/>
	<path d="M275.7,393.8l-13.1-38.6h-46.1l-13.3,38.6h-30.9l52.4-153.8h30.6l-10.8,32.5l22,63.6h-54.2l16.6-48.6l5.4,15.7l-8.4,23.4
		h26.9l-18.5-54.2l7.7-22.7h-10.3l-46.3,134.7h10.3l13.3-38.6h60.6l13.1,38.6H293l-38.1-111.7l5.4-15.4l46.5,136.8H275.7z"/>
	<path d="M400.8,393.8l-38.6-67.3h-19.2v67.3h-28.8V239.9H377c18.5,0,33.4,15,33.4,33.2c0,18.2-14.3,34.1-32.7,34.1h-44.2v-48.2h36
		c14.3,0,21.7,3.3,21.7,19.2h-1.2c0-8.6-7.7-9.6-14.5-9.6h-32.5v29h35.1c13.3,0,22.7-11.9,22.7-24.5c0-12.9-10.5-23.6-23.4-23.6
		h-53.5v134.7h9.6v-67.3h33.4l38.6,67.3h11.2l-38.6-67.3c21.3,0,40.9-15.9,40.9-38.1h0.9c0,19.2-6.8,38.8-26.7,45.1l39.7,69.9H400.8
		z"/>
</g>
<g>
	<path d="M75.5,485.5h-4.5v-1.9h11.2v1.9h-4.6V499h-2.1V485.5z"/>
	<path d="M92.4,494.8h-6.1l-1.4,4.2h-2.2l5.4-15.4h2.7l5.4,15.4h-2.3L92.4,494.8z M91.8,492.8l-2.4-7.2l-2.4,7.2H91.8z"/>
	<path d="M111.2,499h-2.3l-3.2-6.1H102v6.1h-2.1v-15.4h7.7c2.1,0,3.1,1,3.1,3.1v3.2c0,1.9-0.9,2.9-2.7,3.1L111.2,499z M107.3,491
		c0.9,0,1.2-0.3,1.2-1.2v-3.1c0-0.9-0.3-1.2-1.2-1.2H102v5.5H107.3z"/>
	<path d="M118.8,485.5h-4.5v-1.9h11.2v1.9h-4.6V499h-2.1V485.5z"/>
	<path d="M135.7,494.8h-6.1l-1.4,4.2H126l5.4-15.4h2.7l5.4,15.4h-2.3L135.7,494.8z M135.1,492.8l-2.4-7.2l-2.4,7.2H135.1z"/>
	<path d="M154.4,499h-2.3l-3.2-6.1h-3.7v6.1h-2.1v-15.4h7.7c2.1,0,3.1,1,3.1,3.1v3.2c0,1.9-0.9,2.9-2.7,3.1L154.4,499z M150.6,491
		c0.9,0,1.2-0.3,1.2-1.2v-3.1c0-0.9-0.3-1.2-1.2-1.2h-5.4v5.5H150.6z"/>
	<path d="M158.4,483.5h10v1.9h-7.9v4.6h6.5v1.9h-6.5v5h7.9v1.9h-10V483.5z"/>
	<path d="M172,495.9v-1.7h2.1v1.7c0,0.9,0.3,1.2,1.2,1.2h4.3c0.9,0,1.2-0.3,1.2-1.2v-1.9c0-0.9-0.4-1.2-1.3-1.5l-4.2-0.9
		c-1.8-0.4-3.2-0.9-3.2-3.2v-1.9c0-2.1,1-3.1,3.1-3.1h4.4c2.1,0,3.1,1,3.1,3.1v1.5h-2.1v-1.5c0-0.9-0.3-1.2-1.2-1.2h-4
		c-0.9,0-1.2,0.3-1.2,1.2v1.6c0,0.9,0.4,1.2,1.3,1.4l4.3,1c1.8,0.4,3.2,0.9,3.2,3.2v2.1c0,2.1-1,3.1-3.1,3.1h-4.7
		C173,499,172,498,172,495.9z"/>
	<path d="M193.3,474.7h1.1v30.9h-1.1V474.7z"/>
	<path d="M207.8,485.5h-4.5v-1.9h11.2v1.9h-4.6V499h-2.1V485.5z"/>
	<path d="M224.8,494.8h-6.1l-1.4,4.2H215l5.4-15.4h2.7l5.4,15.4h-2.3L224.8,494.8z M224.1,492.8l-2.4-7.2l-2.4,7.2H224.1z"/>
	<path d="M233.6,485.5h-4.5v-1.9h11.2v1.9h-4.6V499h-2.1V485.5z"/>
	<path d="M250.6,494.8h-6.1l-1.4,4.2h-2.2l5.4-15.4h2.7l5.4,15.4H252L250.6,494.8z M249.9,492.8l-2.4-7.2l-2.4,7.2H249.9z"/>
	<path d="M267.7,499l-4.7-7.6l-3,3.4v4.2H258v-15.4h2.1v8.4l7.1-8.4h2.5l-5.3,6.2l5.7,9.3H267.7z"/>
	<path d="M273.6,483.5h2.1V499h-2.1V483.5z"/>
	<path d="M279.8,495.9v-1.7h2.1v1.7c0,0.9,0.3,1.2,1.2,1.2h4.3c0.9,0,1.2-0.3,1.2-1.2v-1.9c0-0.9-0.4-1.2-1.3-1.5l-4.2-0.9
		c-1.8-0.4-3.2-0.9-3.2-3.2v-1.9c0-2.1,1-3.1,3.1-3.1h4.4c2.1,0,3.1,1,3.1,3.1v1.5h-2.1v-1.5c0-0.9-0.3-1.2-1.2-1.2h-4
		c-0.9,0-1.2,0.3-1.2,1.2v1.6c0,0.9,0.4,1.2,1.3,1.4l4.3,1c1.8,0.4,3.2,0.9,3.2,3.2v2.1c0,2.1-1,3.1-3.1,3.1h-4.7
		C280.8,499,279.8,498,279.8,495.9z"/>
	<path d="M301,474.7h1.1v30.9H301V474.7z"/>
	<path d="M312.3,483.5h7.8c2,0,3.1,1.1,3.1,3.1v3.5c0,2-1.1,3.1-3.1,3.1h-5.6v5.7h-2.1V483.5z M319.8,491.3c0.8,0,1.2-0.4,1.2-1.2
		v-3.4c0-0.8-0.4-1.2-1.2-1.2h-5.4v5.8H319.8z"/>
	<path d="M326.9,495.9v-9.3c0-2.1,1-3.1,3.1-3.1h5.1c2.1,0,3.1,1,3.1,3.1v9.3c0,2.1-1,3.1-3.1,3.1H330
		C327.9,499,326.9,498,326.9,495.9z M334.9,497c0.9,0,1.2-0.3,1.2-1.2v-9.1c0-0.9-0.3-1.2-1.2-1.2h-4.7c-0.9,0-1.2,0.3-1.2,1.2v9.1
		c0,0.9,0.3,1.2,1.2,1.2H334.9z"/>
	<path d="M352.2,499l-4.7-7.6l-3,3.4v4.2h-2.1v-15.4h2.1v8.4l7.1-8.4h2.5l-5.3,6.2l5.7,9.3H352.2z"/>
	<path d="M358.1,483.5h10v1.9h-7.9v4.6h6.5v1.9h-6.5v5h7.9v1.9h-10V483.5z"/>
	<path d="M379.1,483.5h7.7c2.1,0,3.1,1,3.1,3.1v2.1c0,1.2-0.5,1.9-1.4,2.3c1.1,0.4,1.6,1.1,1.6,2.4v2.4c0,2.1-1,3.1-3.1,3.1h-7.8
		V483.5z M386.5,490.1c0.9,0,1.2-0.3,1.2-1.2v-2.3c0-0.9-0.3-1.2-1.2-1.2h-5.3v4.7H386.5z M386.7,497.1c0.9,0,1.2-0.3,1.2-1.2v-2.6
		c0-0.9-0.3-1.2-1.2-1.2h-5.5v5H386.7z"/>
	<path d="M393.9,495.9v-9.3c0-2.1,1-3.1,3.1-3.1h5.1c2.1,0,3.1,1,3.1,3.1v9.3c0,2.1-1,3.1-3.1,3.1H397
		C394.9,499,393.9,498,393.9,495.9z M401.9,497c0.9,0,1.2-0.3,1.2-1.2v-9.1c0-0.9-0.3-1.2-1.2-1.2h-4.7c-0.9,0-1.2,0.3-1.2,1.2v9.1
		c0,0.9,0.3,1.2,1.2,1.2H401.9z"/>
	<path d="M409.4,483.5h2.1V497h7.3v1.9h-9.4V483.5z"/>
	<path d="M422.3,495.9v-1.7h2.1v1.7c0,0.9,0.3,1.2,1.2,1.2h4.3c0.9,0,1.2-0.3,1.2-1.2v-1.9c0-0.9-0.4-1.2-1.3-1.5l-4.2-0.9
		c-1.8-0.4-3.2-0.9-3.2-3.2v-1.9c0-2.1,1-3.1,3.1-3.1h4.4c2.1,0,3.1,1,3.1,3.1v1.5h-2.1v-1.5c0-0.9-0.3-1.2-1.2-1.2h-4
		c-0.9,0-1.2,0.3-1.2,1.2v1.6c0,0.9,0.4,1.2,1.3,1.4l4.3,1c1.8,0.4,3.2,0.9,3.2,3.2v2.1c0,2.1-1,3.1-3.1,3.1h-4.7
		C423.3,499,422.3,498,422.3,495.9z"/>
</g>
<rect x="71.1" y="414.6" class="st0" width="362" height="47.3"/>
<g>
	<path class="st1" d="M113.1,430.1c-0.1-0.6-0.4-1.1-0.7-1.5c-0.4-0.4-0.8-0.8-1.3-1.1c-0.5-0.3-1.1-0.5-1.7-0.7
		c-0.6-0.2-1.2-0.2-1.8-0.2c-1,0-1.9,0.1-2.6,0.3c-0.8,0.2-1.4,0.5-1.9,0.9c-0.5,0.4-0.9,0.9-1.1,1.4c-0.3,0.5-0.4,1.1-0.4,1.7
		c0,0.9,0.2,1.6,0.5,2.1s0.7,1,1.2,1.3c0.5,0.3,1,0.6,1.6,0.8c0.6,0.2,1.1,0.4,1.7,0.5l4,1.3c1.2,0.4,2.2,0.8,3.2,1.3
		c0.9,0.5,1.7,1.1,2.3,1.7c0.6,0.7,1.1,1.4,1.4,2.3c0.3,0.9,0.5,1.9,0.5,3c0,1.2-0.3,2.4-0.8,3.4s-1.2,2-2.1,2.8
		c-0.9,0.8-2,1.4-3.3,1.8c-1.3,0.4-2.6,0.7-4.1,0.7c-1.5,0-2.9-0.2-4-0.5c-1.1-0.3-2-0.8-2.8-1.4c-0.7-0.6-1.3-1.3-1.8-2
		c-0.4-0.8-0.8-1.5-1-2.3h-1.5v-3.4h5v1c0,0.8,0.2,1.5,0.5,2.1c0.3,0.6,0.7,1.1,1.3,1.5c0.6,0.4,1.2,0.7,2,0.9
		c0.8,0.2,1.6,0.3,2.5,0.3c0.9,0,1.7-0.1,2.4-0.3c0.7-0.2,1.3-0.5,1.8-0.9c0.5-0.4,0.9-0.9,1.2-1.5c0.3-0.6,0.4-1.2,0.4-1.9
		c0-0.8-0.2-1.5-0.5-2.1c-0.3-0.6-0.8-1-1.3-1.4c-0.5-0.4-1.1-0.7-1.7-1c-0.6-0.3-1.2-0.5-1.8-0.6l-4.3-1.2c-1-0.3-1.8-0.6-2.6-1.1
		c-0.8-0.4-1.5-1-2-1.6c-0.6-0.7-1-1.4-1.3-2.3c-0.3-0.9-0.5-1.9-0.5-3c0-1.1,0.2-2.2,0.7-3.2c0.4-1,1.1-1.9,2-2.6
		c0.9-0.8,1.9-1.3,3.2-1.8c1.3-0.4,2.7-0.6,4.3-0.6c1.1,0,2.1,0.1,3,0.4c0.9,0.3,1.7,0.6,2.5,1.1c0.7,0.5,1.4,1,1.9,1.6
		c0.6,0.6,1,1.3,1.4,2.1h1.5v3.4h-4.8V430.1z"/>
	<path class="st1" d="M150.6,449.9h2.7v-23.3h-6.8v4.7h-4.1v-7.9h26.7v7.9h-4.1v-4.7h-7.9v23.3h3.1v3.4h-9.7V449.9z"/>
	<path class="st1" d="M209,449.9h2.5l-2.4-6.8h-11.5l-2.3,6.8h3.1v3.4h-9.7v-3.4h2.6l9.4-26.6h5.8l9.3,26.6h3v3.4H209V449.9z
		 M198.7,439.8h9.3l-4.7-13.8L198.7,439.8z"/>
	<path class="st1" d="M246.7,449.9h2.7v-23.3h-6.8v4.7h-4.1v-7.9h26.7v7.9h-4.1v-4.7h-7.9v23.3h3.1v3.4h-9.7V449.9z"/>
	<path class="st1" d="M290.8,423.3h9.7v3.4h-3.1v23.2h3.1v3.4h-9.7v-3.4h2.8v-23.2h-2.7V423.3z"/>
	<path class="st1" d="M339.9,453.9c-1.4,0-2.8-0.2-4-0.6c-1.3-0.4-2.4-0.9-3.5-1.6c-1.1-0.7-2.1-1.5-2.9-2.4c-0.9-0.9-1.6-2-2.2-3.2
		c-0.6-1.2-1.1-2.4-1.4-3.7c-0.3-1.3-0.5-2.7-0.5-4.2c0-1.4,0.2-2.8,0.5-4.2c0.3-1.3,0.8-2.6,1.4-3.7c0.6-1.2,1.4-2.2,2.2-3.2
		c0.9-0.9,1.8-1.8,2.9-2.4c1.1-0.7,2.2-1.2,3.5-1.6c1.3-0.4,2.6-0.6,4-0.6c2.1,0,4.1,0.4,5.9,1.2c1.8,0.8,3.3,1.9,4.6,3.3
		c1.3,1.4,2.3,3.1,3,5c0.7,1.9,1.1,3.9,1.1,6.1c0,1.4-0.2,2.8-0.5,4.2c-0.3,1.3-0.8,2.6-1.4,3.7c-0.6,1.2-1.4,2.2-2.2,3.2
		c-0.9,0.9-1.8,1.8-2.9,2.4c-1.1,0.7-2.2,1.2-3.5,1.6C342.7,453.7,341.3,453.9,339.9,453.9z M339.9,450.1c1.6,0,3-0.3,4.3-1
		c1.3-0.6,2.4-1.5,3.3-2.6c0.9-1.1,1.6-2.3,2.1-3.8c0.5-1.4,0.8-2.9,0.8-4.5c0-1.6-0.3-3.1-0.8-4.5c-0.5-1.4-1.2-2.7-2.1-3.8
		c-0.9-1.1-2-2-3.3-2.6c-1.3-0.6-2.7-1-4.3-1c-1.6,0-3,0.3-4.3,1c-1.3,0.6-2.4,1.5-3.3,2.6c-0.9,1.1-1.6,2.4-2.1,3.8
		c-0.5,1.4-0.8,3-0.8,4.5c0,1.6,0.3,3.1,0.8,4.5c0.5,1.4,1.2,2.7,2.2,3.8c0.9,1.1,2,2,3.3,2.6C336.9,449.8,338.4,450.1,339.9,450.1z
		"/>
	<path class="st1" d="M397.9,423.3h9.7v3.4h-2.6v26.6H400l-13.9-24.9v21.5h3.1v3.4h-9.7v-3.4h2.8v-23.2h-2.7v-3.5h7.9l13.8,24.7
		v-21.3h-3.4V423.3z"/>
</g>
</svg>
