<?xml version="1.0" encoding="utf-8"?>
<!-- Generator: Adobe Illustrator 19.0.0, SVG Export Plug-In . SVG Version: 6.00 Build 0)  -->
<svg version="1.1" id="Calque_1" xmlns="http://www.w3.org/2000/svg" xmlns:xlink="http://www.w3.org/1999/xlink" x="0px" y="0px"
	 viewBox="-747 713 503.8 576" style="enable-background:new -747 713 503.8 576;" xml:space="preserve">
<style type="text/css">
	.st0{fill:#FFFFFF;}
	.st1{fill:#000;}
</style>
<g>
	<path class="st0" d="M-589.4,812.4v-9.6h28.8v-9.6h-106v9.6h48.2v125.1h9.8V802.8h9.6v134.7h-29V812.4h-47.9v-28.8h124.8v28.8
		C-551.1,812.4-589.4,812.4-589.4,812.4z"/>
	<path class="st0" d="M-471.3,937.5l-13.1-38.6h-46.1l-13.3,38.6h-30.9l52.4-153.8h30.6l-10.8,32.5l22,63.6h-54.2l16.6-48.6
		l5.4,15.7l-8.4,23.4h26.9l-18.5-54.2l7.7-22.7h-10.3l-46.3,134.7h10.3l13.3-38.6h60.6l13.1,38.6h10.3l-38.1-111.7l5.4-15.4
		l46.5,136.8h-31.1V937.5z"/>
	<path class="st0" d="M-346.2,937.5l-38.6-67.3H-404v67.3h-28.8V783.6h62.8c18.5,0,33.4,15,33.4,33.2s-14.3,34.1-32.7,34.1h-44.2
		v-48.1h36c14.3,0,21.7,3.3,21.7,19.2h-1.2c0-8.6-7.7-9.6-14.5-9.6H-404v29h35.1c13.3,0,22.7-11.9,22.7-24.5
		c0-12.9-10.5-23.6-23.4-23.6h-53.5V928h9.6v-67.3h33.4l38.6,67.3h11.2l-38.6-67.3c21.3,0,40.9-15.9,40.9-38.1h0.9
		c0,19.2-6.8,38.8-26.7,45.1l39.7,69.9L-346.2,937.5L-346.2,937.5z"/>
	<path class="st0" d="M-589.4,981.7v-9.6h28.8v-9.6h-106v9.6h48.2v125.1h9.8V972.1h9.6v134.7h-29V981.7h-47.9v-28.8h124.8v28.8
		H-589.4z"/>
	<path class="st0" d="M-471.3,1106.8l-13.1-38.6h-46.1l-13.3,38.6h-30.9l52.4-153.8h30.6l-10.8,32.5l22,63.6h-54.2l16.6-48.6
		l5.4,15.7l-8.4,23.4h26.9l-18.5-54.2l7.7-22.7h-10.3l-46.3,134.7h10.3l13.3-38.6h60.6l13.1,38.6h10.3l-38.1-111.7l5.4-15.4
		l46.5,136.8h-31.1V1106.8z"/>
	<path class="st0" d="M-346.2,1106.8l-38.6-67.3H-404v67.3h-28.8V952.9h62.8c18.5,0,33.4,15,33.4,33.2c0,18.2-14.3,34.1-32.7,34.1
		h-44.2V972h36c14.3,0,21.7,3.3,21.7,19.2h-1.2c0-8.6-7.7-9.6-14.5-9.6H-404v29h35.1c13.3,0,22.7-11.9,22.7-24.5
		c0-12.9-10.5-23.6-23.4-23.6h-53.5v134.7h9.6v-67.3h33.4l38.6,67.3h11.2l-38.6-67.3c21.3,0,40.9-15.9,40.9-38.1h0.9
		c0,19.2-6.8,38.8-26.7,45.1l39.7,69.9H-346.2L-346.2,1106.8z"/>
</g>
<g>
	<path class="st0" d="M-671.5,1198.5h-4.5v-1.9h11.2v1.9h-4.6v13.5h-2.1V1198.5z"/>
	<path class="st0" d="M-654.6,1207.8h-6.1l-1.4,4.2h-2.2l5.4-15.4h2.7l5.4,15.4h-2.3L-654.6,1207.8z M-655.2,1205.8l-2.4-7.2
		l-2.4,7.2H-655.2z"/>
	<path class="st0" d="M-635.8,1212h-2.3l-3.2-6.1h-3.7v6.1h-2.1v-15.4h7.7c2.1,0,3.1,1,3.1,3.1v3.2c0,1.9-0.9,2.9-2.7,3.1
		L-635.8,1212z M-639.7,1204c0.9,0,1.2-0.3,1.2-1.2v-3.1c0-0.9-0.3-1.2-1.2-1.2h-5.3v5.5H-639.7L-639.7,1204z"/>
	<path class="st0" d="M-628.2,1198.5h-4.5v-1.9h11.2v1.9h-4.6v13.5h-2.1V1198.5z"/>
	<path class="st0" d="M-611.3,1207.8h-6.1l-1.4,4.2h-2.2l5.4-15.4h2.7l5.4,15.4h-2.3L-611.3,1207.8z M-611.9,1205.8l-2.4-7.2
		l-2.4,7.2H-611.9z"/>
	<path class="st0" d="M-592.6,1212h-2.3l-3.2-6.1h-3.7v6.1h-2.1v-15.4h7.7c2.1,0,3.1,1,3.1,3.1v3.2c0,1.9-0.9,2.9-2.7,3.1
		L-592.6,1212z M-596.4,1204c0.9,0,1.2-0.3,1.2-1.2v-3.1c0-0.9-0.3-1.2-1.2-1.2h-5.4v5.5H-596.4L-596.4,1204z"/>
	<path class="st0" d="M-588.6,1196.5h10v1.9h-7.9v4.6h6.5v1.9h-6.5v5h7.9v1.9h-10V1196.5z"/>
	<path class="st0" d="M-575,1208.9v-1.7h2.1v1.7c0,0.9,0.3,1.2,1.2,1.2h4.3c0.9,0,1.2-0.3,1.2-1.2v-1.9c0-0.9-0.4-1.2-1.3-1.5
		l-4.2-0.9c-1.8-0.4-3.2-0.9-3.2-3.2v-1.9c0-2.1,1-3.1,3.1-3.1h4.4c2.1,0,3.1,1,3.1,3.1v1.5h-2.1v-1.5c0-0.9-0.3-1.2-1.2-1.2h-4
		c-0.9,0-1.2,0.3-1.2,1.2v1.6c0,0.9,0.4,1.2,1.3,1.4l4.3,1c1.8,0.4,3.2,0.9,3.2,3.2v2.1c0,2.1-1,3.1-3.1,3.1h-4.7
		C-574,1212-575,1211-575,1208.9z"/>
	<path class="st0" d="M-553.7,1187.7h1.1v30.9h-1.1V1187.7z"/>
	<path class="st0" d="M-539.2,1198.5h-4.5v-1.9h11.2v1.9h-4.6v13.5h-2.1V1198.5L-539.2,1198.5z"/>
	<path class="st0" d="M-522.2,1207.8h-6.1l-1.4,4.2h-2.3l5.4-15.4h2.7l5.4,15.4h-2.3L-522.2,1207.8z M-522.9,1205.8l-2.4-7.2
		l-2.4,7.2H-522.9z"/>
	<path class="st0" d="M-513.4,1198.5h-4.5v-1.9h11.2v1.9h-4.6v13.5h-2.1V1198.5L-513.4,1198.5z"/>
	<path class="st0" d="M-496.4,1207.8h-6.1l-1.4,4.2h-2.2l5.4-15.4h2.7l5.4,15.4h-2.4L-496.4,1207.8z M-497.1,1205.8l-2.4-7.2
		l-2.4,7.2H-497.1z"/>
	<path class="st0" d="M-479.3,1212l-4.7-7.6l-3,3.4v4.2h-2v-15.4h2.1v8.4l7.1-8.4h2.5l-5.3,6.2l5.7,9.3L-479.3,1212L-479.3,1212z"/>
	<path class="st0" d="M-473.4,1196.5h2.1v15.5h-2.1V1196.5z"/>
	<path class="st0" d="M-467.2,1208.9v-1.7h2.1v1.7c0,0.9,0.3,1.2,1.2,1.2h4.3c0.9,0,1.2-0.3,1.2-1.2v-1.9c0-0.9-0.4-1.2-1.3-1.5
		l-4.2-0.9c-1.8-0.4-3.2-0.9-3.2-3.2v-1.9c0-2.1,1-3.1,3.1-3.1h4.4c2.1,0,3.1,1,3.1,3.1v1.5h-2.1v-1.5c0-0.9-0.3-1.2-1.2-1.2h-4
		c-0.9,0-1.2,0.3-1.2,1.2v1.6c0,0.9,0.4,1.2,1.3,1.4l4.3,1c1.8,0.4,3.2,0.9,3.2,3.2v2.1c0,2.1-1,3.1-3.1,3.1h-4.7
		C-466.2,1212-467.2,1211-467.2,1208.9z"/>
	<path class="st0" d="M-446,1187.7h1.1v30.9h-1.1V1187.7z"/>
	<path class="st0" d="M-434.7,1196.5h7.8c2,0,3.1,1.1,3.1,3.1v3.5c0,2-1.1,3.1-3.1,3.1h-5.6v5.7h-2.1L-434.7,1196.5L-434.7,1196.5z
		 M-427.2,1204.3c0.8,0,1.2-0.4,1.2-1.2v-3.4c0-0.8-0.4-1.2-1.2-1.2h-5.4v5.8L-427.2,1204.3L-427.2,1204.3z"/>
	<path class="st0" d="M-420.1,1208.9v-9.3c0-2.1,1-3.1,3.1-3.1h5.1c2.1,0,3.1,1,3.1,3.1v9.3c0,2.1-1,3.1-3.1,3.1h-5.1
		C-419.1,1212-420.1,1211-420.1,1208.9z M-412.1,1210c0.9,0,1.2-0.3,1.2-1.2v-9.1c0-0.9-0.3-1.2-1.2-1.2h-4.7
		c-0.9,0-1.2,0.3-1.2,1.2v9.1c0,0.9,0.3,1.2,1.2,1.2H-412.1z"/>
	<path class="st0" d="M-394.8,1212l-4.7-7.6l-3,3.4v4.2h-2.1v-15.4h2.1v8.4l7.1-8.4h2.5l-5.3,6.2l5.7,9.3L-394.8,1212L-394.8,1212z"
		/>
	<path class="st0" d="M-388.9,1196.5h10v1.9h-7.9v4.6h6.5v1.9h-6.5v5h7.9v1.9h-10V1196.5z"/>
	<path class="st0" d="M-367.9,1196.5h7.7c2.1,0,3.1,1,3.1,3.1v2.1c0,1.2-0.5,1.9-1.4,2.3c1.1,0.4,1.6,1.1,1.6,2.4v2.4
		c0,2.1-1,3.1-3.1,3.1h-7.8v-15.4H-367.9z M-360.5,1203.1c0.9,0,1.2-0.3,1.2-1.2v-2.3c0-0.9-0.3-1.2-1.2-1.2h-5.3v4.7H-360.5z
		 M-360.3,1210.1c0.9,0,1.2-0.3,1.2-1.2v-2.6c0-0.9-0.3-1.2-1.2-1.2h-5.5v5H-360.3L-360.3,1210.1z"/>
	<path class="st0" d="M-353.1,1208.9v-9.3c0-2.1,1-3.1,3.1-3.1h5.1c2.1,0,3.1,1,3.1,3.1v9.3c0,2.1-1,3.1-3.1,3.1h-5.1
		C-352.1,1212-353.1,1211-353.1,1208.9z M-345.1,1210c0.9,0,1.2-0.3,1.2-1.2v-9.1c0-0.9-0.3-1.2-1.2-1.2h-4.7
		c-0.9,0-1.2,0.3-1.2,1.2v9.1c0,0.9,0.3,1.2,1.2,1.2H-345.1z"/>
	<path class="st0" d="M-337.6,1196.5h2.1v13.5h7.3v1.9h-9.4V1196.5z"/>
	<path class="st0" d="M-324.7,1208.9v-1.7h2.1v1.7c0,0.9,0.3,1.2,1.2,1.2h4.3c0.9,0,1.2-0.3,1.2-1.2v-1.9c0-0.9-0.4-1.2-1.3-1.5
		l-4.2-0.9c-1.8-0.4-3.2-0.9-3.2-3.2v-1.9c0-2.1,1-3.1,3.1-3.1h4.4c2.1,0,3.1,1,3.1,3.1v1.5h-2.1v-1.5c0-0.9-0.3-1.2-1.2-1.2h-4
		c-0.9,0-1.2,0.3-1.2,1.2v1.6c0,0.9,0.4,1.2,1.3,1.4l4.3,1c1.8,0.4,3.2,0.9,3.2,3.2v2.1c0,2.1-1,3.1-3.1,3.1h-4.7
		C-323.7,1212-324.7,1211-324.7,1208.9z"/>
</g>
<rect x="-675.9" y="1127.6" class="st0" width="362" height="47.3"/>
<g>
	<path class="st1" d="M-633.9,1143.1c-0.1-0.6-0.4-1.1-0.7-1.5c-0.4-0.4-0.8-0.8-1.3-1.1s-1.1-0.5-1.7-0.7c-0.6-0.2-1.2-0.2-1.8-0.2
		c-1,0-1.9,0.1-2.6,0.3c-0.8,0.2-1.4,0.5-1.9,0.9s-0.9,0.9-1.1,1.4c-0.3,0.5-0.4,1.1-0.4,1.7c0,0.9,0.2,1.6,0.5,2.1
		c0.3,0.5,0.7,1,1.2,1.3c0.5,0.3,1,0.6,1.6,0.8c0.6,0.2,1.1,0.4,1.7,0.5l4,1.3c1.2,0.4,2.2,0.8,3.2,1.3c0.9,0.5,1.7,1.1,2.3,1.7
		c0.6,0.7,1.1,1.4,1.4,2.3c0.3,0.9,0.5,1.9,0.5,3c0,1.2-0.3,2.4-0.8,3.4s-1.2,2-2.1,2.8c-0.9,0.8-2,1.4-3.3,1.8
		c-1.3,0.4-2.6,0.7-4.1,0.7s-2.9-0.2-4-0.5c-1.1-0.3-2-0.8-2.8-1.4c-0.7-0.6-1.3-1.3-1.8-2c-0.4-0.8-0.8-1.5-1-2.3h-1.5v-3.4h5v1
		c0,0.8,0.2,1.5,0.5,2.1c0.3,0.6,0.7,1.1,1.3,1.5c0.6,0.4,1.2,0.7,2,0.9c0.8,0.2,1.6,0.3,2.5,0.3c0.9,0,1.7-0.1,2.4-0.3
		c0.7-0.2,1.3-0.5,1.8-0.9c0.5-0.4,0.9-0.9,1.2-1.5c0.3-0.6,0.4-1.2,0.4-1.9c0-0.8-0.2-1.5-0.5-2.1c-0.3-0.6-0.8-1-1.3-1.4
		c-0.5-0.4-1.1-0.7-1.7-1c-0.6-0.3-1.2-0.5-1.8-0.6l-4.3-1.2c-1-0.3-1.8-0.6-2.6-1.1c-0.8-0.4-1.5-1-2-1.6c-0.6-0.7-1-1.4-1.3-2.3
		c-0.3-0.9-0.5-1.9-0.5-3c0-1.1,0.2-2.2,0.7-3.2c0.4-1,1.1-1.9,2-2.6c0.9-0.8,1.9-1.3,3.2-1.8c1.3-0.4,2.7-0.6,4.3-0.6
		c1.1,0,2.1,0.1,3,0.4c0.9,0.3,1.7,0.6,2.5,1.1c0.7,0.5,1.4,1,1.9,1.6c0.6,0.6,1,1.3,1.4,2.1h1.5v3.4h-4.8v-1.5H-633.9z"/>
	<path class="st1" d="M-596.4,1162.9h2.7v-23.3h-6.8v4.7h-4.1v-7.9h26.7v7.9h-4.1v-4.7h-7.9v23.3h3.1v3.4h-9.7L-596.4,1162.9
		L-596.4,1162.9z"/>
	<path class="st1" d="M-538,1162.9h2.5l-2.4-6.8h-11.5l-2.3,6.8h3.1v3.4h-9.7v-3.4h2.6l9.4-26.6h5.8l9.3,26.6h3v3.4h-9.8V1162.9z
		 M-548.3,1152.8h9.3l-4.7-13.8L-548.3,1152.8z"/>
	<path class="st1" d="M-500.3,1162.9h2.7v-23.3h-6.8v4.7h-4.1v-7.9h26.7v7.9h-4.1v-4.7h-7.9v23.3h3.1v3.4h-9.7v-3.4H-500.3z"/>
	<path class="st1" d="M-456.2,1136.3h9.7v3.4h-3.1v23.2h3.1v3.4h-9.7v-3.4h2.8v-23.2h-2.7L-456.2,1136.3L-456.2,1136.3z"/>
	<path class="st1" d="M-407.1,1166.9c-1.4,0-2.8-0.2-4-0.6c-1.3-0.4-2.4-0.9-3.5-1.6c-1.1-0.7-2.1-1.5-2.9-2.4
		c-0.9-0.9-1.6-2-2.2-3.2s-1.1-2.4-1.4-3.7c-0.3-1.3-0.5-2.7-0.5-4.2c0-1.4,0.2-2.8,0.5-4.2c0.3-1.3,0.8-2.6,1.4-3.7
		c0.6-1.2,1.4-2.2,2.2-3.2c0.9-0.9,1.8-1.8,2.9-2.4c1.1-0.7,2.2-1.2,3.5-1.6c1.3-0.4,2.6-0.6,4-0.6c2.1,0,4.1,0.4,5.9,1.2
		c1.8,0.8,3.3,1.9,4.6,3.3c1.3,1.4,2.3,3.1,3,5s1.1,3.9,1.1,6.1c0,1.4-0.2,2.8-0.5,4.2c-0.3,1.3-0.8,2.6-1.4,3.7
		c-0.6,1.2-1.4,2.2-2.2,3.2c-0.9,0.9-1.8,1.8-2.9,2.4c-1.1,0.7-2.2,1.2-3.5,1.6C-404.3,1166.7-405.7,1166.9-407.1,1166.9z
		 M-407.1,1163.1c1.6,0,3-0.3,4.3-1c1.3-0.6,2.4-1.5,3.3-2.6s1.6-2.3,2.1-3.8c0.5-1.4,0.8-2.9,0.8-4.5c0-1.6-0.3-3.1-0.8-4.5
		c-0.5-1.4-1.2-2.7-2.1-3.8s-2-2-3.3-2.6c-1.3-0.6-2.7-1-4.3-1c-1.6,0-3,0.3-4.3,1c-1.3,0.6-2.4,1.5-3.3,2.6s-1.6,2.4-2.1,3.8
		c-0.5,1.4-0.8,3-0.8,4.5c0,1.6,0.3,3.1,0.8,4.5c0.5,1.4,1.2,2.7,2.2,3.8c0.9,1.1,2,2,3.3,2.6
		C-410.1,1162.8-408.6,1163.1-407.1,1163.1z"/>
	<path class="st1" d="M-349.1,1136.3h9.7v3.4h-2.6v26.6h-5l-13.9-24.9v21.5h3.1v3.4h-9.7v-3.4h2.8v-23.2h-2.7v-3.5h7.9l13.8,24.7
		v-21.3h-3.4L-349.1,1136.3L-349.1,1136.3z"/>
</g>
</svg>
