<svg xmlns="http://www.w3.org/2000/svg" viewBox="0 0 362.33 434.94"><defs><style>.cls-1{fill:#fff;}.cls-2{fill:#fff;}</style></defs><title>tartarAsset 1</title><g id="Layer_2" data-name="Layer 2"><g id="Calque_1" data-name="Calque 1"><path class="cls-1" d="M86.68,28.76V19.17h28.75V9.59H9.53v9.58H57.69V144.25h9.82V19.17h9.58V153.83h-29V28.76H.18V0H125V28.76Z"/><path class="cls-1" d="M204.83,153.83l-13.09-38.57H145.69l-13.33,38.57H101.5L153.87,0h30.62L173.74,32.5l22,63.59H141.48l16.6-48.63,5.37,15.66L155,86.5h26.88L163.45,32.26l7.72-22.67H160.88L114.59,144.25h10.29l13.33-38.58h60.55l13.09,38.58h10.28L184,32.5l5.37-15.43,46.53,136.76Z"/><path class="cls-1" d="M329.93,153.83,291.36,86.5H272.19v67.33H243.43V0h62.66a33.37,33.37,0,0,1,33.43,33.2c0,18.23-14.26,34.13-32.73,34.13H262.6V19.17h36c14.26,0,21.74,3.27,21.74,19.17h-1.17c0-8.65-7.72-9.58-14.49-9.58h-32.5v29h35.07c13.32,0,22.67-11.92,22.67-24.54A23.65,23.65,0,0,0,306.55,9.59H253V144.25h9.58V76.92H296l38.58,67.33h11.22L307.26,76.92c21.27,0,40.91-15.9,40.91-38.11h.93c0,19.17-6.78,38.81-26.65,45.12l39.75,69.9Z"/><path class="cls-1" d="M86.68,198.05v-9.58h28.75v-9.59H9.53v9.59H57.69V313.54h9.82V188.47h9.58V323.13h-29V198.05H.18V169.3H125v28.75Z"/><path class="cls-1" d="M204.83,323.13l-13.09-38.58H145.69l-13.33,38.58H101.5L153.87,169.3h30.62l-10.75,32.49,22,63.59H141.48l16.6-48.62,5.37,15.66L155,255.8h26.88l-18.47-54.24,7.72-22.68H160.88L114.59,313.54h10.29L138.21,275h60.55l13.09,38.57h10.28L184,201.79l5.37-15.43,46.53,136.77Z"/><path class="cls-1" d="M329.93,323.13,291.36,255.8H272.19v67.33H243.43V169.3h62.66a33.37,33.37,0,0,1,33.43,33.19c0,18.24-14.26,34.14-32.73,34.14H262.6V188.47h36c14.26,0,21.74,3.27,21.74,19.17h-1.17c0-8.65-7.72-9.59-14.49-9.59h-32.5v29h35.07c13.32,0,22.67-11.92,22.67-24.55a23.65,23.65,0,0,0-23.38-23.61H253V313.54h9.58V246.21H296l38.58,67.33h11.22l-38.57-67.33c21.27,0,40.91-15.9,40.91-38.1h.93c0,19.17-6.78,38.8-26.65,45.12l39.75,69.9Z"/><path class="cls-1" d="M4.59,414.82H.05V412.9H11.26v1.92H6.7v13.51H4.59Z"/><path class="cls-1" d="M21.55,424.12H15.44L14,428.33h-2.2l5.35-15.43h2.74l5.35,15.43H23Zm-.64-1.94L18.51,415l-2.43,7.23Z"/><path class="cls-1" d="M40.27,428.33H38l-3.16-6.06H31.08v6.06H29V412.9H36.7c2.09,0,3.08,1,3.08,3.08v3.18c0,1.94-.85,2.93-2.66,3.06Zm-3.81-8c.88,0,1.21-.33,1.21-1.19V416c0-.88-.33-1.21-1.21-1.21H31.08v5.53Z"/><path class="cls-1" d="M47.86,414.82H43.32V412.9H54.54v1.92H50v13.51H47.86Z"/><path class="cls-1" d="M64.82,424.12h-6.1l-1.41,4.21H55.1l5.36-15.43h2.73l5.36,15.43H66.23Zm-.64-1.94L61.78,415l-2.42,7.23Z"/><path class="cls-1" d="M83.55,428.33H81.23l-3.15-6.06H74.36v6.06H72.24V412.9H80c2.09,0,3.08,1,3.08,3.08v3.18c0,1.94-.86,2.93-2.67,3.06Zm-3.82-8c.89,0,1.22-.33,1.22-1.19V416c0-.88-.33-1.21-1.22-1.21H74.36v5.53Z"/><path class="cls-1" d="M87.5,412.9h10v1.94H89.61v4.63h6.55v1.94H89.61v5h7.87v1.94h-10Z"/><path class="cls-1" d="M101.15,425.24v-1.7h2.07v1.72c0,.86.33,1.19,1.21,1.19h4.27c.89,0,1.22-.33,1.22-1.19v-1.85c0-1-.4-1.23-1.33-1.45l-4.23-.95c-1.8-.4-3.17-.95-3.17-3.15V416c0-2.09,1-3.08,3.09-3.08h4.42c2.1,0,3.09,1,3.09,3.08v1.53H109.7V416c0-.86-.33-1.19-1.19-1.19h-4c-.86,0-1.19.33-1.19,1.19v1.61c0,.95.39,1.24,1.3,1.43l4.25,1c1.78.4,3.17.95,3.17,3.16v2.11c0,2.09-1,3.09-3.08,3.09h-4.72C102.14,428.33,101.15,427.33,101.15,425.24Z"/><path class="cls-1" d="M122.37,404.08h1.06v30.86h-1.06Z"/><path class="cls-1" d="M136.9,414.82h-4.54V412.9h11.22v1.92H139v13.51H136.9Z"/><path class="cls-1" d="M153.87,424.12h-6.11l-1.41,4.21h-2.2l5.35-15.43h2.73l5.36,15.43h-2.31Zm-.64-1.94L150.82,415l-2.42,7.23Z"/><path class="cls-1" d="M162.72,414.82h-4.54V412.9H169.4v1.92h-4.57v13.51h-2.11Z"/><path class="cls-1" d="M179.68,424.12h-6.1l-1.41,4.21H170l5.36-15.43h2.73l5.35,15.43h-2.31Zm-.64-1.94-2.4-7.23-2.43,7.23Z"/><path class="cls-1" d="M196.86,428.33l-4.69-7.61-3,3.44v4.17H187.1V412.9h2.11v8.44l7.12-8.44h2.54l-5.29,6.17,5.7,9.26Z"/><path class="cls-1" d="M202.73,412.9h2.11v15.43h-2.11Z"/><path class="cls-1" d="M208.91,425.24v-1.7H211v1.72c0,.86.33,1.19,1.21,1.19h4.27c.89,0,1.22-.33,1.22-1.19v-1.85c0-1-.4-1.23-1.33-1.45l-4.23-.95c-1.8-.4-3.17-.95-3.17-3.15V416c0-2.09,1-3.08,3.08-3.08h4.43c2.1,0,3.09,1,3.09,3.08v1.53h-2.09V416c0-.86-.33-1.19-1.19-1.19h-4c-.86,0-1.19.33-1.19,1.19v1.61c0,.95.39,1.24,1.3,1.43l4.25,1c1.78.4,3.17.95,3.17,3.16v2.11c0,2.09-1,3.09-3.08,3.09H212C209.9,428.33,208.91,427.33,208.91,425.24Z"/><path class="cls-1" d="M230.13,404.08h1.06v30.86h-1.06Z"/><path class="cls-1" d="M241.45,412.9h7.75a2.75,2.75,0,0,1,3.09,3.08v3.55a2.76,2.76,0,0,1-3.09,3.09h-5.64v5.71h-2.11Zm7.51,7.78a1.08,1.08,0,0,0,1.21-1.21v-3.42a1.07,1.07,0,0,0-1.21-1.21h-5.4v5.84Z"/><path class="cls-1" d="M256,425.24V416c0-2.09,1-3.08,3.09-3.08h5.13c2.1,0,3.09,1,3.09,3.08v9.26c0,2.09-1,3.09-3.09,3.09h-5.13C257,428.33,256,427.33,256,425.24Zm8,1.15c.88,0,1.21-.33,1.21-1.21v-9.13c0-.88-.33-1.21-1.21-1.21h-4.67c-.86,0-1.19.33-1.19,1.21v9.13c0,.88.33,1.21,1.19,1.21Z"/><path class="cls-1" d="M281.29,428.33l-4.69-7.61-3,3.44v4.17h-2.12V412.9h2.12v8.44l7.11-8.44h2.54L278,419.07l5.71,9.26Z"/><path class="cls-1" d="M287.16,412.9h10v1.94h-7.87v4.63h6.54v1.94h-6.54v5h7.87v1.94h-10Z"/><path class="cls-1" d="M308.21,412.9h7.67c2.09,0,3.09,1,3.09,3.08v2.12a2.32,2.32,0,0,1-1.44,2.34,2.24,2.24,0,0,1,1.61,2.36v2.44c0,2.09-1,3.09-3.08,3.09h-7.85Zm7.43,6.59c.88,0,1.21-.33,1.21-1.19V416c0-.88-.33-1.21-1.21-1.21h-5.31v4.67Zm.17,6.92c.89,0,1.22-.33,1.22-1.21v-2.63c0-.88-.33-1.21-1.22-1.21h-5.48v5.05Z"/><path class="cls-1" d="M323,425.24V416c0-2.09,1-3.08,3.09-3.08h5.13c2.1,0,3.09,1,3.09,3.08v9.26c0,2.09-1,3.09-3.09,3.09H326.1C324,428.33,323,427.33,323,425.24Zm8,1.15c.88,0,1.21-.33,1.21-1.21v-9.13c0-.88-.33-1.21-1.21-1.21h-4.67c-.86,0-1.19.33-1.19,1.21v9.13c0,.88.33,1.21,1.19,1.21Z"/><path class="cls-1" d="M338.5,412.9h2.12v13.49h7.31v1.94H338.5Z"/><path class="cls-1" d="M351.44,425.24v-1.7h2.07v1.72c0,.86.33,1.19,1.22,1.19H359c.88,0,1.21-.33,1.21-1.19v-1.85c0-1-.39-1.23-1.32-1.45l-4.23-.95c-1.81-.4-3.17-.95-3.17-3.15V416c0-2.09,1-3.08,3.08-3.08H359c2.09,0,3.09,1,3.09,3.08v1.53H360V416c0-.86-.33-1.19-1.19-1.19h-4c-.86,0-1.19.33-1.19,1.19v1.61c0,.95.4,1.24,1.3,1.43l4.25,1c1.79.4,3.18.95,3.18,3.16v2.11c0,2.09-1,3.09-3.09,3.09h-4.71C352.43,428.33,351.44,427.33,351.44,425.24Z"/><polygon class="cls-2" points="127.64 369.23 136.91 369.23 132.22 355.42 127.64 369.23"/><path class="cls-2" d="M0,344.11V391.4H362V344.11Zm46.89,16.77H42.05v-1.3a3.42,3.42,0,0,0-.73-1.52,5,5,0,0,0-1.3-1.12,6.74,6.74,0,0,0-1.67-.72,7.17,7.17,0,0,0-1.82-.24,9,9,0,0,0-2.63.34,5.56,5.56,0,0,0-1.87.94,3.89,3.89,0,0,0-1.12,1.39,3.81,3.81,0,0,0-.38,1.66,4.27,4.27,0,0,0,.46,2.12,3.65,3.65,0,0,0,1.17,1.29,5.86,5.86,0,0,0,1.57.76l1.67.54,4,1.3a21.31,21.31,0,0,1,3.16,1.33,8.68,8.68,0,0,1,2.32,1.73,6.76,6.76,0,0,1,1.41,2.29,8.7,8.7,0,0,1,.48,3,7.77,7.77,0,0,1-.76,3.44,8.23,8.23,0,0,1-2.12,2.75,10,10,0,0,1-3.26,1.83,12.48,12.48,0,0,1-4.14.67,13.09,13.09,0,0,1-4-.53,8.94,8.94,0,0,1-2.76-1.4,7.53,7.53,0,0,1-1.79-2,10.91,10.91,0,0,1-1.05-2.32h-1.5v-3.4h5v1a4.66,4.66,0,0,0,.47,2.14,4.27,4.27,0,0,0,1.29,1.51,6,6,0,0,0,2,.91,9.61,9.61,0,0,0,2.54.31,8.65,8.65,0,0,0,2.42-.32,5.39,5.39,0,0,0,1.84-.92,4.14,4.14,0,0,0,1.17-1.46,4.56,4.56,0,0,0,.4-1.95,4,4,0,0,0-.5-2.06,5,5,0,0,0-1.29-1.44,7.52,7.52,0,0,0-1.73-1,15.82,15.82,0,0,0-1.82-.63l-4.33-1.22a12.18,12.18,0,0,1-2.62-1.08,7,7,0,0,1-3.3-3.93,9.19,9.19,0,0,1-.45-3,7.79,7.79,0,0,1,.67-3.23,7.52,7.52,0,0,1,2-2.63,9.53,9.53,0,0,1,3.19-1.77,13.37,13.37,0,0,1,4.33-.64,11,11,0,0,1,3,.37,9.57,9.57,0,0,1,2.46,1.06A8.69,8.69,0,0,1,44,355.37a9.41,9.41,0,0,1,1.42,2.11h1.48Zm51.2-.23H94V356H86.14v23.34h3.09v3.4H79.49v-3.4h2.75V356H75.4v4.67H71.34v-7.92H98.09Zm49.59,22.07h-9.74v-3.4h2.49l-2.37-6.81H126.53l-2.34,6.81h3.11v3.4h-9.73v-3.4h2.59l9.35-26.59h5.84l9.32,26.59h3Zm46.59-22.07h-4.06V356h-7.89v23.34h3.08v3.4h-9.73v-3.4h2.75V356h-6.84v4.67h-4.06v-7.92h26.75Zm35.15-4.52h-3.11v23.19h3.07v3.4h-9.73v-3.4h2.77V356.13h-2.73v-3.4h9.73Zm53.52,15.75a15.91,15.91,0,0,1-1.42,3.73,15.23,15.23,0,0,1-2.22,3.16,14.18,14.18,0,0,1-2.92,2.44,13.65,13.65,0,0,1-3.52,1.57,14.64,14.64,0,0,1-8,0,13.8,13.8,0,0,1-3.52-1.57,14,14,0,0,1-2.93-2.44,15.23,15.23,0,0,1-2.22-3.16,16.8,16.8,0,0,1-1.4-3.73,17.51,17.51,0,0,1,0-8.31,16.6,16.6,0,0,1,1.41-3.74,15.05,15.05,0,0,1,2.23-3.15,14.46,14.46,0,0,1,2.92-2.43,13.9,13.9,0,0,1,3.51-1.56,14.18,14.18,0,0,1,4-.55,14.07,14.07,0,0,1,10.49,4.54,15.24,15.24,0,0,1,3,4.95,17.88,17.88,0,0,1,.58,10.25Zm53.65-15.75H334v26.59H329L315,357.86v21.46h3.08v3.4h-9.73v-3.4h2.77V356.15h-2.69v-3.46h7.91l13.85,24.73V356.13h-3.36v-3.4h9.73Z"/><path class="cls-2" d="M276.43,359.4a10.25,10.25,0,0,0-3.31-2.61,9.93,9.93,0,0,0-8.56,0,10.29,10.29,0,0,0-3.32,2.6,11.8,11.8,0,0,0-2.15,3.8,13.94,13.94,0,0,0,0,9.08,11.94,11.94,0,0,0,2.16,3.78,10.51,10.51,0,0,0,3.32,2.59,10,10,0,0,0,8.57,0,10.47,10.47,0,0,0,3.31-2.59,12.09,12.09,0,0,0,2.14-3.78,14,14,0,0,0,0-9.07A12.1,12.1,0,0,0,276.43,359.4Z"/></g></g></svg>