<?xml version="1.0" encoding="utf-8"?>
<!-- Generator: Adobe Illustrator 19.0.0, SVG Export Plug-In . SVG Version: 6.00 Build 0)  -->
<svg version="1.1" id="Layer_1" xmlns="http://www.w3.org/2000/svg" xmlns:xlink="http://www.w3.org/1999/xlink" x="0px" y="0px"
	 viewBox="-669 671 660 660" style="enable-background:new -669 671 660 660;" xml:space="preserve">
<style type="text/css">
	.st0{fill:#FFFFFF;}
</style>
<g>
	<polygon class="st0" points="-459.8,977.3 -441.4,977.3 -481.5,1074.5 -496.4,1074.5 -536.5,977.3 -517.8,977.3 -488.7,1051.5 	"/>
	<path class="st0" d="M-347.3,1074.5h-17.9l-9.8-23.3h-45.6l-9.9,23.3h-17.4l42.5-97.2h15.7L-347.3,1074.5z M-397.9,997.6
		l-16.5,38.6h33.2L-397.9,997.6z"/>
	<path class="st0" d="M-293.8,1043.4H-313v31h-16.9V978h38c22.5,0,36.6,12.7,36.6,32.4C-255.2,1032.2-272.6,1043.4-293.8,1043.4
		 M-293.3,993.4H-313v34.7h19.7c12.8,0,20.8-7,20.8-17.4C-272.5,999.3-280.6,993.4-293.3,993.4"/>
	<path class="st0" d="M-192,1074.5c-29.6,0-50.3-22.5-50.3-49.8c0-27.3,20.9-50,50.6-50c29.6,0,50.3,22.5,50.3,49.8
		C-141.5,1051.7-162.4,1074.5-192,1074.5 M-192,990.3c-19.2,0-32.5,15.3-32.5,34.2s13.6,34.4,32.8,34.4c19.1,0,32.5-15.3,32.5-34.2
		C-159.3,1005.8-172.9,990.3-192,990.3"/>
	<path class="st0" d="M-482.6,1135.8c20.4,5,31,12.3,31,28.4c0,18.2-14.2,28.9-34.5,28.9c-14.7,0-28.7-5.1-40.2-15.4l10.2-12.1
		c9.2,8,18.5,12.5,30.5,12.5c10.5,0,17.1-4.8,17.1-12.3c0-7-3.9-10.7-21.8-14.9c-20.5-5-32.1-11-32.1-29c0-16.8,13.8-28.1,32.9-28.1
		c14.1,0,25.2,4.3,35,12.1l-9.1,12.8c-8.7-6.5-17.4-9.9-26.2-9.9c-9.9,0-15.7,5.1-15.7,11.6
		C-505.5,1128.1-501.1,1131.3-482.6,1135.8"/>
	<polygon class="st0" points="-420.6,1152.4 -420.6,1193.1 -437.6,1193.1 -437.6,1096.6 -420.6,1096.6 -420.6,1136.7 -374.6,1136.7 
		-374.6,1096.6 -357.7,1096.6 -357.7,1193.1 -374.6,1193.1 -374.6,1152.4 	"/>
	<path class="st0" d="M-292.7,1193.1c-29.6,0-50.3-22.5-50.3-49.8c0-27.3,20.9-50,50.6-50c29.6,0,50.3,22.5,50.3,49.8
		C-242.2,1170.3-263.1,1193.1-292.7,1193.1 M-292.7,1108.9c-19.2,0-32.5,15.3-32.5,34.2s13.6,34.4,32.8,34.4
		c19.1,0,32.5-15.3,32.5-34.2C-259.9,1124.4-273.6,1108.9-292.7,1108.9"/>
	<path class="st0" d="M-193.1,1162.1h-19.1v31h-17v-96.5h38c22.5,0,36.7,12.7,36.7,32.4C-154.6,1150.8-171.9,1162.1-193.1,1162.1
		 M-192.6,1112.1h-19.7v34.7h19.7c12.8,0,20.8-7,20.8-17.4C-171.8,1118-179.9,1112.1-192.6,1112.1"/>
	<g>
		<path class="st0" d="M-386.5,851.7c-3.6-3.6-5.2-7.3-5.1-11.4c0.4-10.5,12.7-22.5,26-34c19.3-17.3,22.9-22.3,22.2-32l-0.1-0.7
			c0-0.1,0-0.2-0.1-0.2v-0.3c-0.5-3.2-2.1-6.1-4.9-8.8c-2.3-2.3-6-5.1-9.4-7.2c-0.2-0.1-0.4-0.1-0.6,0.1c-0.1,0.2-0.1,0.5,0.1,0.6
			c4.7,4.7,6.7,8.6,6.6,12.7c-0.3,7.4-8,15.4-21.2,26.8c-18,16-28.4,27.2-28.7,36.6c-0.1,4,1.6,7.7,5.2,11.3
			c2.3,2.3,5.9,5.1,9.4,7.2c0.2,0.1,0.4,0.1,0.6-0.1S-386.4,851.9-386.5,851.7"/>
		<path class="st0" d="M-365.8,909.1c-5.7-5.7-8.3-11.7-8.1-18.3c0.6-16.8,20.4-36.1,41.6-54.4c31-27.7,36.6-35.8,35.5-51.2
			l-0.1-1.1c0-0.1-0.1-0.2-0.2-0.4l-0.1-0.4c-0.9-5.1-3.4-9.7-7.9-14.1c-3.7-3.7-9.5-8.1-15.1-11.5c-0.3-0.2-0.7-0.1-0.9,0.2
			c-0.2,0.3-0.2,0.7,0.1,1c7.6,7.6,10.9,13.9,10.6,20.4c-0.4,11.8-12.7,24.6-33.8,42.9l-0.1,0.1c-30.5,27.2-46.8,45-45.7,60.6
			l0.1,1.1c0,0.1,0.1,0.2,0.2,0.4l0.1,0.4c0.9,5.1,3.4,9.7,7.8,14.2c3.7,3.7,9.5,8.1,15.1,11.4c0.3,0.2,0.7,0.1,0.9-0.2
			C-365.5,909.7-365.6,909.3-365.8,909.1"/>
		<path class="st0" d="M-331.2,920.5c-4.3-4.3-6.3-8.9-6.2-13.9c0.5-12.9,15.6-27.6,31.9-41.7c19.2-17.1,29-27.4,29.2-36.2
			c0.1-4.7-2.3-9.3-8.3-15.2c-2.8-2.8-7.3-6.2-11.6-8.8c-0.2-0.2-0.5-0.1-0.7,0.1c-0.2,0.2-0.1,0.5,0.1,0.7
			c5.8,5.8,8.3,10.6,8.1,15.6c-0.3,9-9.7,18.8-25.9,32.8c-23.3,20.9-35.8,34.4-35,46.4l0.1,0.8c0,0.1,0.1,0.2,0.1,0.3l0.1,0.3
			c0.7,3.9,2.6,7.4,6,10.8c2.8,2.8,7.3,6.2,11.5,8.8c0.2,0.1,0.5,0.1,0.7-0.1C-331,921-331,920.7-331.2,920.5"/>
	</g>
	<g>
		<path class="st0" d="M-508,1244.7h-3.1l-1.7-4h-7.8l-1.7,4h-3l7.3-16.6h2.7L-508,1244.7z M-516.7,1231.5l-2.8,6.6h5.7
			L-516.7,1231.5z"/>
		<path class="st0" d="M-494,1244.7l-4.1-5.8h-3.6v5.8h-2.9v-16.5h7.4c0.9,0,1.8,0.1,2.6,0.4c0.8,0.2,1.4,0.6,1.9,1
			c0.5,0.4,0.9,1,1.2,1.6c0.3,0.7,0.4,1.4,0.4,2.2c0,0.7-0.1,1.3-0.3,1.8s-0.5,1-0.8,1.4c-0.3,0.4-0.8,0.8-1.2,1.1
			c-0.5,0.3-1,0.5-1.6,0.7l4.5,6.2L-494,1244.7L-494,1244.7z M-494.9,1231.5c-0.6-0.5-1.4-0.7-2.5-0.7h-4.2v5.6h4.3
			c1,0,1.9-0.3,2.5-0.8s0.9-1.2,0.9-2C-494,1232.6-494.3,1232-494.9,1231.5z"/>
		<path class="st0" d="M-479.9,1244.7h-2.9v-13.8h-5.2v-2.7h13.4v2.7h-5.2v13.8H-479.9z"/>
		<path class="st0" d="M-468.1,1228.2v16.5h-2.9v-16.5H-468.1z"/>
		<path class="st0" d="M-449.9,1243.2c-0.5,0.4-1,0.7-1.5,0.9c-0.5,0.3-1.1,0.5-1.8,0.6c-0.6,0.1-1.3,0.2-2.1,0.2
			c-1.2,0-2.3-0.2-3.3-0.7c-1-0.4-1.9-1-2.7-1.8c-0.7-0.8-1.3-1.7-1.8-2.7c-0.4-1-0.6-2.2-0.6-3.3c0-1.2,0.2-2.3,0.6-3.3
			s1-1.9,1.8-2.7c0.8-0.8,1.6-1.4,2.7-1.8c1-0.4,2.2-0.7,3.4-0.7c0.8,0,1.4,0.1,2.1,0.2c0.7,0.1,1.2,0.3,1.7,0.5
			c0.5,0.2,1,0.5,1.4,0.8c0.4,0.3,0.9,0.7,1.2,1l-1.9,2.1c-0.7-0.6-1.4-1.1-2.1-1.5c-0.7-0.4-1.6-0.6-2.5-0.6
			c-0.8,0-1.5,0.2-2.2,0.5c-0.7,0.3-1.2,0.7-1.7,1.2s-0.9,1.1-1.1,1.9c-0.3,0.7-0.4,1.5-0.4,2.3s0.1,1.6,0.4,2.3
			c0.3,0.7,0.6,1.3,1.1,1.9c0.5,0.5,1.1,1,1.7,1.3c0.7,0.3,1.4,0.5,2.2,0.5c1,0,1.9-0.2,2.6-0.6s1.4-0.9,2.1-1.6l1.9,1.9
			C-449,1242.5-449.5,1242.9-449.9,1243.2z"/>
		<path class="st0" d="M-444.9,1228.2h2.9v13.9h8.7v2.6h-11.5v-16.5H-444.9z"/>
		<path class="st0" d="M-417.6,1230.8h-9.3v4.2h8.3v2.6h-8.3v4.4h9.5v2.6h-12.3v-16.5h12.2v2.7H-417.6z"/>
		<path class="st0" d="M-410.6,1233.3c0.1,0.2,0.3,0.5,0.6,0.7c0.3,0.2,0.7,0.4,1.2,0.6c0.5,0.2,1.2,0.4,1.9,0.5
			c0.9,0.2,1.6,0.5,2.3,0.7c0.7,0.3,1.2,0.6,1.7,1c0.4,0.4,0.8,0.8,1,1.3s0.3,1.1,0.3,1.8c0,0.8-0.1,1.5-0.4,2.1
			c-0.3,0.6-0.7,1.1-1.2,1.6c-0.5,0.4-1.1,0.7-1.9,1c-0.7,0.2-1.5,0.3-2.4,0.3c-1.3,0-2.5-0.2-3.7-0.6s-2.2-1.1-3.2-2l1.7-2.1
			c0.8,0.7,1.6,1.2,2.4,1.6s1.7,0.6,2.8,0.6c0.9,0,1.6-0.2,2.1-0.6s0.8-0.9,0.8-1.5c0-0.3-0.1-0.6-0.2-0.8c-0.1-0.2-0.3-0.5-0.6-0.6
			c-0.3-0.2-0.7-0.4-1.1-0.6c-0.5-0.2-1.1-0.4-1.9-0.5c-0.9-0.2-1.7-0.4-2.4-0.7c-0.7-0.3-1.3-0.6-1.7-0.9c-0.5-0.4-0.8-0.8-1.1-1.4
			c-0.2-0.5-0.4-1.2-0.4-2c0-0.7,0.1-1.4,0.4-2c0.3-0.6,0.7-1.1,1.2-1.5s1.1-0.7,1.8-1c0.7-0.2,1.4-0.3,2.3-0.3
			c1.2,0,2.3,0.2,3.3,0.5c1,0.4,1.9,0.9,2.7,1.5l-1.6,2.2c-0.8-0.5-1.5-1-2.2-1.3c-0.7-0.3-1.5-0.4-2.2-0.4c-0.8,0-1.5,0.2-2,0.6
			c-0.5,0.4-0.7,0.9-0.7,1.4C-410.7,1232.8-410.7,1233.1-410.6,1233.3z"/>
		<path class="st0" d="M-377.3,1236.2c-0.3,0.7-0.8,1.3-1.4,1.8s-1.3,0.8-2.1,1.1c-0.8,0.2-1.7,0.4-2.6,0.4h-3.3v5.3h-2.9v-16.5h6.5
			c1,0,1.8,0.1,2.6,0.4c0.8,0.3,1.4,0.6,2,1.1c0.5,0.5,1,1.1,1.3,1.7c0.3,0.7,0.4,1.4,0.4,2.3
			C-376.8,1234.6-377,1235.5-377.3,1236.2z M-380.7,1231.5c-0.6-0.5-1.5-0.7-2.6-0.7h-3.4v6h3.4c1.1,0,2-0.3,2.6-0.8s1-1.3,1-2.2
			C-379.8,1232.8-380.1,1232-380.7,1231.5z"/>
		<path class="st0" d="M-357.1,1239.7c-0.4,1-1,1.9-1.8,2.7s-1.7,1.4-2.7,1.8c-1.1,0.5-2.2,0.7-3.5,0.7s-2.4-0.2-3.5-0.7
			c-1.1-0.4-2-1.1-2.7-1.8c-0.8-0.8-1.3-1.7-1.8-2.7c-0.4-1-0.6-2.1-0.6-3.3s0.2-2.3,0.6-3.3s1-1.9,1.8-2.7s1.7-1.4,2.7-1.8
			c1.1-0.5,2.2-0.7,3.5-0.7s2.4,0.2,3.5,0.7c1.1,0.4,2,1.1,2.7,1.8c0.8,0.8,1.3,1.7,1.8,2.7c0.4,1,0.6,2.1,0.6,3.3
			C-356.5,1237.6-356.7,1238.7-357.1,1239.7z M-359.9,1234.2c-0.3-0.7-0.7-1.3-1.2-1.9c-0.5-0.5-1.1-1-1.8-1.3
			c-0.7-0.3-1.4-0.5-2.3-0.5c-0.8,0-1.6,0.2-2.3,0.5c-0.7,0.3-1.3,0.7-1.8,1.2s-0.9,1.1-1.1,1.9c-0.3,0.7-0.4,1.5-0.4,2.3
			s0.1,1.6,0.4,2.3c0.3,0.7,0.7,1.3,1.2,1.9c0.5,0.5,1.1,1,1.8,1.3c0.7,0.3,1.4,0.5,2.3,0.5c0.8,0,1.6-0.2,2.3-0.5
			c0.7-0.3,1.3-0.7,1.8-1.3c0.5-0.5,0.9-1.1,1.1-1.9c0.3-0.7,0.4-1.5,0.4-2.3C-359.5,1235.6-359.7,1234.9-359.9,1234.2z"/>
		<path class="st0" d="M-338.3,1237.5c0,1.2-0.2,2.3-0.5,3.2c-0.3,0.9-0.8,1.7-1.4,2.3s-1.4,1.1-2.2,1.4c-0.9,0.3-1.8,0.5-2.9,0.5
			s-2-0.2-2.9-0.5s-1.6-0.8-2.2-1.4c-0.6-0.6-1.1-1.4-1.4-2.3c-0.3-0.9-0.5-2-0.5-3.1v-9.5h2.9v9.4c0,1.5,0.4,2.7,1.1,3.5
			c0.7,0.8,1.8,1.2,3.1,1.2c1.3,0,2.3-0.4,3.1-1.2c0.7-0.8,1.1-1.9,1.1-3.4v-9.5h2.9v9.4H-338.3z"/>
		<path class="st0" d="M-322.8,1244.7l-4.1-5.8h-3.6v5.8h-2.9v-16.5h7.4c0.9,0,1.8,0.1,2.6,0.4c0.8,0.2,1.4,0.6,1.9,1
			c0.5,0.4,0.9,1,1.2,1.6c0.3,0.7,0.4,1.4,0.4,2.2c0,0.7-0.1,1.3-0.3,1.8c-0.2,0.5-0.5,1-0.8,1.4c-0.3,0.4-0.8,0.8-1.2,1.1
			c-0.5,0.3-1,0.5-1.6,0.7l4.5,6.2L-322.8,1244.7L-322.8,1244.7z M-323.7,1231.5c-0.6-0.5-1.4-0.7-2.5-0.7h-4.2v5.6h4.3
			c1,0,1.9-0.3,2.5-0.8s0.9-1.2,0.9-2C-322.8,1232.6-323.1,1232-323.7,1231.5z"/>
		<path class="st0" d="M-296.1,1228.2h3.1l-6.9,16.6h-2.5l-6.9-16.6h3.2l5,12.7L-296.1,1228.2z"/>
		<path class="st0" d="M-275.5,1244.7h-3.1l-1.7-4h-7.7l-1.7,4h-3l7.3-16.6h2.7L-275.5,1244.7z M-284.2,1231.5l-2.8,6.6h5.7
			L-284.2,1231.5z"/>
		<path class="st0" d="M-259.8,1236.2c-0.3,0.7-0.8,1.3-1.4,1.8s-1.3,0.8-2.1,1.1c-0.8,0.2-1.7,0.4-2.6,0.4h-3.3v5.3h-2.8v-16.5h6.5
			c1,0,1.8,0.1,2.6,0.4c0.8,0.3,1.4,0.6,2,1.1c0.5,0.5,1,1.1,1.2,1.7c0.3,0.7,0.4,1.4,0.4,2.3
			C-259.3,1234.6-259.4,1235.5-259.8,1236.2z M-263.2,1231.5c-0.6-0.5-1.5-0.7-2.6-0.7h-3.4v6h3.4c1.1,0,2-0.3,2.6-0.8s1-1.3,1-2.2
			C-262.2,1232.8-262.5,1232-263.2,1231.5z"/>
		<path class="st0" d="M-239.6,1239.7c-0.4,1-1,1.9-1.8,2.7s-1.7,1.4-2.7,1.8c-1.1,0.5-2.2,0.7-3.5,0.7s-2.4-0.2-3.5-0.7
			c-1.1-0.4-2-1.1-2.7-1.8c-0.8-0.8-1.3-1.7-1.8-2.7s-0.6-2.1-0.6-3.3s0.2-2.3,0.6-3.3s1-1.9,1.8-2.7s1.7-1.4,2.7-1.8
			c1.1-0.5,2.2-0.7,3.5-0.7s2.4,0.2,3.5,0.7c1.1,0.4,2,1.1,2.7,1.8c0.8,0.8,1.3,1.7,1.8,2.7c0.4,1,0.6,2.1,0.6,3.3
			C-238.9,1237.6-239.1,1238.7-239.6,1239.7z M-242.4,1234.2c-0.3-0.7-0.7-1.3-1.2-1.9c-0.5-0.5-1.1-1-1.8-1.3
			c-0.7-0.3-1.4-0.5-2.3-0.5s-1.6,0.2-2.3,0.5c-0.7,0.3-1.3,0.7-1.8,1.2s-0.9,1.1-1.1,1.9c-0.3,0.7-0.4,1.5-0.4,2.3s0.1,1.6,0.4,2.3
			c0.3,0.7,0.7,1.3,1.2,1.9c0.5,0.5,1.1,1,1.8,1.3c0.7,0.3,1.4,0.5,2.3,0.5c0.8,0,1.6-0.2,2.3-0.5c0.7-0.3,1.3-0.7,1.8-1.3
			c0.5-0.5,0.9-1.1,1.1-1.9c0.3-0.7,0.4-1.5,0.4-2.3C-242,1235.6-242.1,1234.9-242.4,1234.2z"/>
		<path class="st0" d="M-228.4,1244.7h-2.9v-13.8h-5.2v-2.7h13.4v2.7h-5.2L-228.4,1244.7L-228.4,1244.7z"/>
		<path class="st0" d="M-207.4,1230.8h-9.3v4.2h8.3v2.6h-8.3v4.4h9.5v2.6h-12.3v-16.5h12.2v2.7H-207.4z"/>
		<path class="st0" d="M-189.2,1237.5c0,1.2-0.2,2.3-0.5,3.2c-0.3,0.9-0.8,1.7-1.4,2.3s-1.4,1.1-2.2,1.4c-0.9,0.3-1.8,0.5-2.9,0.5
			s-2-0.2-2.9-0.5s-1.6-0.8-2.2-1.4c-0.6-0.6-1.1-1.4-1.4-2.3c-0.3-0.9-0.5-2-0.5-3.1v-9.5h2.9v9.4c0,1.5,0.4,2.7,1.1,3.5
			c0.7,0.8,1.8,1.2,3.1,1.2c1.3,0,2.3-0.4,3.1-1.2c0.7-0.8,1.1-1.9,1.1-3.4v-9.5h2.9v9.4H-189.2z"/>
		<path class="st0" d="M-173.6,1244.7l-4.1-5.8h-3.6v5.8h-2.9v-16.5h7.4c0.9,0,1.8,0.1,2.6,0.4c0.8,0.2,1.4,0.6,1.9,1
			c0.5,0.4,0.9,1,1.2,1.6c0.3,0.7,0.4,1.4,0.4,2.2c0,0.7-0.1,1.3-0.3,1.8c-0.2,0.5-0.5,1-0.8,1.4c-0.3,0.4-0.8,0.8-1.2,1.1
			c-0.5,0.3-1,0.5-1.6,0.7l4.5,6.2L-173.6,1244.7L-173.6,1244.7z M-174.6,1231.5c-0.6-0.5-1.4-0.7-2.5-0.7h-4.2v5.6h4.3
			c1,0,1.9-0.3,2.5-0.8s0.9-1.2,0.9-2C-173.7,1232.6-174,1232-174.6,1231.5z"/>
		<path class="st0" d="M-163.9,1233.3c0.1,0.2,0.3,0.5,0.6,0.7c0.3,0.2,0.7,0.4,1.2,0.6c0.5,0.2,1.2,0.4,1.9,0.5
			c0.9,0.2,1.6,0.5,2.3,0.7c0.7,0.3,1.2,0.6,1.7,1c0.4,0.4,0.8,0.8,1,1.3s0.3,1.1,0.3,1.8c0,0.8-0.1,1.5-0.4,2.1
			c-0.3,0.6-0.7,1.1-1.2,1.6c-0.5,0.4-1.1,0.7-1.9,1c-0.7,0.2-1.5,0.3-2.4,0.3c-1.3,0-2.5-0.2-3.7-0.6s-2.2-1.1-3.2-2l1.7-2.1
			c0.8,0.7,1.6,1.2,2.4,1.6s1.7,0.6,2.8,0.6c0.9,0,1.6-0.2,2.1-0.6s0.8-0.9,0.8-1.5c0-0.3-0.1-0.6-0.2-0.8c-0.1-0.2-0.3-0.5-0.6-0.6
			c-0.3-0.2-0.7-0.4-1.1-0.6c-0.5-0.2-1.1-0.4-1.9-0.5c-0.9-0.2-1.7-0.4-2.4-0.7c-0.7-0.3-1.3-0.6-1.7-0.9c-0.5-0.4-0.8-0.8-1.1-1.4
			c-0.2-0.5-0.4-1.2-0.4-2c0-0.7,0.1-1.4,0.4-2s0.7-1.1,1.2-1.5s1.1-0.7,1.8-1c0.7-0.2,1.4-0.3,2.3-0.3c1.2,0,2.3,0.2,3.3,0.5
			c1,0.4,1.9,0.9,2.7,1.5l-1.6,2.2c-0.8-0.5-1.5-1-2.2-1.3c-0.7-0.3-1.5-0.4-2.2-0.4c-0.8,0-1.5,0.2-2,0.6c-0.5,0.4-0.7,0.9-0.7,1.4
			C-164.1,1232.8-164,1233.1-163.9,1233.3z"/>
	</g>
</g>
</svg>
